  0
SECTION
  2
HEADER
  9
$ACADVER
  1
AC1009
  9
$INSBASE
 10
0.0
 20
0.0
 30
0.0
  9
$EXTMIN
 10
0.0
 20
0.0
 30
0.0
  9
$EXTMAX
 10
0.0
 20
0.0
 30
0.0
  0
ENDSEC
  0
SECTION
  2
TABLES
  0
TABLE
  2
VPORT
 70
0
  0
ENDTAB
  0
TABLE
  2
LTYPE
 70
1
  0
LTYPE
  2
CONTINUOUS
 70
0
  3
Solid line
 72
65
 73
0
 40
0.0
  0
ENDTAB
  0
TABLE
  2
LAYER
 70
1
  0
LAYER
  2
PYDXF
 70
64
 62
7
  6
continuous
  0
ENDTAB
  0
TABLE
  2
STYLE
 70
1
  0
STYLE
  2
STANDARD
 70
0
 40
0
 41
1.0
 50
0.0
 71
0
 42
1
 3
ARIAL.TTF
 4

  0
ENDTAB
  0
TABLE
  2
VIEW
 70
0
  0
ENDTAB
  0
ENDSEC
  0
SECTION
  2
BLOCKS
  0
BLOCK
  8
0
  2
SHAPE
 70
0
 10
0.0
 20
0.0
 30
0.0
  3
SHAPE
  0
POLYLINE
  8
0
 62
0
 70
1
 66
1
 10
0.0
 20
0.0
 30
0.0
  0
VERTEX
  8
0
 10
-61.722
 20
41.402
  0
VERTEX
  8
0
 10
-61.722
 20
41.402
  0
VERTEX
  8
0
 10
61.722
 20
41.402
  0
VERTEX
  8
0
 10
61.722
 20
41.402
  0
SEQEND
  8
0
  0
POLYLINE
  8
0
 62
0
 70
1
 66
1
 10
0.0
 20
0.0
 30
0.0
  0
VERTEX
  8
0
 10
-61.722
 20
41.402
  0
VERTEX
  8
0
 10
-61.722
 20
41.402
  0
VERTEX
  8
0
 10
-66.802
 20
36.322
  0
VERTEX
  8
0
 10
-66.802
 20
36.322
  0
SEQEND
  8
0
  0
POLYLINE
  8
0
 62
0
 70
1
 66
1
 10
0.0
 20
0.0
 30
0.0
  0
VERTEX
  8
0
 10
66.802
 20
36.322
  0
VERTEX
  8
0
 10
66.802
 20
36.322
  0
VERTEX
  8
0
 10
61.722
 20
41.402
  0
VERTEX
  8
0
 10
61.722
 20
41.402
  0
SEQEND
  8
0
  0
POLYLINE
  8
0
 62
0
 70
1
 66
1
 10
0.0
 20
0.0
 30
0.0
  0
VERTEX
  8
0
 10
-61.722
 20
41.402
  0
VERTEX
  8
0
 10
61.722
 20
41.402
  0
VERTEX
  8
0
 10
66.802
 20
36.322
  0
VERTEX
  8
0
 10
73.152
 20
36.322
  0
VERTEX
  8
0
 10
73.152
 20
-36.322
  0
VERTEX
  8
0
 10
66.802
 20
-36.322
  0
VERTEX
  8
0
 10
61.722
 20
-41.402
  0
VERTEX
  8
0
 10
-61.722
 20
-41.402
  0
VERTEX
  8
0
 10
-66.802
 20
-36.322
  0
VERTEX
  8
0
 10
-66.802
 20
36.322
  0
SEQEND
  8
0
  0
CIRCLE
  8
0
 62
0
 10
8.89
 20
16.51
 30
-0.785
 40
0.3
  0
CIRCLE
  8
0
 62
0
 10
31.75
 20
-21.59
 30
-0.785
 40
0.7
  0
CIRCLE
  8
0
 62
0
 10
53.34
 20
8.89
 30
-0.785
 40
0.3
  0
CIRCLE
  8
0
 62
0
 10
33.02
 20
-7.62
 30
-0.785
 40
0.3
  0
CIRCLE
  8
0
 62
0
 10
27.94
 20
-21.59
 30
-0.785
 40
0.7
  0
CIRCLE
  8
0
 62
0
 10
-1.27
 20
12.7
 30
-0.785
 40
0.3
  0
CIRCLE
  8
0
 62
0
 10
0.0
 20
19.05
 30
-0.785
 40
0.3
  0
CIRCLE
  8
0
 62
0
 10
24.13
 20
-21.59
 30
-0.785
 40
0.7
  0
CIRCLE
  8
0
 62
0
 10
-1.27
 20
10.16
 30
-0.785
 40
0.3
  0
CIRCLE
  8
0
 62
0
 10
6.35
 20
8.89
 30
-0.785
 40
0.3
  0
CIRCLE
  8
0
 62
0
 10
37.5
 20
9.0932
 30
-0.785
 40
0.4
  0
CIRCLE
  8
0
 62
0
 10
37.5
 20
11.6332
 30
-0.785
 40
0.4
  0
CIRCLE
  8
0
 62
0
 10
37.5
 20
14.1732
 30
-0.785
 40
0.4
  0
CIRCLE
  8
0
 62
0
 10
37.5
 20
16.7132
 30
-0.785
 40
0.4
  0
CIRCLE
  8
0
 62
0
 10
37.5
 20
19.2532
 30
-0.785
 40
0.4
  0
CIRCLE
  8
0
 62
0
 10
37.5
 20
21.7932
 30
-0.785
 40
0.4
  0
CIRCLE
  8
0
 62
0
 10
37.5
 20
24.3332
 30
-0.785
 40
0.4
  0
CIRCLE
  8
0
 62
0
 10
37.5
 20
26.4832
 30
-0.785
 40
0.4
  0
CIRCLE
  8
0
 62
0
 10
-37.5
 20
9.0932
 30
-0.785
 40
0.4
  0
CIRCLE
  8
0
 62
0
 10
-37.5
 20
11.6332
 30
-0.785
 40
0.4
  0
CIRCLE
  8
0
 62
0
 10
-37.5
 20
14.1732
 30
-0.785
 40
0.4
  0
CIRCLE
  8
0
 62
0
 10
-37.5
 20
16.7132
 30
-0.785
 40
0.4
  0
CIRCLE
  8
0
 62
0
 10
-37.5
 20
19.2532
 30
-0.785
 40
0.4
  0
CIRCLE
  8
0
 62
0
 10
-37.5
 20
21.7932
 30
-0.785
 40
0.4
  0
CIRCLE
  8
0
 62
0
 10
-37.5
 20
24.3332
 30
-0.785
 40
0.4
  0
CIRCLE
  8
0
 62
0
 10
-37.5
 20
26.8732
 30
-0.785
 40
0.4
  0
CIRCLE
  8
0
 62
0
 10
64.77
 20
7.62
 30
-0.785
 40
0.5461
  0
CIRCLE
  8
0
 62
0
 10
64.77
 20
10.16
 30
-0.785
 40
0.5461
  0
CIRCLE
  8
0
 62
0
 10
64.77
 20
5.08
 30
-0.785
 40
0.5461
  0
CIRCLE
  8
0
 62
0
 10
-12.7
 20
-16.94
 30
-0.785
 40
2.8
  0
CIRCLE
  8
0
 62
0
 10
-12.7
 20
-26.24
 30
-0.785
 40
2.8
  0
CIRCLE
  8
0
 62
0
 10
-5.2
 20
-16.59
 30
-0.785
 40
0.55
  0
CIRCLE
  8
0
 62
0
 10
-5.2
 20
-21.59
 30
-0.785
 40
0.55
  0
CIRCLE
  8
0
 62
0
 10
-5.2
 20
-26.59
 30
-0.785
 40
0.55
  0
CIRCLE
  8
0
 62
0
 10
-19.7
 20
-19.09
 30
-0.785
 40
0.55
  0
CIRCLE
  8
0
 62
0
 10
-19.7
 20
-24.09
 30
-0.785
 40
0.55
  0
CIRCLE
  8
0
 62
0
 10
8.61
 20
-21.59
 30
-0.785
 40
1.0
  0
CIRCLE
  8
0
 62
0
 10
14.95
 20
-18.34
 30
-0.785
 40
0.5
  0
CIRCLE
  8
0
 62
0
 10
14.95
 20
-24.84
 30
-0.785
 40
0.5
  0
CIRCLE
  8
0
 62
0
 10
10.45
 20
-18.34
 30
-0.785
 40
0.5
  0
CIRCLE
  8
0
 62
0
 10
10.45
 20
-24.84
 30
-0.785
 40
0.5
  0
CIRCLE
  8
0
 62
0
 10
29.21
 20
22.86
 30
-0.785
 40
0.4064
  0
CIRCLE
  8
0
 62
0
 10
29.21
 20
17.78
 30
-0.785
 40
0.4064
  0
CIRCLE
  8
0
 62
0
 10
24.13
 20
20.32
 30
-0.785
 40
0.4064
  0
CIRCLE
  8
0
 62
0
 10
6.35
 20
27.94
 30
-0.785
 40
0.45
  0
CIRCLE
  8
0
 62
0
 10
6.35
 20
25.4
 30
-0.785
 40
0.45
  0
CIRCLE
  8
0
 62
0
 10
8.89
 20
25.4
 30
-0.785
 40
0.45
  0
CIRCLE
  8
0
 62
0
 10
8.89
 20
27.94
 30
-0.785
 40
0.45
  0
CIRCLE
  8
0
 62
0
 10
3.81
 20
27.94
 30
-0.785
 40
0.45
  0
CIRCLE
  8
0
 62
0
 10
3.81
 20
25.4
 30
-0.785
 40
0.45
  0
CIRCLE
  8
0
 62
0
 10
-60.452
 20
35.0012
 30
-0.785
 40
2.8
  0
CIRCLE
  8
0
 62
0
 10
60.452
 20
35.0012
 30
-0.785
 40
2.8
  0
CIRCLE
  8
0
 62
0
 10
60.452
 20
-35.0012
 30
-0.785
 40
2.8
  0
CIRCLE
  8
0
 62
0
 10
-60.452
 20
-35.0012
 30
-0.785
 40
2.8
  0
CIRCLE
  8
0
 62
0
 10
48.2092
 20
26.924
 30
-0.785
 40
0.4064
  0
CIRCLE
  8
0
 62
0
 10
45.6692
 20
26.924
 30
-0.785
 40
0.4064
  0
CIRCLE
  8
0
 62
0
 10
48.514
 20
8.9408
 30
-0.785
 40
0.4064
  0
CIRCLE
  8
0
 62
0
 10
45.974
 20
8.9408
 30
-0.785
 40
0.4064
  0
CIRCLE
  8
0
 62
0
 10
70.358
 20
-7.62
 30
-0.785
 40
1.4
  0
CIRCLE
  8
0
 62
0
 10
64.262
 20
-7.62
 30
-0.785
 40
1.4
  0
CIRCLE
  8
0
 62
0
 10
67.31
 20
-2.794
 30
-0.785
 40
1.4
  0
POLYLINE
  8
0
 62
0
 70
1
 66
1
 10
0.0
 20
0.0
 30
0.0
  0
VERTEX
  8
0
 10
-61.722
 20
41.402
  0
VERTEX
  8
0
 10
61.722
 20
41.402
  0
VERTEX
  8
0
 10
66.802
 20
36.322
  0
VERTEX
  8
0
 10
73.152
 20
36.322
  0
VERTEX
  8
0
 10
73.152
 20
-36.322
  0
VERTEX
  8
0
 10
66.802
 20
-36.322
  0
VERTEX
  8
0
 10
61.722
 20
-41.402
  0
VERTEX
  8
0
 10
-61.722
 20
-41.402
  0
VERTEX
  8
0
 10
-66.802
 20
-36.322
  0
VERTEX
  8
0
 10
-66.802
 20
36.322
  0
SEQEND
  8
0
  0
CIRCLE
  8
0
 62
0
 10
8.89
 20
16.51
 30
0.785
 40
0.3
  0
CIRCLE
  8
0
 62
0
 10
31.75
 20
-21.59
 30
0.785
 40
0.7
  0
CIRCLE
  8
0
 62
0
 10
53.34
 20
8.89
 30
0.785
 40
0.3
  0
CIRCLE
  8
0
 62
0
 10
33.02
 20
-7.62
 30
0.785
 40
0.3
  0
CIRCLE
  8
0
 62
0
 10
27.94
 20
-21.59
 30
0.785
 40
0.7
  0
CIRCLE
  8
0
 62
0
 10
-1.27
 20
12.7
 30
0.785
 40
0.3
  0
CIRCLE
  8
0
 62
0
 10
0.0
 20
19.05
 30
0.785
 40
0.3
  0
CIRCLE
  8
0
 62
0
 10
24.13
 20
-21.59
 30
0.785
 40
0.7
  0
CIRCLE
  8
0
 62
0
 10
-1.27
 20
10.16
 30
0.785
 40
0.3
  0
CIRCLE
  8
0
 62
0
 10
6.35
 20
8.89
 30
0.785
 40
0.3
  0
CIRCLE
  8
0
 62
0
 10
37.5
 20
9.0932
 30
0.785
 40
0.4
  0
CIRCLE
  8
0
 62
0
 10
37.5
 20
11.6332
 30
0.785
 40
0.4
  0
CIRCLE
  8
0
 62
0
 10
37.5
 20
14.1732
 30
0.785
 40
0.4
  0
CIRCLE
  8
0
 62
0
 10
37.5
 20
16.7132
 30
0.785
 40
0.4
  0
CIRCLE
  8
0
 62
0
 10
37.5
 20
19.2532
 30
0.785
 40
0.4
  0
CIRCLE
  8
0
 62
0
 10
37.5
 20
21.7932
 30
0.785
 40
0.4
  0
CIRCLE
  8
0
 62
0
 10
37.5
 20
24.3332
 30
0.785
 40
0.4
  0
CIRCLE
  8
0
 62
0
 10
37.5
 20
26.4832
 30
0.785
 40
0.4
  0
CIRCLE
  8
0
 62
0
 10
-37.5
 20
9.0932
 30
0.785
 40
0.4
  0
CIRCLE
  8
0
 62
0
 10
-37.5
 20
11.6332
 30
0.785
 40
0.4
  0
CIRCLE
  8
0
 62
0
 10
-37.5
 20
14.1732
 30
0.785
 40
0.4
  0
CIRCLE
  8
0
 62
0
 10
-37.5
 20
16.7132
 30
0.785
 40
0.4
  0
CIRCLE
  8
0
 62
0
 10
-37.5
 20
19.2532
 30
0.785
 40
0.4
  0
CIRCLE
  8
0
 62
0
 10
-37.5
 20
21.7932
 30
0.785
 40
0.4
  0
CIRCLE
  8
0
 62
0
 10
-37.5
 20
24.3332
 30
0.785
 40
0.4
  0
CIRCLE
  8
0
 62
0
 10
-37.5
 20
26.8732
 30
0.785
 40
0.4
  0
CIRCLE
  8
0
 62
0
 10
64.77
 20
7.62
 30
0.785
 40
0.5461
  0
CIRCLE
  8
0
 62
0
 10
64.77
 20
10.16
 30
0.785
 40
0.5461
  0
CIRCLE
  8
0
 62
0
 10
64.77
 20
5.08
 30
0.785
 40
0.5461
  0
CIRCLE
  8
0
 62
0
 10
-12.7
 20
-16.94
 30
0.785
 40
2.8
  0
CIRCLE
  8
0
 62
0
 10
-12.7
 20
-26.24
 30
0.785
 40
2.8
  0
CIRCLE
  8
0
 62
0
 10
-5.2
 20
-16.59
 30
0.785
 40
0.55
  0
CIRCLE
  8
0
 62
0
 10
-5.2
 20
-21.59
 30
0.785
 40
0.55
  0
CIRCLE
  8
0
 62
0
 10
-5.2
 20
-26.59
 30
0.785
 40
0.55
  0
CIRCLE
  8
0
 62
0
 10
-19.7
 20
-19.09
 30
0.785
 40
0.55
  0
CIRCLE
  8
0
 62
0
 10
-19.7
 20
-24.09
 30
0.785
 40
0.55
  0
CIRCLE
  8
0
 62
0
 10
8.61
 20
-21.59
 30
0.785
 40
1.0
  0
CIRCLE
  8
0
 62
0
 10
14.95
 20
-18.34
 30
0.785
 40
0.5
  0
CIRCLE
  8
0
 62
0
 10
14.95
 20
-24.84
 30
0.785
 40
0.5
  0
CIRCLE
  8
0
 62
0
 10
10.45
 20
-18.34
 30
0.785
 40
0.5
  0
CIRCLE
  8
0
 62
0
 10
10.45
 20
-24.84
 30
0.785
 40
0.5
  0
CIRCLE
  8
0
 62
0
 10
29.21
 20
22.86
 30
0.785
 40
0.4064
  0
CIRCLE
  8
0
 62
0
 10
29.21
 20
17.78
 30
0.785
 40
0.4064
  0
CIRCLE
  8
0
 62
0
 10
24.13
 20
20.32
 30
0.785
 40
0.4064
  0
CIRCLE
  8
0
 62
0
 10
6.35
 20
27.94
 30
0.785
 40
0.45
  0
CIRCLE
  8
0
 62
0
 10
6.35
 20
25.4
 30
0.785
 40
0.45
  0
CIRCLE
  8
0
 62
0
 10
8.89
 20
25.4
 30
0.785
 40
0.45
  0
CIRCLE
  8
0
 62
0
 10
8.89
 20
27.94
 30
0.785
 40
0.45
  0
CIRCLE
  8
0
 62
0
 10
3.81
 20
27.94
 30
0.785
 40
0.45
  0
CIRCLE
  8
0
 62
0
 10
3.81
 20
25.4
 30
0.785
 40
0.45
  0
CIRCLE
  8
0
 62
0
 10
-60.452
 20
35.0012
 30
0.785
 40
2.8
  0
CIRCLE
  8
0
 62
0
 10
60.452
 20
35.0012
 30
0.785
 40
2.8
  0
CIRCLE
  8
0
 62
0
 10
60.452
 20
-35.0012
 30
0.785
 40
2.8
  0
CIRCLE
  8
0
 62
0
 10
-60.452
 20
-35.0012
 30
0.785
 40
2.8
  0
CIRCLE
  8
0
 62
0
 10
48.2092
 20
26.924
 30
0.785
 40
0.4064
  0
CIRCLE
  8
0
 62
0
 10
45.6692
 20
26.924
 30
0.785
 40
0.4064
  0
CIRCLE
  8
0
 62
0
 10
48.514
 20
8.9408
 30
0.785
 40
0.4064
  0
CIRCLE
  8
0
 62
0
 10
45.974
 20
8.9408
 30
0.785
 40
0.4064
  0
CIRCLE
  8
0
 62
0
 10
70.358
 20
-7.62
 30
0.785
 40
1.4
  0
CIRCLE
  8
0
 62
0
 10
64.262
 20
-7.62
 30
0.785
 40
1.4
  0
CIRCLE
  8
0
 62
0
 10
67.31
 20
-2.794
 30
0.785
 40
1.4
  0
POLYLINE
  8
0
 62
0
 70
1
 66
1
 10
0.0
 20
0.0
 30
0.0
  0
VERTEX
  8
0
 10
-66.802
 20
-36.322
  0
VERTEX
  8
0
 10
-66.802
 20
-36.322
  0
VERTEX
  8
0
 10
-66.802
 20
36.322
  0
VERTEX
  8
0
 10
-66.802
 20
36.322
  0
SEQEND
  8
0
  0
POLYLINE
  8
0
 62
0
 70
1
 66
1
 10
0.0
 20
0.0
 30
0.0
  0
VERTEX
  8
0
 10
73.152
 20
36.322
  0
VERTEX
  8
0
 10
73.152
 20
36.322
  0
VERTEX
  8
0
 10
66.802
 20
36.322
  0
VERTEX
  8
0
 10
66.802
 20
36.322
  0
SEQEND
  8
0
  0
POLYLINE
  8
0
 62
0
 70
1
 66
1
 10
0.0
 20
0.0
 30
0.0
  0
VERTEX
  8
0
 10
-61.722
 20
-41.402
  0
VERTEX
  8
0
 10
-61.722
 20
-41.402
  0
VERTEX
  8
0
 10
-66.802
 20
-36.322
  0
VERTEX
  8
0
 10
-66.802
 20
-36.322
  0
SEQEND
  8
0
  0
POLYLINE
  8
0
 62
0
 70
1
 66
1
 10
0.0
 20
0.0
 30
0.0
  0
VERTEX
  8
0
 10
73.152
 20
36.322
  0
VERTEX
  8
0
 10
73.152
 20
36.322
  0
VERTEX
  8
0
 10
73.152
 20
-36.322
  0
VERTEX
  8
0
 10
73.152
 20
-36.322
  0
SEQEND
  8
0
  0
POLYLINE
  8
0
 62
0
 70
1
 66
1
 10
0.0
 20
0.0
 30
0.0
  0
VERTEX
  8
0
 10
-61.722
 20
-41.402
  0
VERTEX
  8
0
 10
-61.722
 20
-41.402
  0
VERTEX
  8
0
 10
61.722
 20
-41.402
  0
VERTEX
  8
0
 10
61.722
 20
-41.402
  0
SEQEND
  8
0
  0
POLYLINE
  8
0
 62
0
 70
1
 66
1
 10
0.0
 20
0.0
 30
0.0
  0
VERTEX
  8
0
 10
73.152
 20
-36.322
  0
VERTEX
  8
0
 10
73.152
 20
-36.322
  0
VERTEX
  8
0
 10
66.802
 20
-36.322
  0
VERTEX
  8
0
 10
66.802
 20
-36.322
  0
SEQEND
  8
0
  0
POLYLINE
  8
0
 62
0
 70
1
 66
1
 10
0.0
 20
0.0
 30
0.0
  0
VERTEX
  8
0
 10
61.722
 20
-41.402
  0
VERTEX
  8
0
 10
61.722
 20
-41.402
  0
VERTEX
  8
0
 10
66.802
 20
-36.322
  0
VERTEX
  8
0
 10
66.802
 20
-36.322
  0
SEQEND
  8
0
  0
POLYLINE
  8
0
 62
0
 70
0
 66
1
 10
0.0
 20
0.0
 30
0.0
  0
VERTEX
  8
0
 10
9.19
 20
16.51
  0
VERTEX
  8
0
 10
9.19
 20
16.51
  0
VERTEX
  8
0
 10
9.19
 20
16.51
  0
SEQEND
  8
0
  0
POLYLINE
  8
0
 62
0
 70
0
 66
1
 10
0.0
 20
0.0
 30
0.0
  0
VERTEX
  8
0
 10
32.45
 20
-21.59
  0
VERTEX
  8
0
 10
32.45
 20
-21.59
  0
VERTEX
  8
0
 10
32.45
 20
-21.59
  0
SEQEND
  8
0
  0
POLYLINE
  8
0
 62
0
 70
0
 66
1
 10
0.0
 20
0.0
 30
0.0
  0
VERTEX
  8
0
 10
53.64
 20
8.89
  0
VERTEX
  8
0
 10
53.64
 20
8.89
  0
VERTEX
  8
0
 10
53.64
 20
8.89
  0
SEQEND
  8
0
  0
POLYLINE
  8
0
 62
0
 70
0
 66
1
 10
0.0
 20
0.0
 30
0.0
  0
VERTEX
  8
0
 10
33.32
 20
-7.62
  0
VERTEX
  8
0
 10
33.32
 20
-7.62
  0
VERTEX
  8
0
 10
33.32
 20
-7.62
  0
SEQEND
  8
0
  0
POLYLINE
  8
0
 62
0
 70
0
 66
1
 10
0.0
 20
0.0
 30
0.0
  0
VERTEX
  8
0
 10
28.64
 20
-21.59
  0
VERTEX
  8
0
 10
28.64
 20
-21.59
  0
VERTEX
  8
0
 10
28.64
 20
-21.59
  0
SEQEND
  8
0
  0
POLYLINE
  8
0
 62
0
 70
0
 66
1
 10
0.0
 20
0.0
 30
0.0
  0
VERTEX
  8
0
 10
-0.97
 20
12.7
  0
VERTEX
  8
0
 10
-0.97
 20
12.7
  0
VERTEX
  8
0
 10
-0.97
 20
12.7
  0
SEQEND
  8
0
  0
POLYLINE
  8
0
 62
0
 70
0
 66
1
 10
0.0
 20
0.0
 30
0.0
  0
VERTEX
  8
0
 10
0.3
 20
19.05
  0
VERTEX
  8
0
 10
0.3
 20
19.05
  0
VERTEX
  8
0
 10
0.3
 20
19.05
  0
SEQEND
  8
0
  0
POLYLINE
  8
0
 62
0
 70
0
 66
1
 10
0.0
 20
0.0
 30
0.0
  0
VERTEX
  8
0
 10
24.83
 20
-21.59
  0
VERTEX
  8
0
 10
24.83
 20
-21.59
  0
VERTEX
  8
0
 10
24.83
 20
-21.59
  0
SEQEND
  8
0
  0
POLYLINE
  8
0
 62
0
 70
0
 66
1
 10
0.0
 20
0.0
 30
0.0
  0
VERTEX
  8
0
 10
-0.97
 20
10.16
  0
VERTEX
  8
0
 10
-0.97
 20
10.16
  0
VERTEX
  8
0
 10
-0.97
 20
10.16
  0
SEQEND
  8
0
  0
POLYLINE
  8
0
 62
0
 70
0
 66
1
 10
0.0
 20
0.0
 30
0.0
  0
VERTEX
  8
0
 10
6.65
 20
8.89
  0
VERTEX
  8
0
 10
6.65
 20
8.89
  0
VERTEX
  8
0
 10
6.65
 20
8.89
  0
SEQEND
  8
0
  0
POLYLINE
  8
0
 62
0
 70
0
 66
1
 10
0.0
 20
0.0
 30
0.0
  0
VERTEX
  8
0
 10
37.1
 20
9.0932
  0
VERTEX
  8
0
 10
37.1
 20
9.0932
  0
VERTEX
  8
0
 10
37.1
 20
9.0932
  0
SEQEND
  8
0
  0
POLYLINE
  8
0
 62
0
 70
0
 66
1
 10
0.0
 20
0.0
 30
0.0
  0
VERTEX
  8
0
 10
37.1
 20
11.6332
  0
VERTEX
  8
0
 10
37.1
 20
11.6332
  0
VERTEX
  8
0
 10
37.1
 20
11.6332
  0
SEQEND
  8
0
  0
POLYLINE
  8
0
 62
0
 70
0
 66
1
 10
0.0
 20
0.0
 30
0.0
  0
VERTEX
  8
0
 10
37.1
 20
14.1732
  0
VERTEX
  8
0
 10
37.1
 20
14.1732
  0
VERTEX
  8
0
 10
37.1
 20
14.1732
  0
SEQEND
  8
0
  0
POLYLINE
  8
0
 62
0
 70
0
 66
1
 10
0.0
 20
0.0
 30
0.0
  0
VERTEX
  8
0
 10
37.1
 20
16.7132
  0
VERTEX
  8
0
 10
37.1
 20
16.7132
  0
VERTEX
  8
0
 10
37.1
 20
16.7132
  0
SEQEND
  8
0
  0
POLYLINE
  8
0
 62
0
 70
0
 66
1
 10
0.0
 20
0.0
 30
0.0
  0
VERTEX
  8
0
 10
37.1
 20
19.2532
  0
VERTEX
  8
0
 10
37.1
 20
19.2532
  0
VERTEX
  8
0
 10
37.1
 20
19.2532
  0
SEQEND
  8
0
  0
POLYLINE
  8
0
 62
0
 70
0
 66
1
 10
0.0
 20
0.0
 30
0.0
  0
VERTEX
  8
0
 10
37.1
 20
21.7932
  0
VERTEX
  8
0
 10
37.1
 20
21.7932
  0
VERTEX
  8
0
 10
37.1
 20
21.7932
  0
SEQEND
  8
0
  0
POLYLINE
  8
0
 62
0
 70
0
 66
1
 10
0.0
 20
0.0
 30
0.0
  0
VERTEX
  8
0
 10
37.1
 20
24.3332
  0
VERTEX
  8
0
 10
37.1
 20
24.3332
  0
VERTEX
  8
0
 10
37.1
 20
24.3332
  0
SEQEND
  8
0
  0
POLYLINE
  8
0
 62
0
 70
0
 66
1
 10
0.0
 20
0.0
 30
0.0
  0
VERTEX
  8
0
 10
37.1
 20
26.4832
  0
VERTEX
  8
0
 10
37.1
 20
26.4832
  0
VERTEX
  8
0
 10
37.1
 20
26.4832
  0
SEQEND
  8
0
  0
POLYLINE
  8
0
 62
0
 70
0
 66
1
 10
0.0
 20
0.0
 30
0.0
  0
VERTEX
  8
0
 10
-37.9
 20
9.0932
  0
VERTEX
  8
0
 10
-37.9
 20
9.0932
  0
VERTEX
  8
0
 10
-37.9
 20
9.0932
  0
SEQEND
  8
0
  0
POLYLINE
  8
0
 62
0
 70
0
 66
1
 10
0.0
 20
0.0
 30
0.0
  0
VERTEX
  8
0
 10
-37.9
 20
11.6332
  0
VERTEX
  8
0
 10
-37.9
 20
11.6332
  0
VERTEX
  8
0
 10
-37.9
 20
11.6332
  0
SEQEND
  8
0
  0
POLYLINE
  8
0
 62
0
 70
0
 66
1
 10
0.0
 20
0.0
 30
0.0
  0
VERTEX
  8
0
 10
-37.9
 20
14.1732
  0
VERTEX
  8
0
 10
-37.9
 20
14.1732
  0
VERTEX
  8
0
 10
-37.9
 20
14.1732
  0
SEQEND
  8
0
  0
POLYLINE
  8
0
 62
0
 70
0
 66
1
 10
0.0
 20
0.0
 30
0.0
  0
VERTEX
  8
0
 10
-37.9
 20
16.7132
  0
VERTEX
  8
0
 10
-37.9
 20
16.7132
  0
VERTEX
  8
0
 10
-37.9
 20
16.7132
  0
SEQEND
  8
0
  0
POLYLINE
  8
0
 62
0
 70
0
 66
1
 10
0.0
 20
0.0
 30
0.0
  0
VERTEX
  8
0
 10
-37.9
 20
19.2532
  0
VERTEX
  8
0
 10
-37.9
 20
19.2532
  0
VERTEX
  8
0
 10
-37.9
 20
19.2532
  0
SEQEND
  8
0
  0
POLYLINE
  8
0
 62
0
 70
0
 66
1
 10
0.0
 20
0.0
 30
0.0
  0
VERTEX
  8
0
 10
-37.9
 20
21.7932
  0
VERTEX
  8
0
 10
-37.9
 20
21.7932
  0
VERTEX
  8
0
 10
-37.9
 20
21.7932
  0
SEQEND
  8
0
  0
POLYLINE
  8
0
 62
0
 70
0
 66
1
 10
0.0
 20
0.0
 30
0.0
  0
VERTEX
  8
0
 10
-37.9
 20
24.3332
  0
VERTEX
  8
0
 10
-37.9
 20
24.3332
  0
VERTEX
  8
0
 10
-37.9
 20
24.3332
  0
SEQEND
  8
0
  0
POLYLINE
  8
0
 62
0
 70
0
 66
1
 10
0.0
 20
0.0
 30
0.0
  0
VERTEX
  8
0
 10
-37.9
 20
26.8732
  0
VERTEX
  8
0
 10
-37.9
 20
26.8732
  0
VERTEX
  8
0
 10
-37.9
 20
26.8732
  0
SEQEND
  8
0
  0
POLYLINE
  8
0
 62
0
 70
0
 66
1
 10
0.0
 20
0.0
 30
0.0
  0
VERTEX
  8
0
 10
64.77
 20
7.0739
  0
VERTEX
  8
0
 10
64.77
 20
7.0739
  0
VERTEX
  8
0
 10
64.77
 20
7.0739
  0
SEQEND
  8
0
  0
POLYLINE
  8
0
 62
0
 70
0
 66
1
 10
0.0
 20
0.0
 30
0.0
  0
VERTEX
  8
0
 10
64.77
 20
9.6139
  0
VERTEX
  8
0
 10
64.77
 20
9.6139
  0
VERTEX
  8
0
 10
64.77
 20
9.6139
  0
SEQEND
  8
0
  0
POLYLINE
  8
0
 62
0
 70
0
 66
1
 10
0.0
 20
0.0
 30
0.0
  0
VERTEX
  8
0
 10
64.77
 20
4.5339
  0
VERTEX
  8
0
 10
64.77
 20
4.5339
  0
VERTEX
  8
0
 10
64.77
 20
4.5339
  0
SEQEND
  8
0
  0
POLYLINE
  8
0
 62
0
 70
0
 66
1
 10
0.0
 20
0.0
 30
0.0
  0
VERTEX
  8
0
 10
-12.7
 20
-19.74
  0
VERTEX
  8
0
 10
-12.7
 20
-19.74
  0
VERTEX
  8
0
 10
-12.7
 20
-19.74
  0
SEQEND
  8
0
  0
POLYLINE
  8
0
 62
0
 70
0
 66
1
 10
0.0
 20
0.0
 30
0.0
  0
VERTEX
  8
0
 10
-12.7
 20
-29.04
  0
VERTEX
  8
0
 10
-12.7
 20
-29.04
  0
VERTEX
  8
0
 10
-12.7
 20
-29.04
  0
SEQEND
  8
0
  0
POLYLINE
  8
0
 62
0
 70
0
 66
1
 10
0.0
 20
0.0
 30
0.0
  0
VERTEX
  8
0
 10
-5.2
 20
-17.14
  0
VERTEX
  8
0
 10
-5.2
 20
-17.14
  0
VERTEX
  8
0
 10
-5.2
 20
-17.14
  0
SEQEND
  8
0
  0
POLYLINE
  8
0
 62
0
 70
0
 66
1
 10
0.0
 20
0.0
 30
0.0
  0
VERTEX
  8
0
 10
-5.2
 20
-22.14
  0
VERTEX
  8
0
 10
-5.2
 20
-22.14
  0
VERTEX
  8
0
 10
-5.2
 20
-22.14
  0
SEQEND
  8
0
  0
POLYLINE
  8
0
 62
0
 70
0
 66
1
 10
0.0
 20
0.0
 30
0.0
  0
VERTEX
  8
0
 10
-5.2
 20
-27.14
  0
VERTEX
  8
0
 10
-5.2
 20
-27.14
  0
VERTEX
  8
0
 10
-5.2
 20
-27.14
  0
SEQEND
  8
0
  0
POLYLINE
  8
0
 62
0
 70
0
 66
1
 10
0.0
 20
0.0
 30
0.0
  0
VERTEX
  8
0
 10
-19.7
 20
-19.64
  0
VERTEX
  8
0
 10
-19.7
 20
-19.64
  0
VERTEX
  8
0
 10
-19.7
 20
-19.64
  0
SEQEND
  8
0
  0
POLYLINE
  8
0
 62
0
 70
0
 66
1
 10
0.0
 20
0.0
 30
0.0
  0
VERTEX
  8
0
 10
-19.7
 20
-24.64
  0
VERTEX
  8
0
 10
-19.7
 20
-24.64
  0
VERTEX
  8
0
 10
-19.7
 20
-24.64
  0
SEQEND
  8
0
  0
POLYLINE
  8
0
 62
0
 70
0
 66
1
 10
0.0
 20
0.0
 30
0.0
  0
VERTEX
  8
0
 10
7.61
 20
-21.59
  0
VERTEX
  8
0
 10
7.61
 20
-21.59
  0
VERTEX
  8
0
 10
7.61
 20
-21.59
  0
SEQEND
  8
0
  0
POLYLINE
  8
0
 62
0
 70
0
 66
1
 10
0.0
 20
0.0
 30
0.0
  0
VERTEX
  8
0
 10
14.45
 20
-18.34
  0
VERTEX
  8
0
 10
14.45
 20
-18.34
  0
VERTEX
  8
0
 10
14.45
 20
-18.34
  0
SEQEND
  8
0
  0
POLYLINE
  8
0
 62
0
 70
0
 66
1
 10
0.0
 20
0.0
 30
0.0
  0
VERTEX
  8
0
 10
14.45
 20
-24.84
  0
VERTEX
  8
0
 10
14.45
 20
-24.84
  0
VERTEX
  8
0
 10
14.45
 20
-24.84
  0
SEQEND
  8
0
  0
POLYLINE
  8
0
 62
0
 70
0
 66
1
 10
0.0
 20
0.0
 30
0.0
  0
VERTEX
  8
0
 10
9.95
 20
-18.34
  0
VERTEX
  8
0
 10
9.95
 20
-18.34
  0
VERTEX
  8
0
 10
9.95
 20
-18.34
  0
SEQEND
  8
0
  0
POLYLINE
  8
0
 62
0
 70
0
 66
1
 10
0.0
 20
0.0
 30
0.0
  0
VERTEX
  8
0
 10
9.95
 20
-24.84
  0
VERTEX
  8
0
 10
9.95
 20
-24.84
  0
VERTEX
  8
0
 10
9.95
 20
-24.84
  0
SEQEND
  8
0
  0
POLYLINE
  8
0
 62
0
 70
0
 66
1
 10
0.0
 20
0.0
 30
0.0
  0
VERTEX
  8
0
 10
29.21
 20
22.4536
  0
VERTEX
  8
0
 10
29.21
 20
22.4536
  0
VERTEX
  8
0
 10
29.21
 20
22.4536
  0
SEQEND
  8
0
  0
POLYLINE
  8
0
 62
0
 70
0
 66
1
 10
0.0
 20
0.0
 30
0.0
  0
VERTEX
  8
0
 10
29.21
 20
17.3736
  0
VERTEX
  8
0
 10
29.21
 20
17.3736
  0
VERTEX
  8
0
 10
29.21
 20
17.3736
  0
SEQEND
  8
0
  0
POLYLINE
  8
0
 62
0
 70
0
 66
1
 10
0.0
 20
0.0
 30
0.0
  0
VERTEX
  8
0
 10
24.13
 20
19.9136
  0
VERTEX
  8
0
 10
24.13
 20
19.9136
  0
VERTEX
  8
0
 10
24.13
 20
19.9136
  0
SEQEND
  8
0
  0
POLYLINE
  8
0
 62
0
 70
0
 66
1
 10
0.0
 20
0.0
 30
0.0
  0
VERTEX
  8
0
 10
6.35
 20
27.49
  0
VERTEX
  8
0
 10
6.35
 20
27.49
  0
VERTEX
  8
0
 10
6.35
 20
27.49
  0
SEQEND
  8
0
  0
POLYLINE
  8
0
 62
0
 70
0
 66
1
 10
0.0
 20
0.0
 30
0.0
  0
VERTEX
  8
0
 10
6.35
 20
24.95
  0
VERTEX
  8
0
 10
6.35
 20
24.95
  0
VERTEX
  8
0
 10
6.35
 20
24.95
  0
SEQEND
  8
0
  0
POLYLINE
  8
0
 62
0
 70
0
 66
1
 10
0.0
 20
0.0
 30
0.0
  0
VERTEX
  8
0
 10
8.89
 20
24.95
  0
VERTEX
  8
0
 10
8.89
 20
24.95
  0
VERTEX
  8
0
 10
8.89
 20
24.95
  0
SEQEND
  8
0
  0
POLYLINE
  8
0
 62
0
 70
0
 66
1
 10
0.0
 20
0.0
 30
0.0
  0
VERTEX
  8
0
 10
8.89
 20
27.49
  0
VERTEX
  8
0
 10
8.89
 20
27.49
  0
VERTEX
  8
0
 10
8.89
 20
27.49
  0
SEQEND
  8
0
  0
POLYLINE
  8
0
 62
0
 70
0
 66
1
 10
0.0
 20
0.0
 30
0.0
  0
VERTEX
  8
0
 10
3.81
 20
27.49
  0
VERTEX
  8
0
 10
3.81
 20
27.49
  0
VERTEX
  8
0
 10
3.81
 20
27.49
  0
SEQEND
  8
0
  0
POLYLINE
  8
0
 62
0
 70
0
 66
1
 10
0.0
 20
0.0
 30
0.0
  0
VERTEX
  8
0
 10
3.81
 20
24.95
  0
VERTEX
  8
0
 10
3.81
 20
24.95
  0
VERTEX
  8
0
 10
3.81
 20
24.95
  0
SEQEND
  8
0
  0
POLYLINE
  8
0
 62
0
 70
0
 66
1
 10
0.0
 20
0.0
 30
0.0
  0
VERTEX
  8
0
 10
-57.652
 20
35.0012
  0
VERTEX
  8
0
 10
-57.652
 20
35.0012
  0
VERTEX
  8
0
 10
-57.652
 20
35.0012
  0
SEQEND
  8
0
  0
POLYLINE
  8
0
 62
0
 70
0
 66
1
 10
0.0
 20
0.0
 30
0.0
  0
VERTEX
  8
0
 10
63.252
 20
35.0012
  0
VERTEX
  8
0
 10
63.252
 20
35.0012
  0
VERTEX
  8
0
 10
63.252
 20
35.0012
  0
SEQEND
  8
0
  0
POLYLINE
  8
0
 62
0
 70
0
 66
1
 10
0.0
 20
0.0
 30
0.0
  0
VERTEX
  8
0
 10
63.252
 20
-35.0012
  0
VERTEX
  8
0
 10
63.252
 20
-35.0012
  0
VERTEX
  8
0
 10
63.252
 20
-35.0012
  0
SEQEND
  8
0
  0
POLYLINE
  8
0
 62
0
 70
0
 66
1
 10
0.0
 20
0.0
 30
0.0
  0
VERTEX
  8
0
 10
-57.652
 20
-35.0012
  0
VERTEX
  8
0
 10
-57.652
 20
-35.0012
  0
VERTEX
  8
0
 10
-57.652
 20
-35.0012
  0
SEQEND
  8
0
  0
POLYLINE
  8
0
 62
0
 70
0
 66
1
 10
0.0
 20
0.0
 30
0.0
  0
VERTEX
  8
0
 10
47.8028
 20
26.924
  0
VERTEX
  8
0
 10
47.8028
 20
26.924
  0
VERTEX
  8
0
 10
47.8028
 20
26.924
  0
SEQEND
  8
0
  0
POLYLINE
  8
0
 62
0
 70
0
 66
1
 10
0.0
 20
0.0
 30
0.0
  0
VERTEX
  8
0
 10
45.2628
 20
26.924
  0
VERTEX
  8
0
 10
45.2628
 20
26.924
  0
VERTEX
  8
0
 10
45.2628
 20
26.924
  0
SEQEND
  8
0
  0
POLYLINE
  8
0
 62
0
 70
0
 66
1
 10
0.0
 20
0.0
 30
0.0
  0
VERTEX
  8
0
 10
48.1076
 20
8.9408
  0
VERTEX
  8
0
 10
48.1076
 20
8.9408
  0
VERTEX
  8
0
 10
48.1076
 20
8.9408
  0
SEQEND
  8
0
  0
POLYLINE
  8
0
 62
0
 70
0
 66
1
 10
0.0
 20
0.0
 30
0.0
  0
VERTEX
  8
0
 10
45.5676
 20
8.9408
  0
VERTEX
  8
0
 10
45.5676
 20
8.9408
  0
VERTEX
  8
0
 10
45.5676
 20
8.9408
  0
SEQEND
  8
0
  0
POLYLINE
  8
0
 62
0
 70
0
 66
1
 10
0.0
 20
0.0
 30
0.0
  0
VERTEX
  8
0
 10
70.358
 20
-9.02
  0
VERTEX
  8
0
 10
70.358
 20
-9.02
  0
VERTEX
  8
0
 10
70.358
 20
-9.02
  0
SEQEND
  8
0
  0
POLYLINE
  8
0
 62
0
 70
0
 66
1
 10
0.0
 20
0.0
 30
0.0
  0
VERTEX
  8
0
 10
64.262
 20
-9.02
  0
VERTEX
  8
0
 10
64.262
 20
-9.02
  0
VERTEX
  8
0
 10
64.262
 20
-9.02
  0
SEQEND
  8
0
  0
POLYLINE
  8
0
 62
0
 70
0
 66
1
 10
0.0
 20
0.0
 30
0.0
  0
VERTEX
  8
0
 10
67.31
 20
-4.194
  0
VERTEX
  8
0
 10
67.31
 20
-4.194
  0
VERTEX
  8
0
 10
67.31
 20
-4.194
  0
SEQEND
  8
0
  0
ENDBLK
  0
ENDSEC
  0
SECTION
  2
ENTITIES
  0
INSERT
  2
SHAPE
  8
0
 10
0.0
 20
0.0
 30
0.0
  0
ENDSEC
  0
EOF
