G04 FAB 3000 Version 5.10.2 - Professional Gerber/CAM Software*
G04 RS274-X Output*
%FSDAX24Y24*%
%MIA0B0*%
%MOIN*%
%SFA1.000000B1.000000*%

%IPPOS*%
%AMOC8-D18_R9000*
4,1,8,-0.027877,0.067300,
-0.067300,0.027877,
-0.067300,-0.027877,
-0.027877,-0.067300,
0.027877,-0.067300,
0.067300,-0.027877,
0.067300,0.027877,
0.027877,0.067300,
-0.027877,0.067300,0.0*
%
%AMOC8-D16_0_R9000*
4,1,8,-0.011494,0.027750,
-0.027750,0.011494,
-0.027750,-0.011494,
-0.011494,-0.027750,
0.011494,-0.027750,
0.027750,-0.011494,
0.027750,0.011494,
0.011494,0.027750,
-0.011494,0.027750,0.0*
%
%AMOC8-D11_R9000*
4,1,8,-0.013255,0.032000,
-0.032000,0.013255,
-0.032000,-0.013255,
-0.013255,-0.032000,
0.013255,-0.032000,
0.032000,-0.013255,
0.032000,0.013255,
0.013255,0.032000,
-0.013255,0.032000,0.0*
%
%AMOC8-D10_R9000*
4,1,8,-0.012426,0.030000,
-0.030000,0.012426,
-0.030000,-0.012426,
-0.012426,-0.030000,
0.012426,-0.030000,
0.030000,-0.012426,
0.030000,0.012426,
0.012426,0.030000,
-0.012426,0.030000,0.0*
%
%AMOC8-D17_0_R9000*
4,1,8,-0.012716,0.030700,
-0.030700,0.012716,
-0.030700,-0.012716,
-0.012716,-0.030700,
0.012716,-0.030700,
0.030700,-0.012716,
0.030700,0.012716,
0.012716,0.030700,
-0.012716,0.030700,0.0*
%
%AMOC8-D15_0_R9000*
4,1,8,-0.013131,0.031700,
-0.031700,0.013131,
-0.031700,-0.013131,
-0.013131,-0.031700,
0.013131,-0.031700,
0.031700,-0.013131,
0.031700,0.013131,
0.013131,0.031700,
-0.013131,0.031700,0.0*
%
%AMOC8-D14_0_R9000*
4,1,8,-0.018640,0.045000,
-0.045000,0.018640,
-0.045000,-0.018640,
-0.018640,-0.045000,
0.018640,-0.045000,
0.045000,-0.018640,
0.045000,0.018640,
0.018640,0.045000,
-0.018640,0.045000,0.0*
%
%AMOC8-D17_R9000*
4,1,8,-0.027048,0.065300,
-0.065300,0.027048,
-0.065300,-0.027048,
-0.027048,-0.065300,
0.027048,-0.065300,
0.065300,-0.027048,
0.065300,0.027048,
0.027048,0.065300,
-0.027048,0.065300,0.0*
%
%AMOC8-D16_R9000*
4,1,8,-0.011888,0.028700,
-0.028700,0.011888,
-0.028700,-0.011888,
-0.011888,-0.028700,
0.011888,-0.028700,
0.028700,-0.011888,
0.028700,0.011888,
0.011888,0.028700,
-0.011888,0.028700,0.0*
%
%AMOC8-D15_R9000*
4,1,8,-0.010666,0.025750,
-0.025750,0.010666,
-0.025750,-0.010666,
-0.010666,-0.025750,
0.010666,-0.025750,
0.025750,-0.010666,
0.025750,0.010666,
0.010666,0.025750,
-0.010666,0.025750,0.0*
%
%AMOC8-D14_R9000*
4,1,8,-0.012302,0.029700,
-0.029700,0.012302,
-0.029700,-0.012302,
-0.012302,-0.029700,
0.012302,-0.029700,
0.029700,-0.012302,
0.029700,0.012302,
0.012302,0.029700,
-0.012302,0.029700,0.0*
%
%AMOC8-D13_R9000*
4,1,8,-0.017811,0.043000,
-0.043000,0.017811,
-0.043000,-0.017811,
-0.017811,-0.043000,
0.017811,-0.043000,
0.043000,-0.017811,
0.043000,0.017811,
0.017811,0.043000,
-0.017811,0.043000,0.0*
%
%ADD11C,0.055000*%
%ADD12C,0.098400*%
%ADD18C,0.016000*%
%ADD19C,0.007000*%
%ADD20C,0.027000*%
%ADD21C,0.130000*%
%ADD23C,0.059000*%
%ADD24C,0.102400*%
%ADD30C,0.029700*%
%ADD56C,0.039400*%
%ADD105C,0.070900*%
%ADD107OC8-D18_R9000*%
%ADD109OC8-D16_0_R9000*%
%ADD112OC8-D11_R9000*%
%ADD122OC8-D10_R9000*%
%ADD123OC8-D17_0_R9000*%
%ADD124OC8-D15_0_R9000*%
%ADD125OC8-D14_0_R9000*%
%ADD126OC8-D17_R9000*%
%ADD127OC8-D16_R9000*%
%ADD128OC8-D15_R9000*%
%ADD129OC8-D14_R9000*%
%ADD130OC8-D13_R9000*%
%LNam010_0*%
%LPD*%
G54D105*
X104000Y002500D03*
G54D30*
X016509Y021250D03*
X016779Y021480D03*
X018479Y021320D03*
X023339Y021220D03*
G54D109*
X010139Y021280D03*
X011739Y021280D03*
G54D23*
X027224Y021600D02*
G01X027774Y021600D01*
G54D30*
X009959Y015580D03*
X013049Y015590D03*
X014489Y015720D03*
X015039Y015600D03*
X015399Y015630D03*
X022979Y015680D03*
X018059Y029150D03*
X018069Y028130D03*
X018079Y026130D03*
G54D124*
X017749Y029550D03*
G54D30*
X017984Y014460D03*
X012799Y018600D03*
G54D109*
X010139Y018480D03*
X011739Y018480D03*
G54D23*
X027774Y018600D02*
G01X027224Y018600D01*
G54D30*
X012759Y030970D03*
G54D23*
X008224Y030600D02*
G01X008774Y030600D01*
X008774Y029600D02*
G01X008224Y029600D01*
X008224Y028600D02*
G01X008774Y028600D01*
X008774Y027600D02*
G01X008224Y027600D01*
X008224Y026600D02*
G01X008774Y026600D01*
X008774Y025600D02*
G01X008224Y025600D01*
X008224Y024600D02*
G01X008774Y024600D01*
X008774Y023600D02*
G01X008224Y023600D01*
X008224Y022000D02*
G01X008774Y022000D01*
G54D109*
X010139Y030600D03*
X010139Y029600D03*
X010139Y028600D03*
X010139Y027600D03*
X010139Y026600D03*
X010139Y025600D03*
X010139Y024600D03*
X010139Y023330D03*
X010139Y022280D03*
G54D30*
X012249Y028490D03*
X012419Y030840D03*
X012699Y029770D03*
X012699Y029350D03*
X012699Y028530D03*
X012699Y024780D03*
G54D109*
X011739Y030600D03*
X011739Y028600D03*
X011739Y029600D03*
X011739Y027600D03*
X011739Y026600D03*
X011739Y025600D03*
X011739Y024600D03*
X011739Y023330D03*
X011739Y022280D03*
G54D30*
X023029Y025860D03*
X024099Y022890D03*
X026114Y024110D03*
G54D23*
X027224Y026600D02*
G01X027774Y026600D01*
X027774Y025600D02*
G01X027224Y025600D01*
X027224Y023600D02*
G01X027774Y023600D01*
X027774Y022600D02*
G01X027224Y022600D01*
G54D109*
X024258Y026600D03*
X024258Y025600D03*
X025858Y025600D03*
X025858Y026600D03*
G54D30*
X023749Y029670D03*
G54D109*
X025858Y029878D03*
X025858Y029262D03*
X025858Y028598D03*
X025858Y027600D03*
X024258Y027600D03*
X024258Y028598D03*
X024258Y029262D03*
X024258Y029878D03*
G54D21*
X025499Y031600D03*
G54D23*
X027224Y030600D02*
G01X027774Y030600D01*
X027774Y029600D02*
G01X027224Y029600D01*
X027224Y028600D02*
G01X027774Y028600D01*
X027774Y027600D02*
G01X027224Y027600D01*
G54D30*
X010819Y009700D03*
X012499Y010060D03*
X016979Y009900D03*
G54D107*
X015869Y007100D03*
X011129Y007100D03*
G54D123*
X013007Y008955D03*
G54D125*
X008959Y009210D03*
X008959Y006650D03*
G54D123*
X013991Y008955D03*
X013991Y008167D03*
X013007Y008167D03*
G54D30*
X020639Y006470D03*
X020639Y006895D03*
X020639Y007320D03*
X020639Y007770D03*
X020639Y008195D03*
X019889Y008195D03*
X019889Y007770D03*
G54D24*
X024835Y007840D02*
G01X025623Y007840D01*
G54D30*
X019164Y008195D03*
X019164Y007770D03*
X019164Y007320D03*
X019164Y006895D03*
X019164Y006470D03*
X019889Y006470D03*
X019889Y006895D03*
X019889Y007320D03*
G54D24*
X027119Y009573D02*
G01X027119Y008785D01*
X025721Y010301D02*
G01X024737Y010301D01*
G54D30*
X017359Y016420D03*
X022199Y017980D03*
X020059Y017820D03*
X019979Y017170D03*
G54D124*
X017749Y016100D03*
X017749Y017100D03*
G54D30*
X025674Y017350D03*
X024579Y017700D03*
X022979Y017000D03*
X025674Y016375D03*
X026149Y016375D03*
X026149Y017350D03*
X026624Y017350D03*
X026624Y016375D03*
X027099Y016375D03*
X027099Y017350D03*
X027574Y017350D03*
X027574Y016375D03*
X012574Y020750D03*
X012299Y019040D03*
X012429Y018700D03*
X017259Y018860D03*
X016619Y020220D03*
X015359Y019880D03*
X015559Y021130D03*
G54D124*
X015149Y019100D03*
X013999Y019100D03*
G54D23*
X008774Y021000D02*
G01X008224Y021000D01*
X008224Y020000D02*
G01X008774Y020000D01*
X008774Y019000D02*
G01X008224Y019000D01*
G54D109*
X011739Y020280D03*
X011739Y019280D03*
X010139Y019280D03*
X010139Y020280D03*
G54D30*
X017899Y018810D03*
X018259Y020240D03*
X019179Y018780D03*
G54D23*
X027774Y020600D02*
G01X027224Y020600D01*
X027224Y019600D02*
G01X027774Y019600D01*
G54D30*
X020519Y020120D03*
X021199Y020100D03*
X021539Y020100D03*
X022319Y019740D03*
X023339Y019680D03*
X023499Y019280D03*
X020219Y029050D03*
X020279Y024240D03*
X022269Y029640D03*
X022209Y032170D03*
X022259Y030930D03*
X020659Y030360D03*
X020659Y029980D03*
X020589Y029420D03*
G54D125*
X021599Y031560D03*
X021599Y029000D03*
G54D30*
X022239Y025860D03*
X021609Y027730D03*
X021359Y025860D03*
X020849Y025620D03*
X020859Y022200D03*
X021209Y023150D03*
X020479Y021920D03*
X018479Y023160D03*
X018839Y022840D03*
X018739Y022500D03*
X018799Y022100D03*
X018479Y021660D03*
X018449Y023930D03*
X018449Y024270D03*
X018329Y025890D03*
X019999Y031320D03*
X018689Y029800D03*
X018979Y030300D03*
G54D112*
X018519Y031656D03*
X018519Y030656D03*
G54D30*
X018279Y027440D03*
X018689Y027440D03*
X018899Y028060D03*
X019529Y028070D03*
X019879Y027420D03*
X019999Y029320D03*
X019659Y029360D03*
X015319Y027980D03*
X017659Y027980D03*
X015669Y030100D03*
X015729Y029100D03*
X014699Y029420D03*
X013669Y028420D03*
G54D124*
X016749Y029550D03*
G54D112*
X017519Y031656D03*
X016519Y031656D03*
X016519Y030656D03*
G54D21*
X014499Y031600D03*
G54D112*
X017519Y030656D03*
G54D30*
X017289Y028510D03*
X013599Y027620D03*
X013624Y027275D03*
X013609Y026390D03*
X015519Y021510D03*
X015074Y022050D03*
X014419Y022900D03*
X013909Y024060D03*
X013669Y023530D03*
X016459Y027600D03*
X016599Y023910D03*
X017579Y024040D03*
X017239Y024040D03*
X017079Y024390D03*
X017079Y024730D03*
X017109Y025070D03*
X016909Y025550D03*
X017659Y027440D03*
X017839Y025820D03*
X016319Y023210D03*
X016019Y024260D03*
X015999Y021625D03*
X012589Y015980D03*
X012999Y016600D03*
G54D23*
X008224Y016000D02*
G01X008774Y016000D01*
G54D124*
X015949Y016000D03*
G54D30*
X016339Y016670D03*
X015299Y016590D03*
X014959Y016590D03*
X014289Y016580D03*
X013839Y016570D03*
X013379Y016500D03*
G54D23*
X008774Y017000D02*
G01X008224Y017000D01*
G54D124*
X015949Y017000D03*
G54D30*
X012774Y017675D03*
G54D109*
X010144Y017735D03*
X011744Y017735D03*
G54D23*
X008224Y018000D02*
G01X008774Y018000D01*
G54D124*
X013999Y018100D03*
X015149Y018100D03*
G54D30*
X015779Y017800D03*
X015839Y018220D03*
X015319Y010930D03*
X015829Y012725D03*
X012219Y011440D03*
X011609Y011580D03*
G54D21*
X008499Y011600D03*
G54D112*
X009799Y011800D03*
X009799Y012800D03*
X010799Y012800D03*
X010799Y011800D03*
X011799Y012800D03*
X012799Y012800D03*
G54D30*
X016389Y010960D03*
X017159Y011980D03*
X016069Y015130D03*
X015449Y015240D03*
X014784Y013705D03*
X014389Y014100D03*
X010469Y015380D03*
X012879Y014590D03*
X012599Y015500D03*
X013219Y014710D03*
G54D112*
X009799Y013800D03*
X010799Y013800D03*
X011799Y013800D03*
X012799Y013800D03*
G54D23*
X008774Y015000D02*
G01X008224Y015000D01*
G54D30*
X016749Y015040D03*
X014729Y015270D03*
X013479Y015300D03*
X018749Y010825D03*
X018649Y011200D03*
X018499Y011780D03*
X018499Y013180D03*
X018159Y013520D03*
X020549Y011450D03*
X019979Y014750D03*
X020259Y015400D03*
X018889Y015490D03*
X019569Y015450D03*
X022979Y014160D03*
G54D21*
X027499Y011100D03*
G54D30*
X025674Y015450D03*
X026149Y015450D03*
X026624Y015450D03*
X027099Y015450D03*
X027574Y015450D03*
X040009Y021250D03*
X040279Y021480D03*
X041979Y021320D03*
X046839Y021220D03*
G54D109*
X033639Y021280D03*
X035239Y021280D03*
G54D23*
X050724Y021600D02*
G01X051274Y021600D01*
G54D30*
X033459Y015580D03*
X036549Y015590D03*
X037989Y015720D03*
X038539Y015600D03*
X038899Y015630D03*
X046479Y015680D03*
X041559Y029150D03*
X041569Y028130D03*
X041579Y026130D03*
G54D124*
X041249Y029550D03*
G54D30*
X041484Y014460D03*
X036299Y018600D03*
G54D109*
X033639Y018480D03*
X035239Y018480D03*
G54D23*
X051274Y018600D02*
G01X050724Y018600D01*
G54D30*
X036259Y030970D03*
G54D23*
X031724Y030600D02*
G01X032274Y030600D01*
X032274Y029600D02*
G01X031724Y029600D01*
X031724Y028600D02*
G01X032274Y028600D01*
X032274Y027600D02*
G01X031724Y027600D01*
X031724Y026600D02*
G01X032274Y026600D01*
X032274Y025600D02*
G01X031724Y025600D01*
X031724Y024600D02*
G01X032274Y024600D01*
X032274Y023600D02*
G01X031724Y023600D01*
X031724Y022000D02*
G01X032274Y022000D01*
G54D109*
X033639Y030600D03*
X033639Y029600D03*
X033639Y028600D03*
X033639Y027600D03*
X033639Y026600D03*
X033639Y025600D03*
X033639Y024600D03*
X033639Y023330D03*
X033639Y022280D03*
G54D30*
X035749Y028490D03*
X035919Y030840D03*
X036199Y029770D03*
X036199Y029350D03*
X036199Y028530D03*
X036199Y024780D03*
G54D109*
X035239Y030600D03*
X035239Y028600D03*
X035239Y029600D03*
X035239Y027600D03*
X035239Y026600D03*
X035239Y025600D03*
X035239Y024600D03*
X035239Y023330D03*
X035239Y022280D03*
G54D30*
X046529Y025860D03*
X047599Y022890D03*
X049614Y024110D03*
G54D23*
X050724Y026600D02*
G01X051274Y026600D01*
X051274Y025600D02*
G01X050724Y025600D01*
X050724Y023600D02*
G01X051274Y023600D01*
X051274Y022600D02*
G01X050724Y022600D01*
G54D109*
X047758Y026600D03*
X047758Y025600D03*
X049358Y025600D03*
X049358Y026600D03*
G54D30*
X047249Y029670D03*
G54D109*
X049358Y029878D03*
X049358Y029262D03*
X049358Y028598D03*
X049358Y027600D03*
X047758Y027600D03*
X047758Y028598D03*
X047758Y029262D03*
X047758Y029878D03*
G54D21*
X048999Y031600D03*
G54D23*
X050724Y030600D02*
G01X051274Y030600D01*
X051274Y029600D02*
G01X050724Y029600D01*
X050724Y028600D02*
G01X051274Y028600D01*
X051274Y027600D02*
G01X050724Y027600D01*
G54D30*
X034319Y009700D03*
X035999Y010060D03*
X040479Y009900D03*
G54D107*
X039369Y007100D03*
X034629Y007100D03*
G54D123*
X036507Y008955D03*
G54D125*
X032459Y009210D03*
X032459Y006650D03*
G54D123*
X037491Y008955D03*
X037491Y008167D03*
X036507Y008167D03*
G54D30*
X044139Y006470D03*
X044139Y006895D03*
X044139Y007320D03*
X044139Y007770D03*
X044139Y008195D03*
X043389Y008195D03*
X043389Y007770D03*
G54D24*
X048335Y007840D02*
G01X049123Y007840D01*
G54D30*
X042664Y008195D03*
X042664Y007770D03*
X042664Y007320D03*
X042664Y006895D03*
X042664Y006470D03*
X043389Y006470D03*
X043389Y006895D03*
X043389Y007320D03*
G54D24*
X050619Y009573D02*
G01X050619Y008785D01*
X049221Y010301D02*
G01X048237Y010301D01*
G54D30*
X040859Y016420D03*
X045699Y017980D03*
X043559Y017820D03*
X043479Y017170D03*
G54D124*
X041249Y016100D03*
X041249Y017100D03*
G54D30*
X049174Y017350D03*
X048079Y017700D03*
X046479Y017000D03*
X049174Y016375D03*
X049649Y016375D03*
X049649Y017350D03*
X050124Y017350D03*
X050124Y016375D03*
X050599Y016375D03*
X050599Y017350D03*
X051074Y017350D03*
X051074Y016375D03*
X036074Y020750D03*
X035799Y019040D03*
X035929Y018700D03*
X040759Y018860D03*
X040119Y020220D03*
X038859Y019880D03*
X039059Y021130D03*
G54D124*
X038649Y019100D03*
X037499Y019100D03*
G54D23*
X032274Y021000D02*
G01X031724Y021000D01*
X031724Y020000D02*
G01X032274Y020000D01*
X032274Y019000D02*
G01X031724Y019000D01*
G54D109*
X035239Y020280D03*
X035239Y019280D03*
X033639Y019280D03*
X033639Y020280D03*
G54D30*
X041399Y018810D03*
X041759Y020240D03*
X042679Y018780D03*
G54D23*
X051274Y020600D02*
G01X050724Y020600D01*
X050724Y019600D02*
G01X051274Y019600D01*
G54D30*
X044019Y020120D03*
X044699Y020100D03*
X045039Y020100D03*
X045819Y019740D03*
X046839Y019680D03*
X046999Y019280D03*
X043719Y029050D03*
X043779Y024240D03*
X045769Y029640D03*
X045709Y032170D03*
X045759Y030930D03*
X044159Y030360D03*
X044159Y029980D03*
X044089Y029420D03*
G54D125*
X045099Y031560D03*
X045099Y029000D03*
G54D30*
X045739Y025860D03*
X045109Y027730D03*
X044859Y025860D03*
X044349Y025620D03*
X044359Y022200D03*
X044709Y023150D03*
X043979Y021920D03*
X041979Y023160D03*
X042339Y022840D03*
X042239Y022500D03*
X042299Y022100D03*
X041979Y021660D03*
X041949Y023930D03*
X041949Y024270D03*
X041829Y025890D03*
X043499Y031320D03*
X042189Y029800D03*
X042479Y030300D03*
G54D112*
X042019Y031656D03*
X042019Y030656D03*
G54D30*
X041779Y027440D03*
X042189Y027440D03*
X042399Y028060D03*
X043029Y028070D03*
X043379Y027420D03*
X043499Y029320D03*
X043159Y029360D03*
X038819Y027980D03*
X041159Y027980D03*
X039169Y030100D03*
X039229Y029100D03*
X038199Y029420D03*
X037169Y028420D03*
G54D124*
X040249Y029550D03*
G54D112*
X041019Y031656D03*
X040019Y031656D03*
X040019Y030656D03*
G54D21*
X037999Y031600D03*
G54D112*
X041019Y030656D03*
G54D30*
X040789Y028510D03*
X037099Y027620D03*
X037124Y027275D03*
X037109Y026390D03*
X039019Y021510D03*
X038574Y022050D03*
X037919Y022900D03*
X037409Y024060D03*
X037169Y023530D03*
X039959Y027600D03*
X040099Y023910D03*
X041079Y024040D03*
X040739Y024040D03*
X040579Y024390D03*
X040579Y024730D03*
X040609Y025070D03*
X040409Y025550D03*
X041159Y027440D03*
X041339Y025820D03*
X039819Y023210D03*
X039519Y024260D03*
X039499Y021625D03*
X036089Y015980D03*
X036499Y016600D03*
G54D23*
X031724Y016000D02*
G01X032274Y016000D01*
G54D124*
X039449Y016000D03*
G54D30*
X039839Y016670D03*
X038799Y016590D03*
X038459Y016590D03*
X037789Y016580D03*
X037339Y016570D03*
X036879Y016500D03*
G54D23*
X032274Y017000D02*
G01X031724Y017000D01*
G54D124*
X039449Y017000D03*
G54D30*
X036274Y017675D03*
G54D109*
X033644Y017735D03*
X035244Y017735D03*
G54D23*
X031724Y018000D02*
G01X032274Y018000D01*
G54D124*
X037499Y018100D03*
X038649Y018100D03*
G54D30*
X039279Y017800D03*
X039339Y018220D03*
X038819Y010930D03*
X039329Y012725D03*
X035719Y011440D03*
X035109Y011580D03*
G54D21*
X031999Y011600D03*
G54D112*
X033299Y011800D03*
X033299Y012800D03*
X034299Y012800D03*
X034299Y011800D03*
X035299Y012800D03*
X036299Y012800D03*
G54D30*
X039889Y010960D03*
X040659Y011980D03*
X039569Y015130D03*
X038949Y015240D03*
X038284Y013705D03*
X037889Y014100D03*
X033969Y015380D03*
X036379Y014590D03*
X036099Y015500D03*
X036719Y014710D03*
G54D112*
X033299Y013800D03*
X034299Y013800D03*
X035299Y013800D03*
X036299Y013800D03*
G54D23*
X032274Y015000D02*
G01X031724Y015000D01*
G54D30*
X040249Y015040D03*
X038229Y015270D03*
X036979Y015300D03*
X042249Y010825D03*
X042149Y011200D03*
X041999Y011780D03*
X041999Y013180D03*
X041659Y013520D03*
X044049Y011450D03*
X043479Y014750D03*
X043759Y015400D03*
X042389Y015490D03*
X043069Y015450D03*
X046479Y014160D03*
G54D21*
X050999Y011100D03*
G54D30*
X049174Y015450D03*
X049649Y015450D03*
X050124Y015450D03*
X050599Y015450D03*
X051074Y015450D03*
X063509Y021250D03*
X063779Y021480D03*
X065479Y021320D03*
X070339Y021220D03*
G54D109*
X057139Y021280D03*
X058739Y021280D03*
G54D23*
X074224Y021600D02*
G01X074774Y021600D01*
G54D30*
X056959Y015580D03*
X060049Y015590D03*
X061489Y015720D03*
X062039Y015600D03*
X062399Y015630D03*
X069979Y015680D03*
X065059Y029150D03*
X065069Y028130D03*
X065079Y026130D03*
G54D124*
X064749Y029550D03*
G54D30*
X064984Y014460D03*
X059799Y018600D03*
G54D109*
X057139Y018480D03*
X058739Y018480D03*
G54D23*
X074774Y018600D02*
G01X074224Y018600D01*
G54D30*
X059759Y030970D03*
G54D23*
X055224Y030600D02*
G01X055774Y030600D01*
X055774Y029600D02*
G01X055224Y029600D01*
X055224Y028600D02*
G01X055774Y028600D01*
X055774Y027600D02*
G01X055224Y027600D01*
X055224Y026600D02*
G01X055774Y026600D01*
X055774Y025600D02*
G01X055224Y025600D01*
X055224Y024600D02*
G01X055774Y024600D01*
X055774Y023600D02*
G01X055224Y023600D01*
X055224Y022000D02*
G01X055774Y022000D01*
G54D109*
X057139Y030600D03*
X057139Y029600D03*
X057139Y028600D03*
X057139Y027600D03*
X057139Y026600D03*
X057139Y025600D03*
X057139Y024600D03*
X057139Y023330D03*
X057139Y022280D03*
G54D30*
X059249Y028490D03*
X059419Y030840D03*
X059699Y029770D03*
X059699Y029350D03*
X059699Y028530D03*
X059699Y024780D03*
G54D109*
X058739Y030600D03*
X058739Y028600D03*
X058739Y029600D03*
X058739Y027600D03*
X058739Y026600D03*
X058739Y025600D03*
X058739Y024600D03*
X058739Y023330D03*
X058739Y022280D03*
G54D30*
X070029Y025860D03*
X071099Y022890D03*
X073114Y024110D03*
G54D23*
X074224Y026600D02*
G01X074774Y026600D01*
X074774Y025600D02*
G01X074224Y025600D01*
X074224Y023600D02*
G01X074774Y023600D01*
X074774Y022600D02*
G01X074224Y022600D01*
G54D109*
X071258Y026600D03*
X071258Y025600D03*
X072858Y025600D03*
X072858Y026600D03*
G54D30*
X070749Y029670D03*
G54D109*
X072858Y029878D03*
X072858Y029262D03*
X072858Y028598D03*
X072858Y027600D03*
X071258Y027600D03*
X071258Y028598D03*
X071258Y029262D03*
X071258Y029878D03*
G54D21*
X072499Y031600D03*
G54D23*
X074224Y030600D02*
G01X074774Y030600D01*
X074774Y029600D02*
G01X074224Y029600D01*
X074224Y028600D02*
G01X074774Y028600D01*
X074774Y027600D02*
G01X074224Y027600D01*
G54D30*
X057819Y009700D03*
X059499Y010060D03*
X063979Y009900D03*
G54D107*
X062869Y007100D03*
X058129Y007100D03*
G54D123*
X060007Y008955D03*
G54D125*
X055959Y009210D03*
X055959Y006650D03*
G54D123*
X060991Y008955D03*
X060991Y008167D03*
X060007Y008167D03*
G54D30*
X067639Y006470D03*
X067639Y006895D03*
X067639Y007320D03*
X067639Y007770D03*
X067639Y008195D03*
X066889Y008195D03*
X066889Y007770D03*
G54D24*
X071835Y007840D02*
G01X072623Y007840D01*
G54D30*
X066164Y008195D03*
X066164Y007770D03*
X066164Y007320D03*
X066164Y006895D03*
X066164Y006470D03*
X066889Y006470D03*
X066889Y006895D03*
X066889Y007320D03*
G54D24*
X074119Y009573D02*
G01X074119Y008785D01*
X072721Y010301D02*
G01X071737Y010301D01*
G54D30*
X064359Y016420D03*
X069199Y017980D03*
X067059Y017820D03*
X066979Y017170D03*
G54D124*
X064749Y016100D03*
X064749Y017100D03*
G54D30*
X072674Y017350D03*
X071579Y017700D03*
X069979Y017000D03*
X072674Y016375D03*
X073149Y016375D03*
X073149Y017350D03*
X073624Y017350D03*
X073624Y016375D03*
X074099Y016375D03*
X074099Y017350D03*
X074574Y017350D03*
X074574Y016375D03*
X059574Y020750D03*
X059299Y019040D03*
X059429Y018700D03*
X064259Y018860D03*
X063619Y020220D03*
X062359Y019880D03*
X062559Y021130D03*
G54D124*
X062149Y019100D03*
X060999Y019100D03*
G54D23*
X055774Y021000D02*
G01X055224Y021000D01*
X055224Y020000D02*
G01X055774Y020000D01*
X055774Y019000D02*
G01X055224Y019000D01*
G54D109*
X058739Y020280D03*
X058739Y019280D03*
X057139Y019280D03*
X057139Y020280D03*
G54D30*
X064899Y018810D03*
X065259Y020240D03*
X066179Y018780D03*
G54D23*
X074774Y020600D02*
G01X074224Y020600D01*
X074224Y019600D02*
G01X074774Y019600D01*
G54D30*
X067519Y020120D03*
X068199Y020100D03*
X068539Y020100D03*
X069319Y019740D03*
X070339Y019680D03*
X070499Y019280D03*
X067219Y029050D03*
X067279Y024240D03*
X069269Y029640D03*
X069209Y032170D03*
X069259Y030930D03*
X067659Y030360D03*
X067659Y029980D03*
X067589Y029420D03*
G54D125*
X068599Y031560D03*
X068599Y029000D03*
G54D30*
X069239Y025860D03*
X068609Y027730D03*
X068359Y025860D03*
X067849Y025620D03*
X067859Y022200D03*
X068209Y023150D03*
X067479Y021920D03*
X065479Y023160D03*
X065839Y022840D03*
X065739Y022500D03*
X065799Y022100D03*
X065479Y021660D03*
X065449Y023930D03*
X065449Y024270D03*
X065329Y025890D03*
X066999Y031320D03*
X065689Y029800D03*
X065979Y030300D03*
G54D112*
X065519Y031656D03*
X065519Y030656D03*
G54D30*
X065279Y027440D03*
X065689Y027440D03*
X065899Y028060D03*
X066529Y028070D03*
X066879Y027420D03*
X066999Y029320D03*
X066659Y029360D03*
X062319Y027980D03*
X064659Y027980D03*
X062669Y030100D03*
X062729Y029100D03*
X061699Y029420D03*
X060669Y028420D03*
G54D124*
X063749Y029550D03*
G54D112*
X064519Y031656D03*
X063519Y031656D03*
X063519Y030656D03*
G54D21*
X061499Y031600D03*
G54D112*
X064519Y030656D03*
G54D30*
X064289Y028510D03*
X060599Y027620D03*
X060624Y027275D03*
X060609Y026390D03*
X062519Y021510D03*
X062074Y022050D03*
X061419Y022900D03*
X060909Y024060D03*
X060669Y023530D03*
X063459Y027600D03*
X063599Y023910D03*
X064579Y024040D03*
X064239Y024040D03*
X064079Y024390D03*
X064079Y024730D03*
X064109Y025070D03*
X063909Y025550D03*
X064659Y027440D03*
X064839Y025820D03*
X063319Y023210D03*
X063019Y024260D03*
X062999Y021625D03*
X059589Y015980D03*
X059999Y016600D03*
G54D23*
X055224Y016000D02*
G01X055774Y016000D01*
G54D124*
X062949Y016000D03*
G54D30*
X063339Y016670D03*
X062299Y016590D03*
X061959Y016590D03*
X061289Y016580D03*
X060839Y016570D03*
X060379Y016500D03*
G54D23*
X055774Y017000D02*
G01X055224Y017000D01*
G54D124*
X062949Y017000D03*
G54D30*
X059774Y017675D03*
G54D109*
X057144Y017735D03*
X058744Y017735D03*
G54D23*
X055224Y018000D02*
G01X055774Y018000D01*
G54D124*
X060999Y018100D03*
X062149Y018100D03*
G54D30*
X062779Y017800D03*
X062839Y018220D03*
X062319Y010930D03*
X062829Y012725D03*
X059219Y011440D03*
X058609Y011580D03*
G54D21*
X055499Y011600D03*
G54D112*
X056799Y011800D03*
X056799Y012800D03*
X057799Y012800D03*
X057799Y011800D03*
X058799Y012800D03*
X059799Y012800D03*
G54D30*
X063389Y010960D03*
X064159Y011980D03*
X063069Y015130D03*
X062449Y015240D03*
X061784Y013705D03*
X061389Y014100D03*
X057469Y015380D03*
X059879Y014590D03*
X059599Y015500D03*
X060219Y014710D03*
G54D112*
X056799Y013800D03*
X057799Y013800D03*
X058799Y013800D03*
X059799Y013800D03*
G54D23*
X055774Y015000D02*
G01X055224Y015000D01*
G54D30*
X063749Y015040D03*
X061729Y015270D03*
X060479Y015300D03*
X065749Y010825D03*
X065649Y011200D03*
X065499Y011780D03*
X065499Y013180D03*
X065159Y013520D03*
X067549Y011450D03*
X066979Y014750D03*
X067259Y015400D03*
X065889Y015490D03*
X066569Y015450D03*
X069979Y014160D03*
G54D21*
X074499Y011100D03*
G54D30*
X072674Y015450D03*
X073149Y015450D03*
X073624Y015450D03*
X074099Y015450D03*
X074574Y015450D03*
X087009Y021250D03*
X087279Y021480D03*
X088979Y021320D03*
X093839Y021220D03*
G54D109*
X080639Y021280D03*
X082239Y021280D03*
G54D23*
X097724Y021600D02*
G01X098274Y021600D01*
G54D30*
X080459Y015580D03*
X083549Y015590D03*
X084989Y015720D03*
X085539Y015600D03*
X085899Y015630D03*
X093479Y015680D03*
X088559Y029150D03*
X088569Y028130D03*
X088579Y026130D03*
G54D124*
X088249Y029550D03*
G54D30*
X088484Y014460D03*
X083299Y018600D03*
G54D109*
X080639Y018480D03*
X082239Y018480D03*
G54D23*
X098274Y018600D02*
G01X097724Y018600D01*
G54D30*
X083259Y030970D03*
G54D23*
X078724Y030600D02*
G01X079274Y030600D01*
X079274Y029600D02*
G01X078724Y029600D01*
X078724Y028600D02*
G01X079274Y028600D01*
X079274Y027600D02*
G01X078724Y027600D01*
X078724Y026600D02*
G01X079274Y026600D01*
X079274Y025600D02*
G01X078724Y025600D01*
X078724Y024600D02*
G01X079274Y024600D01*
X079274Y023600D02*
G01X078724Y023600D01*
X078724Y022000D02*
G01X079274Y022000D01*
G54D109*
X080639Y030600D03*
X080639Y029600D03*
X080639Y028600D03*
X080639Y027600D03*
X080639Y026600D03*
X080639Y025600D03*
X080639Y024600D03*
X080639Y023330D03*
X080639Y022280D03*
G54D30*
X082749Y028490D03*
X082919Y030840D03*
X083199Y029770D03*
X083199Y029350D03*
X083199Y028530D03*
X083199Y024780D03*
G54D109*
X082239Y030600D03*
X082239Y028600D03*
X082239Y029600D03*
X082239Y027600D03*
X082239Y026600D03*
X082239Y025600D03*
X082239Y024600D03*
X082239Y023330D03*
X082239Y022280D03*
G54D30*
X093529Y025860D03*
X094599Y022890D03*
X096614Y024110D03*
G54D23*
X097724Y026600D02*
G01X098274Y026600D01*
X098274Y025600D02*
G01X097724Y025600D01*
X097724Y023600D02*
G01X098274Y023600D01*
X098274Y022600D02*
G01X097724Y022600D01*
G54D109*
X094758Y026600D03*
X094758Y025600D03*
X096358Y025600D03*
X096358Y026600D03*
G54D30*
X094249Y029670D03*
G54D109*
X096358Y029878D03*
X096358Y029262D03*
X096358Y028598D03*
X096358Y027600D03*
X094758Y027600D03*
X094758Y028598D03*
X094758Y029262D03*
X094758Y029878D03*
G54D21*
X095999Y031600D03*
G54D23*
X097724Y030600D02*
G01X098274Y030600D01*
X098274Y029600D02*
G01X097724Y029600D01*
X097724Y028600D02*
G01X098274Y028600D01*
X098274Y027600D02*
G01X097724Y027600D01*
G54D30*
X081319Y009700D03*
X082999Y010060D03*
X087479Y009900D03*
G54D107*
X086369Y007100D03*
X081629Y007100D03*
G54D123*
X083507Y008955D03*
G54D125*
X079459Y009210D03*
X079459Y006650D03*
G54D123*
X084491Y008955D03*
X084491Y008167D03*
X083507Y008167D03*
G54D30*
X091139Y006470D03*
X091139Y006895D03*
X091139Y007320D03*
X091139Y007770D03*
X091139Y008195D03*
X090389Y008195D03*
X090389Y007770D03*
G54D24*
X095335Y007840D02*
G01X096123Y007840D01*
G54D30*
X089664Y008195D03*
X089664Y007770D03*
X089664Y007320D03*
X089664Y006895D03*
X089664Y006470D03*
X090389Y006470D03*
X090389Y006895D03*
X090389Y007320D03*
G54D24*
X097619Y009573D02*
G01X097619Y008785D01*
X096221Y010301D02*
G01X095237Y010301D01*
G54D30*
X087859Y016420D03*
X092699Y017980D03*
X090559Y017820D03*
X090479Y017170D03*
G54D124*
X088249Y016100D03*
X088249Y017100D03*
G54D30*
X096174Y017350D03*
X095079Y017700D03*
X093479Y017000D03*
X096174Y016375D03*
X096649Y016375D03*
X096649Y017350D03*
X097124Y017350D03*
X097124Y016375D03*
X097599Y016375D03*
X097599Y017350D03*
X098074Y017350D03*
X098074Y016375D03*
X083074Y020750D03*
X082799Y019040D03*
X082929Y018700D03*
X087759Y018860D03*
X087119Y020220D03*
X085859Y019880D03*
X086059Y021130D03*
G54D124*
X085649Y019100D03*
X084499Y019100D03*
G54D23*
X079274Y021000D02*
G01X078724Y021000D01*
X078724Y020000D02*
G01X079274Y020000D01*
X079274Y019000D02*
G01X078724Y019000D01*
G54D109*
X082239Y020280D03*
X082239Y019280D03*
X080639Y019280D03*
X080639Y020280D03*
G54D30*
X088399Y018810D03*
X088759Y020240D03*
X089679Y018780D03*
G54D23*
X098274Y020600D02*
G01X097724Y020600D01*
X097724Y019600D02*
G01X098274Y019600D01*
G54D30*
X091019Y020120D03*
X091699Y020100D03*
X092039Y020100D03*
X092819Y019740D03*
X093839Y019680D03*
X093999Y019280D03*
X090719Y029050D03*
X090779Y024240D03*
X092769Y029640D03*
X092709Y032170D03*
X092759Y030930D03*
X091159Y030360D03*
X091159Y029980D03*
X091089Y029420D03*
G54D125*
X092099Y031560D03*
X092099Y029000D03*
G54D30*
X092739Y025860D03*
X092109Y027730D03*
X091859Y025860D03*
X091349Y025620D03*
X091359Y022200D03*
X091709Y023150D03*
X090979Y021920D03*
X088979Y023160D03*
X089339Y022840D03*
X089239Y022500D03*
X089299Y022100D03*
X088979Y021660D03*
X088949Y023930D03*
X088949Y024270D03*
X088829Y025890D03*
X090499Y031320D03*
X089189Y029800D03*
X089479Y030300D03*
G54D112*
X089019Y031656D03*
X089019Y030656D03*
G54D30*
X088779Y027440D03*
X089189Y027440D03*
X089399Y028060D03*
X090029Y028070D03*
X090379Y027420D03*
X090499Y029320D03*
X090159Y029360D03*
X085819Y027980D03*
X088159Y027980D03*
X086169Y030100D03*
X086229Y029100D03*
X085199Y029420D03*
X084169Y028420D03*
G54D124*
X087249Y029550D03*
G54D112*
X088019Y031656D03*
X087019Y031656D03*
X087019Y030656D03*
G54D21*
X084999Y031600D03*
G54D112*
X088019Y030656D03*
G54D30*
X087789Y028510D03*
X084099Y027620D03*
X084124Y027275D03*
X084109Y026390D03*
X086019Y021510D03*
X085574Y022050D03*
X084919Y022900D03*
X084409Y024060D03*
X084169Y023530D03*
X086959Y027600D03*
X087099Y023910D03*
X088079Y024040D03*
X087739Y024040D03*
X087579Y024390D03*
X087579Y024730D03*
X087609Y025070D03*
X087409Y025550D03*
X088159Y027440D03*
X088339Y025820D03*
X086819Y023210D03*
X086519Y024260D03*
X086499Y021625D03*
X083089Y015980D03*
X083499Y016600D03*
G54D23*
X078724Y016000D02*
G01X079274Y016000D01*
G54D124*
X086449Y016000D03*
G54D30*
X086839Y016670D03*
X085799Y016590D03*
X085459Y016590D03*
X084789Y016580D03*
X084339Y016570D03*
X083879Y016500D03*
G54D23*
X079274Y017000D02*
G01X078724Y017000D01*
G54D124*
X086449Y017000D03*
G54D30*
X083274Y017675D03*
G54D109*
X080644Y017735D03*
X082244Y017735D03*
G54D23*
X078724Y018000D02*
G01X079274Y018000D01*
G54D124*
X084499Y018100D03*
X085649Y018100D03*
G54D30*
X086279Y017800D03*
X086339Y018220D03*
X085819Y010930D03*
X086329Y012725D03*
X082719Y011440D03*
X082109Y011580D03*
G54D21*
X078999Y011600D03*
G54D112*
X080299Y011800D03*
X080299Y012800D03*
X081299Y012800D03*
X081299Y011800D03*
X082299Y012800D03*
X083299Y012800D03*
G54D30*
X086889Y010960D03*
X087659Y011980D03*
X086569Y015130D03*
X085949Y015240D03*
X085284Y013705D03*
X084889Y014100D03*
X080969Y015380D03*
X083379Y014590D03*
X083099Y015500D03*
X083719Y014710D03*
G54D112*
X080299Y013800D03*
X081299Y013800D03*
X082299Y013800D03*
X083299Y013800D03*
G54D23*
X079274Y015000D02*
G01X078724Y015000D01*
G54D30*
X087249Y015040D03*
X085229Y015270D03*
X083979Y015300D03*
X089249Y010825D03*
X089149Y011200D03*
X088999Y011780D03*
X088999Y013180D03*
X088659Y013520D03*
X091049Y011450D03*
X090479Y014750D03*
X090759Y015400D03*
X089389Y015490D03*
X090069Y015450D03*
X093479Y014160D03*
G54D21*
X097999Y011100D03*
G54D30*
X096174Y015450D03*
X096649Y015450D03*
X097124Y015450D03*
X097599Y015450D03*
X098074Y015450D03*
M02*