M48
INCH
VER,1
FMAT,2
T01C0.0150
T02C0.0315
T03C0.0350
T04C0.0374
T05C0.0394
T06C0.0400
T07C0.0512
T08C0.0906
T09C0.1260
T10C0.0600
DETECT,ON
ATC,ON
%
G90
T01
X085229Y015270
X090389Y008195
X089664Y008195
X089664Y007770
X089664Y007320
X089664Y006895
X089664Y006470
X090389Y006470
X090389Y006895
X090389Y007320
X090389Y007770
X090069Y015450
X080969Y015380
X083719Y014710
X083979Y015300
X083099Y015500
X083379Y014590
X084889Y014100
X083549Y015590
X080459Y015580
X084989Y015720
X083089Y015980
X085819Y010930
X085284Y013705
X085539Y015600
X085899Y015630
X085949Y015240
X086329Y012725
X086569Y015130
X086889Y010960
X087479Y009900
X087659Y011980
X088659Y013520
X088484Y014460
X088999Y013180
X088999Y011780
X089149Y011200
X089249Y010825
X087249Y015040
X089389Y015490
X087859Y016420
X081319Y009700
X082109Y011580
X082719Y011440
X082999Y010060
X091049Y011450
X091139Y006470
X091139Y006895
X091139Y007320
X091139Y007770
X091139Y008195
X090759Y015400
X090479Y014750
X093479Y015680
X093479Y014160
X096174Y016375
X096174Y015450
X096649Y015450
X096649Y016375
X097124Y015450
X097124Y016375
X098074Y015450
X098074Y016375
X097599Y016375
X097599Y015450
X098074Y017350
X093839Y019680
X095079Y017700
X093999Y019280
X089679Y018780
X090559Y017820
X090479Y017170
X091019Y020120
X091699Y020100
X092039Y020100
X092819Y019740
X092699Y017980
X093479Y017000
X089299Y022100
X088979Y021660
X088979Y021320
X088979Y023160
X089339Y022840
X089239Y022500
X088079Y024040
X088949Y023930
X088949Y024270
X088579Y026130
X088829Y025890
X088339Y025820
X093529Y025860
X092739Y025860
X091859Y025860
X091349Y025620
X091709Y023150
X091359Y022200
X090979Y021920
X093839Y021220
X090779Y024240
X094599Y022890
X096614Y024110
X096174Y017350
X096649Y017350
X097124Y017350
X097599Y017350
X088399Y018810
X088759Y020240
X086059Y021130
X086019Y021510
X085574Y022050
X087009Y021250
X087279Y021480
X086499Y021625
X086819Y023210
X084169Y023530
X084919Y022900
X087579Y024730
X087579Y024390
X087739Y024040
X087099Y023910
X086519Y024260
X083199Y024780
X084409Y024060
X087609Y025070
X084109Y026390
X087409Y025550
X083879Y016500
X084339Y016570
X084789Y016580
X083499Y016600
X085799Y016590
X085459Y016590
X085859Y019880
X086839Y016670
X086279Y017800
X086339Y018220
X083074Y020750
X082799Y019040
X082929Y018700
X083299Y018600
X083274Y017675
X087119Y020220
X087759Y018860
X086229Y029100
X086169Y030100
X085199Y029420
X083199Y029350
X083199Y029770
X082919Y030840
X083259Y030970
X090159Y029360
X089479Y030300
X089189Y029800
X088559Y029150
X086959Y027600
X088159Y027440
X088779Y027440
X090379Y027420
X084099Y027620
X084124Y027275
X089189Y027440
X087789Y028510
X088159Y027980
X090029Y028070
X088569Y028130
X085819Y027980
X084169Y028420
X082749Y028490
X083199Y028530
X089399Y028060
X091159Y029980
X091159Y030360
X091089Y029420
X090719Y029050
X090499Y029320
X090499Y031320
X092109Y027730
X094249Y029670
X092769Y029640
X092759Y030930
X092709Y032170
T02
X082239Y026600
X080639Y026600
X082239Y021280
X080639Y021280
X082239Y022280
X080639Y022280
X082239Y023330
X080639Y023330
X082239Y024600
X080639Y024600
X082239Y025600
X080639Y025600
X082239Y027600
X080639Y027600
X080644Y017735
X080639Y018480
X080639Y019280
X080639Y020280
X082239Y020280
X082239Y019280
X082239Y018480
X082244Y017735
X096358Y026600
X094758Y026600
X094758Y027600
X096358Y027600
X094758Y025600
X096358Y025600
X096358Y029878
X096358Y029262
X096358Y028598
X094758Y028598
X094758Y029262
X094758Y029878
X082239Y029600
X082239Y030600
X080639Y030600
X080639Y029600
X082239Y028600
X080639Y028600
T03
X078999Y021000
X078999Y023600
X078999Y022000
X078999Y024600
X078999Y015000
X078999Y017000
X078999Y016000
X078999Y019000
X078999Y018000
X078999Y020000
X097999Y023600
X097999Y022600
X097999Y021600
X097999Y018600
X097999Y020600
X097999Y019600
X097999Y026600
X097999Y027600
X097999Y028600
X097999Y029600
X097999Y030600
X097999Y025600
X078999Y026600
X078999Y030600
X078999Y029600
X078999Y025600
X078999Y027600
X078999Y028600
T04
X083507Y008955
X083507Y008167
X084491Y008167
X084491Y008955
T05
X085649Y019100
X085649Y018100
X086449Y016000
X086449Y017000
X084499Y018100
X084499Y019100
X088249Y017100
X088249Y016100
X088249Y029550
X087249Y029550
T06
X080299Y013800
X081299Y013800
X082299Y013800
X083299Y013800
X081299Y012800
X081299Y011800
X080299Y011800
X080299Y012800
X083299Y012800
X082299Y012800
X089019Y030656
X089019Y031656
X087019Y031656
X087019Y030656
X088019Y031656
X088019Y030656
T07
X079459Y009210
X079459Y006650
X092099Y031560
X092099Y029000
T08
X086369Y007100
X081629Y007100
T09
X078999Y011600
X097999Y011100
X084999Y031600
X095999Y031600
T01
X061729Y015270
X066889Y008195
X066164Y008195
X066164Y007770
X066164Y007320
X066164Y006895
X066164Y006470
X066889Y006470
X066889Y006895
X066889Y007320
X066889Y007770
X066569Y015450
X057469Y015380
X060219Y014710
X060479Y015300
X059599Y015500
X059879Y014590
X061389Y014100
X060049Y015590
X056959Y015580
X061489Y015720
X059589Y015980
X062319Y010930
X061784Y013705
X062039Y015600
X062399Y015630
X062449Y015240
X062829Y012725
X063069Y015130
X063389Y010960
X063979Y009900
X064159Y011980
X065159Y013520
X064984Y014460
X065499Y013180
X065499Y011780
X065649Y011200
X065749Y010825
X063749Y015040
X065889Y015490
X064359Y016420
X057819Y009700
X058609Y011580
X059219Y011440
X059499Y010060
X067549Y011450
X067639Y006470
X067639Y006895
X067639Y007320
X067639Y007770
X067639Y008195
X067259Y015400
X066979Y014750
X069979Y015680
X069979Y014160
X072674Y016375
X072674Y015450
X073149Y015450
X073149Y016375
X073624Y015450
X073624Y016375
X074574Y015450
X074574Y016375
X074099Y016375
X074099Y015450
X074574Y017350
X070339Y019680
X071579Y017700
X070499Y019280
X066179Y018780
X067059Y017820
X066979Y017170
X067519Y020120
X068199Y020100
X068539Y020100
X069319Y019740
X069199Y017980
X069979Y017000
X065799Y022100
X065479Y021660
X065479Y021320
X065479Y023160
X065839Y022840
X065739Y022500
X064579Y024040
X065449Y023930
X065449Y024270
X065079Y026130
X065329Y025890
X064839Y025820
X070029Y025860
X069239Y025860
X068359Y025860
X067849Y025620
X068209Y023150
X067859Y022200
X067479Y021920
X070339Y021220
X067279Y024240
X071099Y022890
X073114Y024110
X072674Y017350
X073149Y017350
X073624Y017350
X074099Y017350
X064899Y018810
X065259Y020240
X062559Y021130
X062519Y021510
X062074Y022050
X063509Y021250
X063779Y021480
X062999Y021625
X063319Y023210
X060669Y023530
X061419Y022900
X064079Y024730
X064079Y024390
X064239Y024040
X063599Y023910
X063019Y024260
X059699Y024780
X060909Y024060
X064109Y025070
X060609Y026390
X063909Y025550
X060379Y016500
X060839Y016570
X061289Y016580
X059999Y016600
X062299Y016590
X061959Y016590
X062359Y019880
X063339Y016670
X062779Y017800
X062839Y018220
X059574Y020750
X059299Y019040
X059429Y018700
X059799Y018600
X059774Y017675
X063619Y020220
X064259Y018860
X062729Y029100
X062669Y030100
X061699Y029420
X059699Y029350
X059699Y029770
X059419Y030840
X059759Y030970
X066659Y029360
X065979Y030300
X065689Y029800
X065059Y029150
X063459Y027600
X064659Y027440
X065279Y027440
X066879Y027420
X060599Y027620
X060624Y027275
X065689Y027440
X064289Y028510
X064659Y027980
X066529Y028070
X065069Y028130
X062319Y027980
X060669Y028420
X059249Y028490
X059699Y028530
X065899Y028060
X067659Y029980
X067659Y030360
X067589Y029420
X067219Y029050
X066999Y029320
X066999Y031320
X068609Y027730
X070749Y029670
X069269Y029640
X069259Y030930
X069209Y032170
T02
X058739Y026600
X057139Y026600
X058739Y021280
X057139Y021280
X058739Y022280
X057139Y022280
X058739Y023330
X057139Y023330
X058739Y024600
X057139Y024600
X058739Y025600
X057139Y025600
X058739Y027600
X057139Y027600
X057144Y017735
X057139Y018480
X057139Y019280
X057139Y020280
X058739Y020280
X058739Y019280
X058739Y018480
X058744Y017735
X072858Y026600
X071258Y026600
X071258Y027600
X072858Y027600
X071258Y025600
X072858Y025600
X072858Y029878
X072858Y029262
X072858Y028598
X071258Y028598
X071258Y029262
X071258Y029878
X058739Y029600
X058739Y030600
X057139Y030600
X057139Y029600
X058739Y028600
X057139Y028600
T03
X055499Y021000
X055499Y023600
X055499Y022000
X055499Y024600
X055499Y015000
X055499Y017000
X055499Y016000
X055499Y019000
X055499Y018000
X055499Y020000
X074499Y023600
X074499Y022600
X074499Y021600
X074499Y018600
X074499Y020600
X074499Y019600
X074499Y026600
X074499Y027600
X074499Y028600
X074499Y029600
X074499Y030600
X074499Y025600
X055499Y026600
X055499Y030600
X055499Y029600
X055499Y025600
X055499Y027600
X055499Y028600
T04
X060007Y008955
X060007Y008167
X060991Y008167
X060991Y008955
T05
X062149Y019100
X062149Y018100
X062949Y016000
X062949Y017000
X060999Y018100
X060999Y019100
X064749Y017100
X064749Y016100
X064749Y029550
X063749Y029550
T06
X056799Y013800
X057799Y013800
X058799Y013800
X059799Y013800
X057799Y012800
X057799Y011800
X056799Y011800
X056799Y012800
X059799Y012800
X058799Y012800
X065519Y030656
X065519Y031656
X063519Y031656
X063519Y030656
X064519Y031656
X064519Y030656
T07
X055959Y009210
X055959Y006650
X068599Y031560
X068599Y029000
T08
X062869Y007100
X058129Y007100
T09
X055499Y011600
X074499Y011100
X061499Y031600
X072499Y031600
T01
X038229Y015270
X043389Y008195
X042664Y008195
X042664Y007770
X042664Y007320
X042664Y006895
X042664Y006470
X043389Y006470
X043389Y006895
X043389Y007320
X043389Y007770
X043069Y015450
X033969Y015380
X036719Y014710
X036979Y015300
X036099Y015500
X036379Y014590
X037889Y014100
X036549Y015590
X033459Y015580
X037989Y015720
X036089Y015980
X038819Y010930
X038284Y013705
X038539Y015600
X038899Y015630
X038949Y015240
X039329Y012725
X039569Y015130
X039889Y010960
X040479Y009900
X040659Y011980
X041659Y013520
X041484Y014460
X041999Y013180
X041999Y011780
X042149Y011200
X042249Y010825
X040249Y015040
X042389Y015490
X040859Y016420
X034319Y009700
X035109Y011580
X035719Y011440
X035999Y010060
X044049Y011450
X044139Y006470
X044139Y006895
X044139Y007320
X044139Y007770
X044139Y008195
X043759Y015400
X043479Y014750
X046479Y015680
X046479Y014160
X049174Y016375
X049174Y015450
X049649Y015450
X049649Y016375
X050124Y015450
X050124Y016375
X051074Y015450
X051074Y016375
X050599Y016375
X050599Y015450
X051074Y017350
X046839Y019680
X048079Y017700
X046999Y019280
X042679Y018780
X043559Y017820
X043479Y017170
X044019Y020120
X044699Y020100
X045039Y020100
X045819Y019740
X045699Y017980
X046479Y017000
X042299Y022100
X041979Y021660
X041979Y021320
X041979Y023160
X042339Y022840
X042239Y022500
X041079Y024040
X041949Y023930
X041949Y024270
X041579Y026130
X041829Y025890
X041339Y025820
X046529Y025860
X045739Y025860
X044859Y025860
X044349Y025620
X044709Y023150
X044359Y022200
X043979Y021920
X046839Y021220
X043779Y024240
X047599Y022890
X049614Y024110
X049174Y017350
X049649Y017350
X050124Y017350
X050599Y017350
X041399Y018810
X041759Y020240
X039059Y021130
X039019Y021510
X038574Y022050
X040009Y021250
X040279Y021480
X039499Y021625
X039819Y023210
X037169Y023530
X037919Y022900
X040579Y024730
X040579Y024390
X040739Y024040
X040099Y023910
X039519Y024260
X036199Y024780
X037409Y024060
X040609Y025070
X037109Y026390
X040409Y025550
X036879Y016500
X037339Y016570
X037789Y016580
X036499Y016600
X038799Y016590
X038459Y016590
X038859Y019880
X039839Y016670
X039279Y017800
X039339Y018220
X036074Y020750
X035799Y019040
X035929Y018700
X036299Y018600
X036274Y017675
X040119Y020220
X040759Y018860
X039229Y029100
X039169Y030100
X038199Y029420
X036199Y029350
X036199Y029770
X035919Y030840
X036259Y030970
X043159Y029360
X042479Y030300
X042189Y029800
X041559Y029150
X039959Y027600
X041159Y027440
X041779Y027440
X043379Y027420
X037099Y027620
X037124Y027275
X042189Y027440
X040789Y028510
X041159Y027980
X043029Y028070
X041569Y028130
X038819Y027980
X037169Y028420
X035749Y028490
X036199Y028530
X042399Y028060
X044159Y029980
X044159Y030360
X044089Y029420
X043719Y029050
X043499Y029320
X043499Y031320
X045109Y027730
X047249Y029670
X045769Y029640
X045759Y030930
X045709Y032170
T02
X035239Y026600
X033639Y026600
X035239Y021280
X033639Y021280
X035239Y022280
X033639Y022280
X035239Y023330
X033639Y023330
X035239Y024600
X033639Y024600
X035239Y025600
X033639Y025600
X035239Y027600
X033639Y027600
X033644Y017735
X033639Y018480
X033639Y019280
X033639Y020280
X035239Y020280
X035239Y019280
X035239Y018480
X035244Y017735
X049358Y026600
X047758Y026600
X047758Y027600
X049358Y027600
X047758Y025600
X049358Y025600
X049358Y029878
X049358Y029262
X049358Y028598
X047758Y028598
X047758Y029262
X047758Y029878
X035239Y029600
X035239Y030600
X033639Y030600
X033639Y029600
X035239Y028600
X033639Y028600
T03
X031999Y021000
X031999Y023600
X031999Y022000
X031999Y024600
X031999Y015000
X031999Y017000
X031999Y016000
X031999Y019000
X031999Y018000
X031999Y020000
X050999Y023600
X050999Y022600
X050999Y021600
X050999Y018600
X050999Y020600
X050999Y019600
X050999Y026600
X050999Y027600
X050999Y028600
X050999Y029600
X050999Y030600
X050999Y025600
X031999Y026600
X031999Y030600
X031999Y029600
X031999Y025600
X031999Y027600
X031999Y028600
T04
X036507Y008955
X036507Y008167
X037491Y008167
X037491Y008955
T05
X038649Y019100
X038649Y018100
X039449Y016000
X039449Y017000
X037499Y018100
X037499Y019100
X041249Y017100
X041249Y016100
X041249Y029550
X040249Y029550
T06
X033299Y013800
X034299Y013800
X035299Y013800
X036299Y013800
X034299Y012800
X034299Y011800
X033299Y011800
X033299Y012800
X036299Y012800
X035299Y012800
X042019Y030656
X042019Y031656
X040019Y031656
X040019Y030656
X041019Y031656
X041019Y030656
T07
X032459Y009210
X032459Y006650
X045099Y031560
X045099Y029000
T08
X039369Y007100
X034629Y007100
T09
X031999Y011600
X050999Y011100
X037999Y031600
X048999Y031600
T01
X014729Y015270
X019889Y008195
X019164Y008195
X019164Y007770
X019164Y007320
X019164Y006895
X019164Y006470
X019889Y006470
X019889Y006895
X019889Y007320
X019889Y007770
X019569Y015450
X010469Y015380
X013219Y014710
X013479Y015300
X012599Y015500
X012879Y014590
X014389Y014100
X013049Y015590
X009959Y015580
X014489Y015720
X012589Y015980
X015319Y010930
X014784Y013705
X015039Y015600
X015399Y015630
X015449Y015240
X015829Y012725
X016069Y015130
X016389Y010960
X016979Y009900
X017159Y011980
X018159Y013520
X017984Y014460
X018499Y013180
X018499Y011780
X018649Y011200
X018749Y010825
X016749Y015040
X018889Y015490
X017359Y016420
X010819Y009700
X011609Y011580
X012219Y011440
X012499Y010060
X020549Y011450
X020639Y006470
X020639Y006895
X020639Y007320
X020639Y007770
X020639Y008195
X020259Y015400
X019979Y014750
X022979Y015680
X022979Y014160
X025674Y016375
X025674Y015450
X026149Y015450
X026149Y016375
X026624Y015450
X026624Y016375
X027574Y015450
X027574Y016375
X027099Y016375
X027099Y015450
X027574Y017350
X023339Y019680
X024579Y017700
X023499Y019280
X019179Y018780
X020059Y017820
X019979Y017170
X020519Y020120
X021199Y020100
X021539Y020100
X022319Y019740
X022199Y017980
X022979Y017000
X018799Y022100
X018479Y021660
X018479Y021320
X018479Y023160
X018839Y022840
X018739Y022500
X017579Y024040
X018449Y023930
X018449Y024270
X018079Y026130
X018329Y025890
X017839Y025820
X023029Y025860
X022239Y025860
X021359Y025860
X020849Y025620
X021209Y023150
X020859Y022200
X020479Y021920
X023339Y021220
X020279Y024240
X024099Y022890
X026114Y024110
X025674Y017350
X026149Y017350
X026624Y017350
X027099Y017350
X017899Y018810
X018259Y020240
X015559Y021130
X015519Y021510
X015074Y022050
X016509Y021250
X016779Y021480
X015999Y021625
X016319Y023210
X013669Y023530
X014419Y022900
X017079Y024730
X017079Y024390
X017239Y024040
X016599Y023910
X016019Y024260
X012699Y024780
X013909Y024060
X017109Y025070
X013609Y026390
X016909Y025550
X013379Y016500
X013839Y016570
X014289Y016580
X012999Y016600
X015299Y016590
X014959Y016590
X015359Y019880
X016339Y016670
X015779Y017800
X015839Y018220
X012574Y020750
X012299Y019040
X012429Y018700
X012799Y018600
X012774Y017675
X016619Y020220
X017259Y018860
X015729Y029100
X015669Y030100
X014699Y029420
X012699Y029350
X012699Y029770
X012419Y030840
X012759Y030970
X019659Y029360
X018979Y030300
X018689Y029800
X018059Y029150
X016459Y027600
X017659Y027440
X018279Y027440
X019879Y027420
X013599Y027620
X013624Y027275
X018689Y027440
X017289Y028510
X017659Y027980
X019529Y028070
X018069Y028130
X015319Y027980
X013669Y028420
X012249Y028490
X012699Y028530
X018899Y028060
X020659Y029980
X020659Y030360
X020589Y029420
X020219Y029050
X019999Y029320
X019999Y031320
X021609Y027730
X023749Y029670
X022269Y029640
X022259Y030930
X022209Y032170
T02
X011739Y026600
X010139Y026600
X011739Y021280
X010139Y021280
X011739Y022280
X010139Y022280
X011739Y023330
X010139Y023330
X011739Y024600
X010139Y024600
X011739Y025600
X010139Y025600
X011739Y027600
X010139Y027600
X010144Y017735
X010139Y018480
X010139Y019280
X010139Y020280
X011739Y020280
X011739Y019280
X011739Y018480
X011744Y017735
X025858Y026600
X024258Y026600
X024258Y027600
X025858Y027600
X024258Y025600
X025858Y025600
X025858Y029878
X025858Y029262
X025858Y028598
X024258Y028598
X024258Y029262
X024258Y029878
X011739Y029600
X011739Y030600
X010139Y030600
X010139Y029600
X011739Y028600
X010139Y028600
T03
X008499Y021000
X008499Y023600
X008499Y022000
X008499Y024600
X008499Y015000
X008499Y017000
X008499Y016000
X008499Y019000
X008499Y018000
X008499Y020000
X027499Y023600
X027499Y022600
X027499Y021600
X027499Y018600
X027499Y020600
X027499Y019600
X027499Y026600
X027499Y027600
X027499Y028600
X027499Y029600
X027499Y030600
X027499Y025600
X008499Y026600
X008499Y030600
X008499Y029600
X008499Y025600
X008499Y027600
X008499Y028600
T04
X013007Y008955
X013007Y008167
X013991Y008167
X013991Y008955
T05
X015149Y019100
X015149Y018100
X015949Y016000
X015949Y017000
X013999Y018100
X013999Y019100
X017749Y017100
X017749Y016100
X017749Y029550
X016749Y029550
T06
X009799Y013800
X010799Y013800
X011799Y013800
X012799Y013800
X010799Y012800
X010799Y011800
X009799Y011800
X009799Y012800
X012799Y012800
X011799Y012800
X018519Y030656
X018519Y031656
X016519Y031656
X016519Y030656
X017519Y031656
X017519Y030656
T07
X008959Y009210
X008959Y006650
X021599Y031560
X021599Y029000
T08
X015869Y007100
X011129Y007100
T09
X008499Y011600
X027499Y011100
X014499Y031600
X025499Y031600
M30
