%
M48
M72
T01C0.0150
T02C0.0315
T03C0.0350
T04C0.0374
T05C0.0394
T06C0.0400
T07C0.0512
T08C0.0906
T09C0.1260
%
T01
X23398Y6095
X24918Y6095
X26238Y6095
X27218Y6875
X28978Y6755
X29338Y7535
X29338Y7875
X29358Y8555
X31158Y8595
X31438Y8215
X32388Y7865
X34858Y8225
X35098Y7715
X36968Y7465
X35098Y6835
X35098Y6045
X32128Y4975
X30458Y5735
X28918Y5735
X28518Y5575
X26938Y4495
X26588Y3400
X25613Y3400
X24688Y3400
X24688Y2925
X25613Y2925
X26588Y2925
X26588Y2450
X25613Y2450
X24688Y2450
X24688Y1975
X25613Y1975
X26588Y1975
X26588Y1500
X25613Y1500
X24688Y1500
X33348Y2960
X38908Y5325
X38878Y6805
X40168Y6815
X41408Y6865
X39598Y8415
X39218Y8415
X38658Y8485
X38288Y8855
X38558Y9075
X38598Y9415
X37308Y9545
X36658Y9195
X39538Y10095
X39038Y10385
X38388Y11015
X37368Y11005
X36678Y10795
X35368Y10995
X35128Y10745
X35058Y11235
X36678Y11415
X37218Y11415
X37748Y11785
X36838Y12615
X38338Y13345
X39338Y13405
X37218Y13755
X38658Y14375
X37658Y15405
X36858Y15475
X36513Y15450
X35628Y15465
X33298Y15165
X32768Y15405
X32138Y14655
X31288Y14000
X30748Y13555
X30368Y13515
X29118Y13715
X27458Y13235
X27038Y13295
X25908Y12735
X24368Y13005
X24478Y13625
X24868Y13675
X24838Y14035
X25828Y14115
X24508Y14345
X24958Y14585
X25818Y14785
X25808Y15235
X25738Y15695
X24538Y15595
X23948Y15855
X24828Y16025
X25838Y16075
X25218Y16485
X24738Y16475
X23828Y16195
X26913Y16300
X27838Y16275
X27938Y16645
X28278Y16775
X29988Y16500
X34018Y16375
X37728Y16825
X37768Y16375
X38588Y16375
X39008Y16375
X40078Y16655
X40208Y16315
X33498Y13055
X32448Y12755
X33148Y12475
X33278Y11835
X33628Y11995
X33968Y11995
X34308Y11965
X34788Y12165
X33278Y11495
X33168Y10625
X33508Y10625
X32398Y10595
X32078Y10235
X31738Y10335
X31338Y10275
X30898Y10595
X30558Y10595
X29478Y10815
X28048Y11175
X28098Y11815
X29458Y12455
X30488Y12565
X30718Y12295
X30863Y13075
X25828Y13775
X23338Y14685
X22943Y14290
X20168Y13755
X21963Y13245
X20198Y12685
X19138Y12095
X21218Y11915
X22758Y10915
X23698Y11090
X22418Y10575
X21018Y10575
X20438Y10425
X20063Y10325
X17433Y9910
X17008Y9910
X16558Y9910
X16133Y9910
X15708Y9910
X15708Y9185
X16133Y9185
X16558Y9185
X17008Y9185
X17433Y9185
X17433Y8435
X17008Y8435
X16558Y8435
X16133Y8435
X15708Y8435
X20688Y8525
X23988Y9095
X24638Y8815
X26408Y9095
X27058Y9015
X24688Y9505
X24728Y10185
X28018Y9895
X33478Y8795
X36678Y10385
X37298Y10175
X40558Y9075
X25658Y11715
X24278Y12325
X19298Y16575
X20678Y16855
X20818Y17465
X18938Y18255
X24618Y18605
X24818Y19115
T02
X26973Y18930
X27718Y18935
X28518Y18935
X29518Y18935
X30518Y18935
X31518Y18935
X32568Y18935
X33838Y18935
X34838Y18935
X35838Y18935
X36838Y18935
X37838Y18935
X38838Y18935
X39838Y18935
X39838Y17335
X38838Y17335
X37838Y17335
X36838Y17335
X35838Y17335
X34838Y17335
X33838Y17335
X32568Y17335
X31518Y17335
X30518Y17335
X29518Y17335
X28518Y17335
X27718Y17335
X26973Y17330
X34838Y4816
X35838Y4816
X36838Y4816
X37836Y4816
X38500Y4816
X39116Y4816
X39116Y3216
X38500Y3216
X37836Y3216
X36838Y3216
X35838Y3216
X34838Y3216
T03
X34838Y1575
X35838Y1575
X36838Y1575
X37838Y1575
X38838Y1575
X39838Y1575
X32838Y1575
X31838Y1575
X30838Y1575
X29838Y1575
X28838Y1575
X27838Y1575
X28238Y20575
X27238Y20575
X26238Y20575
X25238Y20575
X24238Y20575
X29238Y20575
X30238Y20575
X31238Y20575
X32838Y20575
X33838Y20575
X34838Y20575
X35838Y20575
X36838Y20575
X37838Y20575
X38838Y20575
X39838Y20575
T04
X18193Y16067
X17405Y16067
X17405Y15083
X18193Y15083
T05
X25238Y13125
X26238Y13125
X27338Y13925
X28338Y13925
X28338Y15075
X27338Y15075
X38788Y12325
X38788Y11325
X26338Y11325
X25338Y11325
T06
X39894Y11555
X40894Y11555
X40894Y10555
X39894Y10555
X39894Y12555
X40894Y12555
X23038Y16275
X22038Y16275
X22038Y17275
X23038Y17275
X23038Y18275
X22038Y18275
X21038Y18275
X21038Y19275
X22038Y19275
X23038Y19275
T07
X18448Y20115
X15888Y20115
X38238Y7475
X40798Y7475
T08
X16338Y13205
X16338Y17945
T09
X20338Y1575
X40838Y3575
X40838Y14575
X20838Y20575
M30
