G75*
G70*
%OFA0B0*%
%FSLAX24Y24*%
%IPPOS*%
%LPD*%
%AMOC8*
5,1,8,0,0,1.08239X$1,22.5*
%
%ADD10C,0.0070*%
%ADD11C,0.0120*%
%ADD12C,0.0300*%
%ADD13C,0.0060*%
%ADD14C,0.0050*%
%ADD15C,0.0157*%
%ADD16C,0.0197*%
%ADD17R,0.0106X0.0571*%
%ADD18R,0.0035X0.0024*%
%ADD19R,0.0055X0.0024*%
%ADD20R,0.0098X0.0618*%
%ADD21C,0.0010*%
%ADD22C,0.0110*%
%ADD23R,0.0750X0.0330*%
%ADD24R,0.0090X0.0120*%
%ADD25R,0.0600X0.0080*%
%ADD26R,0.0080X0.0080*%
%ADD27C,0.0080*%
%ADD28C,0.0100*%
D10*
X030568Y002185D02*
X030568Y002485D01*
X030898Y002485D01*
X031798Y002485D02*
X032128Y002485D01*
X032128Y002185D01*
D11*
X023438Y019775D02*
X023440Y019795D01*
X023446Y019813D01*
X023455Y019831D01*
X023467Y019846D01*
X023482Y019858D01*
X023500Y019867D01*
X023518Y019873D01*
X023538Y019875D01*
X023558Y019873D01*
X023576Y019867D01*
X023594Y019858D01*
X023609Y019846D01*
X023621Y019831D01*
X023630Y019813D01*
X023636Y019795D01*
X023638Y019775D01*
X023636Y019755D01*
X023630Y019737D01*
X023621Y019719D01*
X023609Y019704D01*
X023594Y019692D01*
X023576Y019683D01*
X023558Y019677D01*
X023538Y019675D01*
X023518Y019677D01*
X023500Y019683D01*
X023482Y019692D01*
X023467Y019704D01*
X023455Y019719D01*
X023446Y019737D01*
X023440Y019755D01*
X023438Y019775D01*
D12*
X039298Y013085D03*
D13*
X039394Y012805D02*
X039644Y013055D01*
X041144Y013055D01*
X041394Y012805D01*
X041394Y012305D01*
X041144Y012055D01*
X039644Y012055D01*
X039394Y011805D01*
X039394Y011305D01*
X039644Y011055D01*
X039394Y010805D01*
X039394Y010305D01*
X039644Y010055D01*
X041144Y010055D01*
X041394Y010305D01*
X041394Y010805D01*
X041144Y011055D01*
X039644Y011055D01*
X041144Y011055D02*
X041394Y011305D01*
X041394Y011805D01*
X041144Y012055D01*
X039644Y012055D02*
X039394Y012305D01*
X039394Y012805D01*
X039843Y013180D02*
X039957Y013180D01*
X039900Y013180D02*
X039900Y013520D01*
X039843Y013520D02*
X039957Y013520D01*
X040089Y013464D02*
X040089Y013237D01*
X040146Y013180D01*
X040259Y013180D01*
X040316Y013237D01*
X040457Y013237D02*
X040514Y013180D01*
X040627Y013180D01*
X040684Y013237D01*
X040684Y013293D01*
X040627Y013350D01*
X040514Y013350D01*
X040457Y013407D01*
X040457Y013464D01*
X040514Y013520D01*
X040627Y013520D01*
X040684Y013464D01*
X040826Y013520D02*
X040996Y013520D01*
X041053Y013464D01*
X041053Y013350D01*
X040996Y013293D01*
X040826Y013293D01*
X040826Y013180D02*
X040826Y013520D01*
X040316Y013464D02*
X040259Y013520D01*
X040146Y013520D01*
X040089Y013464D01*
X038153Y014760D02*
X037524Y014760D01*
X037602Y014839D02*
X037996Y015075D01*
X037602Y015311D01*
X037602Y014839D01*
X037602Y014849D02*
X037619Y014849D01*
X037602Y014908D02*
X037717Y014908D01*
X037814Y014966D02*
X037602Y014966D01*
X037602Y015025D02*
X037912Y015025D01*
X037983Y015083D02*
X037602Y015083D01*
X037602Y015142D02*
X037885Y015142D01*
X037788Y015200D02*
X037602Y015200D01*
X037602Y015259D02*
X037690Y015259D01*
X037524Y015390D02*
X038153Y015390D01*
X037996Y015311D02*
X037996Y014839D01*
X036939Y014905D02*
X036939Y015245D01*
X036712Y015245D02*
X036712Y014905D01*
X036570Y014962D02*
X036570Y015189D01*
X036514Y015245D01*
X036400Y015245D01*
X036343Y015189D01*
X036343Y014962D01*
X036400Y014905D01*
X036514Y014905D01*
X036570Y014962D01*
X036712Y015245D02*
X036939Y014905D01*
X037718Y012046D02*
X037720Y012069D01*
X037726Y012092D01*
X037735Y012113D01*
X037748Y012133D01*
X037764Y012150D01*
X037782Y012164D01*
X037802Y012175D01*
X037824Y012183D01*
X037847Y012187D01*
X037871Y012187D01*
X037894Y012183D01*
X037916Y012175D01*
X037936Y012164D01*
X037954Y012150D01*
X037970Y012133D01*
X037983Y012113D01*
X037992Y012092D01*
X037998Y012069D01*
X038000Y012046D01*
X037998Y012023D01*
X037992Y012000D01*
X037983Y011979D01*
X037970Y011959D01*
X037954Y011942D01*
X037936Y011928D01*
X037916Y011917D01*
X037894Y011909D01*
X037871Y011905D01*
X037847Y011905D01*
X037824Y011909D01*
X037802Y011917D01*
X037782Y011928D01*
X037764Y011942D01*
X037748Y011959D01*
X037735Y011979D01*
X037726Y012000D01*
X037720Y012023D01*
X037718Y012046D01*
X031900Y009592D02*
X031663Y009238D01*
X031427Y009592D01*
X031900Y009592D01*
X031894Y009584D02*
X031433Y009584D01*
X031472Y009526D02*
X031855Y009526D01*
X031816Y009467D02*
X031511Y009467D01*
X031550Y009409D02*
X031777Y009409D01*
X031738Y009350D02*
X031589Y009350D01*
X031628Y009292D02*
X031699Y009292D01*
X031900Y009238D02*
X031408Y009238D01*
X027236Y010600D02*
X027236Y010770D01*
X027179Y010827D01*
X027009Y010827D01*
X027009Y010600D01*
X026867Y010600D02*
X026641Y010600D01*
X026641Y010940D01*
X026867Y010940D01*
X026754Y010770D02*
X026641Y010770D01*
X026499Y010770D02*
X026272Y010770D01*
X026140Y010827D02*
X026027Y010827D01*
X026083Y010884D02*
X026083Y010657D01*
X026140Y010600D01*
X025885Y010713D02*
X025658Y010713D01*
X025658Y010657D02*
X025658Y010770D01*
X025715Y010827D01*
X025829Y010827D01*
X025885Y010770D01*
X025885Y010713D01*
X025829Y010600D02*
X025715Y010600D01*
X025658Y010657D01*
X025517Y010657D02*
X025460Y010713D01*
X025347Y010713D01*
X025290Y010770D01*
X025347Y010827D01*
X025517Y010827D01*
X025517Y010657D02*
X025460Y010600D01*
X025290Y010600D01*
X025149Y010713D02*
X024922Y010713D01*
X024922Y010657D02*
X024922Y010770D01*
X024979Y010827D01*
X025092Y010827D01*
X025149Y010770D01*
X025149Y010713D01*
X025092Y010600D02*
X024979Y010600D01*
X024922Y010657D01*
X024780Y010600D02*
X024667Y010713D01*
X024724Y010713D02*
X024553Y010713D01*
X024553Y010600D02*
X024553Y010940D01*
X024724Y010940D01*
X024780Y010884D01*
X024780Y010770D01*
X024724Y010713D01*
X026643Y013518D02*
X026643Y013689D01*
X026700Y013745D01*
X026813Y013745D01*
X026870Y013689D01*
X026870Y013518D01*
X026983Y013518D02*
X026643Y013518D01*
X026870Y013632D02*
X026983Y013745D01*
X026983Y013887D02*
X026757Y014114D01*
X026983Y014114D02*
X026757Y013887D01*
X026153Y013760D02*
X025524Y013760D01*
X025602Y013839D02*
X025996Y014075D01*
X025602Y014311D01*
X025602Y013839D01*
X025602Y013855D02*
X025629Y013855D01*
X025602Y013913D02*
X025726Y013913D01*
X025824Y013972D02*
X025602Y013972D01*
X025602Y014030D02*
X025921Y014030D01*
X025973Y014089D02*
X025602Y014089D01*
X025602Y014147D02*
X025876Y014147D01*
X025778Y014206D02*
X025602Y014206D01*
X025602Y014264D02*
X025681Y014264D01*
X025524Y014390D02*
X026153Y014390D01*
X025996Y014311D02*
X025996Y013839D01*
X026643Y014493D02*
X026643Y014720D01*
X026643Y014607D02*
X026983Y014607D01*
X026983Y014862D02*
X026757Y015089D01*
X026983Y015089D02*
X026757Y014862D01*
X026153Y014760D02*
X025524Y014760D01*
X025602Y014839D02*
X025996Y015075D01*
X025602Y015311D01*
X025602Y014839D01*
X025602Y014849D02*
X025619Y014849D01*
X025602Y014908D02*
X025717Y014908D01*
X025814Y014966D02*
X025602Y014966D01*
X025602Y015025D02*
X025912Y015025D01*
X025983Y015083D02*
X025602Y015083D01*
X025602Y015142D02*
X025885Y015142D01*
X025788Y015200D02*
X025602Y015200D01*
X025602Y015259D02*
X025690Y015259D01*
X025524Y015390D02*
X026153Y015390D01*
X025996Y015311D02*
X025996Y014839D01*
X023538Y016025D02*
X023288Y015775D01*
X021788Y015775D01*
X021538Y016025D01*
X021538Y016525D01*
X021788Y016775D01*
X023288Y016775D01*
X023538Y017025D01*
X023538Y017525D01*
X023288Y017775D01*
X021788Y017775D01*
X021538Y017525D01*
X021538Y017025D01*
X021788Y016775D01*
X023288Y016775D02*
X023538Y016525D01*
X023538Y016025D01*
X025524Y016760D02*
X026153Y016760D01*
X025996Y016839D02*
X025996Y017311D01*
X026153Y017390D02*
X025524Y017390D01*
X025602Y017311D02*
X025996Y017075D01*
X025602Y016839D01*
X025602Y017311D01*
X025602Y017306D02*
X025611Y017306D01*
X025602Y017248D02*
X025708Y017248D01*
X025806Y017189D02*
X025602Y017189D01*
X025602Y017131D02*
X025903Y017131D01*
X025991Y017072D02*
X025602Y017072D01*
X025602Y017014D02*
X025894Y017014D01*
X025796Y016955D02*
X025602Y016955D01*
X025602Y016897D02*
X025699Y016897D01*
X026643Y016662D02*
X026983Y016662D01*
X026983Y016889D01*
X023538Y018025D02*
X023288Y017775D01*
X022788Y017775D01*
X022538Y018025D01*
X022538Y019525D01*
X022288Y019775D01*
X021788Y019775D01*
X021538Y019525D01*
X021288Y019775D01*
X020788Y019775D01*
X020538Y019525D01*
X020538Y018025D01*
X020788Y017775D01*
X021288Y017775D01*
X021538Y018025D01*
X021538Y019525D01*
X022538Y019525D02*
X022788Y019775D01*
X023288Y019775D01*
X023538Y019525D01*
X023538Y018025D01*
X022538Y018025D02*
X022288Y017775D01*
X021788Y017775D01*
X021538Y018025D01*
X025068Y019352D02*
X025068Y019465D01*
X025125Y019522D01*
X025352Y019295D01*
X025408Y019352D01*
X025408Y019465D01*
X025352Y019522D01*
X025125Y019522D01*
X025068Y019663D02*
X025295Y019663D01*
X025408Y019777D01*
X025295Y019890D01*
X025068Y019890D01*
X024927Y019760D02*
X024721Y019760D01*
X024721Y019450D01*
X024587Y019450D02*
X024380Y019450D01*
X024380Y019760D01*
X024587Y019760D01*
X024483Y019605D02*
X024380Y019605D01*
X024246Y019605D02*
X024194Y019553D01*
X024039Y019553D01*
X024039Y019450D02*
X024039Y019760D01*
X024194Y019760D01*
X024246Y019709D01*
X024246Y019605D01*
X024143Y019553D02*
X024246Y019450D01*
X023905Y019450D02*
X023905Y019657D01*
X023802Y019760D01*
X023698Y019657D01*
X023698Y019450D01*
X023698Y019605D02*
X023905Y019605D01*
X024721Y019605D02*
X024824Y019605D01*
X025068Y019352D02*
X025125Y019295D01*
X025352Y019295D01*
X026068Y019408D02*
X026408Y019408D01*
X026408Y019295D02*
X026408Y019522D01*
X026352Y019663D02*
X026408Y019720D01*
X026408Y019833D01*
X026352Y019890D01*
X026295Y019890D01*
X026238Y019833D01*
X026238Y019777D01*
X026238Y019833D02*
X026182Y019890D01*
X026125Y019890D01*
X026068Y019833D01*
X026068Y019720D01*
X026125Y019663D01*
X025988Y020075D02*
X025738Y020325D01*
X025488Y020075D01*
X024988Y020075D01*
X024738Y020325D01*
X024488Y020075D01*
X023988Y020075D01*
X023738Y020325D01*
X023738Y020825D01*
X023988Y021075D01*
X024488Y021075D01*
X024738Y020825D01*
X024988Y021075D01*
X025488Y021075D01*
X025738Y020825D01*
X025988Y021075D01*
X026488Y021075D01*
X026738Y020825D01*
X026988Y021075D01*
X027488Y021075D01*
X027738Y020825D01*
X027988Y021075D01*
X028488Y021075D01*
X028738Y020825D01*
X028988Y021075D01*
X029488Y021075D01*
X029738Y020825D01*
X029988Y021075D01*
X030488Y021075D01*
X030738Y020825D01*
X030988Y021075D01*
X031488Y021075D01*
X031738Y020825D01*
X031738Y020325D01*
X031488Y020075D01*
X030988Y020075D01*
X030738Y020325D01*
X030488Y020075D01*
X029988Y020075D01*
X029738Y020325D01*
X029738Y020825D01*
X028738Y020825D02*
X028738Y020325D01*
X028488Y020075D01*
X027988Y020075D01*
X027738Y020325D01*
X027488Y020075D01*
X026988Y020075D01*
X026738Y020325D01*
X026738Y020825D01*
X025738Y020825D02*
X025738Y020325D01*
X025988Y020075D02*
X026488Y020075D01*
X026738Y020325D01*
X027125Y019890D02*
X027068Y019833D01*
X027068Y019720D01*
X027125Y019663D01*
X027125Y019890D02*
X027182Y019890D01*
X027408Y019663D01*
X027408Y019890D01*
X027738Y020325D02*
X027738Y020825D01*
X028738Y020325D02*
X028988Y020075D01*
X029488Y020075D01*
X029738Y020325D01*
X030125Y019897D02*
X030068Y019840D01*
X030068Y019727D01*
X030125Y019670D01*
X030182Y019670D01*
X030238Y019727D01*
X030238Y019897D01*
X030125Y019897D02*
X030352Y019897D01*
X030408Y019840D01*
X030408Y019727D01*
X030352Y019670D01*
X031068Y019727D02*
X031068Y019840D01*
X031125Y019897D01*
X031182Y019897D01*
X031238Y019840D01*
X031238Y019727D01*
X031182Y019670D01*
X031125Y019670D01*
X031068Y019727D01*
X031238Y019727D02*
X031295Y019670D01*
X031352Y019670D01*
X031408Y019727D01*
X031408Y019840D01*
X031352Y019897D01*
X031295Y019897D01*
X031238Y019840D01*
X030738Y020325D02*
X030738Y020825D01*
X032338Y020825D02*
X032588Y021075D01*
X033088Y021075D01*
X033338Y020825D01*
X033588Y021075D01*
X034088Y021075D01*
X034338Y020825D01*
X034588Y021075D01*
X035088Y021075D01*
X035338Y020825D01*
X035588Y021075D01*
X036088Y021075D01*
X036338Y020825D01*
X036588Y021075D01*
X037088Y021075D01*
X037338Y020825D01*
X037588Y021075D01*
X038088Y021075D01*
X038338Y020825D01*
X038588Y021075D01*
X039088Y021075D01*
X039338Y020825D01*
X039588Y021075D01*
X040088Y021075D01*
X040338Y020825D01*
X040338Y020325D01*
X040088Y020075D01*
X039588Y020075D01*
X039338Y020325D01*
X039088Y020075D01*
X038588Y020075D01*
X038338Y020325D01*
X038338Y020825D01*
X039338Y020825D02*
X039338Y020325D01*
X039008Y019897D02*
X039008Y019670D01*
X039008Y019783D02*
X038668Y019783D01*
X038782Y019670D01*
X038008Y019670D02*
X037782Y019897D01*
X037725Y019897D01*
X037668Y019840D01*
X037668Y019727D01*
X037725Y019670D01*
X038008Y019670D02*
X038008Y019897D01*
X038088Y020075D02*
X037588Y020075D01*
X037338Y020325D01*
X037088Y020075D01*
X036588Y020075D01*
X036338Y020325D01*
X036088Y020075D01*
X035588Y020075D01*
X035338Y020325D01*
X035338Y020825D01*
X036338Y020825D02*
X036338Y020325D01*
X036725Y019897D02*
X036782Y019897D01*
X036838Y019840D01*
X036895Y019897D01*
X036952Y019897D01*
X037008Y019840D01*
X037008Y019727D01*
X036952Y019670D01*
X036838Y019783D02*
X036838Y019840D01*
X036725Y019897D02*
X036668Y019840D01*
X036668Y019727D01*
X036725Y019670D01*
X036008Y019840D02*
X035668Y019840D01*
X035838Y019670D01*
X035838Y019897D01*
X035338Y020325D02*
X035088Y020075D01*
X034588Y020075D01*
X034338Y020325D01*
X034088Y020075D01*
X033588Y020075D01*
X033338Y020325D01*
X033088Y020075D01*
X032588Y020075D01*
X032338Y020325D01*
X032338Y020825D01*
X033338Y020825D02*
X033338Y020325D01*
X033668Y019897D02*
X033725Y019783D01*
X033838Y019670D01*
X033838Y019840D01*
X033895Y019897D01*
X033952Y019897D01*
X034008Y019840D01*
X034008Y019727D01*
X033952Y019670D01*
X033838Y019670D01*
X033008Y019670D02*
X032952Y019670D01*
X032725Y019897D01*
X032668Y019897D01*
X032668Y019670D01*
X034338Y020325D02*
X034338Y020825D01*
X034668Y019897D02*
X034668Y019670D01*
X034838Y019670D01*
X034782Y019783D01*
X034782Y019840D01*
X034838Y019897D01*
X034952Y019897D01*
X035008Y019840D01*
X035008Y019727D01*
X034952Y019670D01*
X037338Y020325D02*
X037338Y020825D01*
X038088Y020075D02*
X038338Y020325D01*
X039668Y019840D02*
X039725Y019897D01*
X039952Y019670D01*
X040008Y019727D01*
X040008Y019840D01*
X039952Y019897D01*
X039725Y019897D01*
X039668Y019840D02*
X039668Y019727D01*
X039725Y019670D01*
X039952Y019670D01*
X029408Y019720D02*
X029352Y019663D01*
X029125Y019890D01*
X029352Y019890D01*
X029408Y019833D01*
X029408Y019720D01*
X029352Y019663D02*
X029125Y019663D01*
X029068Y019720D01*
X029068Y019833D01*
X029125Y019890D01*
X028408Y019890D02*
X028408Y019663D01*
X028408Y019777D02*
X028068Y019777D01*
X028182Y019663D01*
X028408Y019522D02*
X028408Y019295D01*
X028408Y019408D02*
X028068Y019408D01*
X028182Y019295D01*
X027408Y019295D02*
X027408Y019522D01*
X027408Y019408D02*
X027068Y019408D01*
X027182Y019295D01*
X026182Y019295D02*
X026068Y019408D01*
X024738Y020325D02*
X024738Y020825D01*
X020342Y021095D02*
X020342Y021250D01*
X020291Y021302D01*
X020239Y021250D01*
X020239Y021095D01*
X020136Y021095D02*
X020136Y021302D01*
X020187Y021302D01*
X020239Y021250D01*
X020002Y021250D02*
X019950Y021302D01*
X019847Y021302D01*
X019795Y021250D01*
X019795Y021147D01*
X019847Y021095D01*
X019950Y021095D01*
X020002Y021147D01*
X020002Y021250D01*
X019661Y021302D02*
X019506Y021302D01*
X019454Y021250D01*
X019454Y021147D01*
X019506Y021095D01*
X019661Y021095D01*
X019336Y021095D02*
X019284Y021095D01*
X019284Y021147D01*
X019336Y021147D01*
X019336Y021095D01*
X019150Y021147D02*
X019098Y021198D01*
X018995Y021198D01*
X018943Y021250D01*
X018995Y021302D01*
X019150Y021302D01*
X019150Y021147D02*
X019098Y021095D01*
X018943Y021095D01*
X018819Y021095D02*
X018768Y021147D01*
X018768Y021354D01*
X018819Y021302D02*
X018716Y021302D01*
X018541Y021302D02*
X018541Y021095D01*
X018592Y021095D02*
X018489Y021095D01*
X018355Y021095D02*
X018355Y021302D01*
X018489Y021302D02*
X018541Y021302D01*
X018541Y021405D02*
X018541Y021457D01*
X018355Y021095D02*
X018200Y021095D01*
X018148Y021147D01*
X018148Y021302D01*
X018014Y021302D02*
X017859Y021302D01*
X017808Y021250D01*
X017808Y021147D01*
X017859Y021095D01*
X018014Y021095D01*
X017679Y021302D02*
X017627Y021302D01*
X017524Y021198D01*
X017524Y021095D02*
X017524Y021302D01*
X017348Y021302D02*
X017348Y021095D01*
X017297Y021095D02*
X017400Y021095D01*
X017348Y021302D02*
X017297Y021302D01*
X017348Y021405D02*
X017348Y021457D01*
X017163Y021302D02*
X017008Y021302D01*
X016956Y021250D01*
X016956Y021147D01*
X017008Y021095D01*
X017163Y021095D01*
X016822Y021095D02*
X016822Y021405D01*
X016822Y021302D02*
X016667Y021302D01*
X016615Y021250D01*
X016615Y021147D01*
X016667Y021095D01*
X016822Y021095D01*
X016481Y021198D02*
X016274Y021198D01*
X016274Y021147D02*
X016274Y021250D01*
X016326Y021302D01*
X016430Y021302D01*
X016481Y021250D01*
X016481Y021198D01*
X016430Y021095D02*
X016326Y021095D01*
X016274Y021147D01*
X016141Y021095D02*
X015985Y021095D01*
X015934Y021147D01*
X015934Y021250D01*
X015985Y021302D01*
X016141Y021302D01*
X016141Y021043D01*
X016089Y020992D01*
X016037Y020992D01*
X015800Y021043D02*
X015748Y020992D01*
X015696Y020992D01*
X015645Y021095D02*
X015800Y021095D01*
X015800Y021043D02*
X015800Y021302D01*
X015645Y021302D01*
X015593Y021250D01*
X015593Y021147D01*
X015645Y021095D01*
X015459Y021095D02*
X015459Y021302D01*
X015252Y021302D02*
X015252Y021147D01*
X015304Y021095D01*
X015459Y021095D01*
X015124Y021302D02*
X015072Y021302D01*
X014968Y021198D01*
X014968Y021095D02*
X014968Y021302D01*
X029068Y019408D02*
X029408Y019408D01*
X029408Y019295D02*
X029408Y019522D01*
X029182Y019295D02*
X029068Y019408D01*
X037407Y008292D02*
X037407Y008178D01*
X037350Y008235D02*
X037577Y008235D01*
X037633Y008292D01*
X037520Y008037D02*
X037463Y008037D01*
X037407Y007980D01*
X037407Y007867D01*
X037463Y007810D01*
X037577Y007810D01*
X037633Y007867D01*
X037633Y007980D01*
X037520Y008037D02*
X037520Y007810D01*
X037577Y007668D02*
X037520Y007612D01*
X037520Y007498D01*
X037463Y007442D01*
X037407Y007498D01*
X037407Y007668D01*
X037577Y007668D02*
X037633Y007612D01*
X037633Y007442D01*
X037520Y007300D02*
X037463Y007300D01*
X037407Y007243D01*
X037407Y007130D01*
X037463Y007073D01*
X037577Y007073D01*
X037633Y007130D01*
X037633Y007243D01*
X037520Y007300D02*
X037520Y007073D01*
X037463Y006932D02*
X037520Y006875D01*
X037520Y006705D01*
X037520Y006818D02*
X037633Y006932D01*
X037463Y006932D02*
X037350Y006932D01*
X037293Y006875D01*
X037293Y006705D01*
X037633Y006705D01*
X031799Y005065D02*
X031576Y004842D01*
X031714Y004704D01*
X031714Y004598D01*
X030473Y003357D01*
X030547Y003283D01*
X031799Y003283D01*
X031799Y005065D01*
X031788Y005054D02*
X031555Y004863D01*
X031555Y004885D01*
X031438Y005001D01*
X031396Y005001D01*
X031332Y005065D01*
X031778Y005065D01*
X031788Y005054D01*
X031799Y005021D02*
X031755Y005021D01*
X031748Y005021D02*
X031376Y005021D01*
X031352Y005021D02*
X030028Y005021D01*
X030028Y005054D02*
X030028Y003718D01*
X030038Y003707D01*
X031385Y005054D01*
X030028Y005054D01*
X030038Y005065D02*
X031322Y005054D01*
X031311Y005065D01*
X030038Y005065D01*
X030028Y004963D02*
X031293Y004963D01*
X031329Y004984D02*
X031385Y004998D01*
X031428Y004984D01*
X031703Y004708D01*
X031703Y004595D01*
X031194Y004086D01*
X031159Y004064D01*
X031152Y004071D01*
X031081Y004071D01*
X031081Y004015D02*
X030918Y004121D01*
X030897Y004114D02*
X030897Y004170D01*
X030890Y004107D01*
X030883Y004071D01*
X031053Y004015D01*
X031081Y003972D01*
X031017Y003909D01*
X031017Y003895D01*
X030784Y003972D01*
X030402Y003591D01*
X030551Y003442D01*
X030480Y003371D01*
X030499Y003383D02*
X031799Y003383D01*
X031799Y003325D02*
X030506Y003325D01*
X030505Y003283D02*
X030038Y003283D01*
X030028Y003294D01*
X030028Y003760D01*
X030505Y003283D01*
X030526Y003283D02*
X030547Y003283D01*
X030463Y003325D02*
X030028Y003325D01*
X030028Y003383D02*
X030405Y003383D01*
X030438Y003357D02*
X030119Y003675D01*
X030119Y003774D01*
X030657Y004312D01*
X030724Y004322D01*
X030798Y004298D01*
X031081Y004015D01*
X031124Y004015D02*
X030805Y004333D01*
X030791Y004361D01*
X030791Y004375D01*
X030770Y004411D01*
X030763Y004418D01*
X031329Y004984D01*
X031235Y004904D02*
X030028Y004904D01*
X030028Y004846D02*
X031176Y004846D01*
X031118Y004787D02*
X030028Y004787D01*
X030028Y004729D02*
X031059Y004729D01*
X031001Y004670D02*
X030028Y004670D01*
X030028Y004612D02*
X030942Y004612D01*
X030884Y004553D02*
X030028Y004553D01*
X030028Y004495D02*
X030825Y004495D01*
X030795Y004421D02*
X030795Y004379D01*
X030763Y004375D02*
X030735Y004347D01*
X030784Y004312D01*
X030798Y004298D01*
X030855Y004241D01*
X030890Y004177D01*
X030897Y004170D01*
X030897Y004199D01*
X030855Y004241D01*
X030784Y004312D02*
X030777Y004319D01*
X030664Y004319D01*
X030657Y004312D01*
X030650Y004319D02*
X030028Y004319D01*
X030028Y004261D02*
X030591Y004261D01*
X030533Y004202D02*
X030028Y004202D01*
X030028Y004144D02*
X030474Y004144D01*
X030416Y004085D02*
X030028Y004085D01*
X030028Y004027D02*
X030357Y004027D01*
X030299Y003968D02*
X030028Y003968D01*
X030028Y003910D02*
X030240Y003910D01*
X030182Y003851D02*
X030028Y003851D01*
X030028Y003793D02*
X030123Y003793D01*
X030065Y003734D02*
X030028Y003734D01*
X030054Y003734D01*
X030028Y003676D02*
X030112Y003676D01*
X030171Y003617D02*
X030028Y003617D01*
X030028Y003559D02*
X030229Y003559D01*
X030288Y003500D02*
X030028Y003500D01*
X030028Y003442D02*
X030346Y003442D01*
X030473Y003576D02*
X030459Y003591D01*
X030798Y003930D01*
X030954Y003888D01*
X030558Y003492D01*
X030473Y003576D01*
X030491Y003559D02*
X030625Y003559D01*
X030674Y003559D02*
X031799Y003559D01*
X031799Y003617D02*
X030733Y003617D01*
X030683Y003617D02*
X030485Y003617D01*
X030544Y003676D02*
X030742Y003676D01*
X030791Y003676D02*
X031799Y003676D01*
X031799Y003734D02*
X030850Y003734D01*
X030800Y003734D02*
X030602Y003734D01*
X030661Y003793D02*
X030859Y003793D01*
X030908Y003793D02*
X031799Y003793D01*
X031799Y003851D02*
X030967Y003851D01*
X030917Y003851D02*
X030719Y003851D01*
X030778Y003910D02*
X030873Y003910D01*
X031025Y003910D02*
X031799Y003910D01*
X031799Y003968D02*
X031084Y003968D01*
X031142Y004027D02*
X031799Y004027D01*
X031799Y004085D02*
X031201Y004085D01*
X031259Y004144D02*
X031799Y004144D01*
X031799Y004202D02*
X031318Y004202D01*
X031376Y004261D02*
X031799Y004261D01*
X031799Y004319D02*
X031435Y004319D01*
X031493Y004378D02*
X031799Y004378D01*
X031799Y004436D02*
X031552Y004436D01*
X031610Y004495D02*
X031799Y004495D01*
X031799Y004553D02*
X031669Y004553D01*
X031714Y004612D02*
X031799Y004612D01*
X031799Y004670D02*
X031714Y004670D01*
X031690Y004729D02*
X031799Y004729D01*
X031799Y004787D02*
X031631Y004787D01*
X031633Y004722D02*
X031442Y004913D01*
X031477Y004963D02*
X031676Y004963D01*
X031696Y004963D02*
X031799Y004963D01*
X031799Y004904D02*
X031638Y004904D01*
X031605Y004904D02*
X031535Y004904D01*
X031579Y004846D02*
X031799Y004846D01*
X030767Y004436D02*
X030028Y004436D01*
X030028Y004378D02*
X030708Y004378D01*
X030763Y004375D02*
X030805Y004333D01*
X030713Y004184D02*
X030749Y004149D01*
X030749Y004135D01*
X030303Y003690D01*
X030282Y003711D01*
X030261Y003732D02*
X030713Y004184D01*
X030616Y003500D02*
X031799Y003500D01*
X031799Y003442D02*
X030557Y003442D01*
X030549Y003500D02*
X030566Y003500D01*
X029013Y003289D02*
X028900Y003176D01*
X028673Y003176D01*
X028730Y003034D02*
X028787Y003034D01*
X028843Y002978D01*
X028900Y003034D01*
X028957Y003034D01*
X029013Y002978D01*
X029013Y002864D01*
X028957Y002807D01*
X028957Y002680D02*
X029013Y002680D01*
X029013Y002623D01*
X028957Y002623D01*
X028957Y002680D01*
X028957Y002482D02*
X029013Y002425D01*
X029013Y002312D01*
X028957Y002255D01*
X028843Y002368D02*
X028843Y002425D01*
X028900Y002482D01*
X028957Y002482D01*
X028843Y002425D02*
X028787Y002482D01*
X028730Y002482D01*
X028673Y002425D01*
X028673Y002312D01*
X028730Y002255D01*
X028588Y002075D02*
X029088Y002075D01*
X029338Y001825D01*
X029338Y001325D01*
X029088Y001075D01*
X028588Y001075D01*
X028338Y001325D01*
X028088Y001075D01*
X027588Y001075D01*
X027338Y001325D01*
X027338Y001825D01*
X027588Y002075D01*
X028088Y002075D01*
X028338Y001825D01*
X028588Y002075D01*
X028338Y001825D02*
X028338Y001325D01*
X029338Y001325D02*
X029588Y001075D01*
X030088Y001075D01*
X030338Y001325D01*
X030588Y001075D01*
X031088Y001075D01*
X031338Y001325D01*
X031588Y001075D01*
X032088Y001075D01*
X032338Y001325D01*
X032588Y001075D01*
X033088Y001075D01*
X033338Y001325D01*
X033338Y001825D01*
X033088Y002075D01*
X032588Y002075D01*
X032338Y001825D01*
X032338Y001325D01*
X032338Y001825D02*
X032088Y002075D01*
X031588Y002075D01*
X031338Y001825D01*
X031338Y001325D01*
X030338Y001325D02*
X030338Y001825D01*
X030588Y002075D01*
X031088Y002075D01*
X031338Y001825D01*
X030338Y001825D02*
X030088Y002075D01*
X029588Y002075D01*
X029338Y001825D01*
X029658Y002260D02*
X029828Y002260D01*
X029772Y002373D01*
X029772Y002430D01*
X029828Y002487D01*
X029942Y002487D01*
X029998Y002430D01*
X029998Y002317D01*
X029942Y002260D01*
X029658Y002260D02*
X029658Y002487D01*
X029658Y002628D02*
X029885Y002628D01*
X029998Y002742D01*
X029885Y002855D01*
X029658Y002855D01*
X028843Y002921D02*
X028843Y002978D01*
X028730Y003034D02*
X028673Y002978D01*
X028673Y002864D01*
X028730Y002807D01*
X028003Y002850D02*
X028003Y002623D01*
X027663Y002623D01*
X027663Y002850D01*
X027720Y002992D02*
X027777Y002992D01*
X027833Y003048D01*
X027833Y003162D01*
X027890Y003218D01*
X027947Y003218D01*
X028003Y003162D01*
X028003Y003048D01*
X027947Y002992D01*
X027720Y002992D02*
X027663Y003048D01*
X027663Y003162D01*
X027720Y003218D01*
X027663Y003360D02*
X028003Y003360D01*
X028003Y003587D01*
X027833Y003473D02*
X027833Y003360D01*
X027663Y003360D02*
X027663Y003587D01*
X027663Y003728D02*
X027663Y003955D01*
X027663Y003842D02*
X028003Y003842D01*
X027543Y004067D02*
X027543Y002225D01*
X027663Y002255D02*
X027663Y002425D01*
X027720Y002482D01*
X027833Y002482D01*
X027890Y002425D01*
X027890Y002255D01*
X027890Y002368D02*
X028003Y002482D01*
X027833Y002623D02*
X027833Y002737D01*
X028003Y002255D02*
X027663Y002255D01*
X031078Y002372D02*
X031305Y002599D01*
X031305Y002372D01*
X031249Y002315D01*
X031135Y002315D01*
X031078Y002372D01*
X031078Y002599D01*
X031135Y002655D01*
X031249Y002655D01*
X031305Y002599D01*
X031447Y002655D02*
X031447Y002428D01*
X031560Y002315D01*
X031674Y002428D01*
X031674Y002655D01*
X032576Y002690D02*
X032633Y002690D01*
X032747Y002690D02*
X032973Y002690D01*
X032973Y002633D02*
X032973Y002747D01*
X032973Y002879D02*
X032747Y002879D01*
X032747Y003049D01*
X032803Y003106D01*
X032973Y003106D01*
X032747Y002690D02*
X032747Y002633D01*
X032860Y002492D02*
X032633Y002492D01*
X032633Y002265D02*
X032860Y002265D01*
X032973Y002378D01*
X032860Y002492D01*
X034338Y001825D02*
X034588Y002075D01*
X035088Y002075D01*
X035338Y001825D01*
X035588Y002075D01*
X036088Y002075D01*
X036338Y001825D01*
X036338Y001325D01*
X036088Y001075D01*
X035588Y001075D01*
X035338Y001325D01*
X035088Y001075D01*
X034588Y001075D01*
X034338Y001325D01*
X034338Y001825D01*
X034772Y002265D02*
X034658Y002378D01*
X034772Y002492D01*
X034998Y002492D01*
X034942Y002633D02*
X034715Y002860D01*
X034942Y002860D01*
X034998Y002803D01*
X034998Y002690D01*
X034942Y002633D01*
X034715Y002633D01*
X034658Y002690D01*
X034658Y002803D01*
X034715Y002860D01*
X035658Y002747D02*
X035998Y002747D01*
X035998Y002860D02*
X035998Y002633D01*
X035998Y002492D02*
X035772Y002492D01*
X035658Y002378D01*
X035772Y002265D01*
X035998Y002265D01*
X035828Y002265D02*
X035828Y002492D01*
X035772Y002633D02*
X035658Y002747D01*
X034828Y002492D02*
X034828Y002265D01*
X034772Y002265D02*
X034998Y002265D01*
X035338Y001825D02*
X035338Y001325D01*
X036338Y001325D02*
X036588Y001075D01*
X037088Y001075D01*
X037338Y001325D01*
X037588Y001075D01*
X038088Y001075D01*
X038338Y001325D01*
X038588Y001075D01*
X039088Y001075D01*
X039338Y001325D01*
X039588Y001075D01*
X040088Y001075D01*
X040338Y001325D01*
X040338Y001825D01*
X040088Y002075D01*
X039588Y002075D01*
X039338Y001825D01*
X039338Y001325D01*
X038338Y001325D02*
X038338Y001825D01*
X038588Y002075D01*
X039088Y002075D01*
X039338Y001825D01*
X038338Y001825D02*
X038088Y002075D01*
X037588Y002075D01*
X037338Y001825D01*
X037338Y001325D01*
X037338Y001825D02*
X037088Y002075D01*
X036588Y002075D01*
X036338Y001825D01*
X036772Y002265D02*
X036658Y002378D01*
X036772Y002492D01*
X036998Y002492D01*
X036998Y002633D02*
X036772Y002860D01*
X036715Y002860D01*
X036658Y002803D01*
X036658Y002690D01*
X036715Y002633D01*
X036828Y002492D02*
X036828Y002265D01*
X036772Y002265D02*
X036998Y002265D01*
X037658Y002378D02*
X037772Y002492D01*
X037998Y002492D01*
X037942Y002633D02*
X037998Y002690D01*
X037998Y002803D01*
X037942Y002860D01*
X037885Y002860D01*
X037828Y002803D01*
X037828Y002747D01*
X037828Y002803D02*
X037772Y002860D01*
X037715Y002860D01*
X037658Y002803D01*
X037658Y002690D01*
X037715Y002633D01*
X037828Y002492D02*
X037828Y002265D01*
X037772Y002265D02*
X037658Y002378D01*
X037772Y002265D02*
X037998Y002265D01*
X038658Y002378D02*
X038772Y002492D01*
X038998Y002492D01*
X038828Y002492D02*
X038828Y002265D01*
X038772Y002265D02*
X038658Y002378D01*
X038772Y002265D02*
X038998Y002265D01*
X039658Y002378D02*
X039772Y002492D01*
X039998Y002492D01*
X039942Y002633D02*
X039998Y002690D01*
X039998Y002803D01*
X039942Y002860D01*
X039828Y002860D01*
X039772Y002803D01*
X039772Y002747D01*
X039828Y002633D01*
X039658Y002633D01*
X039658Y002860D01*
X038998Y002803D02*
X038658Y002803D01*
X038828Y002633D01*
X038828Y002860D01*
X039658Y002378D02*
X039772Y002265D01*
X039998Y002265D01*
X039828Y002265D02*
X039828Y002492D01*
X036998Y002633D02*
X036998Y002860D01*
X029013Y003289D02*
X028900Y003403D01*
X028673Y003403D01*
X018613Y006135D02*
X018556Y006192D01*
X018556Y006419D01*
X018499Y006362D02*
X018613Y006362D01*
X018358Y006305D02*
X018358Y006135D01*
X018358Y006305D02*
X018301Y006362D01*
X018131Y006362D01*
X018131Y006135D01*
X017990Y006135D02*
X017820Y006135D01*
X017763Y006192D01*
X017820Y006248D01*
X017990Y006248D01*
X017990Y006305D02*
X017990Y006135D01*
X017990Y006305D02*
X017933Y006362D01*
X017820Y006362D01*
X017574Y006362D02*
X017574Y006135D01*
X017517Y006135D02*
X017631Y006135D01*
X017574Y006362D02*
X017517Y006362D01*
X017574Y006475D02*
X017574Y006532D01*
X017328Y006475D02*
X017328Y006135D01*
X017272Y006135D02*
X017385Y006135D01*
X017130Y006192D02*
X017074Y006135D01*
X016903Y006135D01*
X016903Y006022D02*
X016903Y006362D01*
X017074Y006362D01*
X017130Y006305D01*
X017130Y006192D01*
X016762Y006135D02*
X016762Y006305D01*
X016705Y006362D01*
X016649Y006305D01*
X016649Y006135D01*
X016535Y006135D02*
X016535Y006362D01*
X016592Y006362D01*
X016649Y006305D01*
X016394Y006305D02*
X016337Y006362D01*
X016224Y006362D01*
X016167Y006305D01*
X016167Y006192D01*
X016224Y006135D01*
X016337Y006135D01*
X016394Y006192D01*
X016394Y006305D01*
X016025Y006192D02*
X015969Y006135D01*
X015855Y006135D01*
X015798Y006192D01*
X015798Y006419D01*
X015855Y006475D01*
X015969Y006475D01*
X016025Y006419D01*
X015908Y006695D02*
X016098Y007295D01*
X015898Y006795D01*
X015768Y007005D01*
X015908Y006695D01*
X015916Y006718D02*
X015898Y006718D01*
X015872Y006776D02*
X015934Y006776D01*
X015953Y006835D02*
X015914Y006835D01*
X015874Y006835D02*
X015845Y006835D01*
X015838Y006893D02*
X015819Y006893D01*
X015802Y006952D02*
X015793Y006952D01*
X015938Y006893D02*
X015971Y006893D01*
X015961Y006952D02*
X015990Y006952D01*
X015984Y007010D02*
X016008Y007010D01*
X016008Y007069D02*
X016027Y007069D01*
X016031Y007127D02*
X016045Y007127D01*
X016055Y007186D02*
X016064Y007186D01*
X016078Y007244D02*
X016082Y007244D01*
X017272Y006475D02*
X017328Y006475D01*
X017409Y001095D02*
X017238Y001095D01*
X017238Y000755D01*
X017409Y000755D01*
X017465Y000812D01*
X017465Y001039D01*
X017409Y001095D01*
X017097Y000925D02*
X016870Y000925D01*
X016729Y000812D02*
X016672Y000755D01*
X016558Y000755D01*
X016502Y000812D01*
X016729Y001039D01*
X016729Y000812D01*
X016729Y001039D02*
X016672Y001095D01*
X016558Y001095D01*
X016502Y001039D01*
X016502Y000812D01*
X016360Y000755D02*
X016133Y000755D01*
X016247Y000755D02*
X016247Y001095D01*
X016133Y000982D01*
X015992Y001039D02*
X015765Y000812D01*
X015822Y000755D01*
X015935Y000755D01*
X015992Y000812D01*
X015992Y001039D01*
X015935Y001095D01*
X015822Y001095D01*
X015765Y001039D01*
X015765Y000812D01*
X015624Y000755D02*
X015624Y001095D01*
X015510Y000982D01*
X015397Y001095D01*
X015397Y000755D01*
X015255Y000755D02*
X015255Y000982D01*
X015142Y001095D01*
X015028Y000982D01*
X015028Y000755D01*
X015028Y000925D02*
X015255Y000925D01*
D14*
X014185Y002073D02*
X017245Y002073D01*
X015555Y002083D02*
X015555Y005617D01*
X014185Y005617D01*
X014185Y002073D01*
X019370Y002073D02*
X019815Y002073D01*
X019815Y002750D01*
X019815Y004875D02*
X019815Y005617D01*
X015555Y005617D01*
X037746Y006786D02*
X037746Y008164D01*
X041290Y008164D01*
X041290Y006786D01*
X037746Y006786D01*
X022154Y013304D02*
X021957Y013304D01*
X021957Y013501D01*
X022154Y013501D01*
X022154Y013304D01*
X022154Y013501D02*
X024123Y013501D01*
X024123Y015469D01*
X022154Y015469D01*
X022154Y013501D01*
X022154Y013698D02*
X022156Y013725D01*
X022162Y013752D01*
X022171Y013778D01*
X022184Y013802D01*
X022200Y013825D01*
X022219Y013844D01*
X022241Y013861D01*
X022265Y013875D01*
X022290Y013885D01*
X022317Y013892D01*
X022344Y013895D01*
X022372Y013894D01*
X022399Y013889D01*
X022425Y013881D01*
X022449Y013869D01*
X022472Y013853D01*
X022493Y013835D01*
X022510Y013814D01*
X022525Y013790D01*
X022536Y013765D01*
X022544Y013739D01*
X022548Y013712D01*
X022548Y013684D01*
X022544Y013657D01*
X022536Y013631D01*
X022525Y013606D01*
X022510Y013582D01*
X022493Y013561D01*
X022472Y013543D01*
X022450Y013527D01*
X022425Y013515D01*
X022399Y013507D01*
X022372Y013502D01*
X022344Y013501D01*
X022317Y013504D01*
X022290Y013511D01*
X022265Y013521D01*
X022241Y013535D01*
X022219Y013552D01*
X022200Y013571D01*
X022184Y013594D01*
X022171Y013618D01*
X022162Y013644D01*
X022156Y013671D01*
X022154Y013698D01*
X018940Y019426D02*
X015396Y019426D01*
X015396Y020804D01*
X018940Y020804D01*
X018940Y019426D01*
D15*
X017018Y012071D02*
X015873Y011111D01*
D16*
X015648Y011579D02*
X015650Y011636D01*
X015656Y011692D01*
X015666Y011748D01*
X015680Y011804D01*
X015697Y011858D01*
X015718Y011910D01*
X015743Y011962D01*
X015772Y012011D01*
X015804Y012058D01*
X015839Y012103D01*
X015877Y012145D01*
X015918Y012185D01*
X015961Y012221D01*
X016007Y012255D01*
X016055Y012285D01*
X016106Y012312D01*
X016158Y012335D01*
X016211Y012354D01*
X016266Y012370D01*
X016321Y012382D01*
X016378Y012390D01*
X016435Y012394D01*
X016491Y012394D01*
X016548Y012390D01*
X016605Y012382D01*
X016660Y012370D01*
X016715Y012354D01*
X016768Y012335D01*
X016820Y012312D01*
X016870Y012285D01*
X016919Y012255D01*
X016965Y012221D01*
X017008Y012185D01*
X017049Y012145D01*
X017087Y012103D01*
X017122Y012058D01*
X017154Y012011D01*
X017183Y011962D01*
X017208Y011910D01*
X017229Y011858D01*
X017246Y011804D01*
X017260Y011748D01*
X017270Y011692D01*
X017276Y011636D01*
X017278Y011579D01*
X017276Y011522D01*
X017270Y011466D01*
X017260Y011410D01*
X017246Y011354D01*
X017229Y011300D01*
X017208Y011248D01*
X017183Y011196D01*
X017154Y011147D01*
X017122Y011100D01*
X017087Y011055D01*
X017049Y011013D01*
X017008Y010973D01*
X016965Y010937D01*
X016919Y010903D01*
X016871Y010873D01*
X016820Y010846D01*
X016768Y010823D01*
X016715Y010804D01*
X016660Y010788D01*
X016605Y010776D01*
X016548Y010768D01*
X016491Y010764D01*
X016435Y010764D01*
X016378Y010768D01*
X016321Y010776D01*
X016266Y010788D01*
X016211Y010804D01*
X016158Y010823D01*
X016106Y010846D01*
X016055Y010873D01*
X016007Y010903D01*
X015961Y010937D01*
X015918Y010973D01*
X015877Y011013D01*
X015839Y011055D01*
X015804Y011100D01*
X015772Y011147D01*
X015743Y011196D01*
X015718Y011248D01*
X015697Y011300D01*
X015680Y011354D01*
X015666Y011410D01*
X015656Y011466D01*
X015650Y011522D01*
X015648Y011579D01*
D17*
X016119Y011656D03*
D18*
X015977Y011304D03*
D19*
X016231Y011296D03*
D20*
X016642Y011628D03*
D21*
X016692Y011625D02*
X016700Y011625D01*
X016692Y011619D02*
X016692Y011650D01*
X016711Y011670D01*
X016739Y011693D01*
X016921Y011693D01*
X016916Y011697D02*
X016940Y011678D01*
X016967Y011642D01*
X016983Y011607D01*
X016995Y011567D01*
X016999Y011516D01*
X016995Y011453D01*
X016987Y011422D01*
X016971Y011386D01*
X016952Y011355D01*
X016920Y011323D01*
X016885Y011296D01*
X016845Y011276D01*
X016810Y011264D01*
X016794Y011260D01*
X016763Y011256D01*
X016739Y011256D01*
X016711Y011260D01*
X016680Y011272D01*
X016644Y011288D01*
X016605Y011312D01*
X016597Y011323D01*
X016597Y011351D01*
X016672Y011351D01*
X016700Y011323D01*
X016727Y011308D01*
X016759Y011300D01*
X016810Y011300D01*
X016837Y011312D01*
X016861Y011331D01*
X016881Y011355D01*
X016896Y011386D01*
X016908Y011426D01*
X016912Y011469D01*
X016912Y011504D01*
X016908Y011536D01*
X016900Y011571D01*
X016889Y011595D01*
X016873Y011615D01*
X016849Y011634D01*
X016826Y011650D01*
X016798Y011658D01*
X016770Y011658D01*
X016747Y011654D01*
X016727Y011646D01*
X016711Y011634D01*
X016692Y011634D01*
X016692Y011642D02*
X016722Y011642D01*
X016711Y011634D02*
X016692Y011619D01*
X016692Y011651D02*
X016739Y011651D01*
X016719Y011676D02*
X016941Y011676D01*
X016947Y011668D02*
X016709Y011668D01*
X016701Y011659D02*
X016954Y011659D01*
X016961Y011651D02*
X016823Y011651D01*
X016837Y011642D02*
X016967Y011642D01*
X016971Y011634D02*
X016850Y011634D01*
X016860Y011625D02*
X016975Y011625D01*
X016979Y011617D02*
X016870Y011617D01*
X016878Y011608D02*
X016982Y011608D01*
X016985Y011600D02*
X016885Y011600D01*
X016890Y011591D02*
X016988Y011591D01*
X016990Y011583D02*
X016895Y011583D01*
X016899Y011574D02*
X016993Y011574D01*
X016995Y011566D02*
X016902Y011566D01*
X016903Y011557D02*
X016996Y011557D01*
X016996Y011549D02*
X016905Y011549D01*
X016907Y011540D02*
X016997Y011540D01*
X016998Y011532D02*
X016909Y011532D01*
X016910Y011523D02*
X016998Y011523D01*
X016999Y011515D02*
X016911Y011515D01*
X016912Y011506D02*
X016998Y011506D01*
X016998Y011498D02*
X016912Y011498D01*
X016912Y011489D02*
X016997Y011489D01*
X016997Y011481D02*
X016912Y011481D01*
X016912Y011472D02*
X016996Y011472D01*
X016996Y011464D02*
X016912Y011464D01*
X016911Y011455D02*
X016995Y011455D01*
X016993Y011447D02*
X016910Y011447D01*
X016909Y011438D02*
X016991Y011438D01*
X016989Y011430D02*
X016909Y011430D01*
X016907Y011421D02*
X016987Y011421D01*
X016983Y011413D02*
X016904Y011413D01*
X016902Y011404D02*
X016979Y011404D01*
X016975Y011396D02*
X016899Y011396D01*
X016897Y011387D02*
X016972Y011387D01*
X016967Y011379D02*
X016893Y011379D01*
X016888Y011370D02*
X016961Y011370D01*
X016956Y011362D02*
X016884Y011362D01*
X016879Y011353D02*
X016950Y011353D01*
X016942Y011345D02*
X016872Y011345D01*
X016865Y011336D02*
X016933Y011336D01*
X016925Y011328D02*
X016857Y011328D01*
X016847Y011319D02*
X016915Y011319D01*
X016904Y011311D02*
X016836Y011311D01*
X016816Y011302D02*
X016893Y011302D01*
X016881Y011294D02*
X016635Y011294D01*
X016620Y011302D02*
X016748Y011302D01*
X016722Y011311D02*
X016606Y011311D01*
X016600Y011319D02*
X016707Y011319D01*
X016695Y011328D02*
X016597Y011328D01*
X016597Y011336D02*
X016687Y011336D01*
X016678Y011345D02*
X016597Y011345D01*
X016650Y011285D02*
X016864Y011285D01*
X016847Y011277D02*
X016669Y011277D01*
X016690Y011268D02*
X016822Y011268D01*
X016790Y011260D02*
X016715Y011260D01*
X016729Y011685D02*
X016931Y011685D01*
X016916Y011697D02*
X016881Y011713D01*
X016841Y011725D01*
X016810Y011725D01*
X016770Y011713D01*
X016739Y011693D01*
X016752Y011702D02*
X016906Y011702D01*
X016887Y011710D02*
X016766Y011710D01*
X016789Y011719D02*
X016862Y011719D01*
X016688Y011934D02*
X016581Y011930D01*
X016664Y011961D01*
X016688Y011961D01*
X016688Y011934D01*
X016688Y011940D02*
X016608Y011940D01*
X016593Y011934D02*
X016593Y011890D01*
X016585Y011898D01*
X016574Y011902D01*
X016554Y011902D01*
X016546Y011898D01*
X016534Y011894D01*
X016530Y011910D01*
X016593Y011934D01*
X016593Y011931D02*
X016587Y011931D01*
X016586Y011931D02*
X016627Y011931D01*
X016631Y011948D02*
X016688Y011948D01*
X016688Y011957D02*
X016653Y011957D01*
X016593Y011923D02*
X016565Y011923D01*
X016542Y011914D02*
X016593Y011914D01*
X016593Y011906D02*
X016531Y011906D01*
X016533Y011897D02*
X016544Y011897D01*
X016586Y011897D02*
X016593Y011897D01*
X016468Y011838D02*
X016356Y011838D01*
X016353Y011843D02*
X016345Y011855D01*
X016333Y011867D01*
X016314Y011882D01*
X016298Y011890D01*
X016286Y011894D01*
X016270Y011898D01*
X016259Y011902D01*
X016211Y011902D01*
X016204Y011898D01*
X016184Y011894D01*
X016176Y011890D01*
X016172Y011938D01*
X016267Y011938D01*
X016322Y011934D01*
X016349Y011926D01*
X016369Y011918D01*
X016396Y011906D01*
X016420Y011890D01*
X016444Y011871D01*
X016463Y011847D01*
X016479Y011815D01*
X016487Y011788D01*
X016491Y011772D01*
X016491Y011737D01*
X016310Y011583D01*
X016302Y011579D01*
X016274Y011575D01*
X016243Y011579D01*
X016215Y011583D01*
X016196Y011587D01*
X016180Y011591D01*
X016176Y011595D01*
X016176Y011623D01*
X016192Y011619D01*
X016215Y011615D01*
X016255Y011611D01*
X016274Y011615D01*
X016298Y011623D01*
X016322Y011634D01*
X016337Y011646D01*
X016349Y011662D01*
X016365Y011686D01*
X016373Y011705D01*
X016373Y011713D01*
X016377Y011752D01*
X016373Y011788D01*
X016365Y011819D01*
X016353Y011843D01*
X016351Y011846D02*
X016464Y011846D01*
X016457Y011855D02*
X016345Y011855D01*
X016337Y011863D02*
X016450Y011863D01*
X016442Y011872D02*
X016327Y011872D01*
X016316Y011880D02*
X016432Y011880D01*
X016422Y011889D02*
X016301Y011889D01*
X016274Y011897D02*
X016409Y011897D01*
X016397Y011906D02*
X016175Y011906D01*
X016174Y011914D02*
X016377Y011914D01*
X016356Y011923D02*
X016173Y011923D01*
X016173Y011931D02*
X016330Y011931D01*
X016360Y011829D02*
X016472Y011829D01*
X016476Y011821D02*
X016364Y011821D01*
X016367Y011812D02*
X016480Y011812D01*
X016482Y011804D02*
X016369Y011804D01*
X016371Y011795D02*
X016485Y011795D01*
X016487Y011787D02*
X016373Y011787D01*
X016374Y011778D02*
X016489Y011778D01*
X016491Y011770D02*
X016375Y011770D01*
X016376Y011761D02*
X016491Y011761D01*
X016491Y011753D02*
X016377Y011753D01*
X016376Y011744D02*
X016491Y011744D01*
X016490Y011736D02*
X016375Y011736D01*
X016374Y011727D02*
X016480Y011727D01*
X016470Y011719D02*
X016373Y011719D01*
X016373Y011710D02*
X016460Y011710D01*
X016450Y011702D02*
X016371Y011702D01*
X016368Y011693D02*
X016440Y011693D01*
X016430Y011685D02*
X016364Y011685D01*
X016359Y011676D02*
X016420Y011676D01*
X016410Y011668D02*
X016353Y011668D01*
X016347Y011659D02*
X016400Y011659D01*
X016390Y011651D02*
X016341Y011651D01*
X016332Y011642D02*
X016380Y011642D01*
X016370Y011634D02*
X016321Y011634D01*
X016304Y011625D02*
X016360Y011625D01*
X016349Y011617D02*
X016281Y011617D01*
X016309Y011583D02*
X016218Y011583D01*
X016203Y011617D02*
X016176Y011617D01*
X016176Y011608D02*
X016339Y011608D01*
X016329Y011600D02*
X016176Y011600D01*
X016180Y011591D02*
X016319Y011591D01*
X016199Y011897D02*
X016175Y011897D01*
X016066Y011898D02*
X016066Y011938D01*
X015979Y011938D01*
X015979Y011930D01*
X016007Y011930D01*
X016015Y011926D01*
X016038Y011922D01*
X016050Y011914D01*
X016066Y011898D01*
X016066Y011906D02*
X016058Y011906D01*
X016066Y011914D02*
X016049Y011914D01*
X016032Y011923D02*
X016066Y011923D01*
X016066Y011931D02*
X015979Y011931D01*
D22*
X016273Y007301D02*
X016569Y007301D01*
X016667Y007202D01*
X016667Y007005D01*
X016569Y006907D01*
X016273Y006907D01*
X016273Y006710D02*
X016273Y007301D01*
X016918Y007005D02*
X016918Y006808D01*
X017016Y006710D01*
X017213Y006710D01*
X017312Y006808D01*
X017312Y007005D01*
X017213Y007104D01*
X017016Y007104D01*
X016918Y007005D01*
X016667Y006710D02*
X016470Y006907D01*
X017563Y007005D02*
X017956Y007005D01*
X018207Y007104D02*
X018306Y007005D01*
X018502Y007005D01*
X018601Y006907D01*
X018601Y006808D01*
X018502Y006710D01*
X018306Y006710D01*
X018207Y006808D01*
X017956Y006710D02*
X017956Y007301D01*
X018207Y007202D02*
X018207Y007104D01*
X018207Y007202D02*
X018306Y007301D01*
X018502Y007301D01*
X018601Y007202D01*
X017563Y007301D02*
X017563Y006710D01*
D23*
G36*
X031646Y004693D02*
X031117Y004164D01*
X030884Y004397D01*
X031413Y004926D01*
X031646Y004693D01*
G37*
D24*
G36*
X030367Y003711D02*
X030303Y003647D01*
X030219Y003731D01*
X030283Y003795D01*
X030367Y003711D01*
G37*
D25*
G36*
X030840Y003957D02*
X030417Y003534D01*
X030360Y003591D01*
X030783Y004014D01*
X030840Y003957D01*
G37*
D26*
G36*
X030769Y004170D02*
X030713Y004114D01*
X030657Y004170D01*
X030713Y004226D01*
X030769Y004170D01*
G37*
D27*
X021938Y003825D02*
X021938Y004825D01*
X020738Y004825D02*
X020738Y003825D01*
X021103Y006072D02*
X019323Y006072D01*
X020000Y006265D02*
X020000Y007005D01*
X020163Y006777D02*
X020380Y006777D01*
X020380Y006855D02*
X020238Y006855D01*
X020312Y006934D02*
X020380Y006934D01*
X020380Y007005D02*
X020020Y006625D01*
X020380Y006265D01*
X020380Y007005D01*
X021103Y007178D02*
X019323Y007178D01*
X020025Y006620D02*
X020380Y006620D01*
X020380Y006698D02*
X020089Y006698D01*
X020104Y006541D02*
X020380Y006541D01*
X020380Y006463D02*
X020182Y006463D01*
X020261Y006384D02*
X020380Y006384D01*
X020380Y006306D02*
X020339Y006306D01*
X020413Y009925D02*
X020413Y010925D01*
X021613Y010925D02*
X021613Y009925D01*
X022509Y010106D02*
X022587Y010106D01*
X022509Y010106D02*
X022509Y012074D01*
X022587Y012074D01*
X023690Y012074D02*
X023768Y012074D01*
X023768Y010106D01*
X023690Y010106D01*
X031214Y011134D02*
X031214Y011749D01*
X031971Y011718D02*
X031971Y011442D01*
X032325Y011442D01*
X032334Y011749D02*
X032334Y011134D01*
X033904Y012645D02*
X033904Y012724D01*
X033904Y012645D02*
X035873Y012645D01*
X035873Y012724D01*
X035873Y013826D02*
X035873Y013905D01*
X033904Y013905D01*
X033904Y013826D01*
X019796Y015115D02*
X019181Y015115D01*
X019488Y015124D02*
X019488Y015478D01*
X019764Y015478D01*
X019796Y016235D02*
X019181Y016235D01*
X033838Y007975D02*
X034238Y007975D01*
X034078Y007876D02*
X033999Y007876D01*
X034038Y007950D02*
X034238Y007575D01*
X033838Y007575D01*
X034038Y007950D01*
X033957Y007797D02*
X034120Y007797D01*
X034162Y007719D02*
X033915Y007719D01*
X033873Y007640D02*
X034204Y007640D01*
D28*
X018543Y013252D02*
X018543Y017898D01*
X012342Y017898D01*
X012342Y013252D01*
X018543Y013252D01*
M02*
