G75*
%MOIN*%
%OFA0B0*%
%FSLAX24Y24*%
%IPPOS*%
%LPD*%
%AMOC8*
5,1,8,0,0,1.08239X$1,22.5*
%
%ADD10C,0.0595*%
%ADD11R,0.0595X0.0595*%
%ADD12C,0.0725*%
%ADD13C,0.0730*%
%ADD14C,0.1182*%
%ADD15C,0.0674*%
%ADD16C,0.0474*%
%ADD17C,0.1080*%
%ADD18C,0.0720*%
%ADD19OC8,0.0600*%
%ADD20C,0.1582*%
%ADD21C,0.0476*%
%ADD22C,0.0907*%
D10*
X036503Y031880D03*
X036503Y032880D03*
X036503Y033880D03*
X036503Y034880D03*
X036503Y035880D03*
X036503Y036880D03*
X036503Y037880D03*
X036503Y038880D03*
X066030Y037880D03*
X066030Y036880D03*
X066030Y035880D03*
X066030Y034880D03*
X066030Y033880D03*
X066030Y032880D03*
X066030Y031880D03*
D11*
X066030Y038726D03*
D12*
X076444Y032300D02*
X077089Y032300D01*
X077089Y031300D02*
X076444Y031300D01*
X076444Y030300D02*
X077089Y030300D01*
D13*
X049219Y021769D03*
X049219Y019800D03*
X049219Y017831D03*
X043511Y018816D03*
X043511Y020784D03*
D14*
X027467Y014520D03*
X046267Y017969D03*
X046267Y021631D03*
X075067Y014520D03*
X075067Y042080D03*
X027467Y042080D03*
D15*
X055381Y021080D03*
X057152Y021080D03*
X057152Y018520D03*
X055381Y018520D03*
D16*
X054656Y019800D03*
D17*
X062767Y035300D03*
X060767Y036300D03*
X062767Y037300D03*
D18*
X054767Y038300D03*
X053767Y038300D03*
X052767Y038300D03*
X052767Y039300D03*
X053767Y039300D03*
X054767Y039300D03*
D19*
X069247Y038900D03*
X070247Y038900D03*
X070367Y031820D03*
X069367Y031820D03*
D20*
X077767Y027200D03*
X078967Y025300D03*
X076567Y025300D03*
D21*
X064267Y025300D03*
X053767Y031800D03*
X050767Y032300D03*
X050767Y033300D03*
X054767Y034800D03*
X051267Y035800D03*
X050767Y026300D03*
X037767Y026300D03*
X072767Y032300D03*
D22*
X063767Y019800D03*
X062267Y019800D03*
X060767Y019800D03*
M02*
