G75*
%MOIN*%
%OFA0B0*%
%FSLAX24Y24*%
%IPPOS*%
%LPD*%
%AMOC8*
5,1,8,0,0,1.08239X$1,22.5*
%
%ADD10C,0.0595*%
%ADD11R,0.0595X0.0595*%
%ADD12R,0.0257X0.0671*%
%ADD13R,0.0671X0.0257*%
%ADD14C,0.0725*%
%ADD15C,0.0730*%
%ADD16C,0.1182*%
%ADD17C,0.0674*%
%ADD18C,0.0474*%
%ADD19C,0.1080*%
%ADD20C,0.0720*%
%ADD21R,0.0671X0.0592*%
%ADD22R,0.0474X0.0631*%
%ADD23R,0.0592X0.0671*%
%ADD24R,0.1261X0.0710*%
%ADD25R,0.2678X0.2521*%
%ADD26R,0.2245X0.0867*%
%ADD27OC8,0.0600*%
%ADD28R,0.0356X0.0356*%
%ADD29C,0.1582*%
%ADD30R,0.0631X0.0800*%
%ADD31C,0.0476*%
%ADD32C,0.0907*%
D10*
X036503Y031880D03*
X036503Y032880D03*
X036503Y033880D03*
X036503Y034880D03*
X036503Y035880D03*
X036503Y036880D03*
X036503Y037880D03*
X036503Y038880D03*
X066030Y037880D03*
X066030Y036880D03*
X066030Y035880D03*
X066030Y034880D03*
X066030Y033880D03*
X066030Y032880D03*
X066030Y031880D03*
D11*
X066030Y038726D03*
D12*
X052369Y034990D03*
X052054Y034990D03*
X051739Y034990D03*
X051424Y034990D03*
X051109Y034990D03*
X050794Y034990D03*
X050479Y034990D03*
X050164Y034990D03*
X050164Y031610D03*
X050479Y031610D03*
X050794Y031610D03*
X051109Y031610D03*
X051424Y031610D03*
X051739Y031610D03*
X052054Y031610D03*
X052369Y031610D03*
D13*
X052957Y032198D03*
X052957Y032513D03*
X052957Y032828D03*
X052957Y033143D03*
X052957Y033457D03*
X052957Y033772D03*
X052957Y034087D03*
X052957Y034402D03*
X049577Y034402D03*
X049577Y034087D03*
X049577Y033772D03*
X049577Y033457D03*
X049577Y033143D03*
X049577Y032828D03*
X049577Y032513D03*
X049577Y032198D03*
D14*
X076444Y032300D02*
X077089Y032300D01*
X077089Y031300D02*
X076444Y031300D01*
X076444Y030300D02*
X077089Y030300D01*
D15*
X049219Y021769D03*
X049219Y019800D03*
X049219Y017831D03*
X043511Y018816D03*
X043511Y020784D03*
D16*
X027467Y014520D03*
X046267Y017969D03*
X046267Y021631D03*
X075067Y014520D03*
X075067Y042080D03*
X027467Y042080D03*
D17*
X055381Y021080D03*
X057152Y021080D03*
X057152Y018520D03*
X055381Y018520D03*
D18*
X054656Y019800D03*
D19*
X062767Y035300D03*
X060767Y036300D03*
X062767Y037300D03*
D20*
X054767Y038300D03*
X053767Y038300D03*
X052767Y038300D03*
X052767Y039300D03*
X053767Y039300D03*
X054767Y039300D03*
D21*
X055267Y036674D03*
X055267Y035926D03*
X054267Y035926D03*
X054267Y036674D03*
X053267Y036674D03*
X053267Y035926D03*
X052267Y035926D03*
X052267Y036674D03*
X048267Y031674D03*
X047267Y031674D03*
X047267Y030926D03*
X048267Y030926D03*
X050267Y030674D03*
X051267Y030674D03*
X051267Y029926D03*
X050267Y029926D03*
X056767Y030426D03*
X056767Y031174D03*
X067767Y030174D03*
X067767Y029426D03*
X070267Y033926D03*
X070267Y034674D03*
X070267Y035926D03*
X070267Y036674D03*
X076767Y020174D03*
X076767Y019426D03*
X077767Y019426D03*
X077767Y020174D03*
X034767Y031926D03*
X034767Y032674D03*
D22*
X072893Y021233D03*
X073641Y021233D03*
X073267Y020367D03*
X074893Y020367D03*
X075641Y020367D03*
X075267Y021233D03*
D23*
X073641Y022300D03*
X072893Y022300D03*
X069141Y022300D03*
X068393Y022300D03*
X056141Y029300D03*
X055393Y029300D03*
X053141Y029300D03*
X052393Y029300D03*
X054893Y031300D03*
X055641Y031300D03*
X048141Y032800D03*
X047393Y032800D03*
X062393Y039300D03*
X063141Y039300D03*
D24*
X071156Y021198D03*
X071156Y019402D03*
D25*
X068330Y020300D03*
D26*
X056137Y027800D03*
X052397Y027800D03*
D27*
X069367Y031820D03*
X070367Y031820D03*
X070247Y038900D03*
X069247Y038900D03*
D28*
X067767Y031664D03*
X068023Y030936D03*
X067511Y030936D03*
D29*
X077767Y027200D03*
X078967Y025300D03*
X076567Y025300D03*
D30*
X057767Y029552D03*
X057767Y031048D03*
D31*
X053767Y031800D03*
X050767Y032300D03*
X050767Y033300D03*
X054767Y034800D03*
X051267Y035800D03*
X050767Y026300D03*
X037767Y026300D03*
X064267Y025300D03*
X072767Y032300D03*
D32*
X063767Y019800D03*
X062267Y019800D03*
X060767Y019800D03*
M02*
