G75*
%MOIN*%
%OFA0B0*%
%FSLAX24Y24*%
%IPPOS*%
%LPD*%
%AMOC8*
5,1,8,0,0,1.08239X$1,22.5*
%
%ADD10C,0.0515*%
%ADD11R,0.0515X0.0515*%
%ADD12C,0.0645*%
%ADD13C,0.0650*%
%ADD14C,0.0594*%
%ADD15C,0.1000*%
%ADD16C,0.0640*%
%ADD17OC8,0.0520*%
%ADD18C,0.1502*%
%ADD19C,0.0100*%
%ADD20C,0.0396*%
%ADD21C,0.0827*%
%ADD22C,0.0240*%
D10*
X036503Y031880D03*
X036503Y032880D03*
X036503Y033880D03*
X036503Y034880D03*
X036503Y035880D03*
X036503Y036880D03*
X036503Y037880D03*
X036503Y038880D03*
X066030Y037880D03*
X066030Y036880D03*
X066030Y035880D03*
X066030Y034880D03*
X066030Y033880D03*
X066030Y032880D03*
X066030Y031880D03*
D11*
X066030Y038726D03*
D12*
X076444Y032300D02*
X077089Y032300D01*
X077089Y031300D02*
X076444Y031300D01*
X076444Y030300D02*
X077089Y030300D01*
D13*
X049219Y021769D03*
X049219Y019800D03*
X049219Y017831D03*
X043511Y018816D03*
X043511Y020784D03*
D14*
X055381Y021080D03*
X057152Y021080D03*
X057152Y018520D03*
X055381Y018520D03*
D15*
X062767Y035300D03*
X060767Y036300D03*
X062767Y037300D03*
D16*
X054767Y038300D03*
X053767Y038300D03*
X052767Y038300D03*
X052767Y039300D03*
X053767Y039300D03*
X054767Y039300D03*
D17*
X069247Y038900D03*
X070247Y038900D03*
X070367Y031820D03*
X069367Y031820D03*
D18*
X077767Y027200D03*
X078967Y025300D03*
X076567Y025300D03*
D19*
X028267Y013000D02*
X027705Y013806D01*
X027892Y013883D01*
X028103Y014094D01*
X028218Y014371D01*
X028218Y014669D01*
X028103Y014946D01*
X027892Y015157D01*
X027616Y015271D01*
X027317Y015271D01*
X027041Y015157D01*
X026877Y014993D01*
X025967Y016300D01*
X025967Y040300D01*
X026877Y041607D01*
X027041Y041443D01*
X027317Y041329D01*
X027616Y041329D01*
X027892Y041443D01*
X028103Y041654D01*
X028218Y041931D01*
X028218Y042229D01*
X028103Y042506D01*
X027892Y042717D01*
X027705Y042794D01*
X028267Y043600D01*
X074267Y043600D01*
X078967Y040300D01*
X078967Y025350D01*
X078917Y025350D01*
X078917Y026161D01*
X078910Y026161D01*
X078798Y026146D01*
X078689Y026117D01*
X078585Y026074D01*
X078487Y026018D01*
X078398Y025949D01*
X078318Y025869D01*
X078249Y025779D01*
X078193Y025682D01*
X078149Y025577D01*
X078120Y025468D01*
X078105Y025356D01*
X078105Y025350D01*
X078917Y025350D01*
X078917Y025250D01*
X078967Y025250D01*
X078967Y016300D01*
X074267Y013000D01*
X028267Y013000D01*
X028244Y013032D02*
X074313Y013032D01*
X074453Y013131D02*
X028175Y013131D01*
X028107Y013229D02*
X074593Y013229D01*
X074734Y013328D02*
X028038Y013328D01*
X027969Y013426D02*
X074874Y013426D01*
X075014Y013525D02*
X027901Y013525D01*
X027832Y013623D02*
X075155Y013623D01*
X075216Y013769D02*
X075492Y013883D01*
X075703Y014094D01*
X075818Y014371D01*
X075818Y014669D01*
X075703Y014946D01*
X075492Y015157D01*
X075216Y015271D01*
X074917Y015271D01*
X074641Y015157D01*
X074430Y014946D01*
X074315Y014669D01*
X074315Y014371D01*
X074430Y014094D01*
X074641Y013883D01*
X074917Y013769D01*
X075216Y013769D01*
X075295Y013722D02*
X027763Y013722D01*
X027741Y013820D02*
X074793Y013820D01*
X074605Y013919D02*
X027928Y013919D01*
X028026Y014017D02*
X074507Y014017D01*
X074421Y014116D02*
X028112Y014116D01*
X028153Y014214D02*
X074380Y014214D01*
X074339Y014313D02*
X028194Y014313D01*
X028218Y014411D02*
X074315Y014411D01*
X074315Y014510D02*
X028218Y014510D01*
X028218Y014608D02*
X074315Y014608D01*
X074331Y014707D02*
X028202Y014707D01*
X028161Y014805D02*
X074372Y014805D01*
X074413Y014904D02*
X028121Y014904D01*
X028047Y015002D02*
X074487Y015002D01*
X074585Y015101D02*
X027948Y015101D01*
X027789Y015199D02*
X074744Y015199D01*
X075389Y015199D02*
X077399Y015199D01*
X077259Y015101D02*
X075548Y015101D01*
X075647Y015002D02*
X077119Y015002D01*
X076978Y014904D02*
X075721Y014904D01*
X075761Y014805D02*
X076838Y014805D01*
X076698Y014707D02*
X075802Y014707D01*
X075818Y014608D02*
X076558Y014608D01*
X076417Y014510D02*
X075818Y014510D01*
X075818Y014411D02*
X076277Y014411D01*
X076137Y014313D02*
X075794Y014313D01*
X075753Y014214D02*
X075996Y014214D01*
X075856Y014116D02*
X075712Y014116D01*
X075716Y014017D02*
X075626Y014017D01*
X075575Y013919D02*
X075528Y013919D01*
X075435Y013820D02*
X075341Y013820D01*
X077540Y015298D02*
X026665Y015298D01*
X026596Y015396D02*
X077680Y015396D01*
X077820Y015495D02*
X026528Y015495D01*
X026459Y015593D02*
X077960Y015593D01*
X078101Y015692D02*
X026390Y015692D01*
X026322Y015790D02*
X078241Y015790D01*
X078381Y015889D02*
X026253Y015889D01*
X026184Y015987D02*
X078522Y015987D01*
X078662Y016086D02*
X026116Y016086D01*
X026047Y016184D02*
X078802Y016184D01*
X078942Y016283D02*
X025979Y016283D01*
X025967Y016381D02*
X078967Y016381D01*
X078967Y016480D02*
X025967Y016480D01*
X025967Y016578D02*
X078967Y016578D01*
X078967Y016677D02*
X025967Y016677D01*
X025967Y016775D02*
X078967Y016775D01*
X078967Y016874D02*
X025967Y016874D01*
X025967Y016972D02*
X078967Y016972D01*
X078967Y017071D02*
X025967Y017071D01*
X025967Y017169D02*
X078967Y017169D01*
X078967Y017268D02*
X046536Y017268D01*
X046416Y017218D02*
X046692Y017332D01*
X046903Y017544D01*
X047018Y017820D01*
X047018Y018119D01*
X046903Y018395D01*
X046692Y018606D01*
X046416Y018720D01*
X046117Y018720D01*
X045841Y018606D01*
X045630Y018395D01*
X045515Y018119D01*
X045515Y017820D01*
X045630Y017544D01*
X045841Y017332D01*
X046117Y017218D01*
X046416Y017218D01*
X046726Y017366D02*
X078967Y017366D01*
X078967Y017465D02*
X049468Y017465D01*
X049466Y017463D02*
X049588Y017585D01*
X049654Y017745D01*
X049654Y017918D01*
X049588Y018078D01*
X049466Y018200D01*
X049306Y018266D01*
X049133Y018266D01*
X048973Y018200D01*
X048851Y018078D01*
X048785Y017918D01*
X048785Y017745D01*
X048851Y017585D01*
X048973Y017463D01*
X049133Y017397D01*
X049306Y017397D01*
X049466Y017463D01*
X049566Y017563D02*
X078967Y017563D01*
X078967Y017662D02*
X049620Y017662D01*
X049654Y017760D02*
X078967Y017760D01*
X078967Y017859D02*
X049654Y017859D01*
X049638Y017957D02*
X078967Y017957D01*
X078967Y018056D02*
X049597Y018056D01*
X049511Y018154D02*
X055203Y018154D01*
X055225Y018143D02*
X055286Y018124D01*
X055332Y018116D01*
X055332Y018472D01*
X054977Y018472D01*
X054984Y018425D01*
X055004Y018364D01*
X055033Y018307D01*
X055071Y018255D01*
X055116Y018210D01*
X055168Y018173D01*
X055225Y018143D01*
X055332Y018154D02*
X055429Y018154D01*
X055429Y018116D02*
X055476Y018124D01*
X055537Y018143D01*
X055594Y018173D01*
X055646Y018210D01*
X055691Y018255D01*
X055729Y018307D01*
X055758Y018364D01*
X055778Y018425D01*
X055785Y018472D01*
X055429Y018472D01*
X055429Y018116D01*
X055559Y018154D02*
X056973Y018154D01*
X056922Y018176D02*
X057072Y018114D01*
X057233Y018114D01*
X057383Y018176D01*
X057497Y018290D01*
X057559Y018440D01*
X057559Y018601D01*
X057497Y018751D01*
X057383Y018865D01*
X057233Y018927D01*
X057072Y018927D01*
X056922Y018865D01*
X056808Y018751D01*
X056746Y018601D01*
X056746Y018440D01*
X056808Y018290D01*
X056922Y018176D01*
X056845Y018253D02*
X055689Y018253D01*
X055751Y018351D02*
X056782Y018351D01*
X056746Y018450D02*
X055782Y018450D01*
X055785Y018569D02*
X055778Y018616D01*
X055758Y018677D01*
X055729Y018734D01*
X055691Y018786D01*
X055646Y018831D01*
X055594Y018868D01*
X055537Y018898D01*
X055476Y018917D01*
X055429Y018925D01*
X055429Y018569D01*
X055332Y018569D01*
X055332Y018472D01*
X055429Y018472D01*
X055429Y018569D01*
X055785Y018569D01*
X055768Y018647D02*
X056765Y018647D01*
X056746Y018548D02*
X055429Y018548D01*
X055332Y018548D02*
X046750Y018548D01*
X046848Y018450D02*
X054980Y018450D01*
X055010Y018351D02*
X046921Y018351D01*
X046962Y018253D02*
X049101Y018253D01*
X048927Y018154D02*
X047003Y018154D01*
X047018Y018056D02*
X048842Y018056D01*
X048801Y017957D02*
X047018Y017957D01*
X047018Y017859D02*
X048785Y017859D01*
X048785Y017760D02*
X046993Y017760D01*
X046952Y017662D02*
X048819Y017662D01*
X048873Y017563D02*
X046912Y017563D01*
X046825Y017465D02*
X048971Y017465D01*
X049338Y018253D02*
X055073Y018253D01*
X055332Y018253D02*
X055429Y018253D01*
X055429Y018351D02*
X055332Y018351D01*
X055332Y018450D02*
X055429Y018450D01*
X055332Y018569D02*
X054977Y018569D01*
X054984Y018616D01*
X055004Y018677D01*
X055033Y018734D01*
X055071Y018786D01*
X055116Y018831D01*
X055168Y018868D01*
X055225Y018898D01*
X055286Y018917D01*
X055332Y018925D01*
X055332Y018569D01*
X055332Y018647D02*
X055429Y018647D01*
X055429Y018745D02*
X055332Y018745D01*
X055332Y018844D02*
X055429Y018844D01*
X055628Y018844D02*
X056901Y018844D01*
X056805Y018745D02*
X055720Y018745D01*
X055134Y018844D02*
X043561Y018844D01*
X043561Y018866D02*
X043943Y018866D01*
X043935Y018918D01*
X043914Y018983D01*
X043883Y019044D01*
X043842Y019099D01*
X043794Y019147D01*
X043739Y019188D01*
X043678Y019219D01*
X043613Y019240D01*
X043561Y019248D01*
X043561Y018866D01*
X043461Y018866D01*
X043461Y019248D01*
X043409Y019240D01*
X043344Y019219D01*
X043283Y019188D01*
X043228Y019147D01*
X043179Y019099D01*
X043139Y019044D01*
X043108Y018983D01*
X043087Y018918D01*
X043078Y018866D01*
X043461Y018866D01*
X043461Y018766D01*
X043078Y018766D01*
X043087Y018714D01*
X043108Y018649D01*
X043139Y018588D01*
X043179Y018532D01*
X043228Y018484D01*
X043283Y018444D01*
X043344Y018413D01*
X043409Y018392D01*
X043461Y018383D01*
X043461Y018766D01*
X043561Y018766D01*
X043561Y018866D01*
X043561Y018942D02*
X043461Y018942D01*
X043461Y018844D02*
X025967Y018844D01*
X025967Y018942D02*
X043095Y018942D01*
X043138Y019041D02*
X025967Y019041D01*
X025967Y019139D02*
X043220Y019139D01*
X043403Y019238D02*
X025967Y019238D01*
X025967Y019336D02*
X060518Y019336D01*
X060470Y019356D02*
X060663Y019277D01*
X060871Y019277D01*
X061063Y019356D01*
X061210Y019504D01*
X061290Y019696D01*
X061290Y019904D01*
X061210Y020096D01*
X061063Y020244D01*
X060871Y020323D01*
X060663Y020323D01*
X060470Y020244D01*
X060323Y020096D01*
X060243Y019904D01*
X060243Y019696D01*
X060323Y019504D01*
X060470Y019356D01*
X060392Y019435D02*
X054812Y019435D01*
X054881Y019464D02*
X054993Y019575D01*
X055053Y019721D01*
X055053Y019879D01*
X054993Y020025D01*
X054881Y020136D01*
X054735Y020197D01*
X054577Y020197D01*
X054432Y020136D01*
X054320Y020025D01*
X054260Y019879D01*
X054260Y019721D01*
X054320Y019575D01*
X054432Y019464D01*
X054577Y019403D01*
X054735Y019403D01*
X054881Y019464D01*
X054951Y019533D02*
X060311Y019533D01*
X060270Y019632D02*
X055016Y019632D01*
X055053Y019730D02*
X060243Y019730D01*
X060243Y019829D02*
X055053Y019829D01*
X055033Y019927D02*
X060253Y019927D01*
X060294Y020026D02*
X054992Y020026D01*
X054893Y020124D02*
X060351Y020124D01*
X060449Y020223D02*
X049325Y020223D01*
X049321Y020224D02*
X049269Y020232D01*
X049269Y019850D01*
X049169Y019850D01*
X049169Y019750D01*
X048787Y019750D01*
X048795Y019698D01*
X048816Y019633D01*
X048848Y019572D01*
X048888Y019517D01*
X048936Y019468D01*
X048992Y019428D01*
X049053Y019397D01*
X049118Y019376D01*
X049169Y019368D01*
X049169Y019750D01*
X049269Y019750D01*
X049269Y019368D01*
X049321Y019376D01*
X049386Y019397D01*
X049447Y019428D01*
X049503Y019468D01*
X049551Y019517D01*
X049591Y019572D01*
X049622Y019633D01*
X049644Y019698D01*
X049652Y019750D01*
X049269Y019750D01*
X049269Y019850D01*
X049652Y019850D01*
X049644Y019902D01*
X049622Y019967D01*
X049591Y020028D01*
X049551Y020083D01*
X049503Y020132D01*
X049447Y020172D01*
X049386Y020203D01*
X049321Y020224D01*
X049269Y020223D02*
X049169Y020223D01*
X049169Y020232D02*
X049118Y020224D01*
X049053Y020203D01*
X048992Y020172D01*
X048936Y020132D01*
X048888Y020083D01*
X048848Y020028D01*
X048816Y019967D01*
X048795Y019902D01*
X048787Y019850D01*
X049169Y019850D01*
X049169Y020232D01*
X049114Y020223D02*
X025967Y020223D01*
X025967Y020321D02*
X060658Y020321D01*
X060875Y020321D02*
X062158Y020321D01*
X062163Y020323D02*
X061970Y020244D01*
X061823Y020096D01*
X061743Y019904D01*
X061743Y019696D01*
X061823Y019504D01*
X061970Y019356D01*
X062163Y019277D01*
X062371Y019277D01*
X062563Y019356D01*
X062710Y019504D01*
X062790Y019696D01*
X062790Y019904D01*
X062710Y020096D01*
X062563Y020244D01*
X062371Y020323D01*
X062163Y020323D01*
X062375Y020321D02*
X078967Y020321D01*
X078967Y020223D02*
X062584Y020223D01*
X062682Y020124D02*
X078967Y020124D01*
X078967Y020026D02*
X062740Y020026D01*
X062780Y019927D02*
X078967Y019927D01*
X078967Y019829D02*
X062790Y019829D01*
X062790Y019730D02*
X078967Y019730D01*
X078967Y019632D02*
X062764Y019632D01*
X062723Y019533D02*
X078967Y019533D01*
X078967Y019435D02*
X062642Y019435D01*
X062515Y019336D02*
X078967Y019336D01*
X078967Y019238D02*
X043618Y019238D01*
X043561Y019238D02*
X043461Y019238D01*
X043461Y019139D02*
X043561Y019139D01*
X043561Y019041D02*
X043461Y019041D01*
X043561Y018766D02*
X043943Y018766D01*
X043935Y018714D01*
X043914Y018649D01*
X043883Y018588D01*
X043842Y018532D01*
X043794Y018484D01*
X043739Y018444D01*
X043678Y018413D01*
X043613Y018392D01*
X043561Y018383D01*
X043561Y018766D01*
X043561Y018745D02*
X043461Y018745D01*
X043461Y018647D02*
X043561Y018647D01*
X043561Y018548D02*
X043461Y018548D01*
X043461Y018450D02*
X043561Y018450D01*
X043747Y018450D02*
X045685Y018450D01*
X045612Y018351D02*
X025967Y018351D01*
X025967Y018253D02*
X045571Y018253D01*
X045530Y018154D02*
X025967Y018154D01*
X025967Y018056D02*
X045515Y018056D01*
X045515Y017957D02*
X025967Y017957D01*
X025967Y017859D02*
X045515Y017859D01*
X045540Y017760D02*
X025967Y017760D01*
X025967Y017662D02*
X045581Y017662D01*
X045622Y017563D02*
X025967Y017563D01*
X025967Y017465D02*
X045709Y017465D01*
X045807Y017366D02*
X025967Y017366D01*
X025967Y017268D02*
X045997Y017268D01*
X045784Y018548D02*
X043854Y018548D01*
X043913Y018647D02*
X045940Y018647D01*
X046594Y018647D02*
X054994Y018647D01*
X055041Y018745D02*
X043940Y018745D01*
X043927Y018942D02*
X078967Y018942D01*
X078967Y018844D02*
X057404Y018844D01*
X057500Y018745D02*
X078967Y018745D01*
X078967Y018647D02*
X057540Y018647D01*
X057559Y018548D02*
X078967Y018548D01*
X078967Y018450D02*
X057559Y018450D01*
X057523Y018351D02*
X078967Y018351D01*
X078967Y018253D02*
X057460Y018253D01*
X057332Y018154D02*
X078967Y018154D01*
X078967Y019041D02*
X043884Y019041D01*
X043802Y019139D02*
X078967Y019139D01*
X078967Y020420D02*
X043761Y020420D01*
X043757Y020416D02*
X043879Y020538D01*
X043946Y020698D01*
X043946Y020871D01*
X043879Y021031D01*
X043757Y021153D01*
X043597Y021219D01*
X043424Y021219D01*
X043264Y021153D01*
X043142Y021031D01*
X043076Y020871D01*
X043076Y020698D01*
X043142Y020538D01*
X043264Y020416D01*
X043424Y020349D01*
X043597Y020349D01*
X043757Y020416D01*
X043860Y020518D02*
X078967Y020518D01*
X078967Y020617D02*
X043912Y020617D01*
X043946Y020715D02*
X055199Y020715D01*
X055225Y020702D02*
X055286Y020683D01*
X055332Y020675D01*
X055332Y021031D01*
X054977Y021031D01*
X054984Y020984D01*
X055004Y020923D01*
X055033Y020866D01*
X055071Y020814D01*
X043946Y020814D01*
X043928Y020912D02*
X046038Y020912D01*
X046117Y020880D02*
X046416Y020880D01*
X046692Y020994D01*
X046903Y021205D01*
X047018Y021481D01*
X047018Y021780D01*
X046903Y022056D01*
X046692Y022268D01*
X046416Y022382D01*
X046117Y022382D01*
X045841Y022268D01*
X045630Y022056D01*
X045515Y021780D01*
X045515Y021481D01*
X045630Y021205D01*
X045841Y020994D01*
X046117Y020880D01*
X045824Y021011D02*
X043887Y021011D01*
X043800Y021109D02*
X045726Y021109D01*
X045629Y021208D02*
X043624Y021208D01*
X043398Y021208D02*
X025967Y021208D01*
X025967Y021306D02*
X045588Y021306D01*
X045547Y021405D02*
X025967Y021405D01*
X025967Y021503D02*
X045515Y021503D01*
X045515Y021602D02*
X025967Y021602D01*
X025967Y021700D02*
X045515Y021700D01*
X045523Y021799D02*
X025967Y021799D01*
X025967Y021897D02*
X045564Y021897D01*
X045605Y021996D02*
X025967Y021996D01*
X025967Y022094D02*
X045668Y022094D01*
X045767Y022193D02*
X025967Y022193D01*
X025967Y022291D02*
X045899Y022291D01*
X046634Y022291D02*
X078967Y022291D01*
X078967Y022193D02*
X049331Y022193D01*
X049306Y022203D02*
X049133Y022203D01*
X048973Y022137D01*
X048851Y022015D01*
X048785Y021855D01*
X048785Y021682D01*
X048851Y021522D01*
X048973Y021400D01*
X049133Y021334D01*
X049306Y021334D01*
X049466Y021400D01*
X049588Y021522D01*
X049654Y021682D01*
X049654Y021855D01*
X049588Y022015D01*
X049466Y022137D01*
X049306Y022203D01*
X049108Y022193D02*
X046767Y022193D01*
X046865Y022094D02*
X048930Y022094D01*
X048843Y021996D02*
X046928Y021996D01*
X046969Y021897D02*
X048802Y021897D01*
X048785Y021799D02*
X047010Y021799D01*
X047018Y021700D02*
X048785Y021700D01*
X048818Y021602D02*
X047018Y021602D01*
X047018Y021503D02*
X048870Y021503D01*
X048968Y021405D02*
X046986Y021405D01*
X046945Y021306D02*
X055043Y021306D01*
X055033Y021293D02*
X055004Y021236D01*
X054984Y021175D01*
X054977Y021128D01*
X055332Y021128D01*
X055332Y021031D01*
X055429Y021031D01*
X055429Y020675D01*
X055476Y020683D01*
X055537Y020702D01*
X055594Y020732D01*
X055646Y020769D01*
X055691Y020814D01*
X056843Y020814D01*
X056808Y020849D02*
X056922Y020735D01*
X057072Y020673D01*
X057233Y020673D01*
X057383Y020735D01*
X057497Y020849D01*
X057559Y020999D01*
X057559Y021160D01*
X057497Y021310D01*
X057383Y021424D01*
X057233Y021486D01*
X057072Y021486D01*
X056922Y021424D01*
X056808Y021310D01*
X056746Y021160D01*
X056746Y020999D01*
X056808Y020849D01*
X056781Y020912D02*
X055752Y020912D01*
X055758Y020923D02*
X055778Y020984D01*
X055785Y021031D01*
X055429Y021031D01*
X055429Y021128D01*
X055332Y021128D01*
X055332Y021484D01*
X055286Y021476D01*
X055225Y021457D01*
X055168Y021427D01*
X055116Y021390D01*
X055071Y021345D01*
X055033Y021293D01*
X054995Y021208D02*
X046905Y021208D01*
X046808Y021109D02*
X055332Y021109D01*
X055429Y021109D02*
X056746Y021109D01*
X056746Y021011D02*
X055782Y021011D01*
X055758Y020923D02*
X055729Y020866D01*
X055691Y020814D01*
X055563Y020715D02*
X056968Y020715D01*
X057337Y020715D02*
X078967Y020715D01*
X078967Y020814D02*
X057462Y020814D01*
X057524Y020912D02*
X078967Y020912D01*
X078967Y021011D02*
X057559Y021011D01*
X057559Y021109D02*
X078967Y021109D01*
X078967Y021208D02*
X057540Y021208D01*
X057499Y021306D02*
X078967Y021306D01*
X078967Y021405D02*
X057402Y021405D01*
X056903Y021405D02*
X055625Y021405D01*
X055646Y021390D02*
X055594Y021427D01*
X055537Y021457D01*
X055476Y021476D01*
X055429Y021484D01*
X055429Y021128D01*
X055785Y021128D01*
X055778Y021175D01*
X055758Y021236D01*
X055729Y021293D01*
X055691Y021345D01*
X055646Y021390D01*
X055719Y021306D02*
X056806Y021306D01*
X056765Y021208D02*
X055767Y021208D01*
X055429Y021208D02*
X055332Y021208D01*
X055332Y021306D02*
X055429Y021306D01*
X055429Y021405D02*
X055332Y021405D01*
X055137Y021405D02*
X049471Y021405D01*
X049569Y021503D02*
X078967Y021503D01*
X078967Y021602D02*
X049621Y021602D01*
X049654Y021700D02*
X078967Y021700D01*
X078967Y021799D02*
X049654Y021799D01*
X049637Y021897D02*
X078967Y021897D01*
X078967Y021996D02*
X049596Y021996D01*
X049508Y022094D02*
X078967Y022094D01*
X078967Y022390D02*
X025967Y022390D01*
X025967Y022488D02*
X078967Y022488D01*
X078967Y022587D02*
X025967Y022587D01*
X025967Y022685D02*
X078967Y022685D01*
X078967Y022784D02*
X025967Y022784D01*
X025967Y022882D02*
X078967Y022882D01*
X078967Y022981D02*
X025967Y022981D01*
X025967Y023079D02*
X078967Y023079D01*
X078967Y023178D02*
X025967Y023178D01*
X025967Y023276D02*
X078967Y023276D01*
X078967Y023375D02*
X025967Y023375D01*
X025967Y023473D02*
X078967Y023473D01*
X078967Y023572D02*
X025967Y023572D01*
X025967Y023670D02*
X078967Y023670D01*
X078967Y023769D02*
X025967Y023769D01*
X025967Y023867D02*
X078967Y023867D01*
X078967Y023966D02*
X025967Y023966D01*
X025967Y024064D02*
X078967Y024064D01*
X078967Y024163D02*
X025967Y024163D01*
X025967Y024261D02*
X078967Y024261D01*
X078967Y024360D02*
X025967Y024360D01*
X025967Y024458D02*
X076348Y024458D01*
X076395Y024439D02*
X076738Y024439D01*
X077054Y024570D01*
X077297Y024812D01*
X077428Y025129D01*
X077428Y025471D01*
X077297Y025788D01*
X077054Y026030D01*
X076738Y026161D01*
X076395Y026161D01*
X076079Y026030D01*
X075837Y025788D01*
X075705Y025471D01*
X075705Y025129D01*
X075837Y024812D01*
X076079Y024570D01*
X076395Y024439D01*
X076110Y024557D02*
X025967Y024557D01*
X025967Y024655D02*
X075993Y024655D01*
X075895Y024754D02*
X025967Y024754D01*
X025967Y024852D02*
X075820Y024852D01*
X075779Y024951D02*
X025967Y024951D01*
X025967Y025049D02*
X064081Y025049D01*
X064092Y025039D02*
X064205Y024992D01*
X064328Y024992D01*
X064441Y025039D01*
X064528Y025125D01*
X064575Y025239D01*
X064575Y025361D01*
X064528Y025475D01*
X064497Y025506D01*
X064497Y036895D01*
X064362Y037030D01*
X064362Y037030D01*
X063862Y037530D01*
X063332Y037530D01*
X063284Y037646D01*
X063112Y037817D01*
X062888Y037910D01*
X062645Y037910D01*
X062421Y037817D01*
X062250Y037646D01*
X062157Y037421D01*
X062157Y037179D01*
X062250Y036954D01*
X062421Y036783D01*
X062645Y036690D01*
X062888Y036690D01*
X063112Y036783D01*
X063284Y036954D01*
X063332Y037070D01*
X063671Y037070D01*
X064037Y036705D01*
X064037Y025506D01*
X064005Y025475D01*
X063959Y025361D01*
X063959Y025239D01*
X064005Y025125D01*
X064092Y025039D01*
X063996Y025148D02*
X025967Y025148D01*
X025967Y025246D02*
X063959Y025246D01*
X063959Y025345D02*
X025967Y025345D01*
X025967Y025443D02*
X063993Y025443D01*
X064037Y025542D02*
X025967Y025542D01*
X025967Y025640D02*
X064037Y025640D01*
X064037Y025739D02*
X025967Y025739D01*
X025967Y025837D02*
X064037Y025837D01*
X064037Y025936D02*
X025967Y025936D01*
X025967Y026034D02*
X037603Y026034D01*
X037592Y026039D02*
X037705Y025992D01*
X037828Y025992D01*
X037941Y026039D01*
X037972Y026070D01*
X050561Y026070D01*
X050592Y026039D01*
X050705Y025992D01*
X050828Y025992D01*
X050941Y026039D01*
X051028Y026125D01*
X051075Y026239D01*
X051075Y026361D01*
X051028Y026475D01*
X050941Y026561D01*
X050828Y026608D01*
X050705Y026608D01*
X050592Y026561D01*
X050561Y026530D01*
X037972Y026530D01*
X037941Y026561D01*
X037828Y026608D01*
X037705Y026608D01*
X037592Y026561D01*
X037505Y026475D01*
X037459Y026361D01*
X037459Y026239D01*
X037505Y026125D01*
X037592Y026039D01*
X037502Y026133D02*
X025967Y026133D01*
X025967Y026231D02*
X037462Y026231D01*
X037459Y026330D02*
X025967Y026330D01*
X025967Y026428D02*
X037486Y026428D01*
X037558Y026527D02*
X025967Y026527D01*
X025967Y026625D02*
X064037Y026625D01*
X064037Y026527D02*
X050975Y026527D01*
X051047Y026428D02*
X064037Y026428D01*
X064037Y026330D02*
X051075Y026330D01*
X051072Y026231D02*
X064037Y026231D01*
X064037Y026133D02*
X051031Y026133D01*
X050931Y026034D02*
X064037Y026034D01*
X064497Y026034D02*
X076090Y026034D01*
X075985Y025936D02*
X064497Y025936D01*
X064497Y025837D02*
X075886Y025837D01*
X075816Y025739D02*
X064497Y025739D01*
X064497Y025640D02*
X075776Y025640D01*
X075735Y025542D02*
X064497Y025542D01*
X064541Y025443D02*
X075705Y025443D01*
X075705Y025345D02*
X064575Y025345D01*
X064575Y025246D02*
X075705Y025246D01*
X075705Y025148D02*
X064537Y025148D01*
X064452Y025049D02*
X075738Y025049D01*
X076785Y024458D02*
X078780Y024458D01*
X078798Y024454D02*
X078910Y024439D01*
X078917Y024439D01*
X078917Y025250D01*
X078105Y025250D01*
X078105Y025244D01*
X078120Y025132D01*
X078149Y025023D01*
X078193Y024918D01*
X078249Y024821D01*
X078318Y024731D01*
X078398Y024651D01*
X078487Y024582D01*
X078585Y024526D01*
X078689Y024483D01*
X078798Y024454D01*
X078917Y024458D02*
X078967Y024458D01*
X078967Y024557D02*
X078917Y024557D01*
X078917Y024655D02*
X078967Y024655D01*
X078967Y024754D02*
X078917Y024754D01*
X078917Y024852D02*
X078967Y024852D01*
X078967Y024951D02*
X078917Y024951D01*
X078917Y025049D02*
X078967Y025049D01*
X078967Y025148D02*
X078917Y025148D01*
X078917Y025246D02*
X078967Y025246D01*
X078917Y025345D02*
X077428Y025345D01*
X077428Y025443D02*
X078117Y025443D01*
X078140Y025542D02*
X077399Y025542D01*
X077358Y025640D02*
X078176Y025640D01*
X078226Y025739D02*
X077317Y025739D01*
X077247Y025837D02*
X078294Y025837D01*
X078385Y025936D02*
X077149Y025936D01*
X077044Y026034D02*
X078516Y026034D01*
X078748Y026133D02*
X076806Y026133D01*
X076327Y026133D02*
X064497Y026133D01*
X064497Y026231D02*
X078967Y026231D01*
X078967Y026133D02*
X078917Y026133D01*
X078917Y026034D02*
X078967Y026034D01*
X078967Y025936D02*
X078917Y025936D01*
X078917Y025837D02*
X078967Y025837D01*
X078967Y025739D02*
X078917Y025739D01*
X078917Y025640D02*
X078967Y025640D01*
X078967Y025542D02*
X078917Y025542D01*
X078917Y025443D02*
X078967Y025443D01*
X078105Y025246D02*
X077428Y025246D01*
X077428Y025148D02*
X078118Y025148D01*
X078142Y025049D02*
X077395Y025049D01*
X077354Y024951D02*
X078179Y024951D01*
X078231Y024852D02*
X077313Y024852D01*
X077239Y024754D02*
X078300Y024754D01*
X078393Y024655D02*
X077140Y024655D01*
X077023Y024557D02*
X078531Y024557D01*
X078967Y026330D02*
X064497Y026330D01*
X064497Y026428D02*
X077381Y026428D01*
X077385Y026426D02*
X077489Y026383D01*
X077598Y026354D01*
X077710Y026339D01*
X077717Y026339D01*
X077717Y027150D01*
X077817Y027150D01*
X077817Y027250D01*
X078628Y027250D01*
X078628Y027256D01*
X078613Y027368D01*
X078584Y027477D01*
X078541Y027582D01*
X078484Y027679D01*
X078416Y027769D01*
X078336Y027849D01*
X078246Y027918D01*
X078148Y027974D01*
X078044Y028017D01*
X077935Y028046D01*
X077823Y028061D01*
X077817Y028061D01*
X077817Y027250D01*
X077717Y027250D01*
X077717Y028061D01*
X077710Y028061D01*
X077598Y028046D01*
X077489Y028017D01*
X077385Y027974D01*
X077287Y027918D01*
X077198Y027849D01*
X077118Y027769D01*
X077049Y027679D01*
X076993Y027582D01*
X076949Y027477D01*
X076920Y027368D01*
X076905Y027256D01*
X076905Y027250D01*
X077717Y027250D01*
X077717Y027150D01*
X076905Y027150D01*
X076905Y027144D01*
X076920Y027032D01*
X076949Y026923D01*
X076993Y026818D01*
X077049Y026721D01*
X077118Y026631D01*
X077198Y026551D01*
X077287Y026482D01*
X077385Y026426D01*
X077229Y026527D02*
X064497Y026527D01*
X064497Y026625D02*
X077123Y026625D01*
X077047Y026724D02*
X064497Y026724D01*
X064497Y026822D02*
X076991Y026822D01*
X076950Y026921D02*
X064497Y026921D01*
X064497Y027019D02*
X076923Y027019D01*
X076909Y027118D02*
X064497Y027118D01*
X064497Y027216D02*
X077717Y027216D01*
X077717Y027118D02*
X077817Y027118D01*
X077817Y027150D02*
X077817Y026339D01*
X077823Y026339D01*
X077935Y026354D01*
X078044Y026383D01*
X078148Y026426D01*
X078246Y026482D01*
X078336Y026551D01*
X078416Y026631D01*
X078484Y026721D01*
X078541Y026818D01*
X078584Y026923D01*
X078613Y027032D01*
X078628Y027144D01*
X078628Y027150D01*
X077817Y027150D01*
X077817Y027216D02*
X078967Y027216D01*
X078967Y027118D02*
X078624Y027118D01*
X078610Y027019D02*
X078967Y027019D01*
X078967Y026921D02*
X078583Y026921D01*
X078542Y026822D02*
X078967Y026822D01*
X078967Y026724D02*
X078486Y026724D01*
X078410Y026625D02*
X078967Y026625D01*
X078967Y026527D02*
X078304Y026527D01*
X078153Y026428D02*
X078967Y026428D01*
X077817Y026428D02*
X077717Y026428D01*
X077717Y026527D02*
X077817Y026527D01*
X077817Y026625D02*
X077717Y026625D01*
X077717Y026724D02*
X077817Y026724D01*
X077817Y026822D02*
X077717Y026822D01*
X077717Y026921D02*
X077817Y026921D01*
X077817Y027019D02*
X077717Y027019D01*
X077717Y027315D02*
X077817Y027315D01*
X077817Y027413D02*
X077717Y027413D01*
X077717Y027512D02*
X077817Y027512D01*
X077817Y027610D02*
X077717Y027610D01*
X077717Y027709D02*
X077817Y027709D01*
X077817Y027807D02*
X077717Y027807D01*
X077717Y027906D02*
X077817Y027906D01*
X077817Y028004D02*
X077717Y028004D01*
X077459Y028004D02*
X064497Y028004D01*
X064497Y027906D02*
X077272Y027906D01*
X077156Y027807D02*
X064497Y027807D01*
X064497Y027709D02*
X077072Y027709D01*
X077009Y027610D02*
X064497Y027610D01*
X064497Y027512D02*
X076964Y027512D01*
X076932Y027413D02*
X064497Y027413D01*
X064497Y027315D02*
X076913Y027315D01*
X078075Y028004D02*
X078967Y028004D01*
X078967Y027906D02*
X078261Y027906D01*
X078377Y027807D02*
X078967Y027807D01*
X078967Y027709D02*
X078462Y027709D01*
X078524Y027610D02*
X078967Y027610D01*
X078967Y027512D02*
X078570Y027512D01*
X078601Y027413D02*
X078967Y027413D01*
X078967Y027315D02*
X078620Y027315D01*
X078967Y028103D02*
X064497Y028103D01*
X064497Y028201D02*
X078967Y028201D01*
X078967Y028300D02*
X064497Y028300D01*
X064497Y028399D02*
X078967Y028399D01*
X078967Y028497D02*
X064497Y028497D01*
X064497Y028596D02*
X078967Y028596D01*
X078967Y028694D02*
X064497Y028694D01*
X064497Y028793D02*
X078967Y028793D01*
X078967Y028891D02*
X064497Y028891D01*
X064497Y028990D02*
X078967Y028990D01*
X078967Y029088D02*
X064497Y029088D01*
X064497Y029187D02*
X078967Y029187D01*
X078967Y029285D02*
X064497Y029285D01*
X064497Y029384D02*
X078967Y029384D01*
X078967Y029482D02*
X064497Y029482D01*
X064497Y029581D02*
X078967Y029581D01*
X078967Y029679D02*
X064497Y029679D01*
X064497Y029778D02*
X078967Y029778D01*
X078967Y029876D02*
X077196Y029876D01*
X077175Y029868D02*
X077334Y029933D01*
X077456Y030055D01*
X077522Y030214D01*
X077522Y030386D01*
X077456Y030545D01*
X077334Y030667D01*
X077175Y030732D01*
X076358Y030732D01*
X076199Y030667D01*
X076078Y030545D01*
X076012Y030386D01*
X076012Y030214D01*
X076078Y030055D01*
X076199Y029933D01*
X076358Y029868D01*
X077175Y029868D01*
X077375Y029975D02*
X078967Y029975D01*
X078967Y030073D02*
X077463Y030073D01*
X077504Y030172D02*
X078967Y030172D01*
X078967Y030270D02*
X077522Y030270D01*
X077522Y030369D02*
X078967Y030369D01*
X078967Y030467D02*
X077488Y030467D01*
X077435Y030566D02*
X078967Y030566D01*
X078967Y030664D02*
X077337Y030664D01*
X077255Y030899D02*
X077316Y030930D01*
X077371Y030970D01*
X077419Y031018D01*
X077459Y031073D01*
X077490Y031134D01*
X077511Y031199D01*
X077519Y031250D01*
X076817Y031250D01*
X076817Y031350D01*
X077519Y031350D01*
X077511Y031401D01*
X077490Y031466D01*
X077459Y031527D01*
X077419Y031582D01*
X077371Y031630D01*
X077316Y031670D01*
X077255Y031701D01*
X077190Y031722D01*
X077123Y031732D01*
X076817Y031732D01*
X076817Y031350D01*
X076717Y031350D01*
X076717Y031732D01*
X076410Y031732D01*
X076343Y031722D01*
X076278Y031701D01*
X076217Y031670D01*
X076162Y031630D01*
X076114Y031582D01*
X076074Y031527D01*
X076043Y031466D01*
X076022Y031401D01*
X076014Y031350D01*
X076717Y031350D01*
X076717Y031250D01*
X076817Y031250D01*
X076817Y030868D01*
X077123Y030868D01*
X077190Y030878D01*
X077255Y030899D01*
X077356Y030960D02*
X078967Y030960D01*
X078967Y031058D02*
X077448Y031058D01*
X077497Y031157D02*
X078967Y031157D01*
X078967Y031255D02*
X076817Y031255D01*
X076817Y031157D02*
X076717Y031157D01*
X076717Y031250D02*
X076717Y030868D01*
X076410Y030868D01*
X076343Y030878D01*
X076278Y030899D01*
X076217Y030930D01*
X076162Y030970D01*
X076114Y031018D01*
X076074Y031073D01*
X076043Y031134D01*
X076022Y031199D01*
X076014Y031250D01*
X076717Y031250D01*
X076717Y031255D02*
X064497Y031255D01*
X064497Y031157D02*
X076036Y031157D01*
X076085Y031058D02*
X064497Y031058D01*
X064497Y030960D02*
X076177Y030960D01*
X076197Y030664D02*
X064497Y030664D01*
X064497Y030566D02*
X076098Y030566D01*
X076045Y030467D02*
X064497Y030467D01*
X064497Y030369D02*
X076012Y030369D01*
X076012Y030270D02*
X064497Y030270D01*
X064497Y030172D02*
X076029Y030172D01*
X076070Y030073D02*
X064497Y030073D01*
X064497Y029975D02*
X076158Y029975D01*
X076338Y029876D02*
X064497Y029876D01*
X064037Y029876D02*
X025967Y029876D01*
X025967Y029778D02*
X064037Y029778D01*
X064037Y029679D02*
X025967Y029679D01*
X025967Y029581D02*
X064037Y029581D01*
X064037Y029482D02*
X025967Y029482D01*
X025967Y029384D02*
X064037Y029384D01*
X064037Y029285D02*
X025967Y029285D01*
X025967Y029187D02*
X064037Y029187D01*
X064037Y029088D02*
X025967Y029088D01*
X025967Y028990D02*
X064037Y028990D01*
X064037Y028891D02*
X025967Y028891D01*
X025967Y028793D02*
X064037Y028793D01*
X064037Y028694D02*
X025967Y028694D01*
X025967Y028596D02*
X064037Y028596D01*
X064037Y028497D02*
X025967Y028497D01*
X025967Y028399D02*
X064037Y028399D01*
X064037Y028300D02*
X025967Y028300D01*
X025967Y028201D02*
X064037Y028201D01*
X064037Y028103D02*
X025967Y028103D01*
X025967Y028004D02*
X064037Y028004D01*
X064037Y027906D02*
X025967Y027906D01*
X025967Y027807D02*
X064037Y027807D01*
X064037Y027709D02*
X025967Y027709D01*
X025967Y027610D02*
X064037Y027610D01*
X064037Y027512D02*
X025967Y027512D01*
X025967Y027413D02*
X064037Y027413D01*
X064037Y027315D02*
X025967Y027315D01*
X025967Y027216D02*
X064037Y027216D01*
X064037Y027118D02*
X025967Y027118D01*
X025967Y027019D02*
X064037Y027019D01*
X064037Y026921D02*
X025967Y026921D01*
X025967Y026822D02*
X064037Y026822D01*
X064037Y026724D02*
X025967Y026724D01*
X025967Y029975D02*
X064037Y029975D01*
X064037Y030073D02*
X025967Y030073D01*
X025967Y030172D02*
X064037Y030172D01*
X064037Y030270D02*
X025967Y030270D01*
X025967Y030369D02*
X064037Y030369D01*
X064037Y030467D02*
X025967Y030467D01*
X025967Y030566D02*
X064037Y030566D01*
X064037Y030664D02*
X025967Y030664D01*
X025967Y030763D02*
X064037Y030763D01*
X064037Y030861D02*
X025967Y030861D01*
X025967Y030960D02*
X064037Y030960D01*
X064037Y031058D02*
X025967Y031058D01*
X025967Y031157D02*
X064037Y031157D01*
X064037Y031255D02*
X025967Y031255D01*
X025967Y031354D02*
X064037Y031354D01*
X064037Y031452D02*
X025967Y031452D01*
X025967Y031551D02*
X036338Y031551D01*
X036329Y031554D02*
X036396Y031527D01*
X036467Y031513D01*
X036474Y031513D01*
X036474Y031851D01*
X036532Y031851D01*
X036532Y031909D01*
X036870Y031909D01*
X036870Y031916D01*
X036856Y031987D01*
X036829Y032054D01*
X036788Y032114D01*
X036737Y032165D01*
X036677Y032206D01*
X036610Y032233D01*
X036539Y032247D01*
X036532Y032247D01*
X036532Y031909D01*
X036474Y031909D01*
X036474Y032247D01*
X036467Y032247D01*
X036396Y032233D01*
X036329Y032206D01*
X036269Y032165D01*
X036217Y032114D01*
X036177Y032054D01*
X036150Y031987D01*
X036135Y031916D01*
X036135Y031909D01*
X036474Y031909D01*
X036474Y031851D01*
X036135Y031851D01*
X036135Y031844D01*
X036150Y031773D01*
X036177Y031706D01*
X036217Y031646D01*
X036269Y031595D01*
X036329Y031554D01*
X036474Y031551D02*
X036532Y031551D01*
X036532Y031513D02*
X036539Y031513D01*
X036610Y031527D01*
X036677Y031554D01*
X036737Y031595D01*
X036788Y031646D01*
X036829Y031706D01*
X036856Y031773D01*
X036870Y031844D01*
X036870Y031851D01*
X036532Y031851D01*
X036532Y031513D01*
X036532Y031649D02*
X036474Y031649D01*
X036474Y031748D02*
X036532Y031748D01*
X036532Y031846D02*
X036474Y031846D01*
X036474Y031945D02*
X036532Y031945D01*
X036532Y032043D02*
X036474Y032043D01*
X036474Y032142D02*
X036532Y032142D01*
X036532Y032240D02*
X036474Y032240D01*
X036429Y032240D02*
X025967Y032240D01*
X025967Y032142D02*
X036245Y032142D01*
X036173Y032043D02*
X025967Y032043D01*
X025967Y031945D02*
X036141Y031945D01*
X036135Y031846D02*
X025967Y031846D01*
X025967Y031748D02*
X036160Y031748D01*
X036215Y031649D02*
X025967Y031649D01*
X025967Y032339D02*
X050459Y032339D01*
X050459Y032361D02*
X050459Y032239D01*
X050505Y032125D01*
X050592Y032039D01*
X050705Y031992D01*
X050828Y031992D01*
X050941Y032039D01*
X051028Y032125D01*
X051034Y032140D01*
X052200Y032140D01*
X052607Y031734D01*
X052700Y031640D01*
X053499Y031640D01*
X053505Y031625D01*
X053592Y031539D01*
X053705Y031492D01*
X053828Y031492D01*
X053941Y031539D01*
X054028Y031625D01*
X054075Y031739D01*
X054075Y031861D01*
X054028Y031975D01*
X053941Y032061D01*
X053828Y032108D01*
X053705Y032108D01*
X053592Y032061D01*
X053505Y031975D01*
X053499Y031960D01*
X052833Y031960D01*
X052333Y032460D01*
X051034Y032460D01*
X051028Y032475D01*
X050941Y032561D01*
X050828Y032608D01*
X050705Y032608D01*
X050592Y032561D01*
X050505Y032475D01*
X050459Y032361D01*
X050490Y032437D02*
X025967Y032437D01*
X025967Y032536D02*
X036374Y032536D01*
X036430Y032513D02*
X036576Y032513D01*
X036711Y032568D01*
X036814Y032672D01*
X036870Y032807D01*
X036870Y032953D01*
X036814Y033088D01*
X036711Y033192D01*
X036576Y033247D01*
X036430Y033247D01*
X036295Y033192D01*
X036191Y033088D01*
X036135Y032953D01*
X036135Y032807D01*
X036191Y032672D01*
X036295Y032568D01*
X036430Y032513D01*
X036631Y032536D02*
X050566Y032536D01*
X050767Y032300D02*
X052267Y032300D01*
X052767Y031800D01*
X053767Y031800D01*
X054040Y031945D02*
X064037Y031945D01*
X064037Y032043D02*
X053959Y032043D01*
X054075Y031846D02*
X064037Y031846D01*
X064037Y031748D02*
X054075Y031748D01*
X054038Y031649D02*
X064037Y031649D01*
X064037Y031551D02*
X053953Y031551D01*
X053580Y031551D02*
X036668Y031551D01*
X036791Y031649D02*
X052691Y031649D01*
X052593Y031748D02*
X036846Y031748D01*
X036870Y031846D02*
X052494Y031846D01*
X052396Y031945D02*
X036865Y031945D01*
X036833Y032043D02*
X050588Y032043D01*
X050499Y032142D02*
X036761Y032142D01*
X036577Y032240D02*
X050459Y032240D01*
X050945Y032043D02*
X052297Y032043D01*
X052553Y032240D02*
X064037Y032240D01*
X064037Y032142D02*
X052651Y032142D01*
X052750Y032043D02*
X053574Y032043D01*
X052454Y032339D02*
X064037Y032339D01*
X064037Y032437D02*
X052356Y032437D01*
X050967Y032536D02*
X064037Y032536D01*
X064037Y032634D02*
X036777Y032634D01*
X036840Y032733D02*
X064037Y032733D01*
X064037Y032831D02*
X036870Y032831D01*
X036870Y032930D02*
X064037Y032930D01*
X064037Y033028D02*
X050915Y033028D01*
X050941Y033039D02*
X051028Y033125D01*
X051075Y033239D01*
X051075Y033361D01*
X051028Y033475D01*
X050941Y033561D01*
X050927Y033567D01*
X050927Y035234D01*
X051191Y035498D01*
X051205Y035492D01*
X051328Y035492D01*
X051441Y035539D01*
X051528Y035625D01*
X051575Y035739D01*
X051575Y035861D01*
X051528Y035975D01*
X051441Y036061D01*
X051328Y036108D01*
X051205Y036108D01*
X051092Y036061D01*
X051005Y035975D01*
X050959Y035861D01*
X050959Y035739D01*
X050965Y035724D01*
X050607Y035366D01*
X050607Y033567D01*
X050592Y033561D01*
X050505Y033475D01*
X050459Y033361D01*
X050459Y033239D01*
X050505Y033125D01*
X050592Y033039D01*
X050705Y032992D01*
X050828Y032992D01*
X050941Y033039D01*
X051028Y033127D02*
X064037Y033127D01*
X064037Y033225D02*
X051069Y033225D01*
X051075Y033324D02*
X064037Y033324D01*
X064037Y033422D02*
X051050Y033422D01*
X050982Y033521D02*
X064037Y033521D01*
X064037Y033619D02*
X050927Y033619D01*
X050927Y033718D02*
X064037Y033718D01*
X064037Y033816D02*
X050927Y033816D01*
X050927Y033915D02*
X064037Y033915D01*
X064037Y034013D02*
X050927Y034013D01*
X050927Y034112D02*
X064037Y034112D01*
X064037Y034210D02*
X050927Y034210D01*
X050927Y034309D02*
X064037Y034309D01*
X064037Y034407D02*
X050927Y034407D01*
X050927Y034506D02*
X064037Y034506D01*
X064037Y034604D02*
X050927Y034604D01*
X050927Y034703D02*
X062640Y034703D01*
X062624Y034705D02*
X062719Y034690D01*
X062737Y034690D01*
X062737Y035270D01*
X062797Y035270D01*
X062797Y035330D01*
X063377Y035330D01*
X063377Y035348D01*
X063362Y035443D01*
X063332Y035534D01*
X063288Y035620D01*
X063232Y035697D01*
X063164Y035765D01*
X063086Y035822D01*
X063001Y035865D01*
X062910Y035895D01*
X062815Y035910D01*
X062797Y035910D01*
X062797Y035330D01*
X062737Y035330D01*
X062737Y035910D01*
X062719Y035910D01*
X062624Y035895D01*
X062533Y035865D01*
X062447Y035822D01*
X062369Y035765D01*
X062301Y035697D01*
X062245Y035620D01*
X062201Y035534D01*
X062172Y035443D01*
X062157Y035348D01*
X062157Y035330D01*
X062737Y035330D01*
X062737Y035270D01*
X062157Y035270D01*
X062157Y035252D01*
X062172Y035157D01*
X062201Y035066D01*
X062245Y034980D01*
X062301Y034903D01*
X062369Y034835D01*
X062447Y034778D01*
X062533Y034735D01*
X062624Y034705D01*
X062737Y034703D02*
X062797Y034703D01*
X062797Y034690D02*
X062815Y034690D01*
X062910Y034705D01*
X063001Y034735D01*
X063086Y034778D01*
X063164Y034835D01*
X063232Y034903D01*
X063288Y034980D01*
X063332Y035066D01*
X063362Y035157D01*
X063377Y035252D01*
X063377Y035270D01*
X062797Y035270D01*
X062797Y034690D01*
X062894Y034703D02*
X064037Y034703D01*
X064037Y034801D02*
X063118Y034801D01*
X063229Y034900D02*
X064037Y034900D01*
X064037Y034998D02*
X063297Y034998D01*
X063342Y035097D02*
X064037Y035097D01*
X064037Y035195D02*
X063368Y035195D01*
X063370Y035392D02*
X064037Y035392D01*
X064037Y035294D02*
X062797Y035294D01*
X062737Y035294D02*
X050986Y035294D01*
X050927Y035195D02*
X062166Y035195D01*
X062191Y035097D02*
X050927Y035097D01*
X050927Y034998D02*
X062236Y034998D01*
X062304Y034900D02*
X050927Y034900D01*
X050927Y034801D02*
X062416Y034801D01*
X062737Y034801D02*
X062797Y034801D01*
X062797Y034900D02*
X062737Y034900D01*
X062737Y034998D02*
X062797Y034998D01*
X062797Y035097D02*
X062737Y035097D01*
X062737Y035195D02*
X062797Y035195D01*
X062797Y035392D02*
X062737Y035392D01*
X062737Y035491D02*
X062797Y035491D01*
X062797Y035589D02*
X062737Y035589D01*
X062737Y035688D02*
X062797Y035688D01*
X062797Y035786D02*
X062737Y035786D01*
X062737Y035885D02*
X062797Y035885D01*
X062942Y035885D02*
X064037Y035885D01*
X064037Y035983D02*
X061296Y035983D01*
X061284Y035954D02*
X061377Y036179D01*
X061377Y036421D01*
X061284Y036646D01*
X061112Y036817D01*
X060888Y036910D01*
X060645Y036910D01*
X060421Y036817D01*
X060250Y036646D01*
X060157Y036421D01*
X060157Y036179D01*
X060250Y035954D01*
X060421Y035783D01*
X060645Y035690D01*
X060888Y035690D01*
X061112Y035783D01*
X061284Y035954D01*
X061214Y035885D02*
X062592Y035885D01*
X062398Y035786D02*
X061115Y035786D01*
X061336Y036082D02*
X064037Y036082D01*
X064037Y036180D02*
X061377Y036180D01*
X061377Y036279D02*
X064037Y036279D01*
X064037Y036377D02*
X061377Y036377D01*
X061354Y036476D02*
X064037Y036476D01*
X064037Y036574D02*
X061313Y036574D01*
X061257Y036673D02*
X064037Y036673D01*
X063970Y036771D02*
X063084Y036771D01*
X063199Y036870D02*
X063872Y036870D01*
X063773Y036968D02*
X063289Y036968D01*
X063330Y037067D02*
X063675Y037067D01*
X064030Y037362D02*
X078967Y037362D01*
X078967Y037264D02*
X064128Y037264D01*
X064227Y037165D02*
X065796Y037165D01*
X065822Y037192D02*
X065719Y037088D01*
X065663Y036953D01*
X065663Y036807D01*
X065719Y036672D01*
X065822Y036568D01*
X065957Y036513D01*
X066104Y036513D01*
X066239Y036568D01*
X066342Y036672D01*
X066398Y036807D01*
X066398Y036953D01*
X066342Y037088D01*
X066239Y037192D01*
X066104Y037247D01*
X065957Y037247D01*
X065822Y037192D01*
X065710Y037067D02*
X064325Y037067D01*
X064424Y036968D02*
X065669Y036968D01*
X065663Y036870D02*
X064497Y036870D01*
X064497Y036771D02*
X065678Y036771D01*
X065719Y036673D02*
X064497Y036673D01*
X064497Y036574D02*
X065817Y036574D01*
X065957Y036247D02*
X065822Y036192D01*
X065719Y036088D01*
X065663Y035953D01*
X065663Y035807D01*
X065719Y035672D01*
X065822Y035568D01*
X065957Y035513D01*
X066104Y035513D01*
X066239Y035568D01*
X066342Y035672D01*
X066398Y035807D01*
X066398Y035953D01*
X066342Y036088D01*
X066239Y036192D01*
X066104Y036247D01*
X065957Y036247D01*
X065811Y036180D02*
X064497Y036180D01*
X064497Y036082D02*
X065716Y036082D01*
X065675Y035983D02*
X064497Y035983D01*
X064497Y035885D02*
X065663Y035885D01*
X065672Y035786D02*
X064497Y035786D01*
X064497Y035688D02*
X065712Y035688D01*
X065802Y035589D02*
X064497Y035589D01*
X064497Y035491D02*
X078967Y035491D01*
X078967Y035589D02*
X066259Y035589D01*
X066348Y035688D02*
X078967Y035688D01*
X078967Y035786D02*
X066389Y035786D01*
X066398Y035885D02*
X078967Y035885D01*
X078967Y035983D02*
X066386Y035983D01*
X066345Y036082D02*
X078967Y036082D01*
X078967Y036180D02*
X066250Y036180D01*
X066244Y036574D02*
X078967Y036574D01*
X078967Y036476D02*
X064497Y036476D01*
X064497Y036377D02*
X078967Y036377D01*
X078967Y036279D02*
X064497Y036279D01*
X064037Y035786D02*
X063136Y035786D01*
X063239Y035688D02*
X064037Y035688D01*
X064037Y035589D02*
X063304Y035589D01*
X063346Y035491D02*
X064037Y035491D01*
X064497Y035392D02*
X078967Y035392D01*
X078967Y035294D02*
X064497Y035294D01*
X064497Y035195D02*
X065831Y035195D01*
X065822Y035192D02*
X065719Y035088D01*
X065663Y034953D01*
X065663Y034807D01*
X065719Y034672D01*
X065822Y034568D01*
X065957Y034513D01*
X066104Y034513D01*
X066239Y034568D01*
X066342Y034672D01*
X066398Y034807D01*
X066398Y034953D01*
X066342Y035088D01*
X066239Y035192D01*
X066104Y035247D01*
X065957Y035247D01*
X065822Y035192D01*
X065727Y035097D02*
X064497Y035097D01*
X064497Y034998D02*
X065682Y034998D01*
X065663Y034900D02*
X064497Y034900D01*
X064497Y034801D02*
X065665Y034801D01*
X065706Y034703D02*
X064497Y034703D01*
X064497Y034604D02*
X065787Y034604D01*
X065957Y034247D02*
X065822Y034192D01*
X065719Y034088D01*
X065663Y033953D01*
X065663Y033807D01*
X065719Y033672D01*
X065822Y033568D01*
X065957Y033513D01*
X066104Y033513D01*
X066239Y033568D01*
X066342Y033672D01*
X066398Y033807D01*
X066398Y033953D01*
X066342Y034088D01*
X066239Y034192D01*
X066104Y034247D01*
X065957Y034247D01*
X065867Y034210D02*
X064497Y034210D01*
X064497Y034112D02*
X065742Y034112D01*
X065688Y034013D02*
X064497Y034013D01*
X064497Y033915D02*
X065663Y033915D01*
X065663Y033816D02*
X064497Y033816D01*
X064497Y033718D02*
X065700Y033718D01*
X065772Y033619D02*
X064497Y033619D01*
X064497Y033521D02*
X065938Y033521D01*
X066123Y033521D02*
X078967Y033521D01*
X078967Y033619D02*
X066289Y033619D01*
X066361Y033718D02*
X078967Y033718D01*
X078967Y033816D02*
X066398Y033816D01*
X066398Y033915D02*
X078967Y033915D01*
X078967Y034013D02*
X066373Y034013D01*
X066319Y034112D02*
X078967Y034112D01*
X078967Y034210D02*
X066194Y034210D01*
X066274Y034604D02*
X078967Y034604D01*
X078967Y034506D02*
X064497Y034506D01*
X064497Y034407D02*
X078967Y034407D01*
X078967Y034309D02*
X064497Y034309D01*
X064497Y033422D02*
X078967Y033422D01*
X078967Y033324D02*
X064497Y033324D01*
X064497Y033225D02*
X065903Y033225D01*
X065957Y033247D02*
X065822Y033192D01*
X065719Y033088D01*
X065663Y032953D01*
X065663Y032807D01*
X065719Y032672D01*
X065822Y032568D01*
X065957Y032513D01*
X066104Y032513D01*
X066239Y032568D01*
X066342Y032672D01*
X066398Y032807D01*
X066398Y032953D01*
X066342Y033088D01*
X066239Y033192D01*
X066104Y033247D01*
X065957Y033247D01*
X066158Y033225D02*
X078967Y033225D01*
X078967Y033127D02*
X066304Y033127D01*
X066367Y033028D02*
X078967Y033028D01*
X078967Y032930D02*
X066398Y032930D01*
X066398Y032831D02*
X078967Y032831D01*
X078967Y032733D02*
X066367Y032733D01*
X066304Y032634D02*
X076167Y032634D01*
X076199Y032667D02*
X076078Y032545D01*
X076042Y032460D01*
X073034Y032460D01*
X073028Y032475D01*
X072941Y032561D01*
X072828Y032608D01*
X072705Y032608D01*
X072592Y032561D01*
X072505Y032475D01*
X072459Y032361D01*
X072459Y032239D01*
X072505Y032125D01*
X072592Y032039D01*
X072705Y031992D01*
X072828Y031992D01*
X072941Y032039D01*
X073028Y032125D01*
X073034Y032140D01*
X076042Y032140D01*
X076078Y032055D01*
X076199Y031933D01*
X076358Y031868D01*
X077175Y031868D01*
X077334Y031933D01*
X077456Y032055D01*
X077522Y032214D01*
X077522Y032386D01*
X077456Y032545D01*
X077334Y032667D01*
X077175Y032732D01*
X076358Y032732D01*
X076199Y032667D01*
X076074Y032536D02*
X072967Y032536D01*
X072767Y032300D02*
X076767Y032300D01*
X076717Y031649D02*
X076817Y031649D01*
X076817Y031551D02*
X076717Y031551D01*
X076717Y031452D02*
X076817Y031452D01*
X076817Y031354D02*
X076717Y031354D01*
X076717Y031058D02*
X076817Y031058D01*
X076817Y030960D02*
X076717Y030960D01*
X076015Y031354D02*
X064497Y031354D01*
X064497Y031452D02*
X069211Y031452D01*
X069213Y031450D02*
X069520Y031450D01*
X069737Y031667D01*
X069737Y031973D01*
X069520Y032190D01*
X069213Y032190D01*
X068997Y031973D01*
X068997Y031667D01*
X069213Y031450D01*
X069113Y031551D02*
X066195Y031551D01*
X066239Y031568D02*
X066342Y031672D01*
X066398Y031807D01*
X066398Y031953D01*
X066342Y032088D01*
X066239Y032192D01*
X066104Y032247D01*
X065957Y032247D01*
X065822Y032192D01*
X065719Y032088D01*
X065663Y031953D01*
X065663Y031807D01*
X065719Y031672D01*
X065822Y031568D01*
X065957Y031513D01*
X066104Y031513D01*
X066239Y031568D01*
X066319Y031649D02*
X069014Y031649D01*
X068997Y031748D02*
X066373Y031748D01*
X066398Y031846D02*
X068997Y031846D01*
X068997Y031945D02*
X066398Y031945D01*
X066361Y032043D02*
X069066Y032043D01*
X069165Y032142D02*
X066289Y032142D01*
X066122Y032240D02*
X072459Y032240D01*
X072459Y032339D02*
X064497Y032339D01*
X064497Y032437D02*
X072490Y032437D01*
X072566Y032536D02*
X066159Y032536D01*
X065902Y032536D02*
X064497Y032536D01*
X064497Y032634D02*
X065757Y032634D01*
X065694Y032733D02*
X064497Y032733D01*
X064497Y032831D02*
X065663Y032831D01*
X065663Y032930D02*
X064497Y032930D01*
X064497Y033028D02*
X065694Y033028D01*
X065757Y033127D02*
X064497Y033127D01*
X064497Y032240D02*
X065939Y032240D01*
X065772Y032142D02*
X064497Y032142D01*
X064497Y032043D02*
X065700Y032043D01*
X065663Y031945D02*
X064497Y031945D01*
X064497Y031846D02*
X065663Y031846D01*
X065688Y031748D02*
X064497Y031748D01*
X064497Y031649D02*
X065742Y031649D01*
X065866Y031551D02*
X064497Y031551D01*
X064497Y030861D02*
X078967Y030861D01*
X078967Y030763D02*
X064497Y030763D01*
X069522Y031452D02*
X070211Y031452D01*
X070213Y031450D02*
X070520Y031450D01*
X070737Y031667D01*
X070737Y031973D01*
X070520Y032190D01*
X070213Y032190D01*
X069997Y031973D01*
X069997Y031667D01*
X070213Y031450D01*
X070113Y031551D02*
X069620Y031551D01*
X069719Y031649D02*
X070014Y031649D01*
X069997Y031748D02*
X069737Y031748D01*
X069737Y031846D02*
X069997Y031846D01*
X069997Y031945D02*
X069737Y031945D01*
X069667Y032043D02*
X070066Y032043D01*
X070165Y032142D02*
X069568Y032142D01*
X070568Y032142D02*
X072499Y032142D01*
X072588Y032043D02*
X070667Y032043D01*
X070737Y031945D02*
X076188Y031945D01*
X076090Y032043D02*
X072945Y032043D01*
X070737Y031846D02*
X078967Y031846D01*
X078967Y031748D02*
X070737Y031748D01*
X070719Y031649D02*
X076189Y031649D01*
X076092Y031551D02*
X070620Y031551D01*
X070522Y031452D02*
X076039Y031452D01*
X077345Y031649D02*
X078967Y031649D01*
X078967Y031551D02*
X077442Y031551D01*
X077495Y031452D02*
X078967Y031452D01*
X078967Y031354D02*
X077519Y031354D01*
X077345Y031945D02*
X078967Y031945D01*
X078967Y032043D02*
X077444Y032043D01*
X077492Y032142D02*
X078967Y032142D01*
X078967Y032240D02*
X077522Y032240D01*
X077522Y032339D02*
X078967Y032339D01*
X078967Y032437D02*
X077501Y032437D01*
X077460Y032536D02*
X078967Y032536D01*
X078967Y032634D02*
X077367Y032634D01*
X078967Y034703D02*
X066355Y034703D01*
X066395Y034801D02*
X078967Y034801D01*
X078967Y034900D02*
X066398Y034900D01*
X066379Y034998D02*
X078967Y034998D01*
X078967Y035097D02*
X066334Y035097D01*
X066230Y035195D02*
X078967Y035195D01*
X078967Y036673D02*
X066342Y036673D01*
X066383Y036771D02*
X078967Y036771D01*
X078967Y036870D02*
X066398Y036870D01*
X066392Y036968D02*
X078967Y036968D01*
X078967Y037067D02*
X066351Y037067D01*
X066265Y037165D02*
X078967Y037165D01*
X078967Y037461D02*
X063931Y037461D01*
X063320Y037559D02*
X065845Y037559D01*
X065822Y037568D02*
X065957Y037513D01*
X066104Y037513D01*
X066239Y037568D01*
X066342Y037672D01*
X066398Y037807D01*
X066398Y037953D01*
X078967Y037953D01*
X078967Y037855D02*
X066398Y037855D01*
X066398Y037953D02*
X066342Y038088D01*
X066239Y038192D01*
X066104Y038247D01*
X065957Y038247D01*
X065822Y038192D01*
X065719Y038088D01*
X065663Y037953D01*
X055028Y037953D01*
X055010Y037935D02*
X055131Y038056D01*
X055197Y038214D01*
X055197Y038386D01*
X055131Y038544D01*
X065663Y038544D01*
X065663Y038454D02*
X065670Y038427D01*
X065685Y038401D01*
X065705Y038381D01*
X065731Y038366D01*
X065758Y038359D01*
X066002Y038359D01*
X066002Y038698D01*
X065663Y038698D01*
X065663Y038454D01*
X065665Y038446D02*
X055172Y038446D01*
X055197Y038347D02*
X078967Y038347D01*
X078967Y038249D02*
X055197Y038249D01*
X055170Y038150D02*
X065781Y038150D01*
X065704Y038052D02*
X055126Y038052D01*
X055010Y037935D02*
X054852Y037870D01*
X054681Y037870D01*
X054523Y037935D01*
X054402Y038056D01*
X054337Y038214D01*
X054337Y038386D01*
X054402Y038544D01*
X054523Y038665D01*
X054681Y038730D01*
X054852Y038730D01*
X055010Y038665D01*
X055131Y038544D01*
X055032Y038643D02*
X065663Y038643D01*
X065663Y038755D02*
X066002Y038755D01*
X066002Y039094D01*
X065758Y039094D01*
X065731Y039086D01*
X065705Y039072D01*
X065685Y039051D01*
X065670Y039026D01*
X065663Y038998D01*
X065663Y038755D01*
X065663Y038840D02*
X036870Y038840D01*
X036870Y038807D02*
X036814Y038672D01*
X036711Y038568D01*
X036576Y038513D01*
X036430Y038513D01*
X036295Y038568D01*
X036191Y038672D01*
X036135Y038807D01*
X036135Y038953D01*
X036191Y039088D01*
X036295Y039192D01*
X036430Y039247D01*
X036576Y039247D01*
X036711Y039192D01*
X036814Y039088D01*
X036870Y038953D01*
X036870Y038807D01*
X036843Y038741D02*
X066002Y038741D01*
X066002Y038755D02*
X066002Y038698D01*
X066059Y038698D01*
X066059Y038755D01*
X066002Y038755D01*
X066059Y038755D02*
X066059Y039094D01*
X066302Y039094D01*
X066330Y039086D01*
X066355Y039072D01*
X066376Y039051D01*
X066390Y039026D01*
X066398Y038998D01*
X066398Y038755D01*
X066059Y038755D01*
X066059Y038741D02*
X068882Y038741D01*
X068877Y038747D02*
X069093Y038530D01*
X069217Y038530D01*
X069217Y038870D01*
X069277Y038870D01*
X069277Y038930D01*
X069617Y038930D01*
X069617Y039053D01*
X069400Y039270D01*
X069277Y039270D01*
X069277Y038930D01*
X069217Y038930D01*
X069217Y039270D01*
X069093Y039270D01*
X068877Y039053D01*
X068877Y038930D01*
X069217Y038930D01*
X069217Y038870D01*
X068877Y038870D01*
X068877Y038747D01*
X068877Y038840D02*
X066398Y038840D01*
X066398Y038938D02*
X068877Y038938D01*
X068877Y039037D02*
X066385Y039037D01*
X066059Y039037D02*
X066002Y039037D01*
X066002Y038938D02*
X066059Y038938D01*
X066059Y038840D02*
X066002Y038840D01*
X066059Y038698D02*
X066398Y038698D01*
X066398Y038454D01*
X066390Y038427D01*
X066376Y038401D01*
X066355Y038381D01*
X066330Y038366D01*
X066302Y038359D01*
X066059Y038359D01*
X066059Y038698D01*
X066059Y038643D02*
X066002Y038643D01*
X066002Y038544D02*
X066059Y038544D01*
X066059Y038446D02*
X066002Y038446D01*
X066396Y038446D02*
X078967Y038446D01*
X078967Y038544D02*
X070414Y038544D01*
X070400Y038530D02*
X070617Y038747D01*
X070617Y039053D01*
X070400Y039270D01*
X070093Y039270D01*
X069877Y039053D01*
X069877Y038747D01*
X070093Y038530D01*
X070400Y038530D01*
X070512Y038643D02*
X078967Y038643D01*
X078967Y038741D02*
X070611Y038741D01*
X070617Y038840D02*
X078967Y038840D01*
X078967Y038938D02*
X070617Y038938D01*
X070617Y039037D02*
X078967Y039037D01*
X078967Y039135D02*
X070535Y039135D01*
X070436Y039234D02*
X078967Y039234D01*
X078967Y039332D02*
X055197Y039332D01*
X055197Y039386D02*
X055131Y039544D01*
X055010Y039665D01*
X054852Y039730D01*
X054681Y039730D01*
X054523Y039665D01*
X054402Y039544D01*
X054337Y039386D01*
X054337Y039214D01*
X054402Y039056D01*
X054523Y038935D01*
X054681Y038870D01*
X054852Y038870D01*
X055010Y038935D01*
X055131Y039056D01*
X055197Y039214D01*
X055197Y039386D01*
X055178Y039431D02*
X078967Y039431D01*
X078967Y039529D02*
X055137Y039529D01*
X055047Y039628D02*
X078967Y039628D01*
X078967Y039726D02*
X054862Y039726D01*
X054672Y039726D02*
X053862Y039726D01*
X053852Y039730D02*
X053681Y039730D01*
X053523Y039665D01*
X053402Y039544D01*
X053337Y039386D01*
X053337Y039214D01*
X053402Y039056D01*
X053523Y038935D01*
X053681Y038870D01*
X053852Y038870D01*
X054010Y038935D01*
X054131Y039056D01*
X054197Y039214D01*
X054197Y039386D01*
X054131Y039544D01*
X054010Y039665D01*
X053852Y039730D01*
X053672Y039726D02*
X052862Y039726D01*
X052852Y039730D02*
X052681Y039730D01*
X052523Y039665D01*
X052402Y039544D01*
X052337Y039386D01*
X052337Y039214D01*
X052402Y039056D01*
X052523Y038935D01*
X052681Y038870D01*
X052852Y038870D01*
X053010Y038935D01*
X053131Y039056D01*
X053197Y039214D01*
X053197Y039386D01*
X053131Y039544D01*
X053010Y039665D01*
X052852Y039730D01*
X052672Y039726D02*
X025967Y039726D01*
X025967Y039628D02*
X052486Y039628D01*
X052396Y039529D02*
X025967Y039529D01*
X025967Y039431D02*
X052355Y039431D01*
X052337Y039332D02*
X025967Y039332D01*
X025967Y039234D02*
X036396Y039234D01*
X036238Y039135D02*
X025967Y039135D01*
X025967Y039037D02*
X036170Y039037D01*
X036135Y038938D02*
X025967Y038938D01*
X025967Y038840D02*
X036135Y038840D01*
X036163Y038741D02*
X025967Y038741D01*
X025967Y038643D02*
X036221Y038643D01*
X036354Y038544D02*
X025967Y038544D01*
X025967Y038446D02*
X052362Y038446D01*
X052368Y038465D02*
X052347Y038401D01*
X052337Y038339D01*
X052728Y038339D01*
X052728Y038729D01*
X052666Y038719D01*
X052602Y038698D01*
X052541Y038668D01*
X052487Y038628D01*
X052439Y038580D01*
X052399Y038525D01*
X052368Y038465D01*
X052412Y038544D02*
X036652Y038544D01*
X036785Y038643D02*
X052507Y038643D01*
X052728Y038643D02*
X052805Y038643D01*
X052805Y038729D02*
X052805Y038339D01*
X052728Y038339D01*
X052728Y038261D01*
X052805Y038261D01*
X052805Y037871D01*
X052867Y037881D01*
X052932Y037902D01*
X052992Y037932D01*
X053047Y037972D01*
X053095Y038020D01*
X053134Y038075D01*
X053165Y038135D01*
X053186Y038199D01*
X053196Y038261D01*
X052805Y038261D01*
X052805Y038339D01*
X053196Y038339D01*
X053186Y038401D01*
X053165Y038465D01*
X053134Y038525D01*
X053095Y038580D01*
X053047Y038628D01*
X052992Y038668D01*
X052932Y038698D01*
X052867Y038719D01*
X052805Y038729D01*
X052805Y038544D02*
X052728Y038544D01*
X052728Y038446D02*
X052805Y038446D01*
X052805Y038347D02*
X052728Y038347D01*
X052728Y038261D02*
X052337Y038261D01*
X052347Y038199D01*
X052368Y038135D01*
X052399Y038075D01*
X052439Y038020D01*
X052487Y037972D01*
X052541Y037932D01*
X052602Y037902D01*
X052666Y037881D01*
X052728Y037871D01*
X052728Y038261D01*
X052728Y038249D02*
X052805Y038249D01*
X052805Y038150D02*
X052728Y038150D01*
X052728Y038052D02*
X052805Y038052D01*
X052805Y037953D02*
X052728Y037953D01*
X052513Y037953D02*
X036870Y037953D01*
X036814Y038088D01*
X036711Y038192D01*
X036576Y038247D01*
X036430Y038247D01*
X036295Y038192D01*
X036191Y038088D01*
X036135Y037953D01*
X025967Y037953D01*
X025967Y037855D02*
X036135Y037855D01*
X036135Y037807D02*
X036191Y037672D01*
X036295Y037568D01*
X036430Y037513D01*
X036576Y037513D01*
X036711Y037568D01*
X036814Y037672D01*
X036870Y037807D01*
X036870Y037953D01*
X036870Y037855D02*
X062511Y037855D01*
X062360Y037756D02*
X036849Y037756D01*
X036800Y037658D02*
X062262Y037658D01*
X062214Y037559D02*
X036688Y037559D01*
X036576Y037247D02*
X036430Y037247D01*
X036295Y037192D01*
X036191Y037088D01*
X036135Y036953D01*
X036135Y036807D01*
X036191Y036672D01*
X036295Y036568D01*
X036430Y036513D01*
X036576Y036513D01*
X036711Y036568D01*
X036814Y036672D01*
X036870Y036807D01*
X036870Y036953D01*
X036814Y037088D01*
X036711Y037192D01*
X036576Y037247D01*
X036738Y037165D02*
X062162Y037165D01*
X062157Y037264D02*
X025967Y037264D01*
X025967Y037362D02*
X062157Y037362D01*
X062173Y037461D02*
X025967Y037461D01*
X025967Y037559D02*
X036318Y037559D01*
X036206Y037658D02*
X025967Y037658D01*
X025967Y037756D02*
X036156Y037756D01*
X036135Y037807D02*
X036135Y037953D01*
X036176Y038052D02*
X025967Y038052D01*
X025967Y038150D02*
X036253Y038150D01*
X036753Y038150D02*
X052363Y038150D01*
X052339Y038249D02*
X025967Y038249D01*
X025967Y038347D02*
X052339Y038347D01*
X052416Y038052D02*
X036830Y038052D01*
X036870Y038938D02*
X052521Y038938D01*
X052422Y039037D02*
X036836Y039037D01*
X036768Y039135D02*
X052370Y039135D01*
X052337Y039234D02*
X036610Y039234D01*
X036268Y037165D02*
X025967Y037165D01*
X025967Y037067D02*
X036182Y037067D01*
X036142Y036968D02*
X025967Y036968D01*
X025967Y036870D02*
X036135Y036870D01*
X036150Y036771D02*
X025967Y036771D01*
X025967Y036673D02*
X036191Y036673D01*
X036289Y036574D02*
X025967Y036574D01*
X025967Y036476D02*
X060179Y036476D01*
X060157Y036377D02*
X025967Y036377D01*
X025967Y036279D02*
X060157Y036279D01*
X060157Y036180D02*
X036723Y036180D01*
X036711Y036192D02*
X036576Y036247D01*
X036430Y036247D01*
X036295Y036192D01*
X036191Y036088D01*
X036135Y035953D01*
X036135Y035807D01*
X036191Y035672D01*
X036295Y035568D01*
X036430Y035513D01*
X036576Y035513D01*
X036711Y035568D01*
X036814Y035672D01*
X036870Y035807D01*
X036870Y035953D01*
X036814Y036088D01*
X036711Y036192D01*
X036817Y036082D02*
X051141Y036082D01*
X051014Y035983D02*
X036858Y035983D01*
X036870Y035885D02*
X050968Y035885D01*
X050959Y035786D02*
X036862Y035786D01*
X036821Y035688D02*
X050928Y035688D01*
X050829Y035589D02*
X036732Y035589D01*
X036576Y035247D02*
X036430Y035247D01*
X036295Y035192D01*
X036191Y035088D01*
X036135Y034953D01*
X036135Y034807D01*
X036191Y034672D01*
X036295Y034568D01*
X036430Y034513D01*
X036576Y034513D01*
X036711Y034568D01*
X036814Y034672D01*
X036870Y034807D01*
X036870Y034953D01*
X036814Y035088D01*
X036711Y035192D01*
X036576Y035247D01*
X036703Y035195D02*
X050607Y035195D01*
X050607Y035097D02*
X036806Y035097D01*
X036852Y034998D02*
X050607Y034998D01*
X050607Y034900D02*
X036870Y034900D01*
X036868Y034801D02*
X050607Y034801D01*
X050607Y034703D02*
X036827Y034703D01*
X036747Y034604D02*
X050607Y034604D01*
X050607Y034506D02*
X025967Y034506D01*
X025967Y034604D02*
X036259Y034604D01*
X036179Y034703D02*
X025967Y034703D01*
X025967Y034801D02*
X036138Y034801D01*
X036135Y034900D02*
X025967Y034900D01*
X025967Y034998D02*
X036154Y034998D01*
X036200Y035097D02*
X025967Y035097D01*
X025967Y035195D02*
X036303Y035195D01*
X036274Y035589D02*
X025967Y035589D01*
X025967Y035491D02*
X050731Y035491D01*
X050632Y035392D02*
X025967Y035392D01*
X025967Y035294D02*
X050607Y035294D01*
X050767Y035300D02*
X051267Y035800D01*
X051554Y035688D02*
X062294Y035688D01*
X062229Y035589D02*
X051491Y035589D01*
X051575Y035786D02*
X060418Y035786D01*
X060319Y035885D02*
X051565Y035885D01*
X051519Y035983D02*
X060238Y035983D01*
X060197Y036082D02*
X051392Y036082D01*
X051183Y035491D02*
X062187Y035491D01*
X062164Y035392D02*
X051085Y035392D01*
X050767Y035300D02*
X050767Y033300D01*
X050551Y033521D02*
X036595Y033521D01*
X036576Y033513D02*
X036711Y033568D01*
X036814Y033672D01*
X036870Y033807D01*
X036870Y033953D01*
X036814Y034088D01*
X036711Y034192D01*
X036576Y034247D01*
X036430Y034247D01*
X036295Y034192D01*
X036191Y034088D01*
X036135Y033953D01*
X036135Y033807D01*
X036191Y033672D01*
X036295Y033568D01*
X036430Y033513D01*
X036576Y033513D01*
X036410Y033521D02*
X025967Y033521D01*
X025967Y033619D02*
X036244Y033619D01*
X036172Y033718D02*
X025967Y033718D01*
X025967Y033816D02*
X036135Y033816D01*
X036135Y033915D02*
X025967Y033915D01*
X025967Y034013D02*
X036160Y034013D01*
X036215Y034112D02*
X025967Y034112D01*
X025967Y034210D02*
X036339Y034210D01*
X036666Y034210D02*
X050607Y034210D01*
X050607Y034112D02*
X036791Y034112D01*
X036846Y034013D02*
X050607Y034013D01*
X050607Y033915D02*
X036870Y033915D01*
X036870Y033816D02*
X050607Y033816D01*
X050607Y033718D02*
X036833Y033718D01*
X036762Y033619D02*
X050607Y033619D01*
X050484Y033422D02*
X025967Y033422D01*
X025967Y033324D02*
X050459Y033324D01*
X050464Y033225D02*
X036630Y033225D01*
X036776Y033127D02*
X050505Y033127D01*
X050618Y033028D02*
X036839Y033028D01*
X036376Y033225D02*
X025967Y033225D01*
X025967Y033127D02*
X036230Y033127D01*
X036166Y033028D02*
X025967Y033028D01*
X025967Y032930D02*
X036135Y032930D01*
X036135Y032831D02*
X025967Y032831D01*
X025967Y032733D02*
X036166Y032733D01*
X036229Y032634D02*
X025967Y032634D01*
X025967Y034309D02*
X050607Y034309D01*
X050607Y034407D02*
X025967Y034407D01*
X025967Y035688D02*
X036185Y035688D01*
X036144Y035786D02*
X025967Y035786D01*
X025967Y035885D02*
X036135Y035885D01*
X036148Y035983D02*
X025967Y035983D01*
X025967Y036082D02*
X036189Y036082D01*
X036283Y036180D02*
X025967Y036180D01*
X025967Y039825D02*
X078967Y039825D01*
X078967Y039923D02*
X025967Y039923D01*
X025967Y040022D02*
X078967Y040022D01*
X078967Y040120D02*
X025967Y040120D01*
X025967Y040219D02*
X078967Y040219D01*
X078942Y040317D02*
X025979Y040317D01*
X026047Y040416D02*
X078802Y040416D01*
X078662Y040514D02*
X026116Y040514D01*
X026184Y040613D02*
X078522Y040613D01*
X078381Y040711D02*
X026253Y040711D01*
X026322Y040810D02*
X078241Y040810D01*
X078101Y040908D02*
X026390Y040908D01*
X026459Y041007D02*
X077960Y041007D01*
X077820Y041105D02*
X026528Y041105D01*
X026596Y041204D02*
X077680Y041204D01*
X077540Y041302D02*
X026665Y041302D01*
X026734Y041401D02*
X027144Y041401D01*
X026985Y041499D02*
X026802Y041499D01*
X026871Y041598D02*
X026887Y041598D01*
X027789Y041401D02*
X074744Y041401D01*
X074641Y041443D02*
X074917Y041329D01*
X075216Y041329D01*
X075492Y041443D01*
X075703Y041654D01*
X075818Y041931D01*
X075818Y042229D01*
X075703Y042506D01*
X075492Y042717D01*
X075216Y042831D01*
X074917Y042831D01*
X074641Y042717D01*
X074430Y042506D01*
X074315Y042229D01*
X074315Y041931D01*
X074430Y041654D01*
X074641Y041443D01*
X074585Y041499D02*
X027948Y041499D01*
X028047Y041598D02*
X074487Y041598D01*
X074413Y041696D02*
X028121Y041696D01*
X028161Y041795D02*
X074372Y041795D01*
X074331Y041893D02*
X028202Y041893D01*
X028218Y041992D02*
X074315Y041992D01*
X074315Y042090D02*
X028218Y042090D01*
X028218Y042189D02*
X074315Y042189D01*
X074339Y042287D02*
X028194Y042287D01*
X028153Y042386D02*
X074380Y042386D01*
X074421Y042484D02*
X028112Y042484D01*
X028026Y042583D02*
X074507Y042583D01*
X074605Y042681D02*
X027928Y042681D01*
X027741Y042780D02*
X074793Y042780D01*
X075014Y043075D02*
X027901Y043075D01*
X027969Y043174D02*
X074874Y043174D01*
X074734Y043272D02*
X028038Y043272D01*
X028107Y043371D02*
X074593Y043371D01*
X074453Y043469D02*
X028175Y043469D01*
X028244Y043568D02*
X074313Y043568D01*
X075155Y042977D02*
X027832Y042977D01*
X027763Y042878D02*
X075295Y042878D01*
X075341Y042780D02*
X075435Y042780D01*
X075528Y042681D02*
X075575Y042681D01*
X075626Y042583D02*
X075716Y042583D01*
X075712Y042484D02*
X075856Y042484D01*
X075753Y042386D02*
X075996Y042386D01*
X076137Y042287D02*
X075794Y042287D01*
X075818Y042189D02*
X076277Y042189D01*
X076417Y042090D02*
X075818Y042090D01*
X075818Y041992D02*
X076558Y041992D01*
X076698Y041893D02*
X075802Y041893D01*
X075761Y041795D02*
X076838Y041795D01*
X076978Y041696D02*
X075721Y041696D01*
X075647Y041598D02*
X077119Y041598D01*
X077259Y041499D02*
X075548Y041499D01*
X075389Y041401D02*
X077399Y041401D01*
X078967Y038150D02*
X066280Y038150D01*
X066357Y038052D02*
X078967Y038052D01*
X078967Y037756D02*
X066377Y037756D01*
X066328Y037658D02*
X078967Y037658D01*
X078967Y037559D02*
X066216Y037559D01*
X065822Y037568D02*
X065719Y037672D01*
X065663Y037807D01*
X065663Y037953D01*
X065663Y037855D02*
X063022Y037855D01*
X063173Y037756D02*
X065684Y037756D01*
X065733Y037658D02*
X063272Y037658D01*
X062203Y037067D02*
X036823Y037067D01*
X036864Y036968D02*
X062244Y036968D01*
X062334Y036870D02*
X060986Y036870D01*
X061158Y036771D02*
X062450Y036771D01*
X060548Y036870D02*
X036870Y036870D01*
X036856Y036771D02*
X060375Y036771D01*
X060277Y036673D02*
X036815Y036673D01*
X036717Y036574D02*
X060220Y036574D01*
X055164Y039135D02*
X068958Y039135D01*
X069057Y039234D02*
X055197Y039234D01*
X055111Y039037D02*
X065676Y039037D01*
X065663Y038938D02*
X055013Y038938D01*
X054521Y038938D02*
X054013Y038938D01*
X054111Y039037D02*
X054422Y039037D01*
X054370Y039135D02*
X054164Y039135D01*
X054197Y039234D02*
X054337Y039234D01*
X054337Y039332D02*
X054197Y039332D01*
X054178Y039431D02*
X054355Y039431D01*
X054396Y039529D02*
X054137Y039529D01*
X054047Y039628D02*
X054486Y039628D01*
X053486Y039628D02*
X053047Y039628D01*
X053137Y039529D02*
X053396Y039529D01*
X053355Y039431D02*
X053178Y039431D01*
X053197Y039332D02*
X053337Y039332D01*
X053337Y039234D02*
X053197Y039234D01*
X053164Y039135D02*
X053370Y039135D01*
X053422Y039037D02*
X053111Y039037D01*
X053013Y038938D02*
X053521Y038938D01*
X053681Y038730D02*
X053523Y038665D01*
X053402Y038544D01*
X053337Y038386D01*
X053337Y038214D01*
X053402Y038056D01*
X053523Y037935D01*
X053681Y037870D01*
X053852Y037870D01*
X054010Y037935D01*
X054131Y038056D01*
X054197Y038214D01*
X054197Y038386D01*
X054131Y038544D01*
X054403Y038544D01*
X054362Y038446D02*
X054172Y038446D01*
X054197Y038347D02*
X054337Y038347D01*
X054337Y038249D02*
X054197Y038249D01*
X054170Y038150D02*
X054363Y038150D01*
X054407Y038052D02*
X054126Y038052D01*
X054028Y037953D02*
X054506Y037953D01*
X054501Y038643D02*
X054032Y038643D01*
X054010Y038665D02*
X053852Y038730D01*
X053681Y038730D01*
X053501Y038643D02*
X053027Y038643D01*
X053121Y038544D02*
X053403Y038544D01*
X053362Y038446D02*
X053172Y038446D01*
X053195Y038347D02*
X053337Y038347D01*
X053337Y038249D02*
X053194Y038249D01*
X053170Y038150D02*
X053363Y038150D01*
X053407Y038052D02*
X053118Y038052D01*
X053021Y037953D02*
X053506Y037953D01*
X054131Y038544D02*
X054010Y038665D01*
X066398Y038643D02*
X068981Y038643D01*
X069079Y038544D02*
X066398Y038544D01*
X069217Y038544D02*
X069277Y038544D01*
X069277Y038530D02*
X069400Y038530D01*
X069617Y038747D01*
X069617Y038870D01*
X069277Y038870D01*
X069277Y038530D01*
X069277Y038643D02*
X069217Y038643D01*
X069217Y038741D02*
X069277Y038741D01*
X069277Y038840D02*
X069217Y038840D01*
X069217Y038938D02*
X069277Y038938D01*
X069277Y039037D02*
X069217Y039037D01*
X069217Y039135D02*
X069277Y039135D01*
X069277Y039234D02*
X069217Y039234D01*
X069436Y039234D02*
X070057Y039234D01*
X069958Y039135D02*
X069535Y039135D01*
X069617Y039037D02*
X069877Y039037D01*
X069877Y038938D02*
X069617Y038938D01*
X069617Y038840D02*
X069877Y038840D01*
X069882Y038741D02*
X069611Y038741D01*
X069512Y038643D02*
X069981Y038643D01*
X070079Y038544D02*
X069414Y038544D01*
X050603Y026034D02*
X037931Y026034D01*
X043221Y021109D02*
X025967Y021109D01*
X025967Y021011D02*
X043134Y021011D01*
X043093Y020912D02*
X025967Y020912D01*
X025967Y020814D02*
X043076Y020814D01*
X043076Y020715D02*
X025967Y020715D01*
X025967Y020617D02*
X043109Y020617D01*
X043162Y020518D02*
X025967Y020518D01*
X025967Y020420D02*
X043260Y020420D01*
X046496Y020912D02*
X055009Y020912D01*
X054980Y021011D02*
X046709Y021011D01*
X048847Y020026D02*
X025967Y020026D01*
X025967Y020124D02*
X048929Y020124D01*
X048804Y019927D02*
X025967Y019927D01*
X025967Y019829D02*
X049169Y019829D01*
X049169Y019927D02*
X049269Y019927D01*
X049269Y019829D02*
X054260Y019829D01*
X054260Y019730D02*
X049649Y019730D01*
X049622Y019632D02*
X054296Y019632D01*
X054362Y019533D02*
X049563Y019533D01*
X049457Y019435D02*
X054501Y019435D01*
X054280Y019927D02*
X049635Y019927D01*
X049592Y020026D02*
X054321Y020026D01*
X054420Y020124D02*
X049510Y020124D01*
X049269Y020124D02*
X049169Y020124D01*
X049169Y020026D02*
X049269Y020026D01*
X049269Y019730D02*
X049169Y019730D01*
X049169Y019632D02*
X049269Y019632D01*
X049269Y019533D02*
X049169Y019533D01*
X049169Y019435D02*
X049269Y019435D01*
X048982Y019435D02*
X025967Y019435D01*
X025967Y019533D02*
X048876Y019533D01*
X048817Y019632D02*
X025967Y019632D01*
X025967Y019730D02*
X048790Y019730D01*
X043274Y018450D02*
X025967Y018450D01*
X025967Y018548D02*
X043167Y018548D01*
X043109Y018647D02*
X025967Y018647D01*
X025967Y018745D02*
X043082Y018745D01*
X055071Y020814D02*
X055116Y020769D01*
X055168Y020732D01*
X055225Y020702D01*
X055332Y020715D02*
X055429Y020715D01*
X055429Y020814D02*
X055332Y020814D01*
X055332Y020912D02*
X055429Y020912D01*
X055429Y021011D02*
X055332Y021011D01*
X061084Y020223D02*
X061949Y020223D01*
X061851Y020124D02*
X061182Y020124D01*
X061240Y020026D02*
X061794Y020026D01*
X061753Y019927D02*
X061280Y019927D01*
X061290Y019829D02*
X061743Y019829D01*
X061743Y019730D02*
X061290Y019730D01*
X061264Y019632D02*
X061770Y019632D01*
X061811Y019533D02*
X061223Y019533D01*
X061142Y019435D02*
X061892Y019435D01*
X062018Y019336D02*
X061015Y019336D01*
X027144Y015199D02*
X026734Y015199D01*
X026802Y015101D02*
X026985Y015101D01*
X026887Y015002D02*
X026871Y015002D01*
D20*
X037767Y026300D03*
X050767Y026300D03*
X053767Y031800D03*
X050767Y032300D03*
X050767Y033300D03*
X054767Y034800D03*
X051267Y035800D03*
X072767Y032300D03*
X064267Y025300D03*
D21*
X063767Y019800D03*
X062267Y019800D03*
X060767Y019800D03*
D22*
X064267Y025300D02*
X064267Y036800D01*
X063767Y037300D01*
X062767Y037300D01*
X050767Y026300D02*
X037767Y026300D01*
M02*
