G75*
%MOIN*%
%OFA0B0*%
%FSLAX24Y24*%
%IPPOS*%
%LPD*%
%AMOC8*
5,1,8,0,0,1.08239X$1,22.5*
%
%ADD10C,0.0060*%
%ADD11C,0.0240*%
%ADD12C,0.0020*%
%ADD13C,0.0050*%
%ADD14C,0.0080*%
%ADD15C,0.0100*%
D10*
X031360Y021330D02*
X031787Y021330D01*
X031787Y021971D01*
X031360Y021971D01*
X031574Y021650D02*
X031787Y021650D01*
X032005Y021437D02*
X032005Y021864D01*
X032111Y021971D01*
X032432Y021971D01*
X032432Y021330D01*
X032111Y021330D01*
X032005Y021437D01*
X032648Y021330D02*
X032861Y021330D01*
X032755Y021330D02*
X032755Y021971D01*
X032861Y021971D02*
X032648Y021971D01*
X032755Y022380D02*
X032861Y022380D01*
X032861Y022487D01*
X032755Y022487D01*
X032755Y022380D01*
X032755Y022700D02*
X032861Y022700D01*
X032861Y022807D01*
X032755Y022807D01*
X032755Y022700D01*
X033079Y022380D02*
X033506Y022380D01*
X033506Y023021D01*
X033079Y023021D01*
X033293Y022700D02*
X033506Y022700D01*
X033724Y022487D02*
X033724Y022914D01*
X033830Y023021D01*
X034151Y023021D01*
X034151Y022380D01*
X033830Y022380D01*
X033724Y022487D01*
X033399Y021971D02*
X033186Y021971D01*
X033079Y021864D01*
X033186Y021650D02*
X033079Y021544D01*
X033079Y021437D01*
X033186Y021330D01*
X033399Y021330D01*
X033506Y021437D01*
X033399Y021650D02*
X033186Y021650D01*
X033399Y021650D02*
X033506Y021757D01*
X033506Y021864D01*
X033399Y021971D01*
X034368Y021971D02*
X034795Y021971D01*
X034795Y021330D01*
X034368Y021330D01*
X034582Y021650D02*
X034795Y021650D01*
X035013Y021437D02*
X035119Y021330D01*
X035333Y021330D01*
X035440Y021437D01*
X035440Y021864D01*
X035333Y021971D01*
X035119Y021971D01*
X035013Y021864D01*
X035118Y022380D02*
X035225Y022487D01*
X035118Y022380D02*
X034905Y022380D01*
X034798Y022487D01*
X034798Y022594D01*
X034905Y022700D01*
X035118Y022700D01*
X035225Y022807D01*
X035225Y022914D01*
X035118Y023021D01*
X034905Y023021D01*
X034798Y022914D01*
X034580Y023021D02*
X034367Y023021D01*
X034474Y023021D02*
X034474Y022380D01*
X034580Y022380D02*
X034367Y022380D01*
X035657Y021757D02*
X035657Y021330D01*
X035657Y021650D02*
X036084Y021650D01*
X036084Y021757D02*
X035871Y021971D01*
X035657Y021757D01*
X036084Y021757D02*
X036084Y021330D01*
X036515Y021650D02*
X036729Y021650D01*
X036946Y021650D02*
X037053Y021544D01*
X037373Y021544D01*
X037160Y021544D02*
X036946Y021330D01*
X036729Y021330D02*
X036729Y021971D01*
X036302Y021971D01*
X036514Y022380D02*
X036514Y023021D01*
X036300Y022807D01*
X036087Y023021D01*
X036087Y022380D01*
X036731Y022487D02*
X036731Y022914D01*
X036838Y023021D01*
X037052Y023021D01*
X037158Y022914D01*
X037158Y022487D01*
X037052Y022380D01*
X036838Y022380D01*
X036731Y022487D01*
X037053Y021971D02*
X036946Y021864D01*
X036946Y021650D01*
X037053Y021971D02*
X037373Y021971D01*
X037373Y021330D01*
X037591Y021330D02*
X038018Y021330D01*
X038018Y021971D01*
X037591Y021971D01*
X037804Y021650D02*
X038018Y021650D01*
X038235Y021971D02*
X038662Y021971D01*
X038449Y021971D02*
X038449Y021330D01*
X038880Y021330D02*
X038880Y021971D01*
X038985Y022380D02*
X038772Y022380D01*
X038665Y022487D01*
X038665Y022914D01*
X038772Y023021D01*
X038985Y023021D01*
X039092Y022914D01*
X039092Y022487D01*
X038985Y022380D01*
X039310Y022487D02*
X039416Y022380D01*
X039737Y022380D01*
X039737Y023021D01*
X039416Y023021D01*
X039310Y022914D01*
X039310Y022807D01*
X039416Y022700D01*
X039737Y022700D01*
X039416Y022700D02*
X039310Y022594D01*
X039310Y022487D01*
X039307Y021971D02*
X038880Y021330D01*
X039307Y021330D02*
X039307Y021971D01*
X039523Y021971D02*
X039737Y021971D01*
X039630Y021971D02*
X039630Y021330D01*
X039737Y021330D02*
X039523Y021330D01*
X038234Y022380D02*
X038234Y023021D01*
X038021Y023021D02*
X038448Y023021D01*
X037803Y023021D02*
X037376Y023021D01*
X037590Y023021D02*
X037590Y022380D01*
X068867Y031820D02*
X068869Y031883D01*
X068875Y031945D01*
X068885Y032007D01*
X068898Y032069D01*
X068916Y032129D01*
X068937Y032188D01*
X068962Y032246D01*
X068991Y032302D01*
X069023Y032356D01*
X069058Y032408D01*
X069096Y032457D01*
X069138Y032505D01*
X069182Y032549D01*
X069230Y032591D01*
X069279Y032629D01*
X069331Y032664D01*
X069385Y032696D01*
X069441Y032725D01*
X069499Y032750D01*
X069558Y032771D01*
X069618Y032789D01*
X069680Y032802D01*
X069742Y032812D01*
X069804Y032818D01*
X069867Y032820D01*
X069930Y032818D01*
X069992Y032812D01*
X070054Y032802D01*
X070116Y032789D01*
X070176Y032771D01*
X070235Y032750D01*
X070293Y032725D01*
X070349Y032696D01*
X070403Y032664D01*
X070455Y032629D01*
X070504Y032591D01*
X070552Y032549D01*
X070596Y032505D01*
X070638Y032457D01*
X070676Y032408D01*
X070711Y032356D01*
X070743Y032302D01*
X070772Y032246D01*
X070797Y032188D01*
X070818Y032129D01*
X070836Y032069D01*
X070849Y032007D01*
X070859Y031945D01*
X070865Y031883D01*
X070867Y031820D01*
X070865Y031757D01*
X070859Y031695D01*
X070849Y031633D01*
X070836Y031571D01*
X070818Y031511D01*
X070797Y031452D01*
X070772Y031394D01*
X070743Y031338D01*
X070711Y031284D01*
X070676Y031232D01*
X070638Y031183D01*
X070596Y031135D01*
X070552Y031091D01*
X070504Y031049D01*
X070455Y031011D01*
X070403Y030976D01*
X070349Y030944D01*
X070293Y030915D01*
X070235Y030890D01*
X070176Y030869D01*
X070116Y030851D01*
X070054Y030838D01*
X069992Y030828D01*
X069930Y030822D01*
X069867Y030820D01*
X069804Y030822D01*
X069742Y030828D01*
X069680Y030838D01*
X069618Y030851D01*
X069558Y030869D01*
X069499Y030890D01*
X069441Y030915D01*
X069385Y030944D01*
X069331Y030976D01*
X069279Y031011D01*
X069230Y031049D01*
X069182Y031091D01*
X069138Y031135D01*
X069096Y031183D01*
X069058Y031232D01*
X069023Y031284D01*
X068991Y031338D01*
X068962Y031394D01*
X068937Y031452D01*
X068916Y031511D01*
X068898Y031571D01*
X068885Y031633D01*
X068875Y031695D01*
X068869Y031757D01*
X068867Y031820D01*
X068747Y038900D02*
X068749Y038963D01*
X068755Y039025D01*
X068765Y039087D01*
X068778Y039149D01*
X068796Y039209D01*
X068817Y039268D01*
X068842Y039326D01*
X068871Y039382D01*
X068903Y039436D01*
X068938Y039488D01*
X068976Y039537D01*
X069018Y039585D01*
X069062Y039629D01*
X069110Y039671D01*
X069159Y039709D01*
X069211Y039744D01*
X069265Y039776D01*
X069321Y039805D01*
X069379Y039830D01*
X069438Y039851D01*
X069498Y039869D01*
X069560Y039882D01*
X069622Y039892D01*
X069684Y039898D01*
X069747Y039900D01*
X069810Y039898D01*
X069872Y039892D01*
X069934Y039882D01*
X069996Y039869D01*
X070056Y039851D01*
X070115Y039830D01*
X070173Y039805D01*
X070229Y039776D01*
X070283Y039744D01*
X070335Y039709D01*
X070384Y039671D01*
X070432Y039629D01*
X070476Y039585D01*
X070518Y039537D01*
X070556Y039488D01*
X070591Y039436D01*
X070623Y039382D01*
X070652Y039326D01*
X070677Y039268D01*
X070698Y039209D01*
X070716Y039149D01*
X070729Y039087D01*
X070739Y039025D01*
X070745Y038963D01*
X070747Y038900D01*
X070745Y038837D01*
X070739Y038775D01*
X070729Y038713D01*
X070716Y038651D01*
X070698Y038591D01*
X070677Y038532D01*
X070652Y038474D01*
X070623Y038418D01*
X070591Y038364D01*
X070556Y038312D01*
X070518Y038263D01*
X070476Y038215D01*
X070432Y038171D01*
X070384Y038129D01*
X070335Y038091D01*
X070283Y038056D01*
X070229Y038024D01*
X070173Y037995D01*
X070115Y037970D01*
X070056Y037949D01*
X069996Y037931D01*
X069934Y037918D01*
X069872Y037908D01*
X069810Y037902D01*
X069747Y037900D01*
X069684Y037902D01*
X069622Y037908D01*
X069560Y037918D01*
X069498Y037931D01*
X069438Y037949D01*
X069379Y037970D01*
X069321Y037995D01*
X069265Y038024D01*
X069211Y038056D01*
X069159Y038091D01*
X069110Y038129D01*
X069062Y038171D01*
X069018Y038215D01*
X068976Y038263D01*
X068938Y038312D01*
X068903Y038364D01*
X068871Y038418D01*
X068842Y038474D01*
X068817Y038532D01*
X068796Y038591D01*
X068778Y038651D01*
X068765Y038713D01*
X068755Y038775D01*
X068749Y038837D01*
X068747Y038900D01*
D11*
X066818Y042467D02*
X066818Y028293D01*
X035715Y028293D01*
X035715Y042467D01*
X066818Y042467D01*
D12*
X065430Y038760D02*
X065430Y038613D01*
X065356Y038540D01*
X065283Y038613D01*
X065283Y038760D01*
X065209Y038723D02*
X065209Y038686D01*
X065172Y038650D01*
X065099Y038650D01*
X065062Y038613D01*
X065062Y038576D01*
X065099Y038540D01*
X065172Y038540D01*
X065209Y038576D01*
X065209Y038723D02*
X065172Y038760D01*
X065099Y038760D01*
X065062Y038723D01*
X064988Y038723D02*
X064988Y038686D01*
X064951Y038650D01*
X064878Y038650D01*
X064841Y038613D01*
X064841Y038576D01*
X064878Y038540D01*
X064951Y038540D01*
X064988Y038576D01*
X064988Y038723D02*
X064951Y038760D01*
X064878Y038760D01*
X064841Y038723D01*
X064878Y037972D02*
X064988Y037972D01*
X064988Y037752D01*
X064878Y037752D01*
X064841Y037789D01*
X064841Y037936D01*
X064878Y037972D01*
X065062Y037936D02*
X065099Y037972D01*
X065209Y037972D01*
X065209Y037752D01*
X065099Y037752D01*
X065062Y037789D01*
X065062Y037936D01*
X065283Y037972D02*
X065283Y037826D01*
X065356Y037752D01*
X065430Y037826D01*
X065430Y037972D01*
X065430Y036988D02*
X065430Y036841D01*
X065356Y036768D01*
X065283Y036841D01*
X065283Y036988D01*
X065209Y036951D02*
X065172Y036988D01*
X065099Y036988D01*
X065062Y036951D01*
X065209Y036805D01*
X065172Y036768D01*
X065099Y036768D01*
X065062Y036805D01*
X065062Y036951D01*
X065209Y036951D02*
X065209Y036805D01*
X065172Y036004D02*
X065209Y035967D01*
X065209Y035930D01*
X065172Y035894D01*
X065099Y035894D01*
X065062Y035857D01*
X065062Y035820D01*
X065099Y035784D01*
X065172Y035784D01*
X065209Y035820D01*
X065283Y035784D02*
X065356Y035857D01*
X065320Y035857D02*
X065430Y035857D01*
X065430Y035784D02*
X065430Y036004D01*
X065320Y036004D01*
X065283Y035967D01*
X065283Y035894D01*
X065320Y035857D01*
X065172Y036004D02*
X065099Y036004D01*
X065062Y035967D01*
X065062Y034921D02*
X065209Y034701D01*
X065283Y034701D02*
X065356Y034774D01*
X065320Y034774D02*
X065430Y034774D01*
X065430Y034701D02*
X065430Y034921D01*
X065320Y034921D01*
X065283Y034885D01*
X065283Y034811D01*
X065320Y034774D01*
X064988Y034701D02*
X064915Y034774D01*
X064841Y034701D01*
X064841Y034921D01*
X064988Y034921D02*
X064988Y034701D01*
X065283Y034035D02*
X065430Y034035D01*
X065430Y033815D01*
X065283Y033815D01*
X065356Y033925D02*
X065430Y033925D01*
X065430Y032953D02*
X065320Y032953D01*
X065283Y032916D01*
X065283Y032769D01*
X065320Y032733D01*
X065430Y032733D01*
X065430Y032953D01*
X065209Y032953D02*
X065099Y032953D01*
X065062Y032916D01*
X065062Y032879D01*
X065099Y032843D01*
X065209Y032843D01*
X065209Y032733D02*
X065209Y032953D01*
X065099Y032843D02*
X065062Y032806D01*
X065062Y032769D01*
X065099Y032733D01*
X065209Y032733D01*
X064988Y032769D02*
X064841Y032916D01*
X064841Y032769D01*
X064878Y032733D01*
X064951Y032733D01*
X064988Y032769D01*
X064988Y032916D01*
X064951Y032953D01*
X064878Y032953D01*
X064841Y032916D01*
X064915Y031968D02*
X064915Y031748D01*
X064988Y031748D02*
X064841Y031748D01*
X064988Y031895D02*
X064915Y031968D01*
X065062Y031932D02*
X065062Y031895D01*
X065099Y031858D01*
X065209Y031858D01*
X065283Y031785D02*
X065283Y031932D01*
X065320Y031968D01*
X065430Y031968D01*
X065430Y031748D01*
X065320Y031748D01*
X065283Y031785D01*
X065209Y031748D02*
X065099Y031748D01*
X065062Y031785D01*
X065062Y031822D01*
X065099Y031858D01*
X065062Y031932D02*
X065099Y031968D01*
X065209Y031968D01*
X065209Y031748D01*
X037772Y031748D02*
X037626Y031748D01*
X037551Y031748D02*
X037405Y031748D01*
X037330Y031748D02*
X037220Y031748D01*
X037184Y031785D01*
X037184Y031932D01*
X037220Y031968D01*
X037330Y031968D01*
X037330Y031748D01*
X037478Y031858D02*
X037551Y031858D01*
X037551Y031968D02*
X037551Y031748D01*
X037551Y031968D02*
X037405Y031968D01*
X037109Y031858D02*
X036963Y031858D01*
X037772Y031968D02*
X037772Y031748D01*
X037772Y032733D02*
X037626Y032733D01*
X037551Y032733D02*
X037405Y032733D01*
X037330Y032733D02*
X037220Y032733D01*
X037184Y032769D01*
X037184Y032916D01*
X037220Y032953D01*
X037330Y032953D01*
X037330Y032733D01*
X037478Y032843D02*
X037551Y032843D01*
X037551Y032953D02*
X037551Y032733D01*
X037551Y032953D02*
X037405Y032953D01*
X037109Y032843D02*
X036963Y032843D01*
X037036Y032916D02*
X037036Y032769D01*
X037772Y032733D02*
X037772Y032953D01*
X037674Y033717D02*
X037564Y033717D01*
X037527Y033753D01*
X037527Y033900D01*
X037564Y033937D01*
X037674Y033937D01*
X037674Y033717D01*
X037453Y033717D02*
X037453Y033937D01*
X037343Y033937D01*
X037306Y033900D01*
X037306Y033864D01*
X037343Y033827D01*
X037453Y033827D01*
X037343Y033827D02*
X037306Y033790D01*
X037306Y033753D01*
X037343Y033717D01*
X037453Y033717D01*
X037232Y033717D02*
X037232Y033753D01*
X037085Y033900D01*
X037085Y033937D01*
X037232Y033937D01*
X037195Y034701D02*
X037122Y034701D01*
X037085Y034738D01*
X037085Y034774D01*
X037122Y034811D01*
X037232Y034811D01*
X037232Y034738D01*
X037195Y034701D01*
X037232Y034811D02*
X037159Y034885D01*
X037085Y034921D01*
X037306Y034885D02*
X037343Y034921D01*
X037453Y034921D01*
X037453Y034701D01*
X037343Y034701D01*
X037306Y034738D01*
X037306Y034774D01*
X037343Y034811D01*
X037453Y034811D01*
X037527Y034738D02*
X037527Y034885D01*
X037564Y034921D01*
X037674Y034921D01*
X037674Y034701D01*
X037564Y034701D01*
X037527Y034738D01*
X037343Y034811D02*
X037306Y034848D01*
X037306Y034885D01*
X037343Y035685D02*
X037453Y035685D01*
X037453Y035905D01*
X037343Y035905D01*
X037306Y035869D01*
X037306Y035832D01*
X037343Y035795D01*
X037453Y035795D01*
X037527Y035722D02*
X037527Y035869D01*
X037564Y035905D01*
X037674Y035905D01*
X037674Y035685D01*
X037564Y035685D01*
X037527Y035722D01*
X037343Y035685D02*
X037306Y035722D01*
X037306Y035759D01*
X037343Y035795D01*
X037232Y035795D02*
X037159Y035832D01*
X037122Y035832D01*
X037085Y035795D01*
X037085Y035722D01*
X037122Y035685D01*
X037195Y035685D01*
X037232Y035722D01*
X037232Y035795D02*
X037232Y035905D01*
X037085Y035905D01*
X037122Y036670D02*
X037122Y036890D01*
X037232Y036780D01*
X037085Y036780D01*
X037306Y036816D02*
X037343Y036780D01*
X037453Y036780D01*
X037527Y036853D02*
X037527Y036706D01*
X037564Y036670D01*
X037674Y036670D01*
X037674Y036890D01*
X037564Y036890D01*
X037527Y036853D01*
X037453Y036890D02*
X037343Y036890D01*
X037306Y036853D01*
X037306Y036816D01*
X037343Y036780D02*
X037306Y036743D01*
X037306Y036706D01*
X037343Y036670D01*
X037453Y036670D01*
X037453Y036890D01*
X037453Y037752D02*
X037343Y037752D01*
X037306Y037789D01*
X037306Y037826D01*
X037343Y037862D01*
X037453Y037862D01*
X037527Y037789D02*
X037527Y037936D01*
X037564Y037972D01*
X037674Y037972D01*
X037674Y037752D01*
X037564Y037752D01*
X037527Y037789D01*
X037453Y037752D02*
X037453Y037972D01*
X037343Y037972D01*
X037306Y037936D01*
X037306Y037899D01*
X037343Y037862D01*
X037232Y037789D02*
X037195Y037752D01*
X037122Y037752D01*
X037085Y037789D01*
X037085Y037826D01*
X037122Y037862D01*
X037159Y037862D01*
X037122Y037862D02*
X037085Y037899D01*
X037085Y037936D01*
X037122Y037972D01*
X037195Y037972D01*
X037232Y037936D01*
X037232Y038736D02*
X037085Y038883D01*
X037085Y038920D01*
X037122Y038957D01*
X037195Y038957D01*
X037232Y038920D01*
X037306Y038920D02*
X037306Y038883D01*
X037343Y038847D01*
X037453Y038847D01*
X037527Y038920D02*
X037564Y038957D01*
X037674Y038957D01*
X037674Y038736D01*
X037564Y038736D01*
X037527Y038773D01*
X037527Y038920D01*
X037453Y038957D02*
X037343Y038957D01*
X037306Y038920D01*
X037343Y038847D02*
X037306Y038810D01*
X037306Y038773D01*
X037343Y038736D01*
X037453Y038736D01*
X037453Y038957D01*
X037232Y038736D02*
X037085Y038736D01*
D13*
X043412Y017497D02*
X048826Y017497D01*
X048826Y022103D01*
X043412Y022103D01*
X043412Y017497D01*
X055282Y019013D02*
X055282Y019800D01*
X056267Y019800D01*
X056464Y019800D02*
X056267Y019997D01*
X056464Y019800D02*
X057251Y019800D01*
X057251Y019013D01*
X057251Y019800D02*
X057251Y020587D01*
X055282Y020587D02*
X055282Y019800D01*
D14*
X068867Y031070D02*
X068867Y032570D01*
X068747Y038150D02*
X068747Y039650D01*
D15*
X068790Y039704D01*
X068836Y039756D01*
X068885Y039805D01*
X068937Y039852D01*
X068991Y039895D01*
X069047Y039936D01*
X069106Y039973D01*
X069166Y040007D01*
X069229Y040037D01*
X069292Y040064D01*
X069358Y040088D01*
X069424Y040108D01*
X069492Y040124D01*
X069560Y040136D01*
X069629Y040144D01*
X069698Y040149D01*
X069768Y040150D01*
X069837Y040147D01*
X069906Y040140D01*
X069974Y040129D01*
X070042Y040115D01*
X070109Y040096D01*
X070175Y040074D01*
X070240Y040049D01*
X070303Y040020D01*
X070364Y039987D01*
X070423Y039951D01*
X070480Y039912D01*
X070536Y039870D01*
X070588Y039825D01*
X070638Y039777D01*
X070685Y039726D01*
X070730Y039672D01*
X070771Y039617D01*
X070809Y039559D01*
X070844Y039499D01*
X070876Y039437D01*
X070904Y039374D01*
X070928Y039309D01*
X070949Y039243D01*
X070966Y039175D01*
X070980Y039107D01*
X070989Y039038D01*
X070995Y038969D01*
X070997Y038900D01*
X070995Y038831D01*
X070989Y038762D01*
X070980Y038693D01*
X070966Y038625D01*
X070949Y038557D01*
X070928Y038491D01*
X070904Y038426D01*
X070876Y038363D01*
X070844Y038301D01*
X070809Y038241D01*
X070771Y038183D01*
X070730Y038128D01*
X070685Y038074D01*
X070638Y038023D01*
X070588Y037975D01*
X070536Y037930D01*
X070480Y037888D01*
X070423Y037849D01*
X070364Y037813D01*
X070303Y037780D01*
X070240Y037751D01*
X070175Y037726D01*
X070109Y037704D01*
X070042Y037685D01*
X069974Y037671D01*
X069906Y037660D01*
X069837Y037653D01*
X069768Y037650D01*
X069698Y037651D01*
X069629Y037656D01*
X069560Y037664D01*
X069492Y037676D01*
X069424Y037692D01*
X069358Y037712D01*
X069292Y037736D01*
X069229Y037763D01*
X069166Y037793D01*
X069106Y037827D01*
X069047Y037864D01*
X068991Y037905D01*
X068937Y037948D01*
X068885Y037995D01*
X068836Y038044D01*
X068790Y038096D01*
X068747Y038150D01*
X068867Y032570D02*
X068910Y032624D01*
X068956Y032676D01*
X069005Y032725D01*
X069057Y032772D01*
X069111Y032815D01*
X069167Y032856D01*
X069226Y032893D01*
X069286Y032927D01*
X069349Y032957D01*
X069412Y032984D01*
X069478Y033008D01*
X069544Y033028D01*
X069612Y033044D01*
X069680Y033056D01*
X069749Y033064D01*
X069818Y033069D01*
X069888Y033070D01*
X069957Y033067D01*
X070026Y033060D01*
X070094Y033049D01*
X070162Y033035D01*
X070229Y033016D01*
X070295Y032994D01*
X070360Y032969D01*
X070423Y032940D01*
X070484Y032907D01*
X070543Y032871D01*
X070600Y032832D01*
X070656Y032790D01*
X070708Y032745D01*
X070758Y032697D01*
X070805Y032646D01*
X070850Y032592D01*
X070891Y032537D01*
X070929Y032479D01*
X070964Y032419D01*
X070996Y032357D01*
X071024Y032294D01*
X071048Y032229D01*
X071069Y032163D01*
X071086Y032095D01*
X071100Y032027D01*
X071109Y031958D01*
X071115Y031889D01*
X071117Y031820D01*
X071115Y031751D01*
X071109Y031682D01*
X071100Y031613D01*
X071086Y031545D01*
X071069Y031477D01*
X071048Y031411D01*
X071024Y031346D01*
X070996Y031283D01*
X070964Y031221D01*
X070929Y031161D01*
X070891Y031103D01*
X070850Y031048D01*
X070805Y030994D01*
X070758Y030943D01*
X070708Y030895D01*
X070656Y030850D01*
X070600Y030808D01*
X070543Y030769D01*
X070484Y030733D01*
X070423Y030700D01*
X070360Y030671D01*
X070295Y030646D01*
X070229Y030624D01*
X070162Y030605D01*
X070094Y030591D01*
X070026Y030580D01*
X069957Y030573D01*
X069888Y030570D01*
X069818Y030571D01*
X069749Y030576D01*
X069680Y030584D01*
X069612Y030596D01*
X069544Y030612D01*
X069478Y030632D01*
X069412Y030656D01*
X069349Y030683D01*
X069286Y030713D01*
X069226Y030747D01*
X069167Y030784D01*
X069111Y030825D01*
X069057Y030868D01*
X069005Y030915D01*
X068956Y030964D01*
X068910Y031016D01*
X068867Y031070D01*
M02*
