G75*
%MOIN*%
%OFA0B0*%
%FSLAX24Y24*%
%IPPOS*%
%LPD*%
%AMOC8*
5,1,8,0,0,1.08239X$1,22.5*
%
%ADD10C,0.0060*%
%ADD11C,0.0080*%
%ADD12C,0.0040*%
%ADD13C,0.0100*%
%ADD14C,0.0020*%
%ADD15C,0.0050*%
%ADD16C,0.0030*%
%ADD17C,0.0160*%
%ADD18C,0.0500*%
D10*
X032797Y023937D02*
X032903Y023830D01*
X033117Y023830D01*
X033224Y023937D01*
X033441Y023937D02*
X033441Y024364D01*
X033548Y024471D01*
X033761Y024471D01*
X033868Y024364D01*
X033868Y023937D01*
X033761Y023830D01*
X033548Y023830D01*
X033441Y023937D01*
X033224Y024364D02*
X033117Y024471D01*
X032903Y024471D01*
X032797Y024364D01*
X032797Y023937D01*
X034086Y023830D02*
X034086Y024471D01*
X034299Y024257D01*
X034513Y024471D01*
X034513Y023830D01*
X034730Y023830D02*
X034730Y024471D01*
X035051Y024471D01*
X035157Y024364D01*
X035157Y024150D01*
X035051Y024044D01*
X034730Y024044D01*
X035375Y023937D02*
X035482Y023830D01*
X035695Y023830D01*
X035802Y023937D01*
X035802Y024364D01*
X035695Y024471D01*
X035482Y024471D01*
X035375Y024364D01*
X035375Y023937D01*
X036019Y023830D02*
X036019Y024471D01*
X036446Y023830D01*
X036446Y024471D01*
X036664Y024471D02*
X036664Y023830D01*
X037091Y023830D01*
X037309Y023830D02*
X037309Y024471D01*
X037736Y023830D01*
X037736Y024471D01*
X037953Y024471D02*
X038380Y024471D01*
X038167Y024471D02*
X038167Y023830D01*
X039242Y023937D02*
X039349Y023830D01*
X039562Y023830D01*
X039669Y023937D01*
X039669Y024044D01*
X039562Y024150D01*
X039349Y024150D01*
X039242Y024257D01*
X039242Y024364D01*
X039349Y024471D01*
X039562Y024471D01*
X039669Y024364D01*
X039887Y024471D02*
X040100Y024471D01*
X039993Y024471D02*
X039993Y023830D01*
X039887Y023830D02*
X040100Y023830D01*
X040316Y023830D02*
X040637Y023830D01*
X040743Y023937D01*
X040743Y024364D01*
X040637Y024471D01*
X040316Y024471D01*
X040316Y023830D01*
X040961Y023830D02*
X040961Y024471D01*
X041388Y024471D01*
X041174Y024150D02*
X040961Y024150D01*
X040961Y023830D02*
X041388Y023830D01*
X037845Y024880D02*
X037738Y024880D01*
X037738Y024987D01*
X037845Y024987D01*
X037845Y024880D01*
X037845Y025200D02*
X037738Y025200D01*
X037738Y025307D01*
X037845Y025307D01*
X037845Y025200D01*
X037521Y024880D02*
X037094Y024880D01*
X037094Y025521D01*
X037521Y025521D01*
X037307Y025200D02*
X037094Y025200D01*
X036876Y024987D02*
X036876Y025414D01*
X036769Y025521D01*
X036449Y025521D01*
X036449Y024880D01*
X036769Y024880D01*
X036876Y024987D01*
X036664Y024471D02*
X037091Y024471D01*
X036877Y024150D02*
X036664Y024150D01*
X036233Y024880D02*
X036019Y024880D01*
X036126Y024880D02*
X036126Y025521D01*
X036019Y025521D02*
X036233Y025521D01*
X035802Y025414D02*
X035695Y025521D01*
X035482Y025521D01*
X035375Y025414D01*
X035375Y025307D01*
X035482Y025200D01*
X035695Y025200D01*
X035802Y025094D01*
X035802Y024987D01*
X035695Y024880D01*
X035482Y024880D01*
X035375Y024987D01*
X034513Y025200D02*
X034406Y025094D01*
X034086Y025094D01*
X034086Y024880D02*
X034086Y025521D01*
X034406Y025521D01*
X034513Y025414D01*
X034513Y025200D01*
X033868Y024987D02*
X033868Y025414D01*
X033761Y025521D01*
X033548Y025521D01*
X033441Y025414D01*
X033441Y024987D01*
X033548Y024880D01*
X033761Y024880D01*
X033868Y024987D01*
X033224Y025521D02*
X032797Y025521D01*
X033010Y025521D02*
X033010Y024880D01*
X049455Y031629D02*
X049457Y031652D01*
X049463Y031675D01*
X049472Y031696D01*
X049485Y031716D01*
X049501Y031733D01*
X049519Y031747D01*
X049539Y031758D01*
X049561Y031766D01*
X049584Y031770D01*
X049608Y031770D01*
X049631Y031766D01*
X049653Y031758D01*
X049673Y031747D01*
X049691Y031733D01*
X049707Y031716D01*
X049720Y031696D01*
X049729Y031675D01*
X049735Y031652D01*
X049737Y031629D01*
X049735Y031606D01*
X049729Y031583D01*
X049720Y031562D01*
X049707Y031542D01*
X049691Y031525D01*
X049673Y031511D01*
X049653Y031500D01*
X049631Y031492D01*
X049608Y031488D01*
X049584Y031488D01*
X049561Y031492D01*
X049539Y031500D01*
X049519Y031511D01*
X049501Y031525D01*
X049485Y031542D01*
X049472Y031562D01*
X049463Y031583D01*
X049457Y031606D01*
X049455Y031629D01*
X059867Y034400D02*
X059867Y034800D01*
X060217Y034800D01*
X060217Y037800D01*
X059867Y037800D01*
X059867Y038200D01*
X063657Y038200D01*
X063657Y034400D01*
X059867Y034400D01*
X063167Y036300D02*
X063165Y036369D01*
X063160Y036437D01*
X063152Y036506D01*
X063140Y036573D01*
X063125Y036640D01*
X063107Y036707D01*
X063085Y036772D01*
X063060Y036836D01*
X063032Y036899D01*
X063001Y036961D01*
X062967Y037020D01*
X062462Y037516D02*
X062397Y037550D01*
X062331Y037581D01*
X062263Y037609D01*
X062194Y037633D01*
X062124Y037654D01*
X062053Y037671D01*
X061981Y037684D01*
X061908Y037693D01*
X061835Y037698D01*
X061762Y037700D01*
X061689Y037698D01*
X061616Y037692D01*
X061544Y037682D01*
X061472Y037669D01*
X061401Y037651D01*
X061331Y037630D01*
X061262Y037606D01*
X061194Y037578D01*
X061128Y037546D01*
X061064Y037511D01*
X061002Y037473D01*
X060942Y037431D01*
X060884Y037386D01*
X060828Y037339D01*
X060775Y037288D01*
X060725Y037235D01*
X060678Y037179D01*
X060633Y037121D01*
X060592Y037061D01*
X060554Y036999D01*
X060519Y036934D01*
X060488Y036868D01*
X060460Y036801D01*
X060435Y036732D01*
X060415Y036662D01*
X060397Y036590D01*
X060384Y036519D01*
X060375Y036446D01*
X060369Y036373D01*
X060367Y036300D01*
X062962Y035570D02*
X062997Y035630D01*
X063028Y035693D01*
X063057Y035756D01*
X063083Y035821D01*
X063105Y035887D01*
X063124Y035955D01*
X063139Y036023D01*
X063151Y036091D01*
X063160Y036161D01*
X063165Y036230D01*
X063167Y036300D01*
X062487Y035099D02*
X062423Y035063D01*
X062357Y035030D01*
X062289Y035001D01*
X062220Y034975D01*
X062149Y034953D01*
X062078Y034935D01*
X062005Y034920D01*
X061932Y034910D01*
X061858Y034903D01*
X061785Y034900D01*
X061711Y034901D01*
X061637Y034906D01*
X061564Y034915D01*
X061491Y034927D01*
X061419Y034944D01*
X061348Y034964D01*
X061278Y034988D01*
X061209Y035016D01*
X061142Y035047D01*
X061077Y035082D01*
X061014Y035120D01*
X060953Y035161D01*
X060894Y035206D01*
X060837Y035253D01*
X060783Y035304D01*
X060732Y035357D01*
X060684Y035413D01*
X060639Y035471D01*
X060596Y035532D01*
X060558Y035595D01*
X060522Y035660D01*
X060490Y035726D01*
X060461Y035794D01*
X060437Y035864D01*
X060415Y035935D01*
X060398Y036007D01*
X060385Y036079D01*
X060375Y036152D01*
X060369Y036226D01*
X060367Y036300D01*
D11*
X067334Y031576D02*
X067334Y031261D01*
X067334Y031576D02*
X067452Y031576D01*
X068082Y031576D02*
X068200Y031576D01*
X068200Y031261D01*
X057967Y030500D02*
X057567Y030500D01*
X057737Y030420D02*
X057796Y030420D01*
X057767Y030475D02*
X057967Y030100D01*
X057567Y030100D01*
X057767Y030475D01*
X057838Y030341D02*
X057695Y030341D01*
X057653Y030263D02*
X057880Y030263D01*
X057922Y030184D02*
X057611Y030184D01*
X057570Y030106D02*
X057964Y030106D01*
X041584Y019914D02*
X041584Y019761D01*
X041584Y019454D02*
X041584Y018840D01*
X041737Y018840D02*
X041430Y018840D01*
X041123Y018840D02*
X041123Y019300D01*
X040970Y019454D01*
X040510Y019454D01*
X040510Y018840D01*
X040203Y018993D02*
X040049Y018840D01*
X039742Y018840D01*
X039589Y018993D01*
X039589Y019300D01*
X039742Y019454D01*
X040049Y019454D01*
X040203Y019300D01*
X040203Y018993D01*
X039282Y018840D02*
X039282Y019761D01*
X038975Y019454D01*
X038668Y019761D01*
X038668Y018840D01*
X037440Y018993D02*
X037440Y019454D01*
X037440Y018993D02*
X037287Y018840D01*
X037133Y018993D01*
X036980Y018840D01*
X036826Y018993D01*
X036826Y019454D01*
X036519Y019300D02*
X036366Y019454D01*
X036059Y019454D01*
X035906Y019300D01*
X035906Y018993D01*
X036059Y018840D01*
X036366Y018840D01*
X036519Y018993D01*
X036519Y019300D01*
X035599Y018840D02*
X035292Y018840D01*
X035445Y018840D02*
X035445Y019761D01*
X035292Y019761D01*
X034985Y019761D02*
X034371Y019761D01*
X034371Y018840D01*
X034371Y019300D02*
X034678Y019300D01*
X033143Y019454D02*
X032990Y019454D01*
X032683Y019147D01*
X032683Y018840D02*
X032683Y019454D01*
X032376Y019300D02*
X032376Y019147D01*
X031762Y019147D01*
X031762Y019300D02*
X031916Y019454D01*
X032222Y019454D01*
X032376Y019300D01*
X032222Y018840D02*
X031916Y018840D01*
X031762Y018993D01*
X031762Y019300D01*
X031455Y019454D02*
X031148Y019454D01*
X031302Y019607D02*
X031302Y018993D01*
X031455Y018840D01*
X030841Y018840D02*
X030841Y019300D01*
X030688Y019454D01*
X030381Y019454D01*
X030381Y019147D02*
X030227Y018993D01*
X030381Y018840D01*
X030841Y018840D01*
X030841Y019147D02*
X030381Y019147D01*
X029921Y018840D02*
X029921Y019761D01*
X029307Y019761D02*
X029307Y018840D01*
X029614Y019147D01*
X029921Y018840D01*
X041430Y019454D02*
X041584Y019454D01*
X042044Y019454D02*
X042351Y019454D01*
X042198Y019607D02*
X042198Y018993D01*
X042351Y018840D01*
X042658Y018993D02*
X042812Y018840D01*
X043118Y018840D01*
X043272Y018993D01*
X043272Y019300D01*
X043118Y019454D01*
X042812Y019454D01*
X042658Y019300D01*
X042658Y018993D01*
X043579Y018840D02*
X043579Y019454D01*
X043579Y019147D02*
X043886Y019454D01*
X044039Y019454D01*
D12*
X029363Y016820D02*
X029287Y016897D01*
X029363Y016820D02*
X029440Y016820D01*
X029517Y016897D01*
X029517Y017280D01*
X029440Y017280D02*
X029594Y017280D01*
X029824Y017127D02*
X029977Y017127D01*
X030054Y017050D01*
X030054Y016973D01*
X029747Y016973D01*
X029747Y016897D02*
X029747Y017050D01*
X029824Y017127D01*
X029747Y016897D02*
X029824Y016820D01*
X029977Y016820D01*
X030207Y016820D02*
X030438Y016820D01*
X030514Y016897D01*
X030438Y016973D01*
X030284Y016973D01*
X030207Y017050D01*
X030284Y017127D01*
X030514Y017127D01*
X030668Y017050D02*
X030745Y017127D01*
X030975Y017127D01*
X031128Y017050D02*
X031205Y017127D01*
X031358Y017127D01*
X031435Y017050D01*
X031435Y016973D01*
X031128Y016973D01*
X031128Y016897D02*
X031128Y017050D01*
X031128Y016897D02*
X031205Y016820D01*
X031358Y016820D01*
X030975Y016897D02*
X030898Y016973D01*
X030745Y016973D01*
X030668Y017050D01*
X030668Y016820D02*
X030898Y016820D01*
X030975Y016897D01*
X031128Y017417D02*
X031205Y017417D01*
X031282Y017493D01*
X031282Y017877D01*
X031052Y017877D01*
X030975Y017800D01*
X030975Y017647D01*
X031052Y017570D01*
X031282Y017570D01*
X031435Y017570D02*
X031435Y017877D01*
X031665Y017877D01*
X031742Y017800D01*
X031742Y017570D01*
X031896Y017647D02*
X031896Y017800D01*
X031972Y017877D01*
X032126Y017877D01*
X032202Y017800D01*
X032202Y017723D01*
X031896Y017723D01*
X031896Y017647D02*
X031972Y017570D01*
X032126Y017570D01*
X032356Y017647D02*
X032356Y017800D01*
X032433Y017877D01*
X032663Y017877D01*
X032663Y018030D02*
X032663Y017570D01*
X032433Y017570D01*
X032356Y017647D01*
X032356Y017280D02*
X032202Y017127D01*
X032049Y017280D01*
X032049Y016820D01*
X032356Y016820D02*
X032356Y017280D01*
X032509Y017127D02*
X032586Y017127D01*
X032586Y016820D01*
X032509Y016820D02*
X032663Y016820D01*
X032816Y016820D02*
X032970Y016820D01*
X032893Y016820D02*
X032893Y017280D01*
X032816Y017280D01*
X032586Y017280D02*
X032586Y017357D01*
X033123Y017280D02*
X033200Y017280D01*
X033200Y016820D01*
X033123Y016820D02*
X033277Y016820D01*
X033430Y016897D02*
X033430Y017127D01*
X033430Y016897D02*
X033507Y016820D01*
X033584Y016897D01*
X033660Y016820D01*
X033737Y016897D01*
X033737Y017127D01*
X033891Y017050D02*
X033891Y016897D01*
X033967Y016820D01*
X034121Y016820D01*
X034198Y016897D01*
X034198Y017050D01*
X034121Y017127D01*
X033967Y017127D01*
X033891Y017050D01*
X033891Y017417D02*
X033967Y017417D01*
X034044Y017493D01*
X034044Y017877D01*
X034198Y017877D02*
X034198Y017800D01*
X034274Y017800D01*
X034274Y017877D01*
X034198Y017877D01*
X034198Y017647D02*
X034198Y017570D01*
X034274Y017570D01*
X034274Y017647D01*
X034198Y017647D01*
X034044Y017570D02*
X033814Y017570D01*
X033737Y017647D01*
X033737Y017877D01*
X033584Y017877D02*
X033507Y017800D01*
X033277Y017800D01*
X033507Y017800D02*
X033584Y017723D01*
X033584Y017647D01*
X033507Y017570D01*
X033277Y017570D01*
X033277Y018030D01*
X033507Y018030D01*
X033584Y017954D01*
X033584Y017877D01*
X034351Y017050D02*
X034351Y016897D01*
X034428Y016820D01*
X034581Y016820D01*
X034658Y016897D01*
X034658Y017050D01*
X034581Y017127D01*
X034428Y017127D01*
X034351Y017050D01*
X034811Y017050D02*
X034811Y016897D01*
X034888Y016820D01*
X035118Y016820D01*
X035118Y017280D01*
X035118Y017127D02*
X034888Y017127D01*
X034811Y017050D01*
X030821Y017570D02*
X030668Y017570D01*
X030745Y017570D02*
X030745Y017877D01*
X030668Y017877D01*
X030514Y017877D02*
X030284Y017877D01*
X030207Y017800D01*
X030284Y017723D01*
X030438Y017723D01*
X030514Y017647D01*
X030438Y017570D01*
X030207Y017570D01*
X030054Y017723D02*
X029747Y017723D01*
X029747Y017647D02*
X029747Y017800D01*
X029824Y017877D01*
X029977Y017877D01*
X030054Y017800D01*
X030054Y017723D01*
X029977Y017570D02*
X029824Y017570D01*
X029747Y017647D01*
X029594Y017647D02*
X029594Y017954D01*
X029517Y018030D01*
X029287Y018030D01*
X029287Y017570D01*
X029517Y017570D01*
X029594Y017647D01*
X030745Y018030D02*
X030745Y018107D01*
X044787Y019820D02*
X044787Y020280D01*
X045017Y020280D01*
X045094Y020204D01*
X045094Y020050D01*
X045017Y019973D01*
X044787Y019973D01*
X044940Y019973D02*
X045094Y019820D01*
X045247Y019897D02*
X045324Y019820D01*
X045477Y019820D01*
X045554Y019897D01*
X045554Y020050D01*
X045477Y020127D01*
X045324Y020127D01*
X045247Y020050D01*
X045247Y019897D01*
X045707Y020127D02*
X045861Y020127D01*
X045784Y020204D02*
X045784Y019897D01*
X045861Y019820D01*
X046014Y019897D02*
X046091Y019973D01*
X046321Y019973D01*
X046321Y020050D02*
X046321Y019820D01*
X046091Y019820D01*
X046014Y019897D01*
X046091Y020127D02*
X046245Y020127D01*
X046321Y020050D01*
X046475Y019973D02*
X046628Y020127D01*
X046705Y020127D01*
X046858Y020127D02*
X046858Y019897D01*
X046935Y019820D01*
X047165Y019820D01*
X047165Y019743D02*
X047089Y019667D01*
X047012Y019667D01*
X047165Y019743D02*
X047165Y020127D01*
X047779Y020050D02*
X047933Y020050D01*
X047779Y019820D02*
X048086Y019820D01*
X048240Y019820D02*
X048240Y020127D01*
X048470Y020127D01*
X048547Y020050D01*
X048547Y019820D01*
X048700Y019897D02*
X048777Y019820D01*
X049007Y019820D01*
X049160Y019820D02*
X049237Y019820D01*
X049237Y019897D01*
X049160Y019897D01*
X049160Y019820D01*
X049007Y020127D02*
X048777Y020127D01*
X048700Y020050D01*
X048700Y019897D01*
X048086Y020280D02*
X047779Y020280D01*
X047779Y019820D01*
X046475Y019820D02*
X046475Y020127D01*
X055787Y020280D02*
X056094Y020280D01*
X055940Y020280D02*
X055940Y019820D01*
X056247Y019897D02*
X056324Y019973D01*
X056554Y019973D01*
X056554Y020050D02*
X056554Y019820D01*
X056324Y019820D01*
X056247Y019897D01*
X056324Y020127D02*
X056477Y020127D01*
X056554Y020050D01*
X056707Y020050D02*
X056707Y019897D01*
X056784Y019820D01*
X057014Y019820D01*
X057245Y019897D02*
X057321Y019820D01*
X057245Y019897D02*
X057245Y020204D01*
X057168Y020127D02*
X057321Y020127D01*
X057475Y019897D02*
X057475Y019820D01*
X057552Y019820D01*
X057552Y019897D01*
X057475Y019897D01*
X057014Y020127D02*
X056784Y020127D01*
X056707Y020050D01*
X058165Y020127D02*
X058242Y020050D01*
X058396Y020050D01*
X058472Y019973D01*
X058472Y019897D01*
X058396Y019820D01*
X058242Y019820D01*
X058165Y019897D01*
X058165Y020127D02*
X058165Y020204D01*
X058242Y020280D01*
X058396Y020280D01*
X058472Y020204D01*
X058626Y020280D02*
X058626Y019820D01*
X058779Y019973D01*
X058933Y019820D01*
X058933Y020280D01*
X060486Y019048D02*
X060793Y019048D01*
X060947Y018894D01*
X060793Y018741D01*
X060486Y018741D01*
X060486Y018587D02*
X060486Y018280D01*
X060716Y018280D01*
X060640Y018434D01*
X060640Y018511D01*
X060716Y018587D01*
X060870Y018587D01*
X060947Y018511D01*
X060947Y018357D01*
X060870Y018280D01*
X060716Y018127D02*
X060716Y017820D01*
X060563Y017973D02*
X060870Y017973D01*
X062086Y018057D02*
X062086Y018211D01*
X062163Y018287D01*
X062240Y018287D01*
X062316Y018211D01*
X062393Y018287D01*
X062470Y018287D01*
X062547Y018211D01*
X062547Y018057D01*
X062470Y017980D01*
X062316Y017827D02*
X062316Y017520D01*
X062163Y017673D02*
X062470Y017673D01*
X062163Y017980D02*
X062086Y018057D01*
X062316Y018134D02*
X062316Y018211D01*
X062393Y018441D02*
X062547Y018594D01*
X062393Y018748D01*
X062086Y018748D01*
X062163Y018901D02*
X062086Y018978D01*
X062086Y019131D01*
X062163Y019208D01*
X062240Y019208D01*
X062316Y019131D01*
X062393Y019208D01*
X062470Y019208D01*
X062547Y019131D01*
X062547Y018978D01*
X062470Y018901D01*
X062316Y019055D02*
X062316Y019131D01*
X062393Y018441D02*
X062086Y018441D01*
X063586Y018487D02*
X064047Y018487D01*
X063586Y018180D01*
X064047Y018180D01*
X063970Y018027D02*
X063816Y018027D01*
X063816Y017873D01*
X063663Y017720D02*
X063970Y017720D01*
X064047Y017797D01*
X064047Y017950D01*
X063970Y018027D01*
X063663Y018027D02*
X063586Y017950D01*
X063586Y017797D01*
X063663Y017720D01*
X063586Y018641D02*
X063586Y018871D01*
X063663Y018948D01*
X063970Y018948D01*
X064047Y018871D01*
X064047Y018641D01*
X063586Y018641D01*
X073287Y023820D02*
X073287Y024280D01*
X073517Y024280D01*
X073594Y024204D01*
X073594Y024050D01*
X073517Y023973D01*
X073287Y023973D01*
X073440Y023973D02*
X073594Y023820D01*
X073747Y023820D02*
X073901Y023820D01*
X073824Y023820D02*
X073824Y024127D01*
X073747Y024127D01*
X073824Y024280D02*
X073824Y024357D01*
X074054Y024127D02*
X074284Y024127D01*
X074361Y024050D01*
X074361Y023820D01*
X074514Y023897D02*
X074591Y023820D01*
X074821Y023820D01*
X074821Y023743D02*
X074821Y024127D01*
X074591Y024127D01*
X074514Y024050D01*
X074514Y023897D01*
X074668Y023667D02*
X074745Y023667D01*
X074821Y023743D01*
X074054Y023820D02*
X074054Y024127D01*
X073977Y025320D02*
X073824Y025320D01*
X073747Y025397D01*
X073747Y025550D01*
X073824Y025627D01*
X073977Y025627D01*
X074054Y025550D01*
X074054Y025473D01*
X073747Y025473D01*
X073594Y025397D02*
X073517Y025320D01*
X073363Y025320D01*
X073287Y025397D01*
X073287Y025704D01*
X073363Y025780D01*
X073517Y025780D01*
X073594Y025704D01*
X074207Y025627D02*
X074438Y025627D01*
X074514Y025550D01*
X074514Y025320D01*
X074745Y025397D02*
X074821Y025320D01*
X074745Y025397D02*
X074745Y025704D01*
X074668Y025627D02*
X074821Y025627D01*
X074975Y025550D02*
X075052Y025627D01*
X075205Y025627D01*
X075282Y025550D01*
X075282Y025473D01*
X074975Y025473D01*
X074975Y025397D02*
X074975Y025550D01*
X074975Y025397D02*
X075052Y025320D01*
X075205Y025320D01*
X075435Y025320D02*
X075435Y025627D01*
X075435Y025473D02*
X075589Y025627D01*
X075665Y025627D01*
X074207Y025627D02*
X074207Y025320D01*
X074207Y027320D02*
X074361Y027320D01*
X074284Y027320D02*
X074284Y027627D01*
X074207Y027627D01*
X074054Y027627D02*
X074054Y027397D01*
X073977Y027320D01*
X073901Y027397D01*
X073824Y027320D01*
X073747Y027397D01*
X073747Y027627D01*
X073594Y027704D02*
X073517Y027780D01*
X073363Y027780D01*
X073287Y027704D01*
X073287Y027627D01*
X073363Y027550D01*
X073517Y027550D01*
X073594Y027473D01*
X073594Y027397D01*
X073517Y027320D01*
X073363Y027320D01*
X073287Y027397D01*
X074284Y027780D02*
X074284Y027857D01*
X074514Y027627D02*
X074668Y027627D01*
X074591Y027704D02*
X074591Y027397D01*
X074668Y027320D01*
X074821Y027397D02*
X074898Y027320D01*
X075128Y027320D01*
X075282Y027320D02*
X075282Y027780D01*
X075358Y027627D02*
X075512Y027627D01*
X075589Y027550D01*
X075589Y027320D01*
X075282Y027550D02*
X075358Y027627D01*
X075128Y027627D02*
X074898Y027627D01*
X074821Y027550D01*
X074821Y027397D01*
X075124Y030020D02*
X075047Y030097D01*
X075124Y030020D02*
X075277Y030020D01*
X075354Y030097D01*
X075354Y030250D01*
X075277Y030327D01*
X075201Y030327D01*
X075047Y030250D01*
X075047Y030480D01*
X075354Y030480D01*
X075507Y030480D02*
X075507Y030173D01*
X075661Y030020D01*
X075814Y030173D01*
X075814Y030480D01*
X074894Y030250D02*
X074587Y030250D01*
X074740Y030097D02*
X074740Y030404D01*
X073007Y030820D02*
X072930Y030820D01*
X072930Y030897D01*
X073007Y030897D01*
X073007Y030820D01*
X072777Y030820D02*
X072777Y031280D01*
X072777Y031127D02*
X072547Y031127D01*
X072470Y031050D01*
X072470Y030897D01*
X072547Y030820D01*
X072777Y030820D01*
X072316Y030820D02*
X072316Y031050D01*
X072240Y031127D01*
X072009Y031127D01*
X072009Y030820D01*
X071856Y030820D02*
X071702Y030820D01*
X071779Y030820D02*
X071779Y031280D01*
X071702Y031280D02*
X071856Y031280D01*
X071089Y031127D02*
X070858Y031127D01*
X070782Y031050D01*
X070858Y030973D01*
X071012Y030973D01*
X071089Y030897D01*
X071012Y030820D01*
X070782Y030820D01*
X070628Y030820D02*
X070628Y031127D01*
X070321Y031127D02*
X070321Y030897D01*
X070398Y030820D01*
X070628Y030820D01*
X070168Y030820D02*
X070091Y030897D01*
X070091Y031204D01*
X070014Y031127D02*
X070168Y031127D01*
X069861Y031050D02*
X069861Y030820D01*
X069631Y030820D01*
X069554Y030897D01*
X069631Y030973D01*
X069861Y030973D01*
X069861Y031050D02*
X069784Y031127D01*
X069631Y031127D01*
X069401Y031127D02*
X069247Y031127D01*
X069324Y031204D02*
X069324Y030897D01*
X069401Y030820D01*
X069094Y030897D02*
X069017Y030820D01*
X068863Y030820D01*
X068787Y030897D01*
X068863Y031050D02*
X068787Y031127D01*
X068787Y031204D01*
X068863Y031280D01*
X069017Y031280D01*
X069094Y031204D01*
X069017Y031050D02*
X069094Y030973D01*
X069094Y030897D01*
X069017Y031050D02*
X068863Y031050D01*
X074287Y031097D02*
X074363Y031020D01*
X074517Y031020D01*
X074594Y031097D01*
X074594Y031250D01*
X074440Y031250D01*
X074287Y031097D02*
X074287Y031404D01*
X074363Y031480D01*
X074517Y031480D01*
X074594Y031404D01*
X074747Y031480D02*
X075054Y031020D01*
X075054Y031480D01*
X075207Y031480D02*
X075438Y031480D01*
X075514Y031404D01*
X075514Y031097D01*
X075438Y031020D01*
X075207Y031020D01*
X075207Y031480D01*
X074747Y031480D02*
X074747Y031020D01*
X074817Y032120D02*
X074663Y032120D01*
X074587Y032197D01*
X074663Y032350D02*
X074817Y032350D01*
X074894Y032273D01*
X074894Y032197D01*
X074817Y032120D01*
X075047Y032120D02*
X075201Y032120D01*
X075124Y032120D02*
X075124Y032580D01*
X075047Y032580D02*
X075201Y032580D01*
X075354Y032504D02*
X075354Y032197D01*
X075431Y032120D01*
X075584Y032120D01*
X075661Y032197D01*
X075661Y032350D01*
X075507Y032350D01*
X075354Y032504D02*
X075431Y032580D01*
X075584Y032580D01*
X075661Y032504D01*
X074894Y032504D02*
X074817Y032580D01*
X074663Y032580D01*
X074587Y032504D01*
X074587Y032427D01*
X074663Y032350D01*
X072047Y037820D02*
X071816Y037820D01*
X071740Y037897D01*
X071740Y038050D01*
X071816Y038127D01*
X072047Y038127D01*
X072047Y038280D02*
X072047Y037820D01*
X071586Y037820D02*
X071586Y038050D01*
X071509Y038127D01*
X071279Y038127D01*
X071279Y037820D01*
X071126Y037820D02*
X070972Y037820D01*
X071049Y037820D02*
X071049Y038280D01*
X070972Y038280D02*
X071126Y038280D01*
X070358Y038127D02*
X070282Y038127D01*
X070128Y037973D01*
X070128Y037820D02*
X070128Y038127D01*
X069975Y038050D02*
X069975Y037973D01*
X069668Y037973D01*
X069668Y037897D02*
X069668Y038050D01*
X069745Y038127D01*
X069898Y038127D01*
X069975Y038050D01*
X069898Y037820D02*
X069745Y037820D01*
X069668Y037897D01*
X069514Y037897D02*
X069514Y038127D01*
X069514Y037897D02*
X069438Y037820D01*
X069361Y037897D01*
X069284Y037820D01*
X069207Y037897D01*
X069207Y038127D01*
X069054Y038050D02*
X068977Y038127D01*
X068824Y038127D01*
X068747Y038050D01*
X068747Y037897D01*
X068824Y037820D01*
X068977Y037820D01*
X069054Y037897D01*
X069054Y038050D01*
X068594Y038050D02*
X068517Y037973D01*
X068287Y037973D01*
X068287Y037820D02*
X068287Y038280D01*
X068517Y038280D01*
X068594Y038204D01*
X068594Y038050D01*
X059247Y038003D02*
X059016Y038003D01*
X058940Y037926D01*
X058940Y037696D01*
X059247Y037696D01*
X059093Y037543D02*
X059093Y037236D01*
X059016Y037236D02*
X058940Y037313D01*
X058940Y037466D01*
X059016Y037543D01*
X059093Y037543D01*
X059247Y037466D02*
X059247Y037313D01*
X059170Y037236D01*
X059016Y037236D01*
X059016Y037082D02*
X059247Y037082D01*
X059247Y036929D02*
X059016Y036929D01*
X058940Y037006D01*
X059016Y037082D01*
X059016Y036929D02*
X058940Y036852D01*
X058940Y036775D01*
X059247Y036775D01*
X059247Y036622D02*
X059170Y036545D01*
X058863Y036545D01*
X058940Y036468D02*
X058940Y036622D01*
X058940Y036315D02*
X058940Y036085D01*
X059016Y036008D01*
X059093Y036085D01*
X059093Y036238D01*
X059170Y036315D01*
X059247Y036238D01*
X059247Y036008D01*
X059247Y035855D02*
X058940Y035855D01*
X059247Y035855D02*
X059247Y035624D01*
X059170Y035548D01*
X058940Y035548D01*
X058940Y035394D02*
X059323Y035394D01*
X059400Y035318D01*
X059400Y035241D01*
X059247Y035087D02*
X059247Y034857D01*
X059170Y034780D01*
X059016Y034780D01*
X058940Y034857D01*
X058940Y035087D01*
X058786Y035087D02*
X059247Y035087D01*
X059247Y034627D02*
X058940Y034627D01*
X058786Y034473D01*
X058940Y034320D01*
X059247Y034320D01*
X059016Y034320D02*
X059016Y034627D01*
X058497Y034550D02*
X058420Y034627D01*
X058497Y034550D02*
X058497Y034397D01*
X058420Y034320D01*
X058113Y034320D01*
X058036Y034397D01*
X058036Y034550D01*
X058113Y034627D01*
X058266Y034780D02*
X058420Y034780D01*
X058497Y034857D01*
X058497Y035011D01*
X058420Y035087D01*
X058266Y035087D01*
X058190Y035011D01*
X058190Y034857D01*
X058266Y034780D01*
X058190Y035241D02*
X058190Y035471D01*
X058266Y035548D01*
X058497Y035548D01*
X058420Y035778D02*
X058497Y035855D01*
X058420Y035778D02*
X058113Y035778D01*
X058190Y035701D02*
X058190Y035855D01*
X058190Y036008D02*
X058497Y036008D01*
X058343Y036008D02*
X058190Y036162D01*
X058190Y036238D01*
X058190Y036468D02*
X058190Y036622D01*
X058266Y036699D01*
X058497Y036699D01*
X058497Y036468D01*
X058420Y036392D01*
X058343Y036468D01*
X058343Y036699D01*
X058266Y036852D02*
X058190Y036929D01*
X058190Y037159D01*
X058190Y037313D02*
X058190Y037466D01*
X058113Y037389D02*
X058420Y037389D01*
X058497Y037466D01*
X058420Y037159D02*
X058343Y037082D01*
X058343Y036929D01*
X058266Y036852D01*
X058497Y036852D02*
X058497Y037082D01*
X058420Y037159D01*
X058940Y038157D02*
X058940Y038310D01*
X058863Y038233D02*
X059170Y038233D01*
X059247Y038310D01*
X058786Y035394D02*
X058710Y035394D01*
X058497Y035241D02*
X058190Y035241D01*
D13*
X061147Y036180D02*
X061147Y036430D01*
X062017Y036430D01*
X062017Y036450D01*
X062167Y036450D01*
X062017Y036450D02*
X062017Y036550D01*
X062517Y036300D01*
X062017Y036050D01*
X062017Y036150D01*
X062167Y036150D01*
X062017Y036150D02*
X062017Y036180D01*
X062017Y036200D01*
X062017Y036180D02*
X061147Y036180D01*
X061167Y036250D02*
X062367Y036250D01*
X062367Y036350D01*
X061167Y036350D01*
X061167Y036300D01*
X060971Y036002D02*
X060993Y035948D01*
X061019Y035897D01*
X061048Y035847D01*
X061080Y035799D01*
X061116Y035754D01*
X061154Y035711D01*
X061196Y035671D01*
X061240Y035633D01*
X061286Y035599D01*
X061335Y035568D01*
X061386Y035540D01*
X061438Y035516D01*
X061492Y035496D01*
X061547Y035479D01*
X061603Y035466D01*
X061660Y035457D01*
X061718Y035451D01*
X061775Y035450D01*
X061833Y035453D01*
X061890Y035459D01*
X061947Y035469D01*
X062003Y035483D01*
X062058Y035501D01*
X062111Y035523D01*
X062163Y035548D01*
X062213Y035577D01*
X062261Y035608D01*
X062307Y035644D01*
X062350Y035682D01*
X062391Y035723D01*
X062429Y035766D01*
X062463Y035812D01*
X062495Y035861D01*
X062523Y035911D01*
X062547Y035963D01*
X062569Y036017D01*
X062586Y036072D01*
X062599Y036128D01*
X062609Y036185D01*
X062615Y036242D01*
X062617Y036300D01*
X062017Y036400D02*
X062017Y036430D01*
X062617Y036300D02*
X062615Y036358D01*
X062609Y036415D01*
X062599Y036472D01*
X062586Y036528D01*
X062569Y036583D01*
X062547Y036637D01*
X062523Y036689D01*
X062495Y036739D01*
X062463Y036788D01*
X062429Y036834D01*
X062391Y036877D01*
X062350Y036918D01*
X062307Y036956D01*
X062261Y036992D01*
X062213Y037023D01*
X062163Y037052D01*
X062111Y037077D01*
X062058Y037099D01*
X062003Y037117D01*
X061947Y037131D01*
X061890Y037141D01*
X061833Y037147D01*
X061775Y037150D01*
X061718Y037149D01*
X061660Y037143D01*
X061603Y037134D01*
X061547Y037121D01*
X061492Y037104D01*
X061438Y037084D01*
X061386Y037060D01*
X061335Y037032D01*
X061286Y037001D01*
X061240Y036967D01*
X061196Y036929D01*
X061154Y036889D01*
X061116Y036846D01*
X061080Y036801D01*
X061048Y036753D01*
X061019Y036703D01*
X060993Y036652D01*
X060971Y036598D01*
X077517Y033363D02*
X077517Y029237D01*
X082079Y029237D01*
X082079Y029675D01*
X080767Y029675D01*
X080767Y030050D01*
X081017Y030050D01*
X080767Y030050D02*
X080767Y030800D01*
X078517Y030800D01*
X078517Y031800D01*
X080767Y031800D01*
X080767Y032550D01*
X081017Y032550D01*
X080767Y032550D02*
X080767Y032925D01*
X082079Y032925D01*
X082079Y033362D02*
X077517Y033363D01*
X081017Y032550D02*
X081061Y032548D01*
X081104Y032542D01*
X081146Y032533D01*
X081188Y032520D01*
X081228Y032503D01*
X081267Y032483D01*
X081304Y032460D01*
X081338Y032433D01*
X081371Y032404D01*
X081400Y032371D01*
X081427Y032337D01*
X081450Y032300D01*
X081470Y032261D01*
X081487Y032221D01*
X081500Y032179D01*
X081509Y032137D01*
X081515Y032094D01*
X081517Y032050D01*
X081517Y030550D01*
X081515Y030506D01*
X081509Y030463D01*
X081500Y030421D01*
X081487Y030379D01*
X081470Y030339D01*
X081450Y030300D01*
X081427Y030263D01*
X081400Y030229D01*
X081371Y030196D01*
X081338Y030167D01*
X081304Y030140D01*
X081267Y030117D01*
X081228Y030097D01*
X081188Y030080D01*
X081146Y030067D01*
X081104Y030058D01*
X081061Y030052D01*
X081017Y030050D01*
X082079Y029675D02*
X082079Y033362D01*
X065267Y020800D02*
X059767Y020800D01*
X059767Y017300D01*
X065267Y017300D01*
X065267Y020800D01*
D14*
X064692Y031748D02*
X064545Y031748D01*
X064619Y031748D02*
X064619Y031968D01*
X064545Y031895D01*
X064471Y031895D02*
X064435Y031858D01*
X064324Y031858D01*
X064250Y031785D02*
X064250Y031932D01*
X064214Y031968D01*
X064103Y031968D01*
X064103Y031748D01*
X064214Y031748D01*
X064250Y031785D01*
X064324Y031748D02*
X064435Y031748D01*
X064471Y031785D01*
X064471Y031822D01*
X064435Y031858D01*
X064471Y031895D02*
X064471Y031932D01*
X064435Y031968D01*
X064324Y031968D01*
X064324Y031748D01*
X064324Y032733D02*
X064435Y032733D01*
X064471Y032769D01*
X064471Y032806D01*
X064435Y032843D01*
X064324Y032843D01*
X064250Y032916D02*
X064214Y032953D01*
X064103Y032953D01*
X064103Y032733D01*
X064214Y032733D01*
X064250Y032769D01*
X064250Y032916D01*
X064324Y032953D02*
X064435Y032953D01*
X064471Y032916D01*
X064471Y032879D01*
X064435Y032843D01*
X064545Y032916D02*
X064582Y032953D01*
X064656Y032953D01*
X064692Y032916D01*
X064545Y032769D01*
X064582Y032733D01*
X064656Y032733D01*
X064692Y032769D01*
X064692Y032916D01*
X064545Y032916D02*
X064545Y032769D01*
X064324Y032733D02*
X064324Y032953D01*
X064250Y033815D02*
X064103Y033815D01*
X064103Y034035D01*
X064250Y034035D01*
X064177Y033925D02*
X064103Y033925D01*
X064103Y034701D02*
X064103Y034921D01*
X064214Y034921D01*
X064250Y034885D01*
X064250Y034811D01*
X064214Y034774D01*
X064103Y034774D01*
X064177Y034774D02*
X064250Y034701D01*
X064324Y034701D02*
X064471Y034921D01*
X064545Y034921D02*
X064545Y034701D01*
X064619Y034774D01*
X064692Y034701D01*
X064692Y034921D01*
X064435Y035784D02*
X064361Y035784D01*
X064324Y035820D01*
X064250Y035784D02*
X064177Y035857D01*
X064214Y035857D02*
X064103Y035857D01*
X064103Y035784D02*
X064103Y036004D01*
X064214Y036004D01*
X064250Y035967D01*
X064250Y035894D01*
X064214Y035857D01*
X064324Y035930D02*
X064361Y035894D01*
X064435Y035894D01*
X064471Y035857D01*
X064471Y035820D01*
X064435Y035784D01*
X064324Y035930D02*
X064324Y035967D01*
X064361Y036004D01*
X064435Y036004D01*
X064471Y035967D01*
X064435Y036768D02*
X064361Y036768D01*
X064324Y036805D01*
X064471Y036951D01*
X064471Y036805D01*
X064435Y036768D01*
X064324Y036805D02*
X064324Y036951D01*
X064361Y036988D01*
X064435Y036988D01*
X064471Y036951D01*
X064250Y036988D02*
X064250Y036841D01*
X064177Y036768D01*
X064103Y036841D01*
X064103Y036988D01*
X064177Y037752D02*
X064250Y037826D01*
X064250Y037972D01*
X064324Y037972D02*
X064435Y037972D01*
X064471Y037936D01*
X064471Y037789D01*
X064435Y037752D01*
X064324Y037752D01*
X064324Y037972D01*
X064103Y037972D02*
X064103Y037826D01*
X064177Y037752D01*
X064545Y037752D02*
X064656Y037752D01*
X064692Y037789D01*
X064692Y037936D01*
X064656Y037972D01*
X064545Y037972D01*
X064545Y037752D01*
X064582Y038540D02*
X064545Y038576D01*
X064582Y038540D02*
X064656Y038540D01*
X064692Y038576D01*
X064692Y038613D01*
X064656Y038650D01*
X064582Y038650D01*
X064545Y038686D01*
X064545Y038723D01*
X064582Y038760D01*
X064656Y038760D01*
X064692Y038723D01*
X064471Y038723D02*
X064435Y038760D01*
X064361Y038760D01*
X064324Y038723D01*
X064324Y038686D01*
X064361Y038650D01*
X064435Y038650D01*
X064471Y038613D01*
X064471Y038576D01*
X064435Y038540D01*
X064361Y038540D01*
X064324Y038576D01*
X064250Y038613D02*
X064250Y038760D01*
X064103Y038760D02*
X064103Y038613D01*
X064177Y038540D01*
X064250Y038613D01*
X081329Y032675D02*
X082079Y032488D01*
X082079Y032863D01*
X081329Y032675D01*
X081365Y032666D02*
X082079Y032666D01*
X082079Y032648D02*
X081439Y032648D01*
X081442Y032703D02*
X082079Y032703D01*
X082079Y032685D02*
X081368Y032685D01*
X081516Y032722D02*
X082079Y032722D01*
X082079Y032740D02*
X081590Y032740D01*
X081663Y032759D02*
X082079Y032759D01*
X082079Y032777D02*
X081737Y032777D01*
X081811Y032796D02*
X082079Y032796D01*
X082079Y032814D02*
X081885Y032814D01*
X081959Y032833D02*
X082079Y032833D01*
X082079Y032851D02*
X082033Y032851D01*
X082079Y032629D02*
X081513Y032629D01*
X081587Y032611D02*
X082079Y032611D01*
X082079Y032592D02*
X081661Y032592D01*
X081735Y032574D02*
X082079Y032574D01*
X082079Y032555D02*
X081809Y032555D01*
X081883Y032537D02*
X082079Y032537D01*
X082079Y032518D02*
X081957Y032518D01*
X082031Y032500D02*
X082079Y032500D01*
X038571Y032843D02*
X038424Y032843D01*
X038497Y032916D02*
X038497Y032769D01*
X038350Y032769D02*
X038350Y032916D01*
X038313Y032953D01*
X038203Y032953D01*
X038203Y032733D01*
X038313Y032733D01*
X038350Y032769D01*
X038129Y032733D02*
X037982Y032733D01*
X037982Y032953D01*
X038129Y032953D01*
X038055Y032843D02*
X037982Y032843D01*
X037908Y032733D02*
X037761Y032733D01*
X037761Y032953D01*
X037859Y033717D02*
X037969Y033717D01*
X038006Y033753D01*
X038006Y033900D01*
X037969Y033937D01*
X037859Y033937D01*
X037859Y033717D01*
X038080Y033717D02*
X038190Y033717D01*
X038227Y033753D01*
X038227Y033790D01*
X038190Y033827D01*
X038080Y033827D01*
X038080Y033717D02*
X038080Y033937D01*
X038190Y033937D01*
X038227Y033900D01*
X038227Y033864D01*
X038190Y033827D01*
X038301Y033753D02*
X038301Y033717D01*
X038301Y033753D02*
X038448Y033900D01*
X038448Y033937D01*
X038301Y033937D01*
X038338Y034701D02*
X038411Y034701D01*
X038448Y034738D01*
X038448Y034774D01*
X038411Y034811D01*
X038301Y034811D01*
X038301Y034738D01*
X038338Y034701D01*
X038301Y034811D02*
X038375Y034885D01*
X038448Y034921D01*
X038227Y034885D02*
X038190Y034921D01*
X038080Y034921D01*
X038080Y034701D01*
X038190Y034701D01*
X038227Y034738D01*
X038227Y034774D01*
X038190Y034811D01*
X038080Y034811D01*
X038006Y034738D02*
X038006Y034885D01*
X037969Y034921D01*
X037859Y034921D01*
X037859Y034701D01*
X037969Y034701D01*
X038006Y034738D01*
X038190Y034811D02*
X038227Y034848D01*
X038227Y034885D01*
X038190Y035685D02*
X038080Y035685D01*
X038080Y035905D01*
X038190Y035905D01*
X038227Y035869D01*
X038227Y035832D01*
X038190Y035795D01*
X038080Y035795D01*
X038006Y035722D02*
X038006Y035869D01*
X037969Y035905D01*
X037859Y035905D01*
X037859Y035685D01*
X037969Y035685D01*
X038006Y035722D01*
X038190Y035685D02*
X038227Y035722D01*
X038227Y035759D01*
X038190Y035795D01*
X038301Y035795D02*
X038375Y035832D01*
X038411Y035832D01*
X038448Y035795D01*
X038448Y035722D01*
X038411Y035685D01*
X038338Y035685D01*
X038301Y035722D01*
X038301Y035795D02*
X038301Y035905D01*
X038448Y035905D01*
X038411Y036670D02*
X038411Y036890D01*
X038301Y036780D01*
X038448Y036780D01*
X038227Y036816D02*
X038190Y036780D01*
X038080Y036780D01*
X038006Y036853D02*
X038006Y036706D01*
X037969Y036670D01*
X037859Y036670D01*
X037859Y036890D01*
X037969Y036890D01*
X038006Y036853D01*
X038080Y036890D02*
X038190Y036890D01*
X038227Y036853D01*
X038227Y036816D01*
X038190Y036780D02*
X038227Y036743D01*
X038227Y036706D01*
X038190Y036670D01*
X038080Y036670D01*
X038080Y036890D01*
X038080Y037752D02*
X038190Y037752D01*
X038227Y037789D01*
X038227Y037826D01*
X038190Y037862D01*
X038080Y037862D01*
X038006Y037789D02*
X038006Y037936D01*
X037969Y037972D01*
X037859Y037972D01*
X037859Y037752D01*
X037969Y037752D01*
X038006Y037789D01*
X038080Y037752D02*
X038080Y037972D01*
X038190Y037972D01*
X038227Y037936D01*
X038227Y037899D01*
X038190Y037862D01*
X038301Y037789D02*
X038338Y037752D01*
X038411Y037752D01*
X038448Y037789D01*
X038448Y037826D01*
X038411Y037862D01*
X038375Y037862D01*
X038411Y037862D02*
X038448Y037899D01*
X038448Y037936D01*
X038411Y037972D01*
X038338Y037972D01*
X038301Y037936D01*
X038301Y038736D02*
X038448Y038883D01*
X038448Y038920D01*
X038411Y038957D01*
X038338Y038957D01*
X038301Y038920D01*
X038227Y038920D02*
X038227Y038883D01*
X038190Y038847D01*
X038080Y038847D01*
X038006Y038920D02*
X037969Y038957D01*
X037859Y038957D01*
X037859Y038736D01*
X037969Y038736D01*
X038006Y038773D01*
X038006Y038920D01*
X038080Y038957D02*
X038190Y038957D01*
X038227Y038920D01*
X038190Y038847D02*
X038227Y038810D01*
X038227Y038773D01*
X038190Y038736D01*
X038080Y038736D01*
X038080Y038957D01*
X038301Y038736D02*
X038448Y038736D01*
X038313Y031968D02*
X038203Y031968D01*
X038203Y031748D01*
X038313Y031748D01*
X038350Y031785D01*
X038350Y031932D01*
X038313Y031968D01*
X038424Y031858D02*
X038571Y031858D01*
X038129Y031748D02*
X037982Y031748D01*
X037982Y031968D01*
X038129Y031968D01*
X038055Y031858D02*
X037982Y031858D01*
X037908Y031748D02*
X037761Y031748D01*
X037761Y031968D01*
D15*
X052023Y028745D02*
X052023Y026855D01*
X056511Y026855D01*
X056511Y028745D01*
X052023Y028745D01*
X060391Y034640D02*
X060391Y034790D01*
X060466Y034865D01*
X060541Y034865D01*
X060616Y034790D01*
X060692Y034865D01*
X060767Y034865D01*
X060842Y034790D01*
X060842Y034640D01*
X060767Y034565D01*
X060616Y034715D02*
X060616Y034790D01*
X060466Y034565D02*
X060391Y034640D01*
X060541Y037515D02*
X060391Y037665D01*
X060842Y037665D01*
X060842Y037515D02*
X060842Y037815D01*
X055267Y038100D02*
X054967Y037800D01*
X054467Y037800D01*
X054267Y038000D01*
X054067Y037800D01*
X053467Y037800D01*
X053267Y038000D01*
X053067Y037800D01*
X052567Y037800D01*
X052267Y038100D01*
X052267Y039500D01*
X052567Y039800D01*
X053067Y039800D01*
X053267Y039600D01*
X053467Y039800D01*
X054067Y039800D01*
X054267Y039600D01*
X054467Y039800D01*
X054967Y039800D01*
X055267Y039500D01*
X055267Y038100D01*
X076567Y027050D02*
X076567Y026300D01*
X076567Y027050D02*
X076767Y027050D01*
X078767Y027050D02*
X081967Y027050D01*
X081967Y023550D01*
X076567Y023550D01*
X076567Y024300D01*
D16*
X055552Y039647D02*
X055552Y039894D01*
X055552Y039770D02*
X055181Y039770D01*
X055305Y039647D01*
D17*
X071267Y028800D02*
X071267Y027800D01*
X071267Y027300D02*
X071267Y026300D01*
X072067Y025800D02*
X072065Y025745D01*
X072060Y025691D01*
X072050Y025637D01*
X072037Y025584D01*
X072021Y025532D01*
X072001Y025481D01*
X071977Y025432D01*
X071951Y025384D01*
X071921Y025339D01*
X071888Y025295D01*
X071852Y025254D01*
X071813Y025215D01*
X071772Y025179D01*
X071728Y025146D01*
X071683Y025116D01*
X071635Y025090D01*
X071586Y025066D01*
X071535Y025046D01*
X071483Y025030D01*
X071430Y025017D01*
X071376Y025007D01*
X071322Y025002D01*
X071267Y025000D01*
X071267Y024400D01*
X071267Y023800D02*
X071267Y022800D01*
X070267Y023300D02*
X070269Y023363D01*
X070275Y023425D01*
X070285Y023487D01*
X070298Y023549D01*
X070316Y023609D01*
X070337Y023668D01*
X070362Y023726D01*
X070391Y023782D01*
X070423Y023836D01*
X070458Y023888D01*
X070496Y023937D01*
X070538Y023985D01*
X070582Y024029D01*
X070630Y024071D01*
X070679Y024109D01*
X070731Y024144D01*
X070785Y024176D01*
X070841Y024205D01*
X070899Y024230D01*
X070958Y024251D01*
X071018Y024269D01*
X071080Y024282D01*
X071142Y024292D01*
X071204Y024298D01*
X071267Y024300D01*
X071330Y024298D01*
X071392Y024292D01*
X071454Y024282D01*
X071516Y024269D01*
X071576Y024251D01*
X071635Y024230D01*
X071693Y024205D01*
X071749Y024176D01*
X071803Y024144D01*
X071855Y024109D01*
X071904Y024071D01*
X071952Y024029D01*
X071996Y023985D01*
X072038Y023937D01*
X072076Y023888D01*
X072111Y023836D01*
X072143Y023782D01*
X072172Y023726D01*
X072197Y023668D01*
X072218Y023609D01*
X072236Y023549D01*
X072249Y023487D01*
X072259Y023425D01*
X072265Y023363D01*
X072267Y023300D01*
X072265Y023237D01*
X072259Y023175D01*
X072249Y023113D01*
X072236Y023051D01*
X072218Y022991D01*
X072197Y022932D01*
X072172Y022874D01*
X072143Y022818D01*
X072111Y022764D01*
X072076Y022712D01*
X072038Y022663D01*
X071996Y022615D01*
X071952Y022571D01*
X071904Y022529D01*
X071855Y022491D01*
X071803Y022456D01*
X071749Y022424D01*
X071693Y022395D01*
X071635Y022370D01*
X071576Y022349D01*
X071516Y022331D01*
X071454Y022318D01*
X071392Y022308D01*
X071330Y022302D01*
X071267Y022300D01*
X071204Y022302D01*
X071142Y022308D01*
X071080Y022318D01*
X071018Y022331D01*
X070958Y022349D01*
X070899Y022370D01*
X070841Y022395D01*
X070785Y022424D01*
X070731Y022456D01*
X070679Y022491D01*
X070630Y022529D01*
X070582Y022571D01*
X070538Y022615D01*
X070496Y022663D01*
X070458Y022712D01*
X070423Y022764D01*
X070391Y022818D01*
X070362Y022874D01*
X070337Y022932D01*
X070316Y022991D01*
X070298Y023051D01*
X070285Y023113D01*
X070275Y023175D01*
X070269Y023237D01*
X070267Y023300D01*
X071267Y025000D02*
X071212Y025002D01*
X071158Y025007D01*
X071104Y025017D01*
X071051Y025030D01*
X070999Y025046D01*
X070948Y025066D01*
X070899Y025090D01*
X070851Y025116D01*
X070806Y025146D01*
X070762Y025179D01*
X070721Y025215D01*
X070682Y025254D01*
X070646Y025295D01*
X070613Y025339D01*
X070583Y025384D01*
X070557Y025432D01*
X070533Y025481D01*
X070513Y025532D01*
X070497Y025584D01*
X070484Y025637D01*
X070474Y025691D01*
X070469Y025745D01*
X070467Y025800D01*
X070767Y028300D02*
X071767Y028300D01*
X070267Y028300D02*
X070269Y028363D01*
X070275Y028425D01*
X070285Y028487D01*
X070298Y028549D01*
X070316Y028609D01*
X070337Y028668D01*
X070362Y028726D01*
X070391Y028782D01*
X070423Y028836D01*
X070458Y028888D01*
X070496Y028937D01*
X070538Y028985D01*
X070582Y029029D01*
X070630Y029071D01*
X070679Y029109D01*
X070731Y029144D01*
X070785Y029176D01*
X070841Y029205D01*
X070899Y029230D01*
X070958Y029251D01*
X071018Y029269D01*
X071080Y029282D01*
X071142Y029292D01*
X071204Y029298D01*
X071267Y029300D01*
X071330Y029298D01*
X071392Y029292D01*
X071454Y029282D01*
X071516Y029269D01*
X071576Y029251D01*
X071635Y029230D01*
X071693Y029205D01*
X071749Y029176D01*
X071803Y029144D01*
X071855Y029109D01*
X071904Y029071D01*
X071952Y029029D01*
X071996Y028985D01*
X072038Y028937D01*
X072076Y028888D01*
X072111Y028836D01*
X072143Y028782D01*
X072172Y028726D01*
X072197Y028668D01*
X072218Y028609D01*
X072236Y028549D01*
X072249Y028487D01*
X072259Y028425D01*
X072265Y028363D01*
X072267Y028300D01*
X072265Y028237D01*
X072259Y028175D01*
X072249Y028113D01*
X072236Y028051D01*
X072218Y027991D01*
X072197Y027932D01*
X072172Y027874D01*
X072143Y027818D01*
X072111Y027764D01*
X072076Y027712D01*
X072038Y027663D01*
X071996Y027615D01*
X071952Y027571D01*
X071904Y027529D01*
X071855Y027491D01*
X071803Y027456D01*
X071749Y027424D01*
X071693Y027395D01*
X071635Y027370D01*
X071576Y027349D01*
X071516Y027331D01*
X071454Y027318D01*
X071392Y027308D01*
X071330Y027302D01*
X071267Y027300D01*
X071204Y027302D01*
X071142Y027308D01*
X071080Y027318D01*
X071018Y027331D01*
X070958Y027349D01*
X070899Y027370D01*
X070841Y027395D01*
X070785Y027424D01*
X070731Y027456D01*
X070679Y027491D01*
X070630Y027529D01*
X070582Y027571D01*
X070538Y027615D01*
X070496Y027663D01*
X070458Y027712D01*
X070423Y027764D01*
X070391Y027818D01*
X070362Y027874D01*
X070337Y027932D01*
X070316Y027991D01*
X070298Y028051D01*
X070285Y028113D01*
X070275Y028175D01*
X070269Y028237D01*
X070267Y028300D01*
D18*
X071067Y025800D02*
X071069Y025828D01*
X071075Y025855D01*
X071084Y025881D01*
X071097Y025906D01*
X071114Y025929D01*
X071133Y025949D01*
X071155Y025966D01*
X071179Y025980D01*
X071205Y025990D01*
X071232Y025997D01*
X071260Y026000D01*
X071288Y025999D01*
X071315Y025994D01*
X071342Y025985D01*
X071367Y025973D01*
X071390Y025958D01*
X071411Y025939D01*
X071429Y025918D01*
X071444Y025894D01*
X071455Y025868D01*
X071463Y025842D01*
X071467Y025814D01*
X071467Y025786D01*
X071463Y025758D01*
X071455Y025732D01*
X071444Y025706D01*
X071429Y025682D01*
X071411Y025661D01*
X071390Y025642D01*
X071367Y025627D01*
X071342Y025615D01*
X071315Y025606D01*
X071288Y025601D01*
X071260Y025600D01*
X071232Y025603D01*
X071205Y025610D01*
X071179Y025620D01*
X071155Y025634D01*
X071133Y025651D01*
X071114Y025671D01*
X071097Y025694D01*
X071084Y025719D01*
X071075Y025745D01*
X071069Y025772D01*
X071067Y025800D01*
M02*
