G75*
%MOIN*%
%OFA0B0*%
%FSLAX24Y24*%
%IPPOS*%
%LPD*%
%AMOC8*
5,1,8,0,0,1.08239X$1,22.5*
%
%ADD10C,0.0515*%
%ADD11R,0.0515X0.0515*%
%ADD12R,0.0177X0.0591*%
%ADD13R,0.0591X0.0177*%
%ADD14C,0.0645*%
%ADD15C,0.0650*%
%ADD16C,0.0594*%
%ADD17C,0.1000*%
%ADD18C,0.0640*%
%ADD19R,0.0591X0.0512*%
%ADD20R,0.0394X0.0551*%
%ADD21R,0.0512X0.0591*%
%ADD22R,0.1181X0.0630*%
%ADD23R,0.2598X0.2441*%
%ADD24R,0.2165X0.0787*%
%ADD25OC8,0.0520*%
%ADD26R,0.0276X0.0276*%
%ADD27C,0.1502*%
%ADD28R,0.0551X0.0720*%
%ADD29C,0.0100*%
%ADD30C,0.0396*%
%ADD31C,0.0827*%
%ADD32C,0.0240*%
D10*
X036503Y031880D03*
X036503Y032880D03*
X036503Y033880D03*
X036503Y034880D03*
X036503Y035880D03*
X036503Y036880D03*
X036503Y037880D03*
X036503Y038880D03*
X066030Y037880D03*
X066030Y036880D03*
X066030Y035880D03*
X066030Y034880D03*
X066030Y033880D03*
X066030Y032880D03*
X066030Y031880D03*
D11*
X066030Y038726D03*
D12*
X052369Y034990D03*
X052054Y034990D03*
X051739Y034990D03*
X051424Y034990D03*
X051109Y034990D03*
X050794Y034990D03*
X050479Y034990D03*
X050164Y034990D03*
X050164Y031610D03*
X050479Y031610D03*
X050794Y031610D03*
X051109Y031610D03*
X051424Y031610D03*
X051739Y031610D03*
X052054Y031610D03*
X052369Y031610D03*
D13*
X052957Y032198D03*
X052957Y032513D03*
X052957Y032828D03*
X052957Y033143D03*
X052957Y033457D03*
X052957Y033772D03*
X052957Y034087D03*
X052957Y034402D03*
X049577Y034402D03*
X049577Y034087D03*
X049577Y033772D03*
X049577Y033457D03*
X049577Y033143D03*
X049577Y032828D03*
X049577Y032513D03*
X049577Y032198D03*
D14*
X076444Y032300D02*
X077089Y032300D01*
X077089Y031300D02*
X076444Y031300D01*
X076444Y030300D02*
X077089Y030300D01*
D15*
X049219Y021769D03*
X049219Y019800D03*
X049219Y017831D03*
X043511Y018816D03*
X043511Y020784D03*
D16*
X055381Y021080D03*
X057152Y021080D03*
X057152Y018520D03*
X055381Y018520D03*
D17*
X062767Y035300D03*
X060767Y036300D03*
X062767Y037300D03*
D18*
X054767Y038300D03*
X053767Y038300D03*
X052767Y038300D03*
X052767Y039300D03*
X053767Y039300D03*
X054767Y039300D03*
D19*
X055267Y036674D03*
X055267Y035926D03*
X054267Y035926D03*
X054267Y036674D03*
X053267Y036674D03*
X053267Y035926D03*
X052267Y035926D03*
X052267Y036674D03*
X048267Y031674D03*
X047267Y031674D03*
X047267Y030926D03*
X048267Y030926D03*
X050267Y030674D03*
X051267Y030674D03*
X051267Y029926D03*
X050267Y029926D03*
X056767Y030426D03*
X056767Y031174D03*
X067767Y030174D03*
X067767Y029426D03*
X070267Y033926D03*
X070267Y034674D03*
X070267Y035926D03*
X070267Y036674D03*
X076767Y020174D03*
X076767Y019426D03*
X077767Y019426D03*
X077767Y020174D03*
X034767Y031926D03*
X034767Y032674D03*
D20*
X072893Y021233D03*
X073641Y021233D03*
X073267Y020367D03*
X074893Y020367D03*
X075641Y020367D03*
X075267Y021233D03*
D21*
X073641Y022300D03*
X072893Y022300D03*
X069141Y022300D03*
X068393Y022300D03*
X056141Y029300D03*
X055393Y029300D03*
X053141Y029300D03*
X052393Y029300D03*
X054893Y031300D03*
X055641Y031300D03*
X048141Y032800D03*
X047393Y032800D03*
X062393Y039300D03*
X063141Y039300D03*
D22*
X071156Y021198D03*
X071156Y019402D03*
D23*
X068330Y020300D03*
D24*
X056137Y027800D03*
X052397Y027800D03*
D25*
X069367Y031820D03*
X070367Y031820D03*
X070247Y038900D03*
X069247Y038900D03*
D26*
X067767Y031664D03*
X068023Y030936D03*
X067511Y030936D03*
D27*
X077767Y027200D03*
X078967Y025300D03*
X076567Y025300D03*
D28*
X057767Y029552D03*
X057767Y031048D03*
D29*
X028267Y013000D02*
X027705Y013806D01*
X027892Y013883D01*
X028103Y014094D01*
X028218Y014371D01*
X028218Y014669D01*
X028103Y014946D01*
X027892Y015157D01*
X027616Y015271D01*
X027317Y015271D01*
X027041Y015157D01*
X026877Y014993D01*
X025967Y016300D01*
X025967Y040300D01*
X026877Y041607D01*
X027041Y041443D01*
X027317Y041329D01*
X027616Y041329D01*
X027892Y041443D01*
X028103Y041654D01*
X028218Y041931D01*
X028218Y042229D01*
X028103Y042506D01*
X027892Y042717D01*
X027705Y042794D01*
X028267Y043600D01*
X074267Y043600D01*
X078967Y040300D01*
X078967Y025350D01*
X078917Y025350D01*
X078917Y026161D01*
X078910Y026161D01*
X078798Y026146D01*
X078689Y026117D01*
X078585Y026074D01*
X078487Y026018D01*
X078398Y025949D01*
X078318Y025869D01*
X078249Y025779D01*
X078193Y025682D01*
X078149Y025577D01*
X078120Y025468D01*
X078105Y025356D01*
X078105Y025350D01*
X078917Y025350D01*
X078917Y025250D01*
X078967Y025250D01*
X078967Y016300D01*
X074267Y013000D01*
X028267Y013000D01*
X028244Y013032D02*
X074313Y013032D01*
X074453Y013131D02*
X028175Y013131D01*
X028107Y013229D02*
X074593Y013229D01*
X074734Y013328D02*
X028038Y013328D01*
X027969Y013426D02*
X074874Y013426D01*
X075014Y013525D02*
X027901Y013525D01*
X027832Y013623D02*
X075155Y013623D01*
X075216Y013769D02*
X075492Y013883D01*
X075703Y014094D01*
X075818Y014371D01*
X075818Y014669D01*
X075703Y014946D01*
X075492Y015157D01*
X075216Y015271D01*
X074917Y015271D01*
X074641Y015157D01*
X074430Y014946D01*
X074315Y014669D01*
X074315Y014371D01*
X074430Y014094D01*
X074641Y013883D01*
X074917Y013769D01*
X075216Y013769D01*
X075295Y013722D02*
X027763Y013722D01*
X027741Y013820D02*
X074793Y013820D01*
X074605Y013919D02*
X027928Y013919D01*
X028026Y014017D02*
X074507Y014017D01*
X074421Y014116D02*
X028112Y014116D01*
X028153Y014214D02*
X074380Y014214D01*
X074339Y014313D02*
X028194Y014313D01*
X028218Y014411D02*
X074315Y014411D01*
X074315Y014510D02*
X028218Y014510D01*
X028218Y014608D02*
X061133Y014608D01*
X061171Y014570D02*
X069362Y014570D01*
X069497Y014705D01*
X073862Y019070D01*
X075362Y019070D01*
X075871Y019579D01*
X075871Y019981D01*
X075883Y019981D01*
X075948Y020046D01*
X075948Y020207D01*
X076361Y020207D01*
X076361Y019873D01*
X076426Y019808D01*
X077108Y019808D01*
X077172Y019873D01*
X077172Y020014D01*
X077361Y020014D01*
X077361Y019873D01*
X077426Y019808D01*
X078108Y019808D01*
X078172Y019873D01*
X078172Y020475D01*
X078108Y020540D01*
X077997Y020540D01*
X077997Y025695D01*
X075597Y028095D01*
X075462Y028230D01*
X074262Y028230D01*
X073997Y028495D01*
X073997Y029205D01*
X074862Y030070D01*
X076071Y030070D01*
X076078Y030055D01*
X076199Y029933D01*
X076358Y029868D01*
X077175Y029868D01*
X077334Y029933D01*
X077456Y030055D01*
X077522Y030214D01*
X077522Y030386D01*
X077456Y030545D01*
X077334Y030667D01*
X077175Y030732D01*
X076358Y030732D01*
X076199Y030667D01*
X076078Y030545D01*
X076071Y030530D01*
X074671Y030530D01*
X073997Y029855D01*
X073997Y033395D01*
X073862Y033530D01*
X072488Y034904D01*
X070672Y034904D01*
X070672Y034975D01*
X070608Y035040D01*
X070497Y035040D01*
X070497Y035560D01*
X070608Y035560D01*
X070672Y035625D01*
X070672Y036227D01*
X070608Y036292D01*
X069926Y036292D01*
X069861Y036227D01*
X069861Y035625D01*
X069926Y035560D01*
X070037Y035560D01*
X070037Y035040D01*
X069926Y035040D01*
X069861Y034975D01*
X069861Y034373D01*
X069926Y034308D01*
X070608Y034308D01*
X070672Y034373D01*
X070672Y034444D01*
X072297Y034444D01*
X073537Y033205D01*
X073537Y028305D01*
X073671Y028170D01*
X074071Y027770D01*
X075271Y027770D01*
X076981Y026061D01*
X076738Y026161D01*
X076395Y026161D01*
X076079Y026030D01*
X075837Y025788D01*
X075705Y025471D01*
X075705Y025129D01*
X075812Y024871D01*
X075037Y024095D01*
X075037Y021619D01*
X075024Y021619D01*
X074960Y021554D01*
X074960Y020932D01*
X074429Y021463D01*
X073948Y021463D01*
X073948Y021554D01*
X073883Y021619D01*
X073801Y021619D01*
X073801Y021895D01*
X073942Y021895D01*
X074007Y021959D01*
X074007Y022641D01*
X073942Y022705D01*
X073339Y022705D01*
X073275Y022641D01*
X073275Y021959D01*
X073339Y021895D01*
X073481Y021895D01*
X073481Y021619D01*
X073398Y021619D01*
X073334Y021554D01*
X073334Y020912D01*
X073398Y020847D01*
X073883Y020847D01*
X073948Y020912D01*
X073948Y021003D01*
X074238Y021003D01*
X074586Y020656D01*
X074586Y020046D01*
X074650Y019981D01*
X075135Y019981D01*
X075199Y020046D01*
X075199Y020688D01*
X075135Y020753D01*
X075123Y020753D01*
X075123Y020769D01*
X075044Y020847D01*
X075509Y020847D01*
X075574Y020912D01*
X075574Y021554D01*
X075509Y021619D01*
X075497Y021619D01*
X075497Y023905D01*
X076138Y024546D01*
X076395Y024439D01*
X076738Y024439D01*
X077054Y024570D01*
X077297Y024812D01*
X077428Y025129D01*
X077428Y025471D01*
X077327Y025714D01*
X077537Y025505D01*
X077537Y020540D01*
X077426Y020540D01*
X077361Y020475D01*
X077361Y020334D01*
X077172Y020334D01*
X077172Y020475D01*
X077108Y020540D01*
X076426Y020540D01*
X076413Y020527D01*
X075948Y020527D01*
X075948Y020688D01*
X075883Y020753D01*
X075398Y020753D01*
X075334Y020688D01*
X075334Y020046D01*
X075398Y019981D01*
X075411Y019981D01*
X075411Y019769D01*
X075171Y019530D01*
X073862Y019530D01*
X073556Y019836D01*
X073556Y020028D01*
X073574Y020046D01*
X073574Y020688D01*
X073509Y020753D01*
X073024Y020753D01*
X072960Y020688D01*
X072960Y020597D01*
X072795Y020597D01*
X071964Y021428D01*
X071857Y021428D01*
X071857Y021558D01*
X071793Y021623D01*
X070520Y021623D01*
X070456Y021558D01*
X070456Y020837D01*
X070520Y020773D01*
X071793Y020773D01*
X071857Y020837D01*
X071857Y020884D01*
X072604Y020137D01*
X072960Y020137D01*
X072960Y020046D01*
X073024Y019981D01*
X073096Y019981D01*
X073096Y019646D01*
X073441Y019300D01*
X069171Y015030D01*
X061362Y015030D01*
X060997Y015395D01*
X060997Y019329D01*
X061063Y019356D01*
X061210Y019504D01*
X061290Y019696D01*
X061290Y019904D01*
X061210Y020096D01*
X061063Y020244D01*
X060871Y020323D01*
X060663Y020323D01*
X060470Y020244D01*
X060323Y020096D01*
X060243Y019904D01*
X060243Y019696D01*
X060323Y019504D01*
X060470Y019356D01*
X060537Y019329D01*
X060537Y015205D01*
X061171Y014570D01*
X061034Y014707D02*
X028202Y014707D01*
X028161Y014805D02*
X060936Y014805D01*
X060837Y014904D02*
X028121Y014904D01*
X028047Y015002D02*
X060739Y015002D01*
X060640Y015101D02*
X027948Y015101D01*
X027789Y015199D02*
X060542Y015199D01*
X060537Y015298D02*
X026665Y015298D01*
X026596Y015396D02*
X060537Y015396D01*
X060537Y015495D02*
X026528Y015495D01*
X026459Y015593D02*
X060537Y015593D01*
X060537Y015692D02*
X026390Y015692D01*
X026322Y015790D02*
X060537Y015790D01*
X060537Y015889D02*
X026253Y015889D01*
X026184Y015987D02*
X060537Y015987D01*
X060537Y016086D02*
X026116Y016086D01*
X026047Y016184D02*
X060537Y016184D01*
X060537Y016283D02*
X025979Y016283D01*
X025967Y016381D02*
X060537Y016381D01*
X060537Y016480D02*
X025967Y016480D01*
X025967Y016578D02*
X060537Y016578D01*
X060537Y016677D02*
X025967Y016677D01*
X025967Y016775D02*
X060537Y016775D01*
X060537Y016874D02*
X025967Y016874D01*
X025967Y016972D02*
X060537Y016972D01*
X060537Y017071D02*
X025967Y017071D01*
X025967Y017169D02*
X060537Y017169D01*
X060537Y017268D02*
X046536Y017268D01*
X046416Y017218D02*
X046692Y017332D01*
X046903Y017544D01*
X047018Y017820D01*
X047018Y018119D01*
X046903Y018395D01*
X046692Y018606D01*
X046416Y018720D01*
X046117Y018720D01*
X045841Y018606D01*
X045630Y018395D01*
X045515Y018119D01*
X045515Y017820D01*
X045630Y017544D01*
X045841Y017332D01*
X046117Y017218D01*
X046416Y017218D01*
X046726Y017366D02*
X060537Y017366D01*
X060537Y017465D02*
X049468Y017465D01*
X049466Y017463D02*
X049588Y017585D01*
X049654Y017745D01*
X049654Y017918D01*
X049588Y018078D01*
X049466Y018200D01*
X049306Y018266D01*
X049133Y018266D01*
X048973Y018200D01*
X048851Y018078D01*
X048815Y017991D01*
X048801Y017991D01*
X048427Y018366D01*
X048427Y028366D01*
X046427Y030366D01*
X046427Y031234D01*
X046707Y031514D01*
X046861Y031514D01*
X046861Y031373D01*
X046926Y031308D01*
X047608Y031308D01*
X047672Y031373D01*
X047672Y031975D01*
X047670Y031977D01*
X047833Y032140D01*
X048833Y032140D01*
X049046Y032353D01*
X049093Y032353D01*
X048672Y031932D01*
X048672Y031975D01*
X048608Y032040D01*
X047926Y032040D01*
X047861Y031975D01*
X047861Y031373D01*
X047926Y031308D01*
X048608Y031308D01*
X048672Y031373D01*
X048672Y031468D01*
X049059Y031081D01*
X049059Y022173D01*
X048973Y022137D01*
X048851Y022015D01*
X048785Y021855D01*
X048785Y021682D01*
X048851Y021522D01*
X048973Y021400D01*
X049133Y021334D01*
X049306Y021334D01*
X049466Y021400D01*
X049588Y021522D01*
X049654Y021682D01*
X049654Y021855D01*
X049588Y022015D01*
X049466Y022137D01*
X049379Y022173D01*
X049379Y031214D01*
X048893Y031700D01*
X049214Y032021D01*
X049236Y031999D01*
X049918Y031999D01*
X049982Y032063D01*
X049982Y032332D01*
X049959Y032355D01*
X049982Y032378D01*
X049982Y032647D01*
X049959Y032670D01*
X049982Y032693D01*
X049982Y032962D01*
X049961Y032983D01*
X050675Y032983D01*
X050691Y032998D01*
X050705Y032992D01*
X050828Y032992D01*
X050941Y033039D01*
X051028Y033125D01*
X051075Y033239D01*
X051075Y033361D01*
X051028Y033475D01*
X050941Y033561D01*
X050828Y033608D01*
X050705Y033608D01*
X050592Y033561D01*
X050505Y033475D01*
X050459Y033361D01*
X050459Y033303D01*
X049961Y033303D01*
X049982Y033323D01*
X049982Y033592D01*
X049959Y033615D01*
X049982Y033638D01*
X049982Y033907D01*
X049959Y033930D01*
X049982Y033953D01*
X049982Y034222D01*
X049959Y034245D01*
X049982Y034268D01*
X049982Y034537D01*
X049918Y034601D01*
X049236Y034601D01*
X049214Y034579D01*
X046753Y037040D01*
X036834Y037040D01*
X036814Y037088D01*
X036711Y037192D01*
X036576Y037247D01*
X036430Y037247D01*
X036295Y037192D01*
X036191Y037088D01*
X036135Y036953D01*
X036135Y036807D01*
X036191Y036672D01*
X036295Y036568D01*
X036430Y036513D01*
X036576Y036513D01*
X036711Y036568D01*
X036814Y036672D01*
X036834Y036720D01*
X046620Y036720D01*
X049004Y034336D01*
X049093Y034247D01*
X049046Y034247D01*
X047253Y036040D01*
X036834Y036040D01*
X036814Y036088D01*
X036711Y036192D01*
X036576Y036247D01*
X036430Y036247D01*
X036295Y036192D01*
X036191Y036088D01*
X036135Y035953D01*
X036135Y035807D01*
X036191Y035672D01*
X036295Y035568D01*
X036430Y035513D01*
X036576Y035513D01*
X036711Y035568D01*
X036814Y035672D01*
X036834Y035720D01*
X047120Y035720D01*
X048908Y033932D01*
X048860Y033932D01*
X047753Y035040D01*
X036834Y035040D01*
X036814Y035088D01*
X036711Y035192D01*
X036576Y035247D01*
X036430Y035247D01*
X036295Y035192D01*
X036191Y035088D01*
X036135Y034953D01*
X036135Y034807D01*
X036191Y034672D01*
X036295Y034568D01*
X036430Y034513D01*
X036576Y034513D01*
X036711Y034568D01*
X036814Y034672D01*
X036834Y034720D01*
X047620Y034720D01*
X048634Y033706D01*
X048723Y033617D01*
X048675Y033617D01*
X048253Y034040D01*
X036834Y034040D01*
X036814Y034088D01*
X036711Y034192D01*
X036576Y034247D01*
X036430Y034247D01*
X036295Y034192D01*
X036191Y034088D01*
X036135Y033953D01*
X036135Y033807D01*
X036191Y033672D01*
X036295Y033568D01*
X036430Y033513D01*
X036576Y033513D01*
X036711Y033568D01*
X036814Y033672D01*
X036834Y033720D01*
X048120Y033720D01*
X048543Y033297D01*
X049192Y033297D01*
X049171Y033277D01*
X049171Y033008D01*
X049192Y032988D01*
X048507Y032988D01*
X048507Y033141D01*
X048442Y033205D01*
X048088Y033205D01*
X047927Y033366D01*
X047833Y033460D01*
X046200Y033460D01*
X046107Y033366D01*
X043351Y030610D01*
X043351Y021189D01*
X043264Y021153D01*
X043142Y021031D01*
X043076Y020871D01*
X043076Y020698D01*
X043142Y020538D01*
X043264Y020416D01*
X043424Y020349D01*
X043597Y020349D01*
X043757Y020416D01*
X043879Y020538D01*
X043946Y020698D01*
X043946Y020871D01*
X043879Y021031D01*
X043757Y021153D01*
X043671Y021189D01*
X043671Y030478D01*
X046333Y033140D01*
X047036Y033140D01*
X047034Y033138D01*
X047027Y033110D01*
X047027Y032850D01*
X047343Y032850D01*
X047343Y032750D01*
X047443Y032750D01*
X047443Y032850D01*
X047759Y032850D01*
X047759Y033082D01*
X047775Y033066D01*
X047775Y032460D01*
X047750Y032460D01*
X047751Y032462D01*
X047759Y032490D01*
X047759Y032750D01*
X047443Y032750D01*
X047443Y032395D01*
X047635Y032395D01*
X047607Y032366D01*
X047280Y032040D01*
X046926Y032040D01*
X046861Y031975D01*
X046861Y031834D01*
X046574Y031834D01*
X046107Y031366D01*
X046107Y030234D01*
X046200Y030140D01*
X048107Y028234D01*
X048107Y018234D01*
X048200Y018140D01*
X048200Y018140D01*
X048575Y017765D01*
X048669Y017671D01*
X048815Y017671D01*
X048851Y017585D01*
X048973Y017463D01*
X049133Y017397D01*
X049306Y017397D01*
X049466Y017463D01*
X049566Y017563D02*
X060537Y017563D01*
X060537Y017662D02*
X049620Y017662D01*
X049654Y017760D02*
X060537Y017760D01*
X060537Y017859D02*
X049654Y017859D01*
X049638Y017957D02*
X060537Y017957D01*
X060537Y018056D02*
X049597Y018056D01*
X049511Y018154D02*
X055203Y018154D01*
X055225Y018143D02*
X055286Y018124D01*
X055332Y018116D01*
X055332Y018472D01*
X054977Y018472D01*
X054984Y018425D01*
X055004Y018364D01*
X055033Y018307D01*
X055071Y018255D01*
X055116Y018210D01*
X055168Y018173D01*
X055225Y018143D01*
X055332Y018154D02*
X055429Y018154D01*
X055429Y018116D02*
X055476Y018124D01*
X055537Y018143D01*
X055594Y018173D01*
X055646Y018210D01*
X055691Y018255D01*
X055729Y018307D01*
X055758Y018364D01*
X055778Y018425D01*
X055785Y018472D01*
X055429Y018472D01*
X055429Y018116D01*
X055559Y018154D02*
X056973Y018154D01*
X056922Y018176D02*
X057072Y018114D01*
X057233Y018114D01*
X057383Y018176D01*
X057497Y018290D01*
X057559Y018440D01*
X057559Y018601D01*
X057497Y018751D01*
X057383Y018865D01*
X057312Y018895D01*
X057312Y020705D01*
X057383Y020735D01*
X057497Y020849D01*
X057559Y020999D01*
X057559Y021160D01*
X057497Y021310D01*
X057383Y021424D01*
X057312Y021454D01*
X057312Y021980D01*
X057219Y022074D01*
X056333Y022960D01*
X051833Y022960D01*
X050427Y024366D01*
X050427Y029560D01*
X050607Y029560D01*
X050607Y028965D01*
X050537Y028895D01*
X050537Y026506D01*
X050505Y026475D01*
X050459Y026361D01*
X050459Y026239D01*
X050505Y026125D01*
X050592Y026039D01*
X050705Y025992D01*
X050750Y025992D01*
X052671Y024070D01*
X062211Y024070D01*
X062037Y023895D01*
X062037Y020271D01*
X061970Y020244D01*
X061823Y020096D01*
X061743Y019904D01*
X061743Y019696D01*
X061823Y019504D01*
X061970Y019356D01*
X062163Y019277D01*
X062371Y019277D01*
X062563Y019356D01*
X062710Y019504D01*
X062790Y019696D01*
X062790Y019904D01*
X062710Y020096D01*
X062563Y020244D01*
X062497Y020271D01*
X062497Y023705D01*
X062862Y024070D01*
X068171Y024070D01*
X068911Y023331D01*
X068911Y022705D01*
X068839Y022705D01*
X068775Y022641D01*
X068775Y021959D01*
X068839Y021895D01*
X068911Y021895D01*
X068911Y021630D01*
X066985Y021630D01*
X066920Y021566D01*
X066920Y019034D01*
X066985Y018970D01*
X069674Y018970D01*
X069739Y019034D01*
X069739Y021566D01*
X069674Y021630D01*
X069371Y021630D01*
X069371Y021895D01*
X069442Y021895D01*
X069507Y021959D01*
X069507Y022641D01*
X069442Y022705D01*
X069371Y022705D01*
X069371Y023521D01*
X068497Y024395D01*
X068362Y024530D01*
X065362Y024530D01*
X064575Y025317D01*
X064575Y025361D01*
X064528Y025475D01*
X064441Y025561D01*
X064328Y025608D01*
X064205Y025608D01*
X064092Y025561D01*
X064005Y025475D01*
X063959Y025361D01*
X063959Y025239D01*
X064005Y025125D01*
X064092Y025039D01*
X064205Y024992D01*
X064250Y024992D01*
X064711Y024530D01*
X052862Y024530D01*
X051075Y026317D01*
X051075Y026361D01*
X051028Y026475D01*
X050997Y026506D01*
X050997Y028895D01*
X050927Y028965D01*
X050927Y029569D01*
X050929Y029568D01*
X050957Y029560D01*
X051217Y029560D01*
X051217Y029876D01*
X051317Y029876D01*
X052981Y029876D01*
X052981Y029778D02*
X051672Y029778D01*
X051672Y029876D02*
X051317Y029876D01*
X051317Y029976D01*
X051672Y029976D01*
X051672Y030196D01*
X051664Y030224D01*
X051650Y030249D01*
X051629Y030270D01*
X052944Y030270D01*
X052981Y030234D02*
X052981Y029705D01*
X052839Y029705D01*
X052775Y029641D01*
X052775Y028959D01*
X052839Y028895D01*
X052981Y028895D01*
X052981Y028610D01*
X052674Y028304D01*
X051268Y028304D01*
X051204Y028239D01*
X051204Y027361D01*
X051268Y027296D01*
X053525Y027296D01*
X053589Y027361D01*
X053589Y028239D01*
X053525Y028304D01*
X053127Y028304D01*
X053301Y028478D01*
X053301Y028895D01*
X053442Y028895D01*
X053507Y028959D01*
X053507Y029641D01*
X053442Y029705D01*
X053301Y029705D01*
X053301Y030366D01*
X052707Y030960D01*
X052333Y030960D01*
X052214Y031079D01*
X052214Y031226D01*
X052235Y031205D01*
X052503Y031205D01*
X052568Y031269D01*
X052568Y031273D01*
X053607Y030234D01*
X053700Y030140D01*
X054700Y030140D01*
X055135Y029705D01*
X055091Y029705D01*
X055027Y029641D01*
X055027Y028959D01*
X055091Y028895D01*
X055233Y028895D01*
X055233Y028478D01*
X055407Y028304D01*
X055009Y028304D01*
X054944Y028239D01*
X054944Y027361D01*
X055009Y027296D01*
X057265Y027296D01*
X057329Y027361D01*
X057329Y028239D01*
X057265Y028304D01*
X055859Y028304D01*
X055553Y028610D01*
X055553Y028895D01*
X055694Y028895D01*
X055759Y028959D01*
X055759Y029641D01*
X055694Y029705D01*
X055553Y029705D01*
X055553Y029740D01*
X055459Y029834D01*
X054833Y030460D01*
X053833Y030460D01*
X052568Y031725D01*
X052568Y031773D01*
X053107Y031234D01*
X053200Y031140D01*
X054527Y031140D01*
X054527Y030959D01*
X054591Y030895D01*
X055194Y030895D01*
X055259Y030959D01*
X055259Y031640D01*
X055275Y031640D01*
X055275Y030959D01*
X055339Y030895D01*
X055942Y030895D01*
X056007Y030959D01*
X056007Y031140D01*
X056361Y031140D01*
X056361Y030873D01*
X056426Y030808D01*
X057108Y030808D01*
X057172Y030873D01*
X057172Y031014D01*
X057381Y031014D01*
X057381Y030642D01*
X057446Y030578D01*
X058088Y030578D01*
X058152Y030642D01*
X058152Y030888D01*
X058952Y030888D01*
X061607Y028234D01*
X061700Y028140D01*
X068833Y028140D01*
X072691Y031998D01*
X072705Y031992D01*
X072828Y031992D01*
X072941Y032039D01*
X073028Y032125D01*
X073075Y032239D01*
X073075Y032361D01*
X073028Y032475D01*
X072941Y032561D01*
X072828Y032608D01*
X072705Y032608D01*
X072592Y032561D01*
X072505Y032475D01*
X072459Y032361D01*
X072459Y032239D01*
X072465Y032224D01*
X068700Y028460D01*
X061833Y028460D01*
X059085Y031208D01*
X058152Y031208D01*
X058152Y031454D01*
X058088Y031518D01*
X057446Y031518D01*
X057381Y031454D01*
X057381Y031334D01*
X057172Y031334D01*
X057172Y031475D01*
X057108Y031540D01*
X056426Y031540D01*
X056361Y031475D01*
X056361Y031460D01*
X056007Y031460D01*
X056007Y031640D01*
X065200Y031640D01*
X065971Y030870D01*
X066065Y030776D01*
X067263Y030776D01*
X067263Y030752D01*
X067327Y030688D01*
X067351Y030688D01*
X067351Y030364D01*
X067361Y030353D01*
X067361Y029873D01*
X067426Y029808D01*
X068108Y029808D01*
X068172Y029873D01*
X068172Y030475D01*
X068108Y030540D01*
X067671Y030540D01*
X067671Y030688D01*
X067694Y030688D01*
X067759Y030752D01*
X067759Y031119D01*
X067694Y031184D01*
X067327Y031184D01*
X067263Y031119D01*
X067263Y031096D01*
X066197Y031096D01*
X065333Y031960D01*
X054034Y031960D01*
X054028Y031975D01*
X053965Y032038D01*
X065647Y032038D01*
X065683Y032001D01*
X065663Y031953D01*
X065663Y031807D01*
X065719Y031672D01*
X065822Y031568D01*
X065957Y031513D01*
X066104Y031513D01*
X066239Y031568D01*
X066342Y031672D01*
X066398Y031807D01*
X066398Y031953D01*
X066342Y032088D01*
X066239Y032192D01*
X066104Y032247D01*
X065957Y032247D01*
X065909Y032228D01*
X065779Y032358D01*
X065734Y032358D01*
X065909Y032532D01*
X065957Y032513D01*
X066104Y032513D01*
X066239Y032568D01*
X066342Y032672D01*
X066398Y032807D01*
X066398Y032953D01*
X066342Y033088D01*
X066239Y033192D01*
X066104Y033247D01*
X065957Y033247D01*
X065822Y033192D01*
X065719Y033088D01*
X065663Y032953D01*
X065663Y032807D01*
X065683Y032759D01*
X065597Y032673D01*
X065049Y032673D01*
X065909Y033532D01*
X065957Y033513D01*
X066104Y033513D01*
X066239Y033568D01*
X066342Y033672D01*
X066398Y033807D01*
X066398Y033953D01*
X066342Y034088D01*
X066239Y034192D01*
X066104Y034247D01*
X065957Y034247D01*
X065822Y034192D01*
X065719Y034088D01*
X065663Y033953D01*
X065663Y033807D01*
X065683Y033759D01*
X064912Y032988D01*
X053341Y032988D01*
X053362Y033008D01*
X053362Y033277D01*
X053341Y033297D01*
X064674Y033297D01*
X065909Y034532D01*
X065957Y034513D01*
X066104Y034513D01*
X066239Y034568D01*
X066342Y034672D01*
X066398Y034807D01*
X066398Y034953D01*
X066342Y035088D01*
X066239Y035192D01*
X066104Y035247D01*
X065957Y035247D01*
X065822Y035192D01*
X065719Y035088D01*
X065663Y034953D01*
X065663Y034807D01*
X065683Y034759D01*
X064542Y033617D01*
X063810Y033617D01*
X065792Y035599D01*
X065822Y035568D01*
X065957Y035513D01*
X066104Y035513D01*
X066239Y035568D01*
X066342Y035672D01*
X066398Y035807D01*
X066398Y035953D01*
X066342Y036088D01*
X066239Y036192D01*
X066104Y036247D01*
X065957Y036247D01*
X065822Y036192D01*
X065719Y036088D01*
X065663Y035953D01*
X065663Y035923D01*
X063673Y033932D01*
X055125Y033932D01*
X055333Y034140D01*
X055427Y034234D01*
X055427Y035560D01*
X055608Y035560D01*
X055672Y035625D01*
X055672Y036227D01*
X055608Y036292D01*
X054926Y036292D01*
X054861Y036227D01*
X054861Y035625D01*
X054926Y035560D01*
X055107Y035560D01*
X055107Y034366D01*
X054988Y034247D01*
X053940Y034247D01*
X054333Y034640D01*
X054427Y034734D01*
X054427Y035560D01*
X054608Y035560D01*
X054672Y035625D01*
X054672Y036227D01*
X054608Y036292D01*
X053926Y036292D01*
X053861Y036227D01*
X053861Y035625D01*
X053926Y035560D01*
X054107Y035560D01*
X054107Y034866D01*
X053803Y034562D01*
X053336Y034562D01*
X053298Y034601D01*
X052616Y034601D01*
X052551Y034537D01*
X052551Y034268D01*
X052575Y034245D01*
X052551Y034222D01*
X052551Y033953D01*
X052575Y033930D01*
X052551Y033907D01*
X052551Y033638D01*
X052575Y033615D01*
X052551Y033592D01*
X052551Y033323D01*
X052572Y033303D01*
X052543Y033303D01*
X052200Y032960D01*
X052107Y032866D01*
X052107Y032234D01*
X052200Y032140D01*
X052325Y032015D01*
X052235Y032015D01*
X052212Y031992D01*
X052188Y032015D01*
X051920Y032015D01*
X051899Y031994D01*
X051899Y032194D01*
X051727Y032366D01*
X051633Y032460D01*
X051200Y032460D01*
X051107Y032366D01*
X051075Y032334D01*
X051075Y032361D01*
X051028Y032475D01*
X050941Y032561D01*
X050828Y032608D01*
X050705Y032608D01*
X050592Y032561D01*
X050505Y032475D01*
X050459Y032361D01*
X050459Y032239D01*
X050465Y032224D01*
X050319Y032079D01*
X050319Y031994D01*
X050298Y032015D01*
X050030Y032015D01*
X049966Y031951D01*
X049966Y031725D01*
X049700Y031460D01*
X049607Y031366D01*
X049607Y030360D01*
X049861Y030105D01*
X049861Y029625D01*
X049926Y029560D01*
X050107Y029560D01*
X050107Y024234D01*
X050200Y024140D01*
X050200Y024140D01*
X051607Y022734D01*
X051700Y022640D01*
X056200Y022640D01*
X056992Y021848D01*
X056992Y021454D01*
X056922Y021424D01*
X056808Y021310D01*
X056746Y021160D01*
X056746Y020999D01*
X056808Y020849D01*
X056922Y020735D01*
X056992Y020705D01*
X056992Y018895D01*
X056922Y018865D01*
X056808Y018751D01*
X056746Y018601D01*
X056746Y018440D01*
X056808Y018290D01*
X056922Y018176D01*
X056845Y018253D02*
X055689Y018253D01*
X055751Y018351D02*
X056782Y018351D01*
X056746Y018450D02*
X055782Y018450D01*
X055785Y018569D02*
X055778Y018616D01*
X055758Y018677D01*
X055729Y018734D01*
X055691Y018786D01*
X055646Y018831D01*
X055594Y018868D01*
X055537Y018898D01*
X055476Y018917D01*
X055429Y018925D01*
X055429Y018569D01*
X055332Y018569D01*
X055332Y018472D01*
X055429Y018472D01*
X055429Y018569D01*
X055785Y018569D01*
X055768Y018647D02*
X056765Y018647D01*
X056746Y018548D02*
X055429Y018548D01*
X055332Y018548D02*
X048427Y018548D01*
X048427Y018450D02*
X054980Y018450D01*
X055010Y018351D02*
X048441Y018351D01*
X048540Y018253D02*
X049101Y018253D01*
X048927Y018154D02*
X048638Y018154D01*
X048737Y018056D02*
X048842Y018056D01*
X048735Y017831D02*
X048267Y018300D01*
X048267Y028300D01*
X046267Y030300D01*
X046267Y031300D01*
X046641Y031674D01*
X047267Y031674D01*
X047267Y031800D01*
X047767Y032300D01*
X048767Y032300D01*
X048979Y032513D01*
X049577Y032513D01*
X049577Y032828D02*
X048168Y032828D01*
X048141Y032800D01*
X048141Y032926D01*
X047767Y033300D01*
X046267Y033300D01*
X043511Y030544D01*
X043511Y020784D01*
X043912Y020617D02*
X048107Y020617D01*
X048107Y020715D02*
X043946Y020715D01*
X043946Y020814D02*
X048107Y020814D01*
X048107Y020912D02*
X046496Y020912D01*
X046416Y020880D02*
X046692Y020994D01*
X046903Y021205D01*
X047018Y021481D01*
X047018Y021780D01*
X046903Y022056D01*
X046692Y022268D01*
X046416Y022382D01*
X046117Y022382D01*
X045841Y022268D01*
X045630Y022056D01*
X045515Y021780D01*
X045515Y021481D01*
X045630Y021205D01*
X045841Y020994D01*
X046117Y020880D01*
X046416Y020880D01*
X046709Y021011D02*
X048107Y021011D01*
X048107Y021109D02*
X046808Y021109D01*
X046905Y021208D02*
X048107Y021208D01*
X048107Y021306D02*
X046945Y021306D01*
X046986Y021405D02*
X048107Y021405D01*
X048107Y021503D02*
X047018Y021503D01*
X047018Y021602D02*
X048107Y021602D01*
X048107Y021700D02*
X047018Y021700D01*
X047010Y021799D02*
X048107Y021799D01*
X048107Y021897D02*
X046969Y021897D01*
X046928Y021996D02*
X048107Y021996D01*
X048107Y022094D02*
X046865Y022094D01*
X046767Y022193D02*
X048107Y022193D01*
X048107Y022291D02*
X046634Y022291D01*
X045899Y022291D02*
X043671Y022291D01*
X043671Y022193D02*
X045767Y022193D01*
X045668Y022094D02*
X043671Y022094D01*
X043671Y021996D02*
X045605Y021996D01*
X045564Y021897D02*
X043671Y021897D01*
X043671Y021799D02*
X045523Y021799D01*
X045515Y021700D02*
X043671Y021700D01*
X043671Y021602D02*
X045515Y021602D01*
X045515Y021503D02*
X043671Y021503D01*
X043671Y021405D02*
X045547Y021405D01*
X045588Y021306D02*
X043671Y021306D01*
X043671Y021208D02*
X045629Y021208D01*
X045726Y021109D02*
X043800Y021109D01*
X043887Y021011D02*
X045824Y021011D01*
X046038Y020912D02*
X043928Y020912D01*
X043860Y020518D02*
X048107Y020518D01*
X048107Y020420D02*
X043761Y020420D01*
X043260Y020420D02*
X025967Y020420D01*
X025967Y020518D02*
X043162Y020518D01*
X043109Y020617D02*
X025967Y020617D01*
X025967Y020715D02*
X043076Y020715D01*
X043076Y020814D02*
X025967Y020814D01*
X025967Y020912D02*
X043093Y020912D01*
X043134Y021011D02*
X025967Y021011D01*
X025967Y021109D02*
X043221Y021109D01*
X043351Y021208D02*
X025967Y021208D01*
X025967Y021306D02*
X043351Y021306D01*
X043351Y021405D02*
X025967Y021405D01*
X025967Y021503D02*
X043351Y021503D01*
X043351Y021602D02*
X025967Y021602D01*
X025967Y021700D02*
X043351Y021700D01*
X043351Y021799D02*
X025967Y021799D01*
X025967Y021897D02*
X043351Y021897D01*
X043351Y021996D02*
X025967Y021996D01*
X025967Y022094D02*
X043351Y022094D01*
X043351Y022193D02*
X025967Y022193D01*
X025967Y022291D02*
X043351Y022291D01*
X043351Y022390D02*
X025967Y022390D01*
X025967Y022488D02*
X043351Y022488D01*
X043351Y022587D02*
X025967Y022587D01*
X025967Y022685D02*
X043351Y022685D01*
X043351Y022784D02*
X025967Y022784D01*
X025967Y022882D02*
X043351Y022882D01*
X043351Y022981D02*
X025967Y022981D01*
X025967Y023079D02*
X043351Y023079D01*
X043351Y023178D02*
X025967Y023178D01*
X025967Y023276D02*
X043351Y023276D01*
X043351Y023375D02*
X025967Y023375D01*
X025967Y023473D02*
X043351Y023473D01*
X043351Y023572D02*
X025967Y023572D01*
X025967Y023670D02*
X043351Y023670D01*
X043351Y023769D02*
X025967Y023769D01*
X025967Y023867D02*
X043351Y023867D01*
X043351Y023966D02*
X025967Y023966D01*
X025967Y024064D02*
X043351Y024064D01*
X043351Y024163D02*
X025967Y024163D01*
X025967Y024261D02*
X043351Y024261D01*
X043351Y024360D02*
X025967Y024360D01*
X025967Y024458D02*
X043351Y024458D01*
X043351Y024557D02*
X025967Y024557D01*
X025967Y024655D02*
X043351Y024655D01*
X043351Y024754D02*
X025967Y024754D01*
X025967Y024852D02*
X043351Y024852D01*
X043351Y024951D02*
X025967Y024951D01*
X025967Y025049D02*
X043351Y025049D01*
X043351Y025148D02*
X025967Y025148D01*
X025967Y025246D02*
X043351Y025246D01*
X043351Y025345D02*
X025967Y025345D01*
X025967Y025443D02*
X043351Y025443D01*
X043351Y025542D02*
X025967Y025542D01*
X025967Y025640D02*
X043351Y025640D01*
X043351Y025739D02*
X025967Y025739D01*
X025967Y025837D02*
X043351Y025837D01*
X043351Y025936D02*
X025967Y025936D01*
X025967Y026034D02*
X037603Y026034D01*
X037592Y026039D02*
X037705Y025992D01*
X037828Y025992D01*
X037941Y026039D01*
X038028Y026125D01*
X038075Y026239D01*
X038075Y026361D01*
X038028Y026475D01*
X037941Y026561D01*
X037828Y026608D01*
X037705Y026608D01*
X037592Y026561D01*
X037561Y026530D01*
X036862Y026530D01*
X034997Y028395D01*
X034997Y031560D01*
X035108Y031560D01*
X035172Y031625D01*
X035172Y032227D01*
X035108Y032292D01*
X034426Y032292D01*
X034361Y032227D01*
X034361Y031625D01*
X034426Y031560D01*
X034537Y031560D01*
X034537Y028205D01*
X036537Y026205D01*
X036671Y026070D01*
X037561Y026070D01*
X037592Y026039D01*
X037931Y026034D02*
X043351Y026034D01*
X043351Y026133D02*
X038031Y026133D01*
X038072Y026231D02*
X043351Y026231D01*
X043351Y026330D02*
X038075Y026330D01*
X038047Y026428D02*
X043351Y026428D01*
X043351Y026527D02*
X037975Y026527D01*
X036766Y026625D02*
X043351Y026625D01*
X043351Y026724D02*
X036668Y026724D01*
X036569Y026822D02*
X043351Y026822D01*
X043351Y026921D02*
X036471Y026921D01*
X036372Y027019D02*
X043351Y027019D01*
X043351Y027118D02*
X036274Y027118D01*
X036175Y027216D02*
X043351Y027216D01*
X043351Y027315D02*
X036077Y027315D01*
X035978Y027413D02*
X043351Y027413D01*
X043351Y027512D02*
X035880Y027512D01*
X035781Y027610D02*
X043351Y027610D01*
X043351Y027709D02*
X035683Y027709D01*
X035584Y027807D02*
X043351Y027807D01*
X043351Y027906D02*
X035486Y027906D01*
X035387Y028004D02*
X043351Y028004D01*
X043351Y028103D02*
X035289Y028103D01*
X035190Y028201D02*
X043351Y028201D01*
X043351Y028300D02*
X035092Y028300D01*
X034997Y028399D02*
X043351Y028399D01*
X043351Y028497D02*
X034997Y028497D01*
X034997Y028596D02*
X043351Y028596D01*
X043351Y028694D02*
X034997Y028694D01*
X034997Y028793D02*
X043351Y028793D01*
X043351Y028891D02*
X034997Y028891D01*
X034997Y028990D02*
X043351Y028990D01*
X043351Y029088D02*
X034997Y029088D01*
X034997Y029187D02*
X043351Y029187D01*
X043351Y029285D02*
X034997Y029285D01*
X034997Y029384D02*
X043351Y029384D01*
X043351Y029482D02*
X034997Y029482D01*
X034997Y029581D02*
X043351Y029581D01*
X043351Y029679D02*
X034997Y029679D01*
X034997Y029778D02*
X043351Y029778D01*
X043351Y029876D02*
X034997Y029876D01*
X034997Y029975D02*
X043351Y029975D01*
X043351Y030073D02*
X034997Y030073D01*
X034997Y030172D02*
X043351Y030172D01*
X043351Y030270D02*
X034997Y030270D01*
X034997Y030369D02*
X043351Y030369D01*
X043351Y030467D02*
X034997Y030467D01*
X034997Y030566D02*
X043351Y030566D01*
X043404Y030664D02*
X034997Y030664D01*
X034997Y030763D02*
X043503Y030763D01*
X043601Y030861D02*
X034997Y030861D01*
X034997Y030960D02*
X043700Y030960D01*
X043798Y031058D02*
X034997Y031058D01*
X034997Y031157D02*
X043897Y031157D01*
X043995Y031255D02*
X034997Y031255D01*
X034997Y031354D02*
X044094Y031354D01*
X044192Y031452D02*
X034997Y031452D01*
X034997Y031551D02*
X036338Y031551D01*
X036329Y031554D02*
X036396Y031527D01*
X036467Y031513D01*
X036474Y031513D01*
X036474Y031851D01*
X036532Y031851D01*
X036532Y031909D01*
X036870Y031909D01*
X036870Y031916D01*
X036856Y031987D01*
X036829Y032054D01*
X036788Y032114D01*
X036737Y032165D01*
X036677Y032206D01*
X036610Y032233D01*
X036539Y032247D01*
X036532Y032247D01*
X036532Y031909D01*
X036474Y031909D01*
X036474Y032247D01*
X036467Y032247D01*
X036396Y032233D01*
X036329Y032206D01*
X036269Y032165D01*
X036217Y032114D01*
X036177Y032054D01*
X036150Y031987D01*
X036135Y031916D01*
X036135Y031909D01*
X036474Y031909D01*
X036474Y031851D01*
X036135Y031851D01*
X036135Y031844D01*
X036150Y031773D01*
X036177Y031706D01*
X036217Y031646D01*
X036269Y031595D01*
X036329Y031554D01*
X036474Y031551D02*
X036532Y031551D01*
X036532Y031513D02*
X036539Y031513D01*
X036610Y031527D01*
X036677Y031554D01*
X036737Y031595D01*
X036788Y031646D01*
X036829Y031706D01*
X036856Y031773D01*
X036870Y031844D01*
X036870Y031851D01*
X036532Y031851D01*
X036532Y031513D01*
X036532Y031649D02*
X036474Y031649D01*
X036474Y031748D02*
X036532Y031748D01*
X036532Y031846D02*
X036474Y031846D01*
X036474Y031945D02*
X036532Y031945D01*
X036532Y032043D02*
X036474Y032043D01*
X036474Y032142D02*
X036532Y032142D01*
X036532Y032240D02*
X036474Y032240D01*
X036429Y032240D02*
X035159Y032240D01*
X035108Y032308D02*
X035172Y032373D01*
X035172Y032650D01*
X036213Y032650D01*
X036295Y032568D01*
X036430Y032513D01*
X036576Y032513D01*
X036711Y032568D01*
X036814Y032672D01*
X036870Y032807D01*
X036870Y032953D01*
X036814Y033088D01*
X036711Y033192D01*
X036576Y033247D01*
X036430Y033247D01*
X036295Y033192D01*
X036213Y033110D01*
X034877Y033110D01*
X034807Y033040D01*
X034426Y033040D01*
X034361Y032975D01*
X034361Y032373D01*
X034426Y032308D01*
X035108Y032308D01*
X035138Y032339D02*
X045079Y032339D01*
X045177Y032437D02*
X035172Y032437D01*
X035172Y032536D02*
X036374Y032536D01*
X036229Y032634D02*
X035172Y032634D01*
X035172Y032142D02*
X036245Y032142D01*
X036173Y032043D02*
X035172Y032043D01*
X035172Y031945D02*
X036141Y031945D01*
X036135Y031846D02*
X035172Y031846D01*
X035172Y031748D02*
X036160Y031748D01*
X036215Y031649D02*
X035172Y031649D01*
X034537Y031551D02*
X025967Y031551D01*
X025967Y031649D02*
X034361Y031649D01*
X034361Y031748D02*
X025967Y031748D01*
X025967Y031846D02*
X034361Y031846D01*
X034361Y031945D02*
X025967Y031945D01*
X025967Y032043D02*
X034361Y032043D01*
X034361Y032142D02*
X025967Y032142D01*
X025967Y032240D02*
X034374Y032240D01*
X034395Y032339D02*
X025967Y032339D01*
X025967Y032437D02*
X034361Y032437D01*
X034361Y032536D02*
X025967Y032536D01*
X025967Y032634D02*
X034361Y032634D01*
X034361Y032733D02*
X025967Y032733D01*
X025967Y032831D02*
X034361Y032831D01*
X034361Y032930D02*
X025967Y032930D01*
X025967Y033028D02*
X034414Y033028D01*
X036230Y033127D02*
X025967Y033127D01*
X025967Y033225D02*
X036376Y033225D01*
X036630Y033225D02*
X045965Y033225D01*
X045867Y033127D02*
X036776Y033127D01*
X036839Y033028D02*
X045768Y033028D01*
X045670Y032930D02*
X036870Y032930D01*
X036870Y032831D02*
X045571Y032831D01*
X045473Y032733D02*
X036840Y032733D01*
X036777Y032634D02*
X045374Y032634D01*
X045276Y032536D02*
X036631Y032536D01*
X036577Y032240D02*
X044980Y032240D01*
X044882Y032142D02*
X036761Y032142D01*
X036833Y032043D02*
X044783Y032043D01*
X044685Y031945D02*
X036865Y031945D01*
X036870Y031846D02*
X044586Y031846D01*
X044488Y031748D02*
X036846Y031748D01*
X036791Y031649D02*
X044389Y031649D01*
X044291Y031551D02*
X036668Y031551D01*
X034537Y031452D02*
X025967Y031452D01*
X025967Y031354D02*
X034537Y031354D01*
X034537Y031255D02*
X025967Y031255D01*
X025967Y031157D02*
X034537Y031157D01*
X034537Y031058D02*
X025967Y031058D01*
X025967Y030960D02*
X034537Y030960D01*
X034537Y030861D02*
X025967Y030861D01*
X025967Y030763D02*
X034537Y030763D01*
X034537Y030664D02*
X025967Y030664D01*
X025967Y030566D02*
X034537Y030566D01*
X034537Y030467D02*
X025967Y030467D01*
X025967Y030369D02*
X034537Y030369D01*
X034537Y030270D02*
X025967Y030270D01*
X025967Y030172D02*
X034537Y030172D01*
X034537Y030073D02*
X025967Y030073D01*
X025967Y029975D02*
X034537Y029975D01*
X034537Y029876D02*
X025967Y029876D01*
X025967Y029778D02*
X034537Y029778D01*
X034537Y029679D02*
X025967Y029679D01*
X025967Y029581D02*
X034537Y029581D01*
X034537Y029482D02*
X025967Y029482D01*
X025967Y029384D02*
X034537Y029384D01*
X034537Y029285D02*
X025967Y029285D01*
X025967Y029187D02*
X034537Y029187D01*
X034537Y029088D02*
X025967Y029088D01*
X025967Y028990D02*
X034537Y028990D01*
X034537Y028891D02*
X025967Y028891D01*
X025967Y028793D02*
X034537Y028793D01*
X034537Y028694D02*
X025967Y028694D01*
X025967Y028596D02*
X034537Y028596D01*
X034537Y028497D02*
X025967Y028497D01*
X025967Y028399D02*
X034537Y028399D01*
X034537Y028300D02*
X025967Y028300D01*
X025967Y028201D02*
X034540Y028201D01*
X034638Y028103D02*
X025967Y028103D01*
X025967Y028004D02*
X034737Y028004D01*
X034835Y027906D02*
X025967Y027906D01*
X025967Y027807D02*
X034934Y027807D01*
X035032Y027709D02*
X025967Y027709D01*
X025967Y027610D02*
X035131Y027610D01*
X035229Y027512D02*
X025967Y027512D01*
X025967Y027413D02*
X035328Y027413D01*
X035426Y027315D02*
X025967Y027315D01*
X025967Y027216D02*
X035525Y027216D01*
X035623Y027118D02*
X025967Y027118D01*
X025967Y027019D02*
X035722Y027019D01*
X035820Y026921D02*
X025967Y026921D01*
X025967Y026822D02*
X035919Y026822D01*
X036017Y026724D02*
X025967Y026724D01*
X025967Y026625D02*
X036116Y026625D01*
X036214Y026527D02*
X025967Y026527D01*
X025967Y026428D02*
X036313Y026428D01*
X036411Y026330D02*
X025967Y026330D01*
X025967Y026231D02*
X036510Y026231D01*
X036608Y026133D02*
X025967Y026133D01*
X025967Y020321D02*
X048107Y020321D01*
X048107Y020223D02*
X025967Y020223D01*
X025967Y020124D02*
X048107Y020124D01*
X048107Y020026D02*
X025967Y020026D01*
X025967Y019927D02*
X048107Y019927D01*
X048107Y019829D02*
X025967Y019829D01*
X025967Y019730D02*
X048107Y019730D01*
X048107Y019632D02*
X025967Y019632D01*
X025967Y019533D02*
X048107Y019533D01*
X048107Y019435D02*
X025967Y019435D01*
X025967Y019336D02*
X048107Y019336D01*
X048107Y019238D02*
X043618Y019238D01*
X043613Y019240D02*
X043561Y019248D01*
X043561Y018866D01*
X043461Y018866D01*
X043461Y019248D01*
X043409Y019240D01*
X043344Y019219D01*
X043283Y019188D01*
X043228Y019147D01*
X043179Y019099D01*
X043139Y019044D01*
X043108Y018983D01*
X043087Y018918D01*
X043078Y018866D01*
X043461Y018866D01*
X043461Y018766D01*
X043078Y018766D01*
X043087Y018714D01*
X043108Y018649D01*
X043139Y018588D01*
X043179Y018532D01*
X043228Y018484D01*
X043283Y018444D01*
X043344Y018413D01*
X043409Y018392D01*
X043461Y018383D01*
X043461Y018766D01*
X043561Y018766D01*
X043561Y018866D01*
X043943Y018866D01*
X043935Y018918D01*
X043914Y018983D01*
X043883Y019044D01*
X043842Y019099D01*
X043794Y019147D01*
X043739Y019188D01*
X043678Y019219D01*
X043613Y019240D01*
X043561Y019238D02*
X043461Y019238D01*
X043403Y019238D02*
X025967Y019238D01*
X025967Y019139D02*
X043220Y019139D01*
X043138Y019041D02*
X025967Y019041D01*
X025967Y018942D02*
X043095Y018942D01*
X043082Y018745D02*
X025967Y018745D01*
X025967Y018647D02*
X043109Y018647D01*
X043167Y018548D02*
X025967Y018548D01*
X025967Y018450D02*
X043274Y018450D01*
X043461Y018450D02*
X043561Y018450D01*
X043561Y018383D02*
X043561Y018766D01*
X043943Y018766D01*
X043935Y018714D01*
X043914Y018649D01*
X043883Y018588D01*
X043842Y018532D01*
X043794Y018484D01*
X043739Y018444D01*
X043678Y018413D01*
X043613Y018392D01*
X043561Y018383D01*
X043561Y018548D02*
X043461Y018548D01*
X043461Y018647D02*
X043561Y018647D01*
X043561Y018745D02*
X043461Y018745D01*
X043461Y018844D02*
X025967Y018844D01*
X025967Y018351D02*
X045612Y018351D01*
X045571Y018253D02*
X025967Y018253D01*
X025967Y018154D02*
X045530Y018154D01*
X045515Y018056D02*
X025967Y018056D01*
X025967Y017957D02*
X045515Y017957D01*
X045515Y017859D02*
X025967Y017859D01*
X025967Y017760D02*
X045540Y017760D01*
X045581Y017662D02*
X025967Y017662D01*
X025967Y017563D02*
X045622Y017563D01*
X045709Y017465D02*
X025967Y017465D01*
X025967Y017366D02*
X045807Y017366D01*
X045997Y017268D02*
X025967Y017268D01*
X026734Y015199D02*
X027144Y015199D01*
X026985Y015101D02*
X026802Y015101D01*
X026871Y015002D02*
X026887Y015002D01*
X043461Y018942D02*
X043561Y018942D01*
X043561Y018844D02*
X048107Y018844D01*
X048107Y018942D02*
X043927Y018942D01*
X043884Y019041D02*
X048107Y019041D01*
X048107Y019139D02*
X043802Y019139D01*
X043561Y019139D02*
X043461Y019139D01*
X043461Y019041D02*
X043561Y019041D01*
X043940Y018745D02*
X048107Y018745D01*
X048107Y018647D02*
X046594Y018647D01*
X046750Y018548D02*
X048107Y018548D01*
X048107Y018450D02*
X046848Y018450D01*
X046921Y018351D02*
X048107Y018351D01*
X048107Y018253D02*
X046962Y018253D01*
X047003Y018154D02*
X048186Y018154D01*
X048284Y018056D02*
X047018Y018056D01*
X047018Y017957D02*
X048383Y017957D01*
X048481Y017859D02*
X047018Y017859D01*
X046993Y017760D02*
X048580Y017760D01*
X048575Y017765D02*
X048575Y017765D01*
X048735Y017831D02*
X049219Y017831D01*
X048819Y017662D02*
X046952Y017662D01*
X046912Y017563D02*
X048873Y017563D01*
X048971Y017465D02*
X046825Y017465D01*
X045940Y018647D02*
X043913Y018647D01*
X043854Y018548D02*
X045784Y018548D01*
X045685Y018450D02*
X043747Y018450D01*
X048427Y018647D02*
X054994Y018647D01*
X055004Y018677D02*
X054984Y018616D01*
X054977Y018569D01*
X055332Y018569D01*
X055332Y018925D01*
X055286Y018917D01*
X055225Y018898D01*
X055168Y018868D01*
X055116Y018831D01*
X055071Y018786D01*
X055033Y018734D01*
X055004Y018677D01*
X055041Y018745D02*
X048427Y018745D01*
X048427Y018844D02*
X055134Y018844D01*
X055332Y018844D02*
X055429Y018844D01*
X055429Y018745D02*
X055332Y018745D01*
X055332Y018647D02*
X055429Y018647D01*
X055429Y018450D02*
X055332Y018450D01*
X055332Y018351D02*
X055429Y018351D01*
X055429Y018253D02*
X055332Y018253D01*
X055073Y018253D02*
X049338Y018253D01*
X049269Y019368D02*
X049321Y019376D01*
X049386Y019397D01*
X049447Y019428D01*
X049503Y019468D01*
X049551Y019517D01*
X049591Y019572D01*
X049622Y019633D01*
X049644Y019698D01*
X049652Y019750D01*
X049269Y019750D01*
X049269Y019368D01*
X049269Y019435D02*
X049169Y019435D01*
X049169Y019368D02*
X049169Y019750D01*
X048787Y019750D01*
X048795Y019698D01*
X048816Y019633D01*
X048848Y019572D01*
X048888Y019517D01*
X048936Y019468D01*
X048992Y019428D01*
X049053Y019397D01*
X049118Y019376D01*
X049169Y019368D01*
X049169Y019533D02*
X049269Y019533D01*
X049269Y019632D02*
X049169Y019632D01*
X049169Y019730D02*
X049269Y019730D01*
X049269Y019750D02*
X049169Y019750D01*
X049169Y019850D01*
X048787Y019850D01*
X048795Y019902D01*
X048816Y019967D01*
X048848Y020028D01*
X048888Y020083D01*
X048936Y020132D01*
X048992Y020172D01*
X049053Y020203D01*
X049118Y020224D01*
X049169Y020232D01*
X049169Y019850D01*
X049269Y019850D01*
X049269Y020232D01*
X049321Y020224D01*
X049386Y020203D01*
X049447Y020172D01*
X049503Y020132D01*
X049551Y020083D01*
X049591Y020028D01*
X049622Y019967D01*
X049644Y019902D01*
X049652Y019850D01*
X049269Y019850D01*
X049269Y019750D01*
X049269Y019829D02*
X054260Y019829D01*
X054260Y019879D02*
X054260Y019721D01*
X054320Y019575D01*
X054432Y019464D01*
X054577Y019403D01*
X054735Y019403D01*
X054881Y019464D01*
X054993Y019575D01*
X055053Y019721D01*
X055053Y019879D01*
X054993Y020025D01*
X054881Y020136D01*
X054735Y020197D01*
X054577Y020197D01*
X054432Y020136D01*
X054320Y020025D01*
X054260Y019879D01*
X054280Y019927D02*
X049635Y019927D01*
X049592Y020026D02*
X054321Y020026D01*
X054420Y020124D02*
X049510Y020124D01*
X049325Y020223D02*
X056992Y020223D01*
X056992Y020321D02*
X048427Y020321D01*
X048427Y020223D02*
X049114Y020223D01*
X049169Y020223D02*
X049269Y020223D01*
X049269Y020124D02*
X049169Y020124D01*
X049169Y020026D02*
X049269Y020026D01*
X049269Y019927D02*
X049169Y019927D01*
X049169Y019829D02*
X048427Y019829D01*
X048427Y019927D02*
X048804Y019927D01*
X048847Y020026D02*
X048427Y020026D01*
X048427Y020124D02*
X048929Y020124D01*
X048790Y019730D02*
X048427Y019730D01*
X048427Y019632D02*
X048817Y019632D01*
X048876Y019533D02*
X048427Y019533D01*
X048427Y019435D02*
X048982Y019435D01*
X049457Y019435D02*
X054501Y019435D01*
X054362Y019533D02*
X049563Y019533D01*
X049622Y019632D02*
X054296Y019632D01*
X054260Y019730D02*
X049649Y019730D01*
X048427Y019336D02*
X056992Y019336D01*
X056992Y019238D02*
X048427Y019238D01*
X048427Y019139D02*
X056992Y019139D01*
X056992Y019041D02*
X048427Y019041D01*
X048427Y018942D02*
X056992Y018942D01*
X056901Y018844D02*
X055628Y018844D01*
X055720Y018745D02*
X056805Y018745D01*
X057152Y018520D02*
X057152Y021080D01*
X057152Y021914D01*
X056267Y022800D01*
X051767Y022800D01*
X050267Y024300D01*
X050267Y029926D01*
X049767Y030426D01*
X049767Y031300D01*
X050077Y031610D01*
X050164Y031610D01*
X049966Y031748D02*
X048940Y031748D01*
X048944Y031649D02*
X049889Y031649D01*
X049791Y031551D02*
X049042Y031551D01*
X049141Y031452D02*
X049692Y031452D01*
X049607Y031354D02*
X049239Y031354D01*
X049338Y031255D02*
X049607Y031255D01*
X049607Y031157D02*
X049379Y031157D01*
X049379Y031058D02*
X049607Y031058D01*
X049607Y030960D02*
X049379Y030960D01*
X049379Y030861D02*
X049607Y030861D01*
X049607Y030763D02*
X049379Y030763D01*
X049379Y030664D02*
X049607Y030664D01*
X049607Y030566D02*
X049379Y030566D01*
X049379Y030467D02*
X049607Y030467D01*
X049607Y030369D02*
X049379Y030369D01*
X049379Y030270D02*
X049696Y030270D01*
X049795Y030172D02*
X049379Y030172D01*
X049379Y030073D02*
X049861Y030073D01*
X049861Y029975D02*
X049379Y029975D01*
X049379Y029876D02*
X049861Y029876D01*
X049861Y029778D02*
X049379Y029778D01*
X049379Y029679D02*
X049861Y029679D01*
X049905Y029581D02*
X049379Y029581D01*
X049379Y029482D02*
X050107Y029482D01*
X050107Y029384D02*
X049379Y029384D01*
X049379Y029285D02*
X050107Y029285D01*
X050107Y029187D02*
X049379Y029187D01*
X049379Y029088D02*
X050107Y029088D01*
X050107Y028990D02*
X049379Y028990D01*
X049379Y028891D02*
X050107Y028891D01*
X050107Y028793D02*
X049379Y028793D01*
X049379Y028694D02*
X050107Y028694D01*
X050107Y028596D02*
X049379Y028596D01*
X049379Y028497D02*
X050107Y028497D01*
X050107Y028399D02*
X049379Y028399D01*
X049379Y028300D02*
X050107Y028300D01*
X050107Y028201D02*
X049379Y028201D01*
X049379Y028103D02*
X050107Y028103D01*
X050107Y028004D02*
X049379Y028004D01*
X049379Y027906D02*
X050107Y027906D01*
X050107Y027807D02*
X049379Y027807D01*
X049379Y027709D02*
X050107Y027709D01*
X050107Y027610D02*
X049379Y027610D01*
X049379Y027512D02*
X050107Y027512D01*
X050107Y027413D02*
X049379Y027413D01*
X049379Y027315D02*
X050107Y027315D01*
X050107Y027216D02*
X049379Y027216D01*
X049379Y027118D02*
X050107Y027118D01*
X050107Y027019D02*
X049379Y027019D01*
X049379Y026921D02*
X050107Y026921D01*
X050107Y026822D02*
X049379Y026822D01*
X049379Y026724D02*
X050107Y026724D01*
X050107Y026625D02*
X049379Y026625D01*
X049379Y026527D02*
X050107Y026527D01*
X050107Y026428D02*
X049379Y026428D01*
X049379Y026330D02*
X050107Y026330D01*
X050107Y026231D02*
X049379Y026231D01*
X049379Y026133D02*
X050107Y026133D01*
X050107Y026034D02*
X049379Y026034D01*
X049379Y025936D02*
X050107Y025936D01*
X050107Y025837D02*
X049379Y025837D01*
X049379Y025739D02*
X050107Y025739D01*
X050107Y025640D02*
X049379Y025640D01*
X049379Y025542D02*
X050107Y025542D01*
X050107Y025443D02*
X049379Y025443D01*
X049379Y025345D02*
X050107Y025345D01*
X050107Y025246D02*
X049379Y025246D01*
X049379Y025148D02*
X050107Y025148D01*
X050107Y025049D02*
X049379Y025049D01*
X049379Y024951D02*
X050107Y024951D01*
X050107Y024852D02*
X049379Y024852D01*
X049379Y024754D02*
X050107Y024754D01*
X050107Y024655D02*
X049379Y024655D01*
X049379Y024557D02*
X050107Y024557D01*
X050107Y024458D02*
X049379Y024458D01*
X049379Y024360D02*
X050107Y024360D01*
X050107Y024261D02*
X049379Y024261D01*
X049379Y024163D02*
X050177Y024163D01*
X050276Y024064D02*
X049379Y024064D01*
X049379Y023966D02*
X050374Y023966D01*
X050473Y023867D02*
X049379Y023867D01*
X049379Y023769D02*
X050571Y023769D01*
X050670Y023670D02*
X049379Y023670D01*
X049379Y023572D02*
X050768Y023572D01*
X050867Y023473D02*
X049379Y023473D01*
X049379Y023375D02*
X050965Y023375D01*
X051064Y023276D02*
X049379Y023276D01*
X049379Y023178D02*
X051162Y023178D01*
X051261Y023079D02*
X049379Y023079D01*
X049379Y022981D02*
X051359Y022981D01*
X051458Y022882D02*
X049379Y022882D01*
X049379Y022784D02*
X051556Y022784D01*
X051655Y022685D02*
X049379Y022685D01*
X049379Y022587D02*
X056253Y022587D01*
X056352Y022488D02*
X049379Y022488D01*
X049379Y022390D02*
X056450Y022390D01*
X056549Y022291D02*
X049379Y022291D01*
X049379Y022193D02*
X056647Y022193D01*
X056746Y022094D02*
X049508Y022094D01*
X049596Y021996D02*
X056844Y021996D01*
X056943Y021897D02*
X049637Y021897D01*
X049654Y021799D02*
X056992Y021799D01*
X056992Y021700D02*
X049654Y021700D01*
X049621Y021602D02*
X056992Y021602D01*
X056992Y021503D02*
X049569Y021503D01*
X049471Y021405D02*
X055137Y021405D01*
X055116Y021390D02*
X055071Y021345D01*
X055033Y021293D01*
X055004Y021236D01*
X054984Y021175D01*
X054977Y021128D01*
X055332Y021128D01*
X055332Y021031D01*
X054977Y021031D01*
X054984Y020984D01*
X055004Y020923D01*
X055033Y020866D01*
X055071Y020814D01*
X048427Y020814D01*
X048427Y020912D02*
X055009Y020912D01*
X054980Y021011D02*
X048427Y021011D01*
X048427Y021109D02*
X055332Y021109D01*
X055332Y021128D02*
X055332Y021484D01*
X055286Y021476D01*
X055225Y021457D01*
X055168Y021427D01*
X055116Y021390D01*
X055043Y021306D02*
X048427Y021306D01*
X048427Y021208D02*
X054995Y021208D01*
X055332Y021208D02*
X055429Y021208D01*
X055429Y021128D02*
X055332Y021128D01*
X055332Y021031D02*
X055429Y021031D01*
X055429Y020675D01*
X055476Y020683D01*
X055537Y020702D01*
X055594Y020732D01*
X055646Y020769D01*
X055691Y020814D01*
X056843Y020814D01*
X056781Y020912D02*
X055752Y020912D01*
X055758Y020923D02*
X055778Y020984D01*
X055785Y021031D01*
X055429Y021031D01*
X055429Y021128D01*
X055429Y021484D01*
X055476Y021476D01*
X055537Y021457D01*
X055594Y021427D01*
X055646Y021390D01*
X055691Y021345D01*
X055729Y021293D01*
X055758Y021236D01*
X055778Y021175D01*
X055785Y021128D01*
X055429Y021128D01*
X055429Y021109D02*
X056746Y021109D01*
X056746Y021011D02*
X055782Y021011D01*
X055758Y020923D02*
X055729Y020866D01*
X055691Y020814D01*
X055563Y020715D02*
X056968Y020715D01*
X056992Y020617D02*
X048427Y020617D01*
X048427Y020715D02*
X055199Y020715D01*
X055225Y020702D02*
X055286Y020683D01*
X055332Y020675D01*
X055332Y021031D01*
X055332Y021011D02*
X055429Y021011D01*
X055429Y020912D02*
X055332Y020912D01*
X055332Y020814D02*
X055429Y020814D01*
X055429Y020715D02*
X055332Y020715D01*
X055225Y020702D02*
X055168Y020732D01*
X055116Y020769D01*
X055071Y020814D01*
X055332Y021306D02*
X055429Y021306D01*
X055429Y021405D02*
X055332Y021405D01*
X055625Y021405D02*
X056903Y021405D01*
X056806Y021306D02*
X055719Y021306D01*
X055767Y021208D02*
X056765Y021208D01*
X057312Y021503D02*
X062037Y021503D01*
X062037Y021405D02*
X057402Y021405D01*
X057499Y021306D02*
X062037Y021306D01*
X062037Y021208D02*
X057540Y021208D01*
X057559Y021109D02*
X062037Y021109D01*
X062037Y021011D02*
X057559Y021011D01*
X057524Y020912D02*
X062037Y020912D01*
X062037Y020814D02*
X057462Y020814D01*
X057337Y020715D02*
X062037Y020715D01*
X062037Y020617D02*
X057312Y020617D01*
X057312Y020518D02*
X062037Y020518D01*
X062037Y020420D02*
X057312Y020420D01*
X057312Y020321D02*
X060658Y020321D01*
X060875Y020321D02*
X062037Y020321D01*
X061949Y020223D02*
X061084Y020223D01*
X061182Y020124D02*
X061851Y020124D01*
X061794Y020026D02*
X061240Y020026D01*
X061280Y019927D02*
X061753Y019927D01*
X061743Y019829D02*
X061290Y019829D01*
X061290Y019730D02*
X061743Y019730D01*
X061770Y019632D02*
X061264Y019632D01*
X061223Y019533D02*
X061811Y019533D01*
X061892Y019435D02*
X061142Y019435D01*
X061015Y019336D02*
X062018Y019336D01*
X062515Y019336D02*
X066920Y019336D01*
X066920Y019238D02*
X060997Y019238D01*
X060997Y019139D02*
X066920Y019139D01*
X066920Y019041D02*
X060997Y019041D01*
X060997Y018942D02*
X073084Y018942D01*
X072985Y018844D02*
X060997Y018844D01*
X060997Y018745D02*
X072887Y018745D01*
X072788Y018647D02*
X060997Y018647D01*
X060997Y018548D02*
X072690Y018548D01*
X072591Y018450D02*
X060997Y018450D01*
X060997Y018351D02*
X072493Y018351D01*
X072394Y018253D02*
X060997Y018253D01*
X060997Y018154D02*
X072296Y018154D01*
X072197Y018056D02*
X060997Y018056D01*
X060997Y017957D02*
X072099Y017957D01*
X072000Y017859D02*
X060997Y017859D01*
X060997Y017760D02*
X071902Y017760D01*
X071803Y017662D02*
X060997Y017662D01*
X060997Y017563D02*
X071705Y017563D01*
X071606Y017465D02*
X060997Y017465D01*
X060997Y017366D02*
X071508Y017366D01*
X071409Y017268D02*
X060997Y017268D01*
X060997Y017169D02*
X071311Y017169D01*
X071212Y017071D02*
X060997Y017071D01*
X060997Y016972D02*
X071114Y016972D01*
X071015Y016874D02*
X060997Y016874D01*
X060997Y016775D02*
X070917Y016775D01*
X070818Y016677D02*
X060997Y016677D01*
X060997Y016578D02*
X070720Y016578D01*
X070621Y016480D02*
X060997Y016480D01*
X060997Y016381D02*
X070523Y016381D01*
X070424Y016283D02*
X060997Y016283D01*
X060997Y016184D02*
X070326Y016184D01*
X070227Y016086D02*
X060997Y016086D01*
X060997Y015987D02*
X070129Y015987D01*
X070030Y015889D02*
X060997Y015889D01*
X060997Y015790D02*
X069932Y015790D01*
X069833Y015692D02*
X060997Y015692D01*
X060997Y015593D02*
X069735Y015593D01*
X069636Y015495D02*
X060997Y015495D01*
X060997Y015396D02*
X069538Y015396D01*
X069439Y015298D02*
X061094Y015298D01*
X061192Y015199D02*
X069341Y015199D01*
X069242Y015101D02*
X061291Y015101D01*
X060537Y018154D02*
X057332Y018154D01*
X057460Y018253D02*
X060537Y018253D01*
X060537Y018351D02*
X057523Y018351D01*
X057559Y018450D02*
X060537Y018450D01*
X060537Y018548D02*
X057559Y018548D01*
X057540Y018647D02*
X060537Y018647D01*
X060537Y018745D02*
X057500Y018745D01*
X057404Y018844D02*
X060537Y018844D01*
X060537Y018942D02*
X057312Y018942D01*
X057312Y019041D02*
X060537Y019041D01*
X060537Y019139D02*
X057312Y019139D01*
X057312Y019238D02*
X060537Y019238D01*
X060518Y019336D02*
X057312Y019336D01*
X057312Y019435D02*
X060392Y019435D01*
X060311Y019533D02*
X057312Y019533D01*
X057312Y019632D02*
X060270Y019632D01*
X060243Y019730D02*
X057312Y019730D01*
X057312Y019829D02*
X060243Y019829D01*
X060253Y019927D02*
X057312Y019927D01*
X057312Y020026D02*
X060294Y020026D01*
X060351Y020124D02*
X057312Y020124D01*
X057312Y020223D02*
X060449Y020223D01*
X062497Y020321D02*
X066920Y020321D01*
X066920Y020223D02*
X062584Y020223D01*
X062682Y020124D02*
X066920Y020124D01*
X066920Y020026D02*
X062740Y020026D01*
X062780Y019927D02*
X066920Y019927D01*
X066920Y019829D02*
X062790Y019829D01*
X062790Y019730D02*
X066920Y019730D01*
X066920Y019632D02*
X062764Y019632D01*
X062723Y019533D02*
X066920Y019533D01*
X066920Y019435D02*
X062642Y019435D01*
X062497Y020420D02*
X066920Y020420D01*
X066920Y020518D02*
X062497Y020518D01*
X062497Y020617D02*
X066920Y020617D01*
X066920Y020715D02*
X062497Y020715D01*
X062497Y020814D02*
X066920Y020814D01*
X066920Y020912D02*
X062497Y020912D01*
X062497Y021011D02*
X066920Y021011D01*
X066920Y021109D02*
X062497Y021109D01*
X062497Y021208D02*
X066920Y021208D01*
X066920Y021306D02*
X062497Y021306D01*
X062497Y021405D02*
X066920Y021405D01*
X066920Y021503D02*
X062497Y021503D01*
X062497Y021602D02*
X066956Y021602D01*
X068034Y021962D02*
X068049Y021937D01*
X068069Y021917D01*
X068094Y021902D01*
X068122Y021895D01*
X068343Y021895D01*
X068343Y022250D01*
X068443Y022250D01*
X068443Y022350D01*
X068759Y022350D01*
X068759Y022610D01*
X068751Y022638D01*
X068737Y022663D01*
X068716Y022683D01*
X068691Y022698D01*
X068663Y022705D01*
X068443Y022705D01*
X068443Y022350D01*
X068343Y022350D01*
X068343Y022705D01*
X068122Y022705D01*
X068094Y022698D01*
X068069Y022683D01*
X068049Y022663D01*
X068034Y022638D01*
X068027Y022610D01*
X068027Y022350D01*
X068343Y022350D01*
X068343Y022250D01*
X068027Y022250D01*
X068027Y021990D01*
X068034Y021962D01*
X068027Y021996D02*
X062497Y021996D01*
X062497Y022094D02*
X068027Y022094D01*
X068027Y022193D02*
X062497Y022193D01*
X062497Y022291D02*
X068343Y022291D01*
X068343Y022193D02*
X068443Y022193D01*
X068443Y022250D02*
X068443Y021895D01*
X068663Y021895D01*
X068691Y021902D01*
X068716Y021917D01*
X068737Y021937D01*
X068751Y021962D01*
X068759Y021990D01*
X068759Y022250D01*
X068443Y022250D01*
X068443Y022291D02*
X068775Y022291D01*
X068775Y022193D02*
X068759Y022193D01*
X068759Y022094D02*
X068775Y022094D01*
X068775Y021996D02*
X068759Y021996D01*
X068836Y021897D02*
X068673Y021897D01*
X068443Y021897D02*
X068343Y021897D01*
X068343Y021996D02*
X068443Y021996D01*
X068443Y022094D02*
X068343Y022094D01*
X068343Y022390D02*
X068443Y022390D01*
X068443Y022488D02*
X068343Y022488D01*
X068343Y022587D02*
X068443Y022587D01*
X068443Y022685D02*
X068343Y022685D01*
X068073Y022685D02*
X062497Y022685D01*
X062497Y022587D02*
X068027Y022587D01*
X068027Y022488D02*
X062497Y022488D01*
X062497Y022390D02*
X068027Y022390D01*
X068112Y021897D02*
X062497Y021897D01*
X062497Y021799D02*
X068911Y021799D01*
X068911Y021700D02*
X062497Y021700D01*
X062037Y021700D02*
X057312Y021700D01*
X057312Y021602D02*
X062037Y021602D01*
X062037Y021799D02*
X057312Y021799D01*
X057312Y021897D02*
X062037Y021897D01*
X062037Y021996D02*
X057297Y021996D01*
X057198Y022094D02*
X062037Y022094D01*
X062037Y022193D02*
X057100Y022193D01*
X057001Y022291D02*
X062037Y022291D01*
X062037Y022390D02*
X056903Y022390D01*
X056804Y022488D02*
X062037Y022488D01*
X062037Y022587D02*
X056706Y022587D01*
X056607Y022685D02*
X062037Y022685D01*
X062037Y022784D02*
X056509Y022784D01*
X056410Y022882D02*
X062037Y022882D01*
X062037Y022981D02*
X051812Y022981D01*
X051713Y023079D02*
X062037Y023079D01*
X062037Y023178D02*
X051615Y023178D01*
X051516Y023276D02*
X062037Y023276D01*
X062037Y023375D02*
X051418Y023375D01*
X051319Y023473D02*
X062037Y023473D01*
X062037Y023572D02*
X051221Y023572D01*
X051122Y023670D02*
X062037Y023670D01*
X062037Y023769D02*
X051024Y023769D01*
X050925Y023867D02*
X062037Y023867D01*
X062107Y023966D02*
X050827Y023966D01*
X050728Y024064D02*
X062206Y024064D01*
X062561Y023769D02*
X068472Y023769D01*
X068374Y023867D02*
X062659Y023867D01*
X062758Y023966D02*
X068275Y023966D01*
X068177Y024064D02*
X062856Y024064D01*
X062497Y023670D02*
X068571Y023670D01*
X068669Y023572D02*
X062497Y023572D01*
X062497Y023473D02*
X068768Y023473D01*
X068866Y023375D02*
X062497Y023375D01*
X062497Y023276D02*
X068911Y023276D01*
X068911Y023178D02*
X062497Y023178D01*
X062497Y023079D02*
X068911Y023079D01*
X068911Y022981D02*
X062497Y022981D01*
X062497Y022882D02*
X068911Y022882D01*
X068911Y022784D02*
X062497Y022784D01*
X064586Y024655D02*
X052736Y024655D01*
X052835Y024557D02*
X064684Y024557D01*
X064487Y024754D02*
X052638Y024754D01*
X052539Y024852D02*
X064389Y024852D01*
X064290Y024951D02*
X052441Y024951D01*
X052342Y025049D02*
X064081Y025049D01*
X063996Y025148D02*
X052244Y025148D01*
X052145Y025246D02*
X063959Y025246D01*
X063959Y025345D02*
X052047Y025345D01*
X051948Y025443D02*
X063993Y025443D01*
X064073Y025542D02*
X051850Y025542D01*
X051751Y025640D02*
X075776Y025640D01*
X075735Y025542D02*
X064460Y025542D01*
X064541Y025443D02*
X075705Y025443D01*
X075705Y025345D02*
X064575Y025345D01*
X064645Y025246D02*
X075705Y025246D01*
X075705Y025148D02*
X064744Y025148D01*
X064842Y025049D02*
X075738Y025049D01*
X075779Y024951D02*
X064941Y024951D01*
X065039Y024852D02*
X075794Y024852D01*
X075695Y024754D02*
X065138Y024754D01*
X065236Y024655D02*
X075597Y024655D01*
X075498Y024557D02*
X065335Y024557D01*
X068433Y024458D02*
X075400Y024458D01*
X075301Y024360D02*
X068532Y024360D01*
X068630Y024261D02*
X075203Y024261D01*
X075104Y024163D02*
X068729Y024163D01*
X068827Y024064D02*
X075037Y024064D01*
X075037Y023966D02*
X068926Y023966D01*
X069024Y023867D02*
X075037Y023867D01*
X075037Y023769D02*
X069123Y023769D01*
X069221Y023670D02*
X075037Y023670D01*
X075037Y023572D02*
X069320Y023572D01*
X069371Y023473D02*
X075037Y023473D01*
X075037Y023375D02*
X069371Y023375D01*
X069371Y023276D02*
X075037Y023276D01*
X075037Y023178D02*
X069371Y023178D01*
X069371Y023079D02*
X075037Y023079D01*
X075037Y022981D02*
X069371Y022981D01*
X069371Y022882D02*
X075037Y022882D01*
X075037Y022784D02*
X069371Y022784D01*
X069462Y022685D02*
X072573Y022685D01*
X072569Y022683D02*
X072549Y022663D01*
X072534Y022638D01*
X072527Y022610D01*
X072527Y022350D01*
X072843Y022350D01*
X072843Y022705D01*
X072622Y022705D01*
X072594Y022698D01*
X072569Y022683D01*
X072527Y022587D02*
X069507Y022587D01*
X069507Y022488D02*
X072527Y022488D01*
X072527Y022390D02*
X069507Y022390D01*
X069507Y022291D02*
X072843Y022291D01*
X072843Y022250D02*
X072527Y022250D01*
X072527Y021990D01*
X072534Y021962D01*
X072549Y021937D01*
X072569Y021917D01*
X072594Y021902D01*
X072622Y021895D01*
X072843Y021895D01*
X072843Y022250D01*
X072943Y022250D01*
X072943Y022350D01*
X073259Y022350D01*
X073259Y022610D01*
X073251Y022638D01*
X073237Y022663D01*
X073216Y022683D01*
X073191Y022698D01*
X073163Y022705D01*
X072943Y022705D01*
X072943Y022350D01*
X072843Y022350D01*
X072843Y022250D01*
X072843Y022193D02*
X072943Y022193D01*
X072943Y022250D02*
X072943Y021895D01*
X073163Y021895D01*
X073191Y021902D01*
X073216Y021917D01*
X073237Y021937D01*
X073251Y021962D01*
X073259Y021990D01*
X073259Y022250D01*
X072943Y022250D01*
X072943Y022291D02*
X073275Y022291D01*
X073275Y022193D02*
X073259Y022193D01*
X073259Y022094D02*
X073275Y022094D01*
X073275Y021996D02*
X073259Y021996D01*
X073336Y021897D02*
X073173Y021897D01*
X072943Y021897D02*
X072843Y021897D01*
X072843Y021996D02*
X072943Y021996D01*
X072943Y022094D02*
X072843Y022094D01*
X072843Y022390D02*
X072943Y022390D01*
X072943Y022488D02*
X072843Y022488D01*
X072843Y022587D02*
X072943Y022587D01*
X072943Y022685D02*
X072843Y022685D01*
X073212Y022685D02*
X073319Y022685D01*
X073275Y022587D02*
X073259Y022587D01*
X073259Y022488D02*
X073275Y022488D01*
X073275Y022390D02*
X073259Y022390D01*
X073641Y022300D02*
X073641Y021233D01*
X073700Y021174D01*
X073948Y020912D02*
X074329Y020912D01*
X074427Y020814D02*
X072578Y020814D01*
X072650Y020847D02*
X073135Y020847D01*
X073199Y020912D01*
X073199Y021554D01*
X073135Y021619D01*
X072650Y021619D01*
X072586Y021554D01*
X072586Y020912D01*
X072650Y020847D01*
X072586Y020912D02*
X072479Y020912D01*
X072381Y021011D02*
X072586Y021011D01*
X072586Y021109D02*
X072282Y021109D01*
X072184Y021208D02*
X072586Y021208D01*
X072586Y021306D02*
X072085Y021306D01*
X071987Y021405D02*
X072586Y021405D01*
X072586Y021503D02*
X071857Y021503D01*
X071813Y021602D02*
X072634Y021602D01*
X072612Y021897D02*
X069445Y021897D01*
X069507Y021996D02*
X072527Y021996D01*
X072527Y022094D02*
X069507Y022094D01*
X069507Y022193D02*
X072527Y022193D01*
X073152Y021602D02*
X073382Y021602D01*
X073334Y021503D02*
X073199Y021503D01*
X073199Y021405D02*
X073334Y021405D01*
X073334Y021306D02*
X073199Y021306D01*
X073199Y021208D02*
X073334Y021208D01*
X073334Y021109D02*
X073199Y021109D01*
X073199Y021011D02*
X073334Y021011D01*
X073334Y020912D02*
X073199Y020912D01*
X072987Y020715D02*
X072676Y020715D01*
X072775Y020617D02*
X072960Y020617D01*
X073267Y020367D02*
X073326Y020426D01*
X073574Y020420D02*
X074586Y020420D01*
X074586Y020518D02*
X073574Y020518D01*
X073574Y020617D02*
X074586Y020617D01*
X074526Y020715D02*
X073546Y020715D01*
X073574Y020321D02*
X074586Y020321D01*
X074586Y020223D02*
X073574Y020223D01*
X073574Y020124D02*
X074586Y020124D01*
X074606Y020026D02*
X073556Y020026D01*
X073556Y019927D02*
X075411Y019927D01*
X075411Y019829D02*
X073563Y019829D01*
X073661Y019730D02*
X075372Y019730D01*
X075273Y019632D02*
X073760Y019632D01*
X073858Y019533D02*
X075175Y019533D01*
X075530Y019238D02*
X076361Y019238D01*
X076361Y019156D02*
X076369Y019128D01*
X076383Y019103D01*
X076404Y019082D01*
X076429Y019068D01*
X076457Y019060D01*
X076717Y019060D01*
X076717Y019376D01*
X076817Y019376D01*
X076817Y019476D01*
X077172Y019476D01*
X077172Y019696D01*
X077164Y019724D01*
X077150Y019749D01*
X077129Y019770D01*
X077104Y019784D01*
X077076Y019792D01*
X076817Y019792D01*
X076817Y019476D01*
X076717Y019476D01*
X076717Y019792D01*
X076457Y019792D01*
X076429Y019784D01*
X076404Y019770D01*
X076383Y019749D01*
X076369Y019724D01*
X076361Y019696D01*
X076361Y019476D01*
X076717Y019476D01*
X076717Y019376D01*
X076361Y019376D01*
X076361Y019156D01*
X076366Y019139D02*
X075431Y019139D01*
X075628Y019336D02*
X076361Y019336D01*
X076361Y019533D02*
X075825Y019533D01*
X075871Y019632D02*
X076361Y019632D01*
X076372Y019730D02*
X075871Y019730D01*
X075871Y019829D02*
X076405Y019829D01*
X076361Y019927D02*
X075871Y019927D01*
X075928Y020026D02*
X076361Y020026D01*
X076361Y020124D02*
X075948Y020124D01*
X075641Y020367D02*
X076574Y020367D01*
X076767Y020174D01*
X077767Y020174D01*
X077817Y019792D02*
X077817Y019476D01*
X078172Y019476D01*
X078172Y019696D01*
X078164Y019724D01*
X078150Y019749D01*
X078129Y019770D01*
X078104Y019784D01*
X078076Y019792D01*
X077817Y019792D01*
X077817Y019730D02*
X077717Y019730D01*
X077717Y019792D02*
X077457Y019792D01*
X077429Y019784D01*
X077404Y019770D01*
X077383Y019749D01*
X077369Y019724D01*
X077361Y019696D01*
X077361Y019476D01*
X077717Y019476D01*
X077717Y019792D01*
X077717Y019632D02*
X077817Y019632D01*
X077817Y019533D02*
X077717Y019533D01*
X077717Y019476D02*
X077817Y019476D01*
X077817Y019376D01*
X078172Y019376D01*
X078172Y019156D01*
X078164Y019128D01*
X078150Y019103D01*
X078129Y019082D01*
X078104Y019068D01*
X078076Y019060D01*
X077817Y019060D01*
X077817Y019376D01*
X077717Y019376D01*
X077717Y019060D01*
X077457Y019060D01*
X077429Y019068D01*
X077404Y019082D01*
X077383Y019103D01*
X077369Y019128D01*
X077361Y019156D01*
X077361Y019376D01*
X077717Y019376D01*
X077717Y019476D01*
X077717Y019435D02*
X076817Y019435D01*
X076817Y019376D02*
X077172Y019376D01*
X077172Y019156D01*
X077164Y019128D01*
X077150Y019103D01*
X077129Y019082D01*
X077104Y019068D01*
X077076Y019060D01*
X076817Y019060D01*
X076817Y019376D01*
X076817Y019336D02*
X076717Y019336D01*
X076717Y019238D02*
X076817Y019238D01*
X076817Y019139D02*
X076717Y019139D01*
X076717Y019435D02*
X075727Y019435D01*
X075354Y020026D02*
X075180Y020026D01*
X075199Y020124D02*
X075334Y020124D01*
X075334Y020223D02*
X075199Y020223D01*
X075199Y020321D02*
X075334Y020321D01*
X075334Y020420D02*
X075199Y020420D01*
X075199Y020518D02*
X075334Y020518D01*
X075334Y020617D02*
X075199Y020617D01*
X075172Y020715D02*
X075361Y020715D01*
X075574Y020912D02*
X077537Y020912D01*
X077537Y020814D02*
X075078Y020814D01*
X074960Y021011D02*
X074881Y021011D01*
X074960Y021109D02*
X074782Y021109D01*
X074684Y021208D02*
X074960Y021208D01*
X074960Y021306D02*
X074585Y021306D01*
X074487Y021405D02*
X074960Y021405D01*
X074960Y021503D02*
X073948Y021503D01*
X073900Y021602D02*
X075008Y021602D01*
X075037Y021700D02*
X073801Y021700D01*
X073801Y021799D02*
X075037Y021799D01*
X075037Y021897D02*
X073945Y021897D01*
X074007Y021996D02*
X075037Y021996D01*
X075037Y022094D02*
X074007Y022094D01*
X074007Y022193D02*
X075037Y022193D01*
X075037Y022291D02*
X074007Y022291D01*
X074007Y022390D02*
X075037Y022390D01*
X075037Y022488D02*
X074007Y022488D01*
X074007Y022587D02*
X075037Y022587D01*
X075037Y022685D02*
X073962Y022685D01*
X073481Y021799D02*
X069371Y021799D01*
X069371Y021700D02*
X073481Y021700D01*
X072223Y020518D02*
X069739Y020518D01*
X069739Y020420D02*
X072321Y020420D01*
X072420Y020321D02*
X069739Y020321D01*
X069739Y020223D02*
X072518Y020223D01*
X072960Y020124D02*
X069739Y020124D01*
X069739Y020026D02*
X072980Y020026D01*
X073096Y019927D02*
X069739Y019927D01*
X069739Y019829D02*
X073096Y019829D01*
X073096Y019730D02*
X071857Y019730D01*
X071857Y019732D02*
X071849Y019760D01*
X071835Y019785D01*
X071815Y019805D01*
X071789Y019820D01*
X071761Y019827D01*
X071206Y019827D01*
X071206Y019452D01*
X071106Y019452D01*
X071106Y019352D01*
X070456Y019352D01*
X070456Y019073D01*
X070463Y019045D01*
X070478Y019020D01*
X070498Y018999D01*
X070523Y018985D01*
X070551Y018977D01*
X071106Y018977D01*
X071106Y019352D01*
X071206Y019352D01*
X071206Y018977D01*
X071761Y018977D01*
X071789Y018985D01*
X071815Y018999D01*
X071835Y019020D01*
X071849Y019045D01*
X071857Y019073D01*
X071857Y019352D01*
X071206Y019352D01*
X071206Y019452D01*
X071857Y019452D01*
X071857Y019732D01*
X071857Y019632D02*
X073109Y019632D01*
X073208Y019533D02*
X071857Y019533D01*
X071857Y019336D02*
X073405Y019336D01*
X073379Y019238D02*
X071857Y019238D01*
X071857Y019139D02*
X073281Y019139D01*
X073182Y019041D02*
X071847Y019041D01*
X071206Y019041D02*
X071106Y019041D01*
X071106Y019139D02*
X071206Y019139D01*
X071206Y019238D02*
X071106Y019238D01*
X071106Y019336D02*
X071206Y019336D01*
X071206Y019435D02*
X073306Y019435D01*
X073734Y018942D02*
X078967Y018942D01*
X078967Y018844D02*
X073636Y018844D01*
X073537Y018745D02*
X078967Y018745D01*
X078967Y018647D02*
X073439Y018647D01*
X073340Y018548D02*
X078967Y018548D01*
X078967Y018450D02*
X073242Y018450D01*
X073143Y018351D02*
X078967Y018351D01*
X078967Y018253D02*
X073045Y018253D01*
X072946Y018154D02*
X078967Y018154D01*
X078967Y018056D02*
X072848Y018056D01*
X072749Y017957D02*
X078967Y017957D01*
X078967Y017859D02*
X072651Y017859D01*
X072552Y017760D02*
X078967Y017760D01*
X078967Y017662D02*
X072454Y017662D01*
X072355Y017563D02*
X078967Y017563D01*
X078967Y017465D02*
X072257Y017465D01*
X072158Y017366D02*
X078967Y017366D01*
X078967Y017268D02*
X072060Y017268D01*
X071961Y017169D02*
X078967Y017169D01*
X078967Y017071D02*
X071863Y017071D01*
X071764Y016972D02*
X078967Y016972D01*
X078967Y016874D02*
X071666Y016874D01*
X071567Y016775D02*
X078967Y016775D01*
X078967Y016677D02*
X071469Y016677D01*
X071370Y016578D02*
X078967Y016578D01*
X078967Y016480D02*
X071272Y016480D01*
X071173Y016381D02*
X078967Y016381D01*
X078942Y016283D02*
X071075Y016283D01*
X070976Y016184D02*
X078802Y016184D01*
X078662Y016086D02*
X070878Y016086D01*
X070779Y015987D02*
X078522Y015987D01*
X078381Y015889D02*
X070681Y015889D01*
X070582Y015790D02*
X078241Y015790D01*
X078101Y015692D02*
X070484Y015692D01*
X070385Y015593D02*
X077960Y015593D01*
X077820Y015495D02*
X070287Y015495D01*
X070188Y015396D02*
X077680Y015396D01*
X077540Y015298D02*
X070090Y015298D01*
X069991Y015199D02*
X074744Y015199D01*
X074585Y015101D02*
X069893Y015101D01*
X069794Y015002D02*
X074487Y015002D01*
X074413Y014904D02*
X069696Y014904D01*
X069597Y014805D02*
X074372Y014805D01*
X074331Y014707D02*
X069499Y014707D01*
X069400Y014608D02*
X074315Y014608D01*
X075389Y015199D02*
X077399Y015199D01*
X077259Y015101D02*
X075548Y015101D01*
X075647Y015002D02*
X077119Y015002D01*
X076978Y014904D02*
X075721Y014904D01*
X075761Y014805D02*
X076838Y014805D01*
X076698Y014707D02*
X075802Y014707D01*
X075818Y014608D02*
X076558Y014608D01*
X076417Y014510D02*
X075818Y014510D01*
X075818Y014411D02*
X076277Y014411D01*
X076137Y014313D02*
X075794Y014313D01*
X075753Y014214D02*
X075996Y014214D01*
X075856Y014116D02*
X075712Y014116D01*
X075716Y014017D02*
X075626Y014017D01*
X075575Y013919D02*
X075528Y013919D01*
X075435Y013820D02*
X075341Y013820D01*
X073833Y019041D02*
X078967Y019041D01*
X078967Y019139D02*
X078168Y019139D01*
X078172Y019238D02*
X078967Y019238D01*
X078967Y019336D02*
X078172Y019336D01*
X078172Y019533D02*
X078967Y019533D01*
X078967Y019435D02*
X077817Y019435D01*
X077817Y019336D02*
X077717Y019336D01*
X077717Y019238D02*
X077817Y019238D01*
X077817Y019139D02*
X077717Y019139D01*
X077366Y019139D02*
X077168Y019139D01*
X077172Y019238D02*
X077361Y019238D01*
X077361Y019336D02*
X077172Y019336D01*
X077172Y019533D02*
X077361Y019533D01*
X077361Y019632D02*
X077172Y019632D01*
X077161Y019730D02*
X077372Y019730D01*
X077405Y019829D02*
X077128Y019829D01*
X077172Y019927D02*
X077361Y019927D01*
X077361Y020420D02*
X077172Y020420D01*
X077129Y020518D02*
X077404Y020518D01*
X077537Y020617D02*
X075948Y020617D01*
X075920Y020715D02*
X077537Y020715D01*
X077537Y021011D02*
X075574Y021011D01*
X075574Y021109D02*
X077537Y021109D01*
X077537Y021208D02*
X075574Y021208D01*
X075574Y021306D02*
X077537Y021306D01*
X077537Y021405D02*
X075574Y021405D01*
X075574Y021503D02*
X077537Y021503D01*
X077537Y021602D02*
X075526Y021602D01*
X075497Y021700D02*
X077537Y021700D01*
X077537Y021799D02*
X075497Y021799D01*
X075497Y021897D02*
X077537Y021897D01*
X077537Y021996D02*
X075497Y021996D01*
X075497Y022094D02*
X077537Y022094D01*
X077537Y022193D02*
X075497Y022193D01*
X075497Y022291D02*
X077537Y022291D01*
X077537Y022390D02*
X075497Y022390D01*
X075497Y022488D02*
X077537Y022488D01*
X077537Y022587D02*
X075497Y022587D01*
X075497Y022685D02*
X077537Y022685D01*
X077537Y022784D02*
X075497Y022784D01*
X075497Y022882D02*
X077537Y022882D01*
X077537Y022981D02*
X075497Y022981D01*
X075497Y023079D02*
X077537Y023079D01*
X077537Y023178D02*
X075497Y023178D01*
X075497Y023276D02*
X077537Y023276D01*
X077537Y023375D02*
X075497Y023375D01*
X075497Y023473D02*
X077537Y023473D01*
X077537Y023572D02*
X075497Y023572D01*
X075497Y023670D02*
X077537Y023670D01*
X077537Y023769D02*
X075497Y023769D01*
X075497Y023867D02*
X077537Y023867D01*
X077537Y023966D02*
X075558Y023966D01*
X075656Y024064D02*
X077537Y024064D01*
X077537Y024163D02*
X075755Y024163D01*
X075853Y024261D02*
X077537Y024261D01*
X077537Y024360D02*
X075952Y024360D01*
X076050Y024458D02*
X076348Y024458D01*
X076785Y024458D02*
X077537Y024458D01*
X077537Y024557D02*
X077023Y024557D01*
X077140Y024655D02*
X077537Y024655D01*
X077537Y024754D02*
X077239Y024754D01*
X077313Y024852D02*
X077537Y024852D01*
X077537Y024951D02*
X077354Y024951D01*
X077395Y025049D02*
X077537Y025049D01*
X077537Y025148D02*
X077428Y025148D01*
X077428Y025246D02*
X077537Y025246D01*
X077537Y025345D02*
X077428Y025345D01*
X077428Y025443D02*
X077537Y025443D01*
X077499Y025542D02*
X077399Y025542D01*
X077401Y025640D02*
X077358Y025640D01*
X077657Y026034D02*
X078516Y026034D01*
X078385Y025936D02*
X077756Y025936D01*
X077854Y025837D02*
X078294Y025837D01*
X078226Y025739D02*
X077953Y025739D01*
X077997Y025640D02*
X078176Y025640D01*
X078140Y025542D02*
X077997Y025542D01*
X077997Y025443D02*
X078117Y025443D01*
X077997Y025345D02*
X078917Y025345D01*
X078917Y025250D02*
X078105Y025250D01*
X078105Y025244D01*
X078120Y025132D01*
X078149Y025023D01*
X078193Y024918D01*
X078249Y024821D01*
X078318Y024731D01*
X078398Y024651D01*
X078487Y024582D01*
X078585Y024526D01*
X078689Y024483D01*
X078798Y024454D01*
X078910Y024439D01*
X078917Y024439D01*
X078917Y025250D01*
X078917Y025246D02*
X078967Y025246D01*
X078967Y025148D02*
X078917Y025148D01*
X078917Y025049D02*
X078967Y025049D01*
X078967Y024951D02*
X078917Y024951D01*
X078917Y024852D02*
X078967Y024852D01*
X078967Y024754D02*
X078917Y024754D01*
X078917Y024655D02*
X078967Y024655D01*
X078967Y024557D02*
X078917Y024557D01*
X078917Y024458D02*
X078967Y024458D01*
X078967Y024360D02*
X077997Y024360D01*
X077997Y024458D02*
X078780Y024458D01*
X078531Y024557D02*
X077997Y024557D01*
X077997Y024655D02*
X078393Y024655D01*
X078300Y024754D02*
X077997Y024754D01*
X077997Y024852D02*
X078231Y024852D01*
X078179Y024951D02*
X077997Y024951D01*
X077997Y025049D02*
X078142Y025049D01*
X078118Y025148D02*
X077997Y025148D01*
X077997Y025246D02*
X078105Y025246D01*
X078917Y025443D02*
X078967Y025443D01*
X078967Y025542D02*
X078917Y025542D01*
X078917Y025640D02*
X078967Y025640D01*
X078967Y025739D02*
X078917Y025739D01*
X078917Y025837D02*
X078967Y025837D01*
X078967Y025936D02*
X078917Y025936D01*
X078917Y026034D02*
X078967Y026034D01*
X078967Y026133D02*
X078917Y026133D01*
X078967Y026231D02*
X077460Y026231D01*
X077559Y026133D02*
X078748Y026133D01*
X078967Y026330D02*
X077362Y026330D01*
X077385Y026426D02*
X077489Y026383D01*
X077598Y026354D01*
X077710Y026339D01*
X077717Y026339D01*
X077717Y027150D01*
X077817Y027150D01*
X077817Y027250D01*
X078628Y027250D01*
X078628Y027256D01*
X078613Y027368D01*
X078584Y027477D01*
X078541Y027582D01*
X078484Y027679D01*
X078416Y027769D01*
X078336Y027849D01*
X078246Y027918D01*
X078148Y027974D01*
X078044Y028017D01*
X077935Y028046D01*
X077823Y028061D01*
X077817Y028061D01*
X077817Y027250D01*
X077717Y027250D01*
X077717Y028061D01*
X077710Y028061D01*
X077598Y028046D01*
X077489Y028017D01*
X077385Y027974D01*
X077287Y027918D01*
X077198Y027849D01*
X077118Y027769D01*
X077049Y027679D01*
X076993Y027582D01*
X076949Y027477D01*
X076920Y027368D01*
X076905Y027256D01*
X076905Y027250D01*
X077717Y027250D01*
X077717Y027150D01*
X076905Y027150D01*
X076905Y027144D01*
X076920Y027032D01*
X076949Y026923D01*
X076993Y026818D01*
X077049Y026721D01*
X077118Y026631D01*
X077198Y026551D01*
X077287Y026482D01*
X077385Y026426D01*
X077381Y026428D02*
X077263Y026428D01*
X077229Y026527D02*
X077165Y026527D01*
X077123Y026625D02*
X077066Y026625D01*
X077047Y026724D02*
X076968Y026724D01*
X076991Y026822D02*
X076869Y026822D01*
X076950Y026921D02*
X076771Y026921D01*
X076672Y027019D02*
X076923Y027019D01*
X076909Y027118D02*
X076574Y027118D01*
X076475Y027216D02*
X077717Y027216D01*
X077717Y027118D02*
X077817Y027118D01*
X077817Y027150D02*
X077817Y026339D01*
X077823Y026339D01*
X077935Y026354D01*
X078044Y026383D01*
X078148Y026426D01*
X078246Y026482D01*
X078336Y026551D01*
X078416Y026631D01*
X078484Y026721D01*
X078541Y026818D01*
X078584Y026923D01*
X078613Y027032D01*
X078628Y027144D01*
X078628Y027150D01*
X077817Y027150D01*
X077817Y027216D02*
X078967Y027216D01*
X078967Y027118D02*
X078624Y027118D01*
X078610Y027019D02*
X078967Y027019D01*
X078967Y026921D02*
X078583Y026921D01*
X078542Y026822D02*
X078967Y026822D01*
X078967Y026724D02*
X078486Y026724D01*
X078410Y026625D02*
X078967Y026625D01*
X078967Y026527D02*
X078304Y026527D01*
X078153Y026428D02*
X078967Y026428D01*
X077817Y026428D02*
X077717Y026428D01*
X077717Y026527D02*
X077817Y026527D01*
X077817Y026625D02*
X077717Y026625D01*
X077717Y026724D02*
X077817Y026724D01*
X077817Y026822D02*
X077717Y026822D01*
X077717Y026921D02*
X077817Y026921D01*
X077817Y027019D02*
X077717Y027019D01*
X077717Y027315D02*
X077817Y027315D01*
X077817Y027413D02*
X077717Y027413D01*
X077717Y027512D02*
X077817Y027512D01*
X077817Y027610D02*
X077717Y027610D01*
X077717Y027709D02*
X077817Y027709D01*
X077817Y027807D02*
X077717Y027807D01*
X077717Y027906D02*
X077817Y027906D01*
X077817Y028004D02*
X077717Y028004D01*
X077459Y028004D02*
X075687Y028004D01*
X075786Y027906D02*
X077272Y027906D01*
X077156Y027807D02*
X075884Y027807D01*
X075983Y027709D02*
X077072Y027709D01*
X077009Y027610D02*
X076081Y027610D01*
X076180Y027512D02*
X076964Y027512D01*
X076932Y027413D02*
X076278Y027413D01*
X076377Y027315D02*
X076913Y027315D01*
X076317Y026724D02*
X050997Y026724D01*
X050997Y026822D02*
X076219Y026822D01*
X076120Y026921D02*
X050997Y026921D01*
X050997Y027019D02*
X076022Y027019D01*
X075923Y027118D02*
X050997Y027118D01*
X050997Y027216D02*
X075825Y027216D01*
X075726Y027315D02*
X057284Y027315D01*
X057329Y027413D02*
X075628Y027413D01*
X075529Y027512D02*
X057329Y027512D01*
X057329Y027610D02*
X075431Y027610D01*
X075332Y027709D02*
X057329Y027709D01*
X057329Y027807D02*
X074034Y027807D01*
X073935Y027906D02*
X057329Y027906D01*
X057329Y028004D02*
X073837Y028004D01*
X073738Y028103D02*
X057329Y028103D01*
X057329Y028201D02*
X061639Y028201D01*
X061540Y028300D02*
X057269Y028300D01*
X056485Y028937D02*
X056499Y028962D01*
X056507Y028990D01*
X056507Y029250D01*
X056191Y029250D01*
X056191Y029350D01*
X056507Y029350D01*
X056507Y029610D01*
X056499Y029638D01*
X056485Y029663D01*
X056464Y029683D01*
X056439Y029698D01*
X056411Y029705D01*
X056191Y029705D01*
X056191Y029350D01*
X056091Y029350D01*
X056091Y029705D01*
X055870Y029705D01*
X055842Y029698D01*
X055817Y029683D01*
X055797Y029663D01*
X055782Y029638D01*
X055775Y029610D01*
X055775Y029350D01*
X056091Y029350D01*
X056091Y029250D01*
X056191Y029250D01*
X056191Y028895D01*
X056411Y028895D01*
X056439Y028902D01*
X056464Y028917D01*
X056485Y028937D01*
X056506Y028990D02*
X060851Y028990D01*
X060752Y029088D02*
X058080Y029088D01*
X058085Y029089D02*
X058110Y029104D01*
X058130Y029124D01*
X058145Y029149D01*
X058152Y029177D01*
X058152Y029502D01*
X057817Y029502D01*
X057817Y029602D01*
X058152Y029602D01*
X058152Y029927D01*
X058145Y029955D01*
X058130Y029980D01*
X058110Y030000D01*
X058085Y030015D01*
X058057Y030022D01*
X057817Y030022D01*
X057817Y029602D01*
X057717Y029602D01*
X057717Y030022D01*
X057477Y030022D01*
X057449Y030015D01*
X057424Y030000D01*
X057403Y029980D01*
X057389Y029955D01*
X057381Y029927D01*
X057381Y029602D01*
X057717Y029602D01*
X057717Y029502D01*
X057817Y029502D01*
X057817Y029082D01*
X058057Y029082D01*
X058085Y029089D01*
X058152Y029187D02*
X060654Y029187D01*
X060555Y029285D02*
X058152Y029285D01*
X058152Y029384D02*
X060457Y029384D01*
X060358Y029482D02*
X058152Y029482D01*
X058152Y029679D02*
X060161Y029679D01*
X060063Y029778D02*
X058152Y029778D01*
X058152Y029876D02*
X059964Y029876D01*
X059866Y029975D02*
X058133Y029975D01*
X057817Y029975D02*
X057717Y029975D01*
X057717Y029876D02*
X057817Y029876D01*
X057817Y029778D02*
X057717Y029778D01*
X057717Y029679D02*
X057817Y029679D01*
X057817Y029581D02*
X060260Y029581D01*
X060515Y029778D02*
X067417Y029778D01*
X067429Y029784D02*
X067404Y029770D01*
X067383Y029749D01*
X067369Y029724D01*
X067361Y029696D01*
X067361Y029476D01*
X067717Y029476D01*
X067717Y029792D01*
X067457Y029792D01*
X067429Y029784D01*
X067361Y029876D02*
X060417Y029876D01*
X060318Y029975D02*
X067361Y029975D01*
X067361Y030073D02*
X060220Y030073D01*
X060121Y030172D02*
X067361Y030172D01*
X067361Y030270D02*
X060023Y030270D01*
X059924Y030369D02*
X067351Y030369D01*
X067351Y030467D02*
X059826Y030467D01*
X059727Y030566D02*
X067351Y030566D01*
X067351Y030664D02*
X059629Y030664D01*
X059530Y030763D02*
X067263Y030763D01*
X067511Y030936D02*
X066131Y030936D01*
X065267Y031800D01*
X053767Y031800D01*
X053267Y031300D02*
X052267Y032300D01*
X052267Y032800D01*
X052609Y033143D01*
X052957Y033143D01*
X052957Y033457D02*
X064608Y033457D01*
X066030Y034880D01*
X065663Y034900D02*
X065092Y034900D01*
X065191Y034998D02*
X065682Y034998D01*
X065727Y035097D02*
X065289Y035097D01*
X065388Y035195D02*
X065831Y035195D01*
X065585Y035392D02*
X070037Y035392D01*
X070037Y035294D02*
X065486Y035294D01*
X065683Y035491D02*
X070037Y035491D01*
X069897Y035589D02*
X066259Y035589D01*
X066348Y035688D02*
X069861Y035688D01*
X069861Y035786D02*
X066389Y035786D01*
X066398Y035885D02*
X069861Y035885D01*
X069861Y035983D02*
X066386Y035983D01*
X066345Y036082D02*
X069861Y036082D01*
X069861Y036180D02*
X066250Y036180D01*
X066104Y036513D02*
X066239Y036568D01*
X066342Y036672D01*
X066398Y036807D01*
X066398Y036953D01*
X066342Y037088D01*
X066239Y037192D01*
X066104Y037247D01*
X065957Y037247D01*
X065822Y037192D01*
X065719Y037088D01*
X065699Y037040D01*
X064780Y037040D01*
X064200Y036460D01*
X061361Y036460D01*
X061284Y036646D01*
X061112Y036817D01*
X060888Y036910D01*
X060645Y036910D01*
X060421Y036817D01*
X060250Y036646D01*
X060157Y036421D01*
X060157Y036179D01*
X060250Y035954D01*
X060421Y035783D01*
X060645Y035690D01*
X060888Y035690D01*
X061112Y035783D01*
X061284Y035954D01*
X061361Y036140D01*
X064333Y036140D01*
X064427Y036234D01*
X064913Y036720D01*
X065699Y036720D01*
X065719Y036672D01*
X065822Y036568D01*
X065957Y036513D01*
X066104Y036513D01*
X066244Y036574D02*
X069861Y036574D01*
X069861Y036476D02*
X064668Y036476D01*
X064767Y036574D02*
X065817Y036574D01*
X065719Y036673D02*
X064865Y036673D01*
X064847Y036880D02*
X064267Y036300D01*
X060767Y036300D01*
X061336Y036082D02*
X065716Y036082D01*
X065675Y035983D02*
X061296Y035983D01*
X061214Y035885D02*
X062592Y035885D01*
X062624Y035895D02*
X062533Y035865D01*
X062447Y035822D01*
X062369Y035765D01*
X062301Y035697D01*
X062245Y035620D01*
X062201Y035534D01*
X062172Y035443D01*
X062157Y035348D01*
X062157Y035330D01*
X062737Y035330D01*
X062737Y035910D01*
X062719Y035910D01*
X062624Y035895D01*
X062737Y035885D02*
X062797Y035885D01*
X062797Y035910D02*
X062815Y035910D01*
X062910Y035895D01*
X063001Y035865D01*
X063086Y035822D01*
X063164Y035765D01*
X063232Y035697D01*
X063288Y035620D01*
X063332Y035534D01*
X063362Y035443D01*
X063377Y035348D01*
X063377Y035330D01*
X062797Y035330D01*
X062797Y035270D01*
X063377Y035270D01*
X063377Y035252D01*
X063362Y035157D01*
X063332Y035066D01*
X063288Y034980D01*
X063232Y034903D01*
X063164Y034835D01*
X063086Y034778D01*
X063001Y034735D01*
X062910Y034705D01*
X062815Y034690D01*
X062797Y034690D01*
X062797Y035270D01*
X062737Y035270D01*
X062737Y034690D01*
X062719Y034690D01*
X062624Y034705D01*
X062533Y034735D01*
X062447Y034778D01*
X062369Y034835D01*
X062301Y034903D01*
X062245Y034980D01*
X062201Y035066D01*
X062172Y035157D01*
X062157Y035252D01*
X062157Y035270D01*
X062737Y035270D01*
X062737Y035330D01*
X062797Y035330D01*
X062797Y035910D01*
X062797Y035786D02*
X062737Y035786D01*
X062737Y035688D02*
X062797Y035688D01*
X062797Y035589D02*
X062737Y035589D01*
X062737Y035491D02*
X062797Y035491D01*
X062797Y035392D02*
X062737Y035392D01*
X062737Y035294D02*
X055427Y035294D01*
X055427Y035392D02*
X062164Y035392D01*
X062187Y035491D02*
X055427Y035491D01*
X055636Y035589D02*
X062229Y035589D01*
X062294Y035688D02*
X055672Y035688D01*
X055672Y035786D02*
X060418Y035786D01*
X060319Y035885D02*
X055672Y035885D01*
X055672Y035983D02*
X060238Y035983D01*
X060197Y036082D02*
X055672Y036082D01*
X055672Y036180D02*
X060157Y036180D01*
X060157Y036279D02*
X055621Y036279D01*
X055608Y036308D02*
X055672Y036373D01*
X055672Y036975D01*
X055608Y037040D01*
X055427Y037040D01*
X055427Y037234D01*
X055927Y037734D01*
X055927Y039866D01*
X055833Y039960D01*
X055333Y040460D01*
X054700Y040460D01*
X054607Y040366D01*
X054107Y039866D01*
X054107Y039568D01*
X054010Y039665D01*
X053852Y039730D01*
X053681Y039730D01*
X053523Y039665D01*
X053402Y039544D01*
X053337Y039386D01*
X053337Y039214D01*
X053371Y039131D01*
X053200Y038960D01*
X053107Y038866D01*
X053107Y038564D01*
X053095Y038580D01*
X053047Y038628D01*
X052992Y038668D01*
X052932Y038698D01*
X052867Y038719D01*
X052805Y038729D01*
X052805Y038339D01*
X052728Y038339D01*
X052728Y038729D01*
X052666Y038719D01*
X052602Y038698D01*
X052541Y038668D01*
X052487Y038628D01*
X052439Y038580D01*
X052399Y038525D01*
X052368Y038465D01*
X052347Y038401D01*
X052337Y038339D01*
X052728Y038339D01*
X052728Y038261D01*
X052805Y038261D01*
X052805Y037871D01*
X052867Y037881D01*
X052932Y037902D01*
X052992Y037932D01*
X053047Y037972D01*
X053095Y038020D01*
X053107Y038036D01*
X053107Y037040D01*
X052926Y037040D01*
X052861Y036975D01*
X052861Y036373D01*
X052926Y036308D01*
X053608Y036308D01*
X053672Y036373D01*
X053672Y036975D01*
X053608Y037040D01*
X053427Y037040D01*
X053427Y038032D01*
X053523Y037935D01*
X053681Y037870D01*
X053852Y037870D01*
X054010Y037935D01*
X054131Y038056D01*
X054197Y038214D01*
X054197Y038386D01*
X054162Y038469D01*
X054333Y038640D01*
X054427Y038734D01*
X054427Y039032D01*
X054523Y038935D01*
X054681Y038870D01*
X054852Y038870D01*
X054936Y038905D01*
X055107Y038734D01*
X055107Y038568D01*
X055010Y038665D01*
X054852Y038730D01*
X054681Y038730D01*
X054523Y038665D01*
X054402Y038544D01*
X054337Y038386D01*
X054337Y038214D01*
X054402Y038056D01*
X054523Y037935D01*
X054681Y037870D01*
X054852Y037870D01*
X055010Y037935D01*
X055107Y038032D01*
X055107Y037866D01*
X054280Y037040D01*
X053926Y037040D01*
X053861Y036975D01*
X053861Y036373D01*
X053926Y036308D01*
X054608Y036308D01*
X054672Y036373D01*
X054672Y036975D01*
X054670Y036977D01*
X055427Y037734D01*
X055427Y038866D01*
X055333Y038960D01*
X055333Y038960D01*
X055162Y039131D01*
X055197Y039214D01*
X055197Y039386D01*
X055131Y039544D01*
X055010Y039665D01*
X054852Y039730D01*
X054681Y039730D01*
X054523Y039665D01*
X054427Y039568D01*
X054427Y039734D01*
X054833Y040140D01*
X055200Y040140D01*
X055607Y039734D01*
X055607Y037866D01*
X055107Y037366D01*
X055107Y037040D01*
X054926Y037040D01*
X054861Y036975D01*
X054861Y036373D01*
X054926Y036308D01*
X055608Y036308D01*
X055672Y036377D02*
X060157Y036377D01*
X060179Y036476D02*
X055672Y036476D01*
X055672Y036574D02*
X060220Y036574D01*
X060277Y036673D02*
X055672Y036673D01*
X055672Y036771D02*
X060375Y036771D01*
X060548Y036870D02*
X055672Y036870D01*
X055672Y036968D02*
X062244Y036968D01*
X062250Y036954D02*
X062421Y036783D01*
X062645Y036690D01*
X062888Y036690D01*
X063112Y036783D01*
X063284Y036954D01*
X063377Y037179D01*
X063377Y037421D01*
X063284Y037646D01*
X063112Y037817D01*
X062997Y037865D01*
X062997Y038395D01*
X062862Y038530D01*
X062623Y038769D01*
X062623Y038895D01*
X062694Y038895D01*
X062759Y038959D01*
X062759Y039641D01*
X062694Y039705D01*
X062091Y039705D01*
X062027Y039641D01*
X062027Y038959D01*
X062091Y038895D01*
X062163Y038895D01*
X062163Y038579D01*
X062537Y038205D01*
X062537Y037865D01*
X062421Y037817D01*
X062250Y037646D01*
X062157Y037421D01*
X062157Y037179D01*
X062250Y036954D01*
X062334Y036870D02*
X060986Y036870D01*
X061158Y036771D02*
X062450Y036771D01*
X062203Y037067D02*
X055427Y037067D01*
X055427Y037165D02*
X062162Y037165D01*
X062157Y037264D02*
X055456Y037264D01*
X055555Y037362D02*
X062157Y037362D01*
X062173Y037461D02*
X055653Y037461D01*
X055752Y037559D02*
X062214Y037559D01*
X062262Y037658D02*
X055850Y037658D01*
X055927Y037756D02*
X062360Y037756D01*
X062511Y037855D02*
X055927Y037855D01*
X055927Y037953D02*
X062537Y037953D01*
X062537Y038052D02*
X055927Y038052D01*
X055927Y038150D02*
X062537Y038150D01*
X062493Y038249D02*
X055927Y038249D01*
X055927Y038347D02*
X062394Y038347D01*
X062296Y038446D02*
X055927Y038446D01*
X055927Y038544D02*
X062197Y038544D01*
X062163Y038643D02*
X055927Y038643D01*
X055927Y038741D02*
X062163Y038741D01*
X062163Y038840D02*
X055927Y038840D01*
X055927Y038938D02*
X062048Y038938D01*
X062027Y039037D02*
X055927Y039037D01*
X055927Y039135D02*
X062027Y039135D01*
X062027Y039234D02*
X055927Y039234D01*
X055927Y039332D02*
X062027Y039332D01*
X062027Y039431D02*
X055927Y039431D01*
X055927Y039529D02*
X062027Y039529D01*
X062027Y039628D02*
X055927Y039628D01*
X055927Y039726D02*
X078967Y039726D01*
X078967Y039628D02*
X063507Y039628D01*
X063507Y039641D02*
X063442Y039705D01*
X062839Y039705D01*
X062775Y039641D01*
X062775Y038959D01*
X062839Y038895D01*
X063442Y038895D01*
X063507Y038959D01*
X063507Y039070D01*
X063671Y039070D01*
X064957Y037785D01*
X065091Y037650D01*
X065741Y037650D01*
X065822Y037568D01*
X065957Y037513D01*
X066104Y037513D01*
X066239Y037568D01*
X066342Y037672D01*
X066398Y037807D01*
X066398Y037953D01*
X070017Y037953D01*
X070017Y037855D02*
X066398Y037855D01*
X066398Y037953D02*
X066342Y038088D01*
X066239Y038192D01*
X066104Y038247D01*
X065957Y038247D01*
X065822Y038192D01*
X065741Y038110D01*
X065282Y038110D01*
X063997Y039395D01*
X063862Y039530D01*
X063507Y039530D01*
X063507Y039641D01*
X063863Y039529D02*
X078967Y039529D01*
X078967Y039431D02*
X063961Y039431D01*
X064060Y039332D02*
X078967Y039332D01*
X078967Y039234D02*
X070436Y039234D01*
X070400Y039270D02*
X070617Y039053D01*
X070617Y038747D01*
X070477Y038607D01*
X070477Y037040D01*
X070608Y037040D01*
X070672Y036975D01*
X070672Y036373D01*
X070608Y036308D01*
X069926Y036308D01*
X069861Y036373D01*
X069861Y036975D01*
X069926Y037040D01*
X070017Y037040D01*
X070017Y038607D01*
X069877Y038747D01*
X069877Y039053D01*
X070093Y039270D01*
X070400Y039270D01*
X070535Y039135D02*
X078967Y039135D01*
X078967Y039037D02*
X070617Y039037D01*
X070617Y038938D02*
X078967Y038938D01*
X078967Y038840D02*
X070617Y038840D01*
X070611Y038741D02*
X078967Y038741D01*
X078967Y038643D02*
X070512Y038643D01*
X070477Y038544D02*
X078967Y038544D01*
X078967Y038446D02*
X070477Y038446D01*
X070477Y038347D02*
X078967Y038347D01*
X078967Y038249D02*
X070477Y038249D01*
X070477Y038150D02*
X078967Y038150D01*
X078967Y038052D02*
X070477Y038052D01*
X070477Y037953D02*
X078967Y037953D01*
X078967Y037855D02*
X070477Y037855D01*
X070477Y037756D02*
X078967Y037756D01*
X078967Y037658D02*
X070477Y037658D01*
X070477Y037559D02*
X078967Y037559D01*
X078967Y037461D02*
X070477Y037461D01*
X070477Y037362D02*
X078967Y037362D01*
X078967Y037264D02*
X070477Y037264D01*
X070477Y037165D02*
X078967Y037165D01*
X078967Y037067D02*
X070477Y037067D01*
X070672Y036968D02*
X078967Y036968D01*
X078967Y036870D02*
X070672Y036870D01*
X070672Y036771D02*
X078967Y036771D01*
X078967Y036673D02*
X070672Y036673D01*
X070672Y036574D02*
X078967Y036574D01*
X078967Y036476D02*
X070672Y036476D01*
X070672Y036377D02*
X078967Y036377D01*
X078967Y036279D02*
X070621Y036279D01*
X070672Y036180D02*
X078967Y036180D01*
X078967Y036082D02*
X070672Y036082D01*
X070672Y035983D02*
X078967Y035983D01*
X078967Y035885D02*
X070672Y035885D01*
X070672Y035786D02*
X078967Y035786D01*
X078967Y035688D02*
X070672Y035688D01*
X070636Y035589D02*
X078967Y035589D01*
X078967Y035491D02*
X070497Y035491D01*
X070497Y035392D02*
X078967Y035392D01*
X078967Y035294D02*
X070497Y035294D01*
X070497Y035195D02*
X078967Y035195D01*
X078967Y035097D02*
X070497Y035097D01*
X070649Y034998D02*
X078967Y034998D01*
X078967Y034900D02*
X072492Y034900D01*
X072591Y034801D02*
X078967Y034801D01*
X078967Y034703D02*
X072689Y034703D01*
X072788Y034604D02*
X078967Y034604D01*
X078967Y034506D02*
X072886Y034506D01*
X072985Y034407D02*
X078967Y034407D01*
X078967Y034309D02*
X073083Y034309D01*
X073182Y034210D02*
X078967Y034210D01*
X078967Y034112D02*
X073280Y034112D01*
X073379Y034013D02*
X078967Y034013D01*
X078967Y033915D02*
X073477Y033915D01*
X073576Y033816D02*
X078967Y033816D01*
X078967Y033718D02*
X073674Y033718D01*
X073773Y033619D02*
X078967Y033619D01*
X078967Y033521D02*
X073871Y033521D01*
X073970Y033422D02*
X078967Y033422D01*
X078967Y033324D02*
X073997Y033324D01*
X073997Y033225D02*
X078967Y033225D01*
X078967Y033127D02*
X073997Y033127D01*
X073997Y033028D02*
X078967Y033028D01*
X078967Y032930D02*
X073997Y032930D01*
X073997Y032831D02*
X078967Y032831D01*
X078967Y032733D02*
X073997Y032733D01*
X073997Y032634D02*
X076167Y032634D01*
X076199Y032667D02*
X076078Y032545D01*
X076012Y032386D01*
X076012Y032214D01*
X076078Y032055D01*
X076199Y031933D01*
X076358Y031868D01*
X077175Y031868D01*
X077334Y031933D01*
X077456Y032055D01*
X077522Y032214D01*
X077522Y032386D01*
X077456Y032545D01*
X077334Y032667D01*
X077175Y032732D01*
X076358Y032732D01*
X076199Y032667D01*
X076074Y032536D02*
X073997Y032536D01*
X073997Y032437D02*
X076033Y032437D01*
X076012Y032339D02*
X073997Y032339D01*
X073997Y032240D02*
X076012Y032240D01*
X076042Y032142D02*
X073997Y032142D01*
X073997Y032043D02*
X076090Y032043D01*
X076188Y031945D02*
X073997Y031945D01*
X073997Y031846D02*
X078967Y031846D01*
X078967Y031748D02*
X073997Y031748D01*
X073997Y031649D02*
X076189Y031649D01*
X076162Y031630D02*
X076114Y031582D01*
X076074Y031527D01*
X076043Y031466D01*
X076022Y031401D01*
X076014Y031350D01*
X076717Y031350D01*
X076717Y031732D01*
X076410Y031732D01*
X076343Y031722D01*
X076278Y031701D01*
X076217Y031670D01*
X076162Y031630D01*
X076092Y031551D02*
X073997Y031551D01*
X073997Y031452D02*
X076039Y031452D01*
X076015Y031354D02*
X073997Y031354D01*
X073997Y031255D02*
X076717Y031255D01*
X076717Y031250D02*
X076014Y031250D01*
X076022Y031199D01*
X076043Y031134D01*
X076074Y031073D01*
X076114Y031018D01*
X076162Y030970D01*
X076217Y030930D01*
X076278Y030899D01*
X076343Y030878D01*
X076410Y030868D01*
X076717Y030868D01*
X076717Y031250D01*
X076817Y031250D01*
X076817Y031350D01*
X077519Y031350D01*
X077511Y031401D01*
X077490Y031466D01*
X077459Y031527D01*
X077419Y031582D01*
X077371Y031630D01*
X077316Y031670D01*
X077255Y031701D01*
X077190Y031722D01*
X077123Y031732D01*
X076817Y031732D01*
X076817Y031350D01*
X076717Y031350D01*
X076717Y031250D01*
X076717Y031157D02*
X076817Y031157D01*
X076817Y031250D02*
X076817Y030868D01*
X077123Y030868D01*
X077190Y030878D01*
X077255Y030899D01*
X077316Y030930D01*
X077371Y030970D01*
X077419Y031018D01*
X077459Y031073D01*
X077490Y031134D01*
X077511Y031199D01*
X077519Y031250D01*
X076817Y031250D01*
X076817Y031255D02*
X078967Y031255D01*
X078967Y031157D02*
X077497Y031157D01*
X077448Y031058D02*
X078967Y031058D01*
X078967Y030960D02*
X077356Y030960D01*
X077337Y030664D02*
X078967Y030664D01*
X078967Y030566D02*
X077435Y030566D01*
X077488Y030467D02*
X078967Y030467D01*
X078967Y030369D02*
X077522Y030369D01*
X077522Y030270D02*
X078967Y030270D01*
X078967Y030172D02*
X077504Y030172D01*
X077463Y030073D02*
X078967Y030073D01*
X078967Y029975D02*
X077375Y029975D01*
X077196Y029876D02*
X078967Y029876D01*
X078967Y029778D02*
X074569Y029778D01*
X074668Y029876D02*
X076338Y029876D01*
X076158Y029975D02*
X074766Y029975D01*
X074471Y029679D02*
X078967Y029679D01*
X078967Y029581D02*
X074372Y029581D01*
X074274Y029482D02*
X078967Y029482D01*
X078967Y029384D02*
X074175Y029384D01*
X074077Y029285D02*
X078967Y029285D01*
X078967Y029187D02*
X073997Y029187D01*
X073997Y029088D02*
X078967Y029088D01*
X078967Y028990D02*
X073997Y028990D01*
X073997Y028891D02*
X078967Y028891D01*
X078967Y028793D02*
X073997Y028793D01*
X073997Y028694D02*
X078967Y028694D01*
X078967Y028596D02*
X073997Y028596D01*
X073997Y028497D02*
X078967Y028497D01*
X078967Y028399D02*
X074093Y028399D01*
X074192Y028300D02*
X078967Y028300D01*
X078967Y028201D02*
X075490Y028201D01*
X075589Y028103D02*
X078967Y028103D01*
X078967Y028004D02*
X078075Y028004D01*
X078261Y027906D02*
X078967Y027906D01*
X078967Y027807D02*
X078377Y027807D01*
X078462Y027709D02*
X078967Y027709D01*
X078967Y027610D02*
X078524Y027610D01*
X078570Y027512D02*
X078967Y027512D01*
X078967Y027413D02*
X078601Y027413D01*
X078620Y027315D02*
X078967Y027315D01*
X076810Y026231D02*
X051160Y026231D01*
X051075Y026330D02*
X076711Y026330D01*
X076613Y026428D02*
X051047Y026428D01*
X050997Y026527D02*
X076514Y026527D01*
X076416Y026625D02*
X050997Y026625D01*
X050537Y026625D02*
X050427Y026625D01*
X050427Y026527D02*
X050537Y026527D01*
X050486Y026428D02*
X050427Y026428D01*
X050427Y026330D02*
X050459Y026330D01*
X050462Y026231D02*
X050427Y026231D01*
X050427Y026133D02*
X050502Y026133D01*
X050427Y026034D02*
X050603Y026034D01*
X050427Y025936D02*
X050805Y025936D01*
X050904Y025837D02*
X050427Y025837D01*
X050427Y025739D02*
X051002Y025739D01*
X051101Y025640D02*
X050427Y025640D01*
X050427Y025542D02*
X051199Y025542D01*
X051298Y025443D02*
X050427Y025443D01*
X050427Y025345D02*
X051396Y025345D01*
X051495Y025246D02*
X050427Y025246D01*
X050427Y025148D02*
X051593Y025148D01*
X051692Y025049D02*
X050427Y025049D01*
X050427Y024951D02*
X051790Y024951D01*
X051889Y024852D02*
X050427Y024852D01*
X050427Y024754D02*
X051987Y024754D01*
X052086Y024655D02*
X050427Y024655D01*
X050427Y024557D02*
X052184Y024557D01*
X052283Y024458D02*
X050427Y024458D01*
X050433Y024360D02*
X052381Y024360D01*
X052480Y024261D02*
X050531Y024261D01*
X050630Y024163D02*
X052578Y024163D01*
X049059Y024163D02*
X048427Y024163D01*
X048427Y024261D02*
X049059Y024261D01*
X049059Y024360D02*
X048427Y024360D01*
X048427Y024458D02*
X049059Y024458D01*
X049059Y024557D02*
X048427Y024557D01*
X048427Y024655D02*
X049059Y024655D01*
X049059Y024754D02*
X048427Y024754D01*
X048427Y024852D02*
X049059Y024852D01*
X049059Y024951D02*
X048427Y024951D01*
X048427Y025049D02*
X049059Y025049D01*
X049059Y025148D02*
X048427Y025148D01*
X048427Y025246D02*
X049059Y025246D01*
X049059Y025345D02*
X048427Y025345D01*
X048427Y025443D02*
X049059Y025443D01*
X049059Y025542D02*
X048427Y025542D01*
X048427Y025640D02*
X049059Y025640D01*
X049059Y025739D02*
X048427Y025739D01*
X048427Y025837D02*
X049059Y025837D01*
X049059Y025936D02*
X048427Y025936D01*
X048427Y026034D02*
X049059Y026034D01*
X049059Y026133D02*
X048427Y026133D01*
X048427Y026231D02*
X049059Y026231D01*
X049059Y026330D02*
X048427Y026330D01*
X048427Y026428D02*
X049059Y026428D01*
X049059Y026527D02*
X048427Y026527D01*
X048427Y026625D02*
X049059Y026625D01*
X049059Y026724D02*
X048427Y026724D01*
X048427Y026822D02*
X049059Y026822D01*
X049059Y026921D02*
X048427Y026921D01*
X048427Y027019D02*
X049059Y027019D01*
X049059Y027118D02*
X048427Y027118D01*
X048427Y027216D02*
X049059Y027216D01*
X049059Y027315D02*
X048427Y027315D01*
X048427Y027413D02*
X049059Y027413D01*
X049059Y027512D02*
X048427Y027512D01*
X048427Y027610D02*
X049059Y027610D01*
X049059Y027709D02*
X048427Y027709D01*
X048427Y027807D02*
X049059Y027807D01*
X049059Y027906D02*
X048427Y027906D01*
X048427Y028004D02*
X049059Y028004D01*
X049059Y028103D02*
X048427Y028103D01*
X048427Y028201D02*
X049059Y028201D01*
X049059Y028300D02*
X048427Y028300D01*
X048394Y028399D02*
X049059Y028399D01*
X049059Y028497D02*
X048296Y028497D01*
X048197Y028596D02*
X049059Y028596D01*
X049059Y028694D02*
X048099Y028694D01*
X048000Y028793D02*
X049059Y028793D01*
X049059Y028891D02*
X047902Y028891D01*
X047803Y028990D02*
X049059Y028990D01*
X049059Y029088D02*
X047705Y029088D01*
X047606Y029187D02*
X049059Y029187D01*
X049059Y029285D02*
X047508Y029285D01*
X047409Y029384D02*
X049059Y029384D01*
X049059Y029482D02*
X047311Y029482D01*
X047212Y029581D02*
X049059Y029581D01*
X049059Y029679D02*
X047114Y029679D01*
X047015Y029778D02*
X049059Y029778D01*
X049059Y029876D02*
X046917Y029876D01*
X046818Y029975D02*
X049059Y029975D01*
X049059Y030073D02*
X046720Y030073D01*
X046621Y030172D02*
X049059Y030172D01*
X049059Y030270D02*
X046523Y030270D01*
X046427Y030369D02*
X049059Y030369D01*
X049059Y030467D02*
X046427Y030467D01*
X046427Y030566D02*
X046937Y030566D01*
X046929Y030568D02*
X046957Y030560D01*
X047217Y030560D01*
X047217Y030876D01*
X047317Y030876D01*
X047317Y030976D01*
X047672Y030976D01*
X047672Y031196D01*
X047664Y031224D01*
X047650Y031249D01*
X047629Y031270D01*
X047604Y031284D01*
X047576Y031292D01*
X047317Y031292D01*
X047317Y030976D01*
X047217Y030976D01*
X047217Y031292D01*
X046957Y031292D01*
X046929Y031284D01*
X046904Y031270D01*
X046883Y031249D01*
X046869Y031224D01*
X046861Y031196D01*
X046861Y030976D01*
X047217Y030976D01*
X047217Y030876D01*
X046861Y030876D01*
X046861Y030656D01*
X046869Y030628D01*
X046883Y030603D01*
X046904Y030582D01*
X046929Y030568D01*
X046861Y030664D02*
X046427Y030664D01*
X046427Y030763D02*
X046861Y030763D01*
X046861Y030861D02*
X046427Y030861D01*
X046427Y030960D02*
X047217Y030960D01*
X047217Y031058D02*
X047317Y031058D01*
X047317Y030960D02*
X048217Y030960D01*
X048217Y030976D02*
X048217Y030876D01*
X048317Y030876D01*
X048317Y030976D01*
X048672Y030976D01*
X048672Y031196D01*
X048664Y031224D01*
X048650Y031249D01*
X048629Y031270D01*
X048604Y031284D01*
X048576Y031292D01*
X048317Y031292D01*
X048317Y030976D01*
X048217Y030976D01*
X048217Y031292D01*
X047957Y031292D01*
X047929Y031284D01*
X047904Y031270D01*
X047883Y031249D01*
X047869Y031224D01*
X047861Y031196D01*
X047861Y030976D01*
X048217Y030976D01*
X048217Y031058D02*
X048317Y031058D01*
X048317Y030960D02*
X049059Y030960D01*
X049059Y031058D02*
X048672Y031058D01*
X048672Y031157D02*
X048984Y031157D01*
X048885Y031255D02*
X048644Y031255D01*
X048653Y031354D02*
X048787Y031354D01*
X048688Y031452D02*
X048672Y031452D01*
X048693Y031674D02*
X049219Y031147D01*
X049219Y021769D01*
X048818Y021602D02*
X048427Y021602D01*
X048427Y021700D02*
X048785Y021700D01*
X048785Y021799D02*
X048427Y021799D01*
X048427Y021897D02*
X048802Y021897D01*
X048843Y021996D02*
X048427Y021996D01*
X048427Y022094D02*
X048930Y022094D01*
X049059Y022193D02*
X048427Y022193D01*
X048427Y022291D02*
X049059Y022291D01*
X049059Y022390D02*
X048427Y022390D01*
X048427Y022488D02*
X049059Y022488D01*
X049059Y022587D02*
X048427Y022587D01*
X048427Y022685D02*
X049059Y022685D01*
X049059Y022784D02*
X048427Y022784D01*
X048427Y022882D02*
X049059Y022882D01*
X049059Y022981D02*
X048427Y022981D01*
X048427Y023079D02*
X049059Y023079D01*
X049059Y023178D02*
X048427Y023178D01*
X048427Y023276D02*
X049059Y023276D01*
X049059Y023375D02*
X048427Y023375D01*
X048427Y023473D02*
X049059Y023473D01*
X049059Y023572D02*
X048427Y023572D01*
X048427Y023670D02*
X049059Y023670D01*
X049059Y023769D02*
X048427Y023769D01*
X048427Y023867D02*
X049059Y023867D01*
X049059Y023966D02*
X048427Y023966D01*
X048427Y024064D02*
X049059Y024064D01*
X048107Y024064D02*
X043671Y024064D01*
X043671Y023966D02*
X048107Y023966D01*
X048107Y023867D02*
X043671Y023867D01*
X043671Y023769D02*
X048107Y023769D01*
X048107Y023670D02*
X043671Y023670D01*
X043671Y023572D02*
X048107Y023572D01*
X048107Y023473D02*
X043671Y023473D01*
X043671Y023375D02*
X048107Y023375D01*
X048107Y023276D02*
X043671Y023276D01*
X043671Y023178D02*
X048107Y023178D01*
X048107Y023079D02*
X043671Y023079D01*
X043671Y022981D02*
X048107Y022981D01*
X048107Y022882D02*
X043671Y022882D01*
X043671Y022784D02*
X048107Y022784D01*
X048107Y022685D02*
X043671Y022685D01*
X043671Y022587D02*
X048107Y022587D01*
X048107Y022488D02*
X043671Y022488D01*
X043671Y022390D02*
X048107Y022390D01*
X048427Y021503D02*
X048870Y021503D01*
X048968Y021405D02*
X048427Y021405D01*
X048427Y020518D02*
X056992Y020518D01*
X056992Y020420D02*
X048427Y020420D01*
X054812Y019435D02*
X056992Y019435D01*
X056992Y019533D02*
X054951Y019533D01*
X055016Y019632D02*
X056992Y019632D01*
X056992Y019730D02*
X055053Y019730D01*
X055053Y019829D02*
X056992Y019829D01*
X056992Y019927D02*
X055033Y019927D01*
X054992Y020026D02*
X056992Y020026D01*
X056992Y020124D02*
X054893Y020124D01*
X048107Y024163D02*
X043671Y024163D01*
X043671Y024261D02*
X048107Y024261D01*
X048107Y024360D02*
X043671Y024360D01*
X043671Y024458D02*
X048107Y024458D01*
X048107Y024557D02*
X043671Y024557D01*
X043671Y024655D02*
X048107Y024655D01*
X048107Y024754D02*
X043671Y024754D01*
X043671Y024852D02*
X048107Y024852D01*
X048107Y024951D02*
X043671Y024951D01*
X043671Y025049D02*
X048107Y025049D01*
X048107Y025148D02*
X043671Y025148D01*
X043671Y025246D02*
X048107Y025246D01*
X048107Y025345D02*
X043671Y025345D01*
X043671Y025443D02*
X048107Y025443D01*
X048107Y025542D02*
X043671Y025542D01*
X043671Y025640D02*
X048107Y025640D01*
X048107Y025739D02*
X043671Y025739D01*
X043671Y025837D02*
X048107Y025837D01*
X048107Y025936D02*
X043671Y025936D01*
X043671Y026034D02*
X048107Y026034D01*
X048107Y026133D02*
X043671Y026133D01*
X043671Y026231D02*
X048107Y026231D01*
X048107Y026330D02*
X043671Y026330D01*
X043671Y026428D02*
X048107Y026428D01*
X048107Y026527D02*
X043671Y026527D01*
X043671Y026625D02*
X048107Y026625D01*
X048107Y026724D02*
X043671Y026724D01*
X043671Y026822D02*
X048107Y026822D01*
X048107Y026921D02*
X043671Y026921D01*
X043671Y027019D02*
X048107Y027019D01*
X048107Y027118D02*
X043671Y027118D01*
X043671Y027216D02*
X048107Y027216D01*
X048107Y027315D02*
X043671Y027315D01*
X043671Y027413D02*
X048107Y027413D01*
X048107Y027512D02*
X043671Y027512D01*
X043671Y027610D02*
X048107Y027610D01*
X048107Y027709D02*
X043671Y027709D01*
X043671Y027807D02*
X048107Y027807D01*
X048107Y027906D02*
X043671Y027906D01*
X043671Y028004D02*
X048107Y028004D01*
X048107Y028103D02*
X043671Y028103D01*
X043671Y028201D02*
X048107Y028201D01*
X048040Y028300D02*
X043671Y028300D01*
X043671Y028399D02*
X047942Y028399D01*
X047843Y028497D02*
X043671Y028497D01*
X043671Y028596D02*
X047745Y028596D01*
X047646Y028694D02*
X043671Y028694D01*
X043671Y028793D02*
X047548Y028793D01*
X047449Y028891D02*
X043671Y028891D01*
X043671Y028990D02*
X047351Y028990D01*
X047252Y029088D02*
X043671Y029088D01*
X043671Y029187D02*
X047154Y029187D01*
X047055Y029285D02*
X043671Y029285D01*
X043671Y029384D02*
X046957Y029384D01*
X046858Y029482D02*
X043671Y029482D01*
X043671Y029581D02*
X046760Y029581D01*
X046661Y029679D02*
X043671Y029679D01*
X043671Y029778D02*
X046563Y029778D01*
X046464Y029876D02*
X043671Y029876D01*
X043671Y029975D02*
X046366Y029975D01*
X046267Y030073D02*
X043671Y030073D01*
X043671Y030172D02*
X046169Y030172D01*
X046107Y030270D02*
X043671Y030270D01*
X043671Y030369D02*
X046107Y030369D01*
X046107Y030467D02*
X043671Y030467D01*
X043758Y030566D02*
X046107Y030566D01*
X046107Y030664D02*
X043857Y030664D01*
X043955Y030763D02*
X046107Y030763D01*
X046107Y030861D02*
X044054Y030861D01*
X044152Y030960D02*
X046107Y030960D01*
X046107Y031058D02*
X044251Y031058D01*
X044349Y031157D02*
X046107Y031157D01*
X046107Y031255D02*
X044448Y031255D01*
X044546Y031354D02*
X046107Y031354D01*
X046192Y031452D02*
X044645Y031452D01*
X044743Y031551D02*
X046291Y031551D01*
X046389Y031649D02*
X044842Y031649D01*
X044940Y031748D02*
X046488Y031748D01*
X046645Y031452D02*
X046861Y031452D01*
X046880Y031354D02*
X046546Y031354D01*
X046448Y031255D02*
X046889Y031255D01*
X046861Y031157D02*
X046427Y031157D01*
X046427Y031058D02*
X046861Y031058D01*
X047217Y031157D02*
X047317Y031157D01*
X047317Y031255D02*
X047217Y031255D01*
X047317Y030876D02*
X047672Y030876D01*
X047672Y030656D01*
X047664Y030628D01*
X047650Y030603D01*
X047629Y030582D01*
X047604Y030568D01*
X047576Y030560D01*
X047317Y030560D01*
X047317Y030876D01*
X047317Y030861D02*
X047217Y030861D01*
X047217Y030763D02*
X047317Y030763D01*
X047317Y030664D02*
X047217Y030664D01*
X047217Y030566D02*
X047317Y030566D01*
X047597Y030566D02*
X047937Y030566D01*
X047929Y030568D02*
X047957Y030560D01*
X048217Y030560D01*
X048217Y030876D01*
X047861Y030876D01*
X047861Y030656D01*
X047869Y030628D01*
X047883Y030603D01*
X047904Y030582D01*
X047929Y030568D01*
X047861Y030664D02*
X047672Y030664D01*
X047672Y030763D02*
X047861Y030763D01*
X047861Y030861D02*
X047672Y030861D01*
X047672Y031058D02*
X047861Y031058D01*
X047861Y031157D02*
X047672Y031157D01*
X047644Y031255D02*
X047889Y031255D01*
X047880Y031354D02*
X047653Y031354D01*
X047672Y031452D02*
X047861Y031452D01*
X047861Y031551D02*
X047672Y031551D01*
X047672Y031649D02*
X047861Y031649D01*
X047861Y031748D02*
X047672Y031748D01*
X047672Y031846D02*
X047861Y031846D01*
X047861Y031945D02*
X047672Y031945D01*
X047736Y032043D02*
X048783Y032043D01*
X048834Y032142D02*
X048882Y032142D01*
X048933Y032240D02*
X048980Y032240D01*
X049031Y032339D02*
X049079Y032339D01*
X049164Y032198D02*
X048641Y031674D01*
X048267Y031674D01*
X048693Y031674D01*
X048672Y031945D02*
X048685Y031945D01*
X049039Y031846D02*
X049966Y031846D01*
X049966Y031945D02*
X049137Y031945D01*
X049164Y032198D02*
X049577Y032198D01*
X049982Y032240D02*
X050459Y032240D01*
X050459Y032339D02*
X049975Y032339D01*
X049982Y032437D02*
X050490Y032437D01*
X050566Y032536D02*
X049982Y032536D01*
X049982Y032634D02*
X052107Y032634D01*
X052107Y032536D02*
X050967Y032536D01*
X051043Y032437D02*
X051177Y032437D01*
X051079Y032339D02*
X051075Y032339D01*
X051267Y032300D02*
X051567Y032300D01*
X051739Y032128D01*
X051739Y031610D01*
X051424Y031610D02*
X051424Y031205D01*
X051424Y031610D01*
X051424Y031610D01*
X051424Y032015D01*
X051321Y032015D01*
X051293Y032008D01*
X051269Y031994D01*
X051269Y032076D01*
X051333Y032140D01*
X051500Y032140D01*
X051579Y032061D01*
X051579Y031994D01*
X051555Y032008D01*
X051527Y032015D01*
X051424Y032015D01*
X051424Y031610D01*
X051424Y031610D01*
X051424Y031649D02*
X051424Y031649D01*
X051424Y031551D02*
X051424Y031551D01*
X051424Y031452D02*
X051424Y031452D01*
X051424Y031354D02*
X051424Y031354D01*
X051424Y031255D02*
X051424Y031255D01*
X051424Y031205D02*
X051527Y031205D01*
X051555Y031212D01*
X051580Y031227D01*
X051582Y031228D01*
X051605Y031205D01*
X051873Y031205D01*
X051894Y031226D01*
X051894Y030946D01*
X052107Y030734D01*
X052200Y030640D01*
X052574Y030640D01*
X052981Y030234D01*
X052981Y030172D02*
X051672Y030172D01*
X051672Y030073D02*
X052981Y030073D01*
X052981Y029975D02*
X051317Y029975D01*
X051317Y029976D02*
X051217Y029976D01*
X051217Y030292D01*
X050985Y030292D01*
X051001Y030308D01*
X051608Y030308D01*
X051672Y030373D01*
X051672Y030975D01*
X051608Y031040D01*
X051269Y031040D01*
X051269Y031226D01*
X051293Y031212D01*
X051321Y031205D01*
X051424Y031205D01*
X051269Y031157D02*
X051894Y031157D01*
X051894Y031058D02*
X051269Y031058D01*
X051109Y030831D02*
X051267Y030674D01*
X051141Y030674D01*
X050767Y030300D01*
X050767Y028800D01*
X050997Y028793D02*
X052981Y028793D01*
X052981Y028891D02*
X050997Y028891D01*
X050927Y028990D02*
X052027Y028990D01*
X052034Y028962D01*
X052049Y028937D01*
X052069Y028917D01*
X052094Y028902D01*
X052122Y028895D01*
X052343Y028895D01*
X052343Y029250D01*
X052443Y029250D01*
X052443Y029350D01*
X052759Y029350D01*
X052759Y029610D01*
X052751Y029638D01*
X052737Y029663D01*
X052716Y029683D01*
X052691Y029698D01*
X052663Y029705D01*
X052443Y029705D01*
X052443Y029350D01*
X052343Y029350D01*
X052343Y029705D01*
X052122Y029705D01*
X052094Y029698D01*
X052069Y029683D01*
X052049Y029663D01*
X052034Y029638D01*
X052027Y029610D01*
X052027Y029350D01*
X052343Y029350D01*
X052343Y029250D01*
X052027Y029250D01*
X052027Y028990D01*
X052027Y029088D02*
X050927Y029088D01*
X050927Y029187D02*
X052027Y029187D01*
X052027Y029384D02*
X050927Y029384D01*
X050927Y029482D02*
X052027Y029482D01*
X052027Y029581D02*
X051627Y029581D01*
X051629Y029582D02*
X051650Y029603D01*
X051664Y029628D01*
X051672Y029656D01*
X051672Y029876D01*
X051672Y029679D02*
X052065Y029679D01*
X052343Y029679D02*
X052443Y029679D01*
X052443Y029581D02*
X052343Y029581D01*
X052343Y029482D02*
X052443Y029482D01*
X052443Y029384D02*
X052343Y029384D01*
X052343Y029285D02*
X050927Y029285D01*
X050607Y029285D02*
X050427Y029285D01*
X050427Y029187D02*
X050607Y029187D01*
X050607Y029088D02*
X050427Y029088D01*
X050427Y028990D02*
X050607Y028990D01*
X050537Y028891D02*
X050427Y028891D01*
X050427Y028793D02*
X050537Y028793D01*
X050537Y028694D02*
X050427Y028694D01*
X050427Y028596D02*
X050537Y028596D01*
X050537Y028497D02*
X050427Y028497D01*
X050427Y028399D02*
X050537Y028399D01*
X050537Y028300D02*
X050427Y028300D01*
X050427Y028201D02*
X050537Y028201D01*
X050537Y028103D02*
X050427Y028103D01*
X050427Y028004D02*
X050537Y028004D01*
X050537Y027906D02*
X050427Y027906D01*
X050427Y027807D02*
X050537Y027807D01*
X050537Y027709D02*
X050427Y027709D01*
X050427Y027610D02*
X050537Y027610D01*
X050537Y027512D02*
X050427Y027512D01*
X050427Y027413D02*
X050537Y027413D01*
X050537Y027315D02*
X050427Y027315D01*
X050427Y027216D02*
X050537Y027216D01*
X050537Y027118D02*
X050427Y027118D01*
X050427Y027019D02*
X050537Y027019D01*
X050537Y026921D02*
X050427Y026921D01*
X050427Y026822D02*
X050537Y026822D01*
X050537Y026724D02*
X050427Y026724D01*
X050997Y027315D02*
X051250Y027315D01*
X051204Y027413D02*
X050997Y027413D01*
X050997Y027512D02*
X051204Y027512D01*
X051204Y027610D02*
X050997Y027610D01*
X050997Y027709D02*
X051204Y027709D01*
X051204Y027807D02*
X050997Y027807D01*
X050997Y027906D02*
X051204Y027906D01*
X051204Y028004D02*
X050997Y028004D01*
X050997Y028103D02*
X051204Y028103D01*
X051204Y028201D02*
X050997Y028201D01*
X050997Y028300D02*
X051265Y028300D01*
X050997Y028399D02*
X052769Y028399D01*
X052867Y028497D02*
X050997Y028497D01*
X050997Y028596D02*
X052966Y028596D01*
X052981Y028694D02*
X050997Y028694D01*
X050607Y029384D02*
X050427Y029384D01*
X050427Y029482D02*
X050607Y029482D01*
X051217Y029581D02*
X051317Y029581D01*
X051317Y029560D02*
X051317Y029876D01*
X051317Y029778D02*
X051217Y029778D01*
X051217Y029679D02*
X051317Y029679D01*
X051317Y029560D02*
X051576Y029560D01*
X051604Y029568D01*
X051629Y029582D01*
X051317Y029976D02*
X051317Y030292D01*
X051576Y030292D01*
X051604Y030284D01*
X051629Y030270D01*
X051668Y030369D02*
X052846Y030369D01*
X052747Y030467D02*
X051672Y030467D01*
X051672Y030566D02*
X052649Y030566D01*
X052641Y030800D02*
X053141Y030300D01*
X053141Y029300D01*
X053141Y028544D01*
X052397Y027800D01*
X053221Y028399D02*
X055312Y028399D01*
X055233Y028497D02*
X053301Y028497D01*
X053301Y028596D02*
X055233Y028596D01*
X055233Y028694D02*
X053301Y028694D01*
X053301Y028793D02*
X055233Y028793D01*
X055233Y028891D02*
X053301Y028891D01*
X053507Y028990D02*
X055027Y028990D01*
X055027Y029088D02*
X053507Y029088D01*
X053507Y029187D02*
X055027Y029187D01*
X055027Y029285D02*
X053507Y029285D01*
X053507Y029384D02*
X055027Y029384D01*
X055027Y029482D02*
X053507Y029482D01*
X053507Y029581D02*
X055027Y029581D01*
X055065Y029679D02*
X053468Y029679D01*
X053301Y029778D02*
X055063Y029778D01*
X054964Y029876D02*
X053301Y029876D01*
X053301Y029975D02*
X054866Y029975D01*
X054767Y030073D02*
X053301Y030073D01*
X053301Y030172D02*
X053669Y030172D01*
X053570Y030270D02*
X053301Y030270D01*
X053298Y030369D02*
X053472Y030369D01*
X053373Y030467D02*
X053200Y030467D01*
X053275Y030566D02*
X053101Y030566D01*
X053176Y030664D02*
X053003Y030664D01*
X053078Y030763D02*
X052904Y030763D01*
X052979Y030861D02*
X052806Y030861D01*
X052881Y030960D02*
X052707Y030960D01*
X052782Y031058D02*
X052235Y031058D01*
X052214Y031157D02*
X052684Y031157D01*
X052585Y031255D02*
X052553Y031255D01*
X052841Y031452D02*
X052888Y031452D01*
X052939Y031354D02*
X052987Y031354D01*
X053038Y031255D02*
X053085Y031255D01*
X053136Y031157D02*
X053184Y031157D01*
X053235Y031058D02*
X054527Y031058D01*
X054527Y030960D02*
X053333Y030960D01*
X053432Y030861D02*
X056373Y030861D01*
X056429Y030784D02*
X056404Y030770D01*
X056383Y030749D01*
X056369Y030724D01*
X056361Y030696D01*
X056361Y030476D01*
X056717Y030476D01*
X056717Y030792D01*
X056457Y030792D01*
X056429Y030784D01*
X056396Y030763D02*
X053530Y030763D01*
X053629Y030664D02*
X056361Y030664D01*
X056361Y030566D02*
X053727Y030566D01*
X053826Y030467D02*
X056717Y030467D01*
X056717Y030476D02*
X056717Y030376D01*
X056817Y030376D01*
X056817Y030476D01*
X057172Y030476D01*
X057172Y030696D01*
X057164Y030724D01*
X057150Y030749D01*
X057129Y030770D01*
X057104Y030784D01*
X057076Y030792D01*
X056817Y030792D01*
X056817Y030476D01*
X056717Y030476D01*
X056717Y030566D02*
X056817Y030566D01*
X056817Y030664D02*
X056717Y030664D01*
X056717Y030763D02*
X056817Y030763D01*
X056817Y030467D02*
X059373Y030467D01*
X059275Y030566D02*
X057172Y030566D01*
X057172Y030664D02*
X057381Y030664D01*
X057381Y030763D02*
X057137Y030763D01*
X057160Y030861D02*
X057381Y030861D01*
X057381Y030960D02*
X057172Y030960D01*
X057172Y031354D02*
X057381Y031354D01*
X057381Y031452D02*
X057172Y031452D01*
X056767Y031300D02*
X056767Y031174D01*
X057767Y031174D01*
X057767Y031048D01*
X059019Y031048D01*
X061767Y028300D01*
X068767Y028300D01*
X072767Y032300D01*
X073043Y032437D02*
X073537Y032437D01*
X073537Y032339D02*
X073075Y032339D01*
X073075Y032240D02*
X073537Y032240D01*
X073537Y032142D02*
X073035Y032142D01*
X072945Y032043D02*
X073537Y032043D01*
X073537Y031945D02*
X072637Y031945D01*
X072539Y031846D02*
X073537Y031846D01*
X073537Y031748D02*
X072440Y031748D01*
X072342Y031649D02*
X073537Y031649D01*
X073537Y031551D02*
X072243Y031551D01*
X072145Y031452D02*
X073537Y031452D01*
X073537Y031354D02*
X072046Y031354D01*
X071948Y031255D02*
X073537Y031255D01*
X073537Y031157D02*
X071849Y031157D01*
X071751Y031058D02*
X073537Y031058D01*
X073537Y030960D02*
X071652Y030960D01*
X071554Y030861D02*
X073537Y030861D01*
X073537Y030763D02*
X071455Y030763D01*
X071357Y030664D02*
X073537Y030664D01*
X073537Y030566D02*
X071258Y030566D01*
X071160Y030467D02*
X073537Y030467D01*
X073537Y030369D02*
X071061Y030369D01*
X070963Y030270D02*
X073537Y030270D01*
X073537Y030172D02*
X070864Y030172D01*
X070766Y030073D02*
X073537Y030073D01*
X073537Y029975D02*
X070667Y029975D01*
X070569Y029876D02*
X073537Y029876D01*
X073537Y029778D02*
X070470Y029778D01*
X070372Y029679D02*
X073537Y029679D01*
X073537Y029581D02*
X070273Y029581D01*
X070175Y029482D02*
X073537Y029482D01*
X073537Y029384D02*
X070076Y029384D01*
X069978Y029285D02*
X073537Y029285D01*
X073537Y029187D02*
X069879Y029187D01*
X069781Y029088D02*
X073537Y029088D01*
X073537Y028990D02*
X069682Y028990D01*
X069584Y028891D02*
X073537Y028891D01*
X073537Y028793D02*
X069485Y028793D01*
X069387Y028694D02*
X073537Y028694D01*
X073537Y028596D02*
X069288Y028596D01*
X069190Y028497D02*
X073537Y028497D01*
X073537Y028399D02*
X069091Y028399D01*
X068993Y028300D02*
X073541Y028300D01*
X073640Y028201D02*
X068894Y028201D01*
X068737Y028497D02*
X061796Y028497D01*
X061697Y028596D02*
X068836Y028596D01*
X068934Y028694D02*
X061599Y028694D01*
X061500Y028793D02*
X069033Y028793D01*
X069131Y028891D02*
X061402Y028891D01*
X061303Y028990D02*
X069230Y028990D01*
X069328Y029088D02*
X068135Y029088D01*
X068129Y029082D02*
X068150Y029103D01*
X068164Y029128D01*
X068172Y029156D01*
X068172Y029376D01*
X067817Y029376D01*
X067817Y029476D01*
X068172Y029476D01*
X068172Y029696D01*
X068164Y029724D01*
X068150Y029749D01*
X068129Y029770D01*
X068104Y029784D01*
X068076Y029792D01*
X067817Y029792D01*
X067817Y029476D01*
X067717Y029476D01*
X067717Y029376D01*
X067817Y029376D01*
X067817Y029060D01*
X068076Y029060D01*
X068104Y029068D01*
X068129Y029082D01*
X068172Y029187D02*
X069427Y029187D01*
X069525Y029285D02*
X068172Y029285D01*
X068172Y029482D02*
X069722Y029482D01*
X069624Y029384D02*
X067817Y029384D01*
X067817Y029482D02*
X067717Y029482D01*
X067717Y029384D02*
X060909Y029384D01*
X060811Y029482D02*
X067361Y029482D01*
X067361Y029581D02*
X060712Y029581D01*
X060614Y029679D02*
X067361Y029679D01*
X067361Y029376D02*
X067361Y029156D01*
X067369Y029128D01*
X067383Y029103D01*
X067404Y029082D01*
X067429Y029068D01*
X067457Y029060D01*
X067717Y029060D01*
X067717Y029376D01*
X067361Y029376D01*
X067361Y029285D02*
X061008Y029285D01*
X061106Y029187D02*
X067361Y029187D01*
X067398Y029088D02*
X061205Y029088D01*
X060949Y028891D02*
X055553Y028891D01*
X055553Y028793D02*
X061048Y028793D01*
X061146Y028694D02*
X055553Y028694D01*
X055568Y028596D02*
X061245Y028596D01*
X061343Y028497D02*
X055666Y028497D01*
X055765Y028399D02*
X061442Y028399D01*
X057817Y029088D02*
X057717Y029088D01*
X057717Y029082D02*
X057717Y029502D01*
X057381Y029502D01*
X057381Y029177D01*
X057389Y029149D01*
X057403Y029124D01*
X057424Y029104D01*
X057449Y029089D01*
X057477Y029082D01*
X057717Y029082D01*
X057717Y029187D02*
X057817Y029187D01*
X057817Y029285D02*
X057717Y029285D01*
X057717Y029384D02*
X057817Y029384D01*
X057817Y029482D02*
X057717Y029482D01*
X057717Y029581D02*
X056507Y029581D01*
X056507Y029482D02*
X057381Y029482D01*
X057381Y029384D02*
X056507Y029384D01*
X056507Y029187D02*
X057381Y029187D01*
X057381Y029285D02*
X056191Y029285D01*
X056191Y029187D02*
X056091Y029187D01*
X056091Y029250D02*
X056091Y028895D01*
X055870Y028895D01*
X055842Y028902D01*
X055817Y028917D01*
X055797Y028937D01*
X055782Y028962D01*
X055775Y028990D01*
X055775Y029250D01*
X056091Y029250D01*
X056091Y029285D02*
X055759Y029285D01*
X055759Y029187D02*
X055775Y029187D01*
X055775Y029088D02*
X055759Y029088D01*
X055759Y028990D02*
X055775Y028990D01*
X056091Y028990D02*
X056191Y028990D01*
X056191Y029088D02*
X056091Y029088D01*
X056091Y029384D02*
X056191Y029384D01*
X056191Y029482D02*
X056091Y029482D01*
X056091Y029581D02*
X056191Y029581D01*
X056191Y029679D02*
X056091Y029679D01*
X055813Y029679D02*
X055720Y029679D01*
X055759Y029581D02*
X055775Y029581D01*
X055775Y029482D02*
X055759Y029482D01*
X055759Y029384D02*
X055775Y029384D01*
X055393Y029300D02*
X055393Y028544D01*
X056137Y027800D01*
X054944Y027807D02*
X053589Y027807D01*
X053589Y027709D02*
X054944Y027709D01*
X054944Y027610D02*
X053589Y027610D01*
X053589Y027512D02*
X054944Y027512D01*
X054944Y027413D02*
X053589Y027413D01*
X053544Y027315D02*
X054990Y027315D01*
X054944Y027906D02*
X053589Y027906D01*
X053589Y028004D02*
X054944Y028004D01*
X054944Y028103D02*
X053589Y028103D01*
X053589Y028201D02*
X054944Y028201D01*
X055005Y028300D02*
X053529Y028300D01*
X052737Y028937D02*
X052751Y028962D01*
X052759Y028990D01*
X052759Y029250D01*
X052443Y029250D01*
X052443Y028895D01*
X052663Y028895D01*
X052691Y028902D01*
X052716Y028917D01*
X052737Y028937D01*
X052758Y028990D02*
X052775Y028990D01*
X052775Y029088D02*
X052759Y029088D01*
X052759Y029187D02*
X052775Y029187D01*
X052775Y029285D02*
X052443Y029285D01*
X052443Y029187D02*
X052343Y029187D01*
X052343Y029088D02*
X052443Y029088D01*
X052443Y028990D02*
X052343Y028990D01*
X052759Y029384D02*
X052775Y029384D01*
X052775Y029482D02*
X052759Y029482D01*
X052759Y029581D02*
X052775Y029581D01*
X052813Y029679D02*
X052720Y029679D01*
X053767Y030300D02*
X054767Y030300D01*
X055393Y029674D01*
X055393Y029300D01*
X055515Y029778D02*
X057381Y029778D01*
X057381Y029876D02*
X055417Y029876D01*
X055318Y029975D02*
X057400Y029975D01*
X057164Y030128D02*
X057172Y030156D01*
X057172Y030376D01*
X056817Y030376D01*
X056817Y030060D01*
X057076Y030060D01*
X057104Y030068D01*
X057129Y030082D01*
X057150Y030103D01*
X057164Y030128D01*
X057172Y030172D02*
X059669Y030172D01*
X059570Y030270D02*
X057172Y030270D01*
X057172Y030369D02*
X059472Y030369D01*
X059176Y030664D02*
X058152Y030664D01*
X058152Y030763D02*
X059078Y030763D01*
X058979Y030861D02*
X058152Y030861D01*
X058152Y031255D02*
X065585Y031255D01*
X065487Y031354D02*
X058152Y031354D01*
X058152Y031452D02*
X065388Y031452D01*
X065290Y031551D02*
X056007Y031551D01*
X055641Y031300D02*
X056767Y031300D01*
X056361Y031058D02*
X056007Y031058D01*
X056007Y030960D02*
X056361Y030960D01*
X056361Y030376D02*
X056361Y030156D01*
X056369Y030128D01*
X056383Y030103D01*
X056404Y030082D01*
X056429Y030068D01*
X056457Y030060D01*
X056717Y030060D01*
X056717Y030376D01*
X056361Y030376D01*
X056361Y030369D02*
X054924Y030369D01*
X055023Y030270D02*
X056361Y030270D01*
X056361Y030172D02*
X055121Y030172D01*
X055220Y030073D02*
X056420Y030073D01*
X056717Y030073D02*
X056817Y030073D01*
X056817Y030172D02*
X056717Y030172D01*
X056717Y030270D02*
X056817Y030270D01*
X056817Y030369D02*
X056717Y030369D01*
X057114Y030073D02*
X059767Y030073D01*
X059432Y030861D02*
X065979Y030861D01*
X065881Y030960D02*
X059333Y030960D01*
X059235Y031058D02*
X065782Y031058D01*
X065684Y031157D02*
X059136Y031157D01*
X057381Y029679D02*
X056468Y029679D01*
X056507Y029088D02*
X057453Y029088D01*
X055275Y030960D02*
X055259Y030960D01*
X055259Y031058D02*
X055275Y031058D01*
X055275Y031157D02*
X055259Y031157D01*
X055259Y031255D02*
X055275Y031255D01*
X055275Y031354D02*
X055259Y031354D01*
X055259Y031452D02*
X055275Y031452D01*
X055275Y031551D02*
X055259Y031551D01*
X054893Y031300D02*
X053267Y031300D01*
X052790Y031551D02*
X052742Y031551D01*
X052691Y031649D02*
X052644Y031649D01*
X052593Y031748D02*
X052568Y031748D01*
X052457Y031610D02*
X053767Y030300D01*
X052641Y030800D02*
X052267Y030800D01*
X052054Y031013D01*
X052054Y031610D01*
X052369Y031610D02*
X052457Y031610D01*
X052297Y032043D02*
X051899Y032043D01*
X051899Y032142D02*
X052199Y032142D01*
X052107Y032240D02*
X051853Y032240D01*
X051754Y032339D02*
X052107Y032339D01*
X052107Y032437D02*
X051656Y032437D01*
X051579Y032043D02*
X051269Y032043D01*
X051424Y031945D02*
X051424Y031945D01*
X051424Y031846D02*
X051424Y031846D01*
X051424Y031748D02*
X051424Y031748D01*
X051109Y031610D02*
X051109Y030831D01*
X050861Y030861D02*
X050672Y030861D01*
X050672Y030944D02*
X050664Y030972D01*
X050650Y030997D01*
X050629Y031018D01*
X050604Y031032D01*
X050576Y031040D01*
X050317Y031040D01*
X050317Y030724D01*
X050672Y030724D01*
X050672Y030944D01*
X050668Y030960D02*
X050861Y030960D01*
X050861Y030975D02*
X050861Y030621D01*
X050700Y030460D01*
X050672Y030432D01*
X050672Y030624D01*
X050317Y030624D01*
X050317Y030724D01*
X050217Y030724D01*
X050217Y031040D01*
X049957Y031040D01*
X049929Y031032D01*
X049927Y031031D01*
X049927Y031234D01*
X049966Y031273D01*
X049966Y031269D01*
X050030Y031205D01*
X050298Y031205D01*
X050322Y031228D01*
X050345Y031205D01*
X050613Y031205D01*
X050637Y031228D01*
X050638Y031227D01*
X050663Y031212D01*
X050691Y031205D01*
X050794Y031205D01*
X050794Y031610D01*
X050794Y031610D01*
X050794Y031205D01*
X050897Y031205D01*
X050925Y031212D01*
X050949Y031226D01*
X050949Y031040D01*
X050926Y031040D01*
X050861Y030975D01*
X050949Y031058D02*
X049927Y031058D01*
X049927Y031157D02*
X050949Y031157D01*
X050794Y031255D02*
X050794Y031255D01*
X050794Y031354D02*
X050794Y031354D01*
X050794Y031452D02*
X050794Y031452D01*
X050794Y031551D02*
X050794Y031551D01*
X050479Y031610D02*
X050479Y032013D01*
X050767Y032300D01*
X051109Y032143D02*
X051109Y031610D01*
X051109Y032143D02*
X051267Y032300D01*
X050382Y032142D02*
X049982Y032142D01*
X049961Y032043D02*
X050319Y032043D01*
X049982Y032733D02*
X052107Y032733D01*
X052107Y032831D02*
X049982Y032831D01*
X049982Y032930D02*
X052170Y032930D01*
X052268Y033028D02*
X050915Y033028D01*
X051028Y033127D02*
X052367Y033127D01*
X052465Y033225D02*
X051069Y033225D01*
X051075Y033324D02*
X052551Y033324D01*
X052551Y033422D02*
X051050Y033422D01*
X050982Y033521D02*
X052551Y033521D01*
X052571Y033619D02*
X049963Y033619D01*
X049982Y033521D02*
X050551Y033521D01*
X050484Y033422D02*
X049982Y033422D01*
X049982Y033324D02*
X050459Y033324D01*
X050609Y033143D02*
X050767Y033300D01*
X050609Y033143D02*
X049577Y033143D01*
X049577Y033457D02*
X048609Y033457D01*
X048187Y033880D01*
X036503Y033880D01*
X036762Y033619D02*
X048221Y033619D01*
X048123Y033718D02*
X036833Y033718D01*
X036595Y033521D02*
X048320Y033521D01*
X048418Y033422D02*
X047871Y033422D01*
X047969Y033324D02*
X048517Y033324D01*
X048507Y033127D02*
X049171Y033127D01*
X049171Y033225D02*
X048068Y033225D01*
X047775Y033028D02*
X047759Y033028D01*
X047759Y032930D02*
X047775Y032930D01*
X047775Y032831D02*
X047443Y032831D01*
X047443Y032733D02*
X047343Y032733D01*
X047343Y032750D02*
X047343Y032395D01*
X047122Y032395D01*
X047094Y032402D01*
X047069Y032417D01*
X047049Y032437D01*
X045630Y032437D01*
X045728Y032536D02*
X047027Y032536D01*
X047027Y032490D02*
X047034Y032462D01*
X047049Y032437D01*
X047027Y032490D02*
X047027Y032750D01*
X047343Y032750D01*
X047343Y032831D02*
X046024Y032831D01*
X046122Y032930D02*
X047027Y032930D01*
X047027Y033028D02*
X046221Y033028D01*
X046319Y033127D02*
X047031Y033127D01*
X047027Y032733D02*
X045925Y032733D01*
X045827Y032634D02*
X047027Y032634D01*
X047343Y032634D02*
X047443Y032634D01*
X047443Y032536D02*
X047343Y032536D01*
X047343Y032437D02*
X047443Y032437D01*
X047579Y032339D02*
X045531Y032339D01*
X045433Y032240D02*
X047480Y032240D01*
X047382Y032142D02*
X045334Y032142D01*
X045236Y032043D02*
X047283Y032043D01*
X046861Y031945D02*
X045137Y031945D01*
X045039Y031846D02*
X046861Y031846D01*
X047759Y032536D02*
X047775Y032536D01*
X047775Y032634D02*
X047759Y032634D01*
X047759Y032733D02*
X047775Y032733D01*
X048507Y033028D02*
X049171Y033028D01*
X048721Y033619D02*
X048674Y033619D01*
X048623Y033718D02*
X048575Y033718D01*
X048524Y033816D02*
X048477Y033816D01*
X048426Y033915D02*
X048378Y033915D01*
X048327Y034013D02*
X048280Y034013D01*
X048229Y034112D02*
X036791Y034112D01*
X036666Y034210D02*
X048130Y034210D01*
X048032Y034309D02*
X025967Y034309D01*
X025967Y034407D02*
X047933Y034407D01*
X047835Y034506D02*
X025967Y034506D01*
X025967Y034604D02*
X036259Y034604D01*
X036179Y034703D02*
X025967Y034703D01*
X025967Y034801D02*
X036138Y034801D01*
X036135Y034900D02*
X025967Y034900D01*
X025967Y034998D02*
X036154Y034998D01*
X036200Y035097D02*
X025967Y035097D01*
X025967Y035195D02*
X036303Y035195D01*
X036503Y034880D02*
X047687Y034880D01*
X048794Y033772D01*
X049577Y033772D01*
X049577Y034087D02*
X048979Y034087D01*
X047187Y035880D01*
X036503Y035880D01*
X036135Y035885D02*
X025967Y035885D01*
X025967Y035983D02*
X036148Y035983D01*
X036189Y036082D02*
X025967Y036082D01*
X025967Y036180D02*
X036283Y036180D01*
X036289Y036574D02*
X025967Y036574D01*
X025967Y036476D02*
X046865Y036476D01*
X046766Y036574D02*
X036717Y036574D01*
X036815Y036673D02*
X046668Y036673D01*
X046687Y036880D02*
X049164Y034402D01*
X049577Y034402D01*
X049982Y034407D02*
X052551Y034407D01*
X052551Y034309D02*
X049982Y034309D01*
X049982Y034210D02*
X052551Y034210D01*
X052551Y034112D02*
X049982Y034112D01*
X049982Y034013D02*
X052551Y034013D01*
X052559Y033915D02*
X049974Y033915D01*
X049982Y033816D02*
X052551Y033816D01*
X052551Y033718D02*
X049982Y033718D01*
X049032Y034309D02*
X048984Y034309D01*
X048933Y034407D02*
X048886Y034407D01*
X048835Y034506D02*
X048787Y034506D01*
X048736Y034604D02*
X048689Y034604D01*
X048638Y034703D02*
X048590Y034703D01*
X048539Y034801D02*
X048492Y034801D01*
X048441Y034900D02*
X048393Y034900D01*
X048342Y034998D02*
X048295Y034998D01*
X048244Y035097D02*
X048196Y035097D01*
X048145Y035195D02*
X048098Y035195D01*
X048047Y035294D02*
X047999Y035294D01*
X047948Y035392D02*
X047901Y035392D01*
X047850Y035491D02*
X047802Y035491D01*
X047751Y035589D02*
X047704Y035589D01*
X047653Y035688D02*
X047605Y035688D01*
X047554Y035786D02*
X047507Y035786D01*
X047456Y035885D02*
X047408Y035885D01*
X047357Y035983D02*
X047310Y035983D01*
X047259Y036082D02*
X036817Y036082D01*
X036723Y036180D02*
X047160Y036180D01*
X047062Y036279D02*
X025967Y036279D01*
X025967Y036377D02*
X046963Y036377D01*
X047219Y036574D02*
X047266Y036574D01*
X047317Y036476D02*
X047365Y036476D01*
X047416Y036377D02*
X047463Y036377D01*
X047514Y036279D02*
X047562Y036279D01*
X047613Y036180D02*
X047660Y036180D01*
X047711Y036082D02*
X047759Y036082D01*
X047810Y035983D02*
X047857Y035983D01*
X047908Y035885D02*
X047956Y035885D01*
X048007Y035786D02*
X048054Y035786D01*
X048107Y035734D02*
X048200Y035640D01*
X049700Y035640D01*
X049988Y035353D01*
X049966Y035331D01*
X049966Y034649D01*
X050030Y034585D01*
X050298Y034585D01*
X050322Y034608D01*
X050345Y034585D01*
X050613Y034585D01*
X050637Y034608D01*
X050660Y034585D01*
X050928Y034585D01*
X050952Y034608D01*
X050953Y034607D01*
X050978Y034592D01*
X051006Y034585D01*
X051109Y034585D01*
X051109Y034990D01*
X051109Y034990D01*
X051109Y035395D01*
X051006Y035395D01*
X050978Y035388D01*
X050953Y035373D01*
X050952Y035372D01*
X050928Y035395D01*
X050660Y035395D01*
X050639Y035374D01*
X050639Y035654D01*
X049833Y036460D01*
X048333Y036460D01*
X045753Y039040D01*
X036834Y039040D01*
X036814Y039088D01*
X036711Y039192D01*
X036576Y039247D01*
X036430Y039247D01*
X036295Y039192D01*
X036191Y039088D01*
X036135Y038953D01*
X036135Y038807D01*
X036191Y038672D01*
X036295Y038568D01*
X036430Y038513D01*
X036576Y038513D01*
X036711Y038568D01*
X036814Y038672D01*
X036834Y038720D01*
X045620Y038720D01*
X048107Y036234D01*
X048200Y036140D01*
X049700Y036140D01*
X050319Y035521D01*
X050319Y035474D01*
X049927Y035866D01*
X049833Y035960D01*
X048333Y035960D01*
X046253Y038040D01*
X036834Y038040D01*
X036814Y038088D01*
X036711Y038192D01*
X036576Y038247D01*
X036430Y038247D01*
X036295Y038192D01*
X036191Y038088D01*
X036135Y037953D01*
X025967Y037953D01*
X025967Y037855D02*
X036135Y037855D01*
X036135Y037807D02*
X036191Y037672D01*
X036295Y037568D01*
X036430Y037513D01*
X036576Y037513D01*
X036711Y037568D01*
X036814Y037672D01*
X036834Y037720D01*
X046120Y037720D01*
X048107Y035734D01*
X048105Y035688D02*
X048153Y035688D01*
X048204Y035589D02*
X049751Y035589D01*
X049850Y035491D02*
X048302Y035491D01*
X048401Y035392D02*
X049948Y035392D01*
X049966Y035294D02*
X048499Y035294D01*
X048598Y035195D02*
X049966Y035195D01*
X049966Y035097D02*
X048696Y035097D01*
X048795Y034998D02*
X049966Y034998D01*
X049966Y034900D02*
X048893Y034900D01*
X048992Y034801D02*
X049966Y034801D01*
X049966Y034703D02*
X049090Y034703D01*
X049189Y034604D02*
X050011Y034604D01*
X049982Y034506D02*
X052551Y034506D01*
X052503Y034585D02*
X052568Y034649D01*
X052568Y034830D01*
X053023Y034830D01*
X053333Y035140D01*
X053427Y035234D01*
X053427Y035560D01*
X053608Y035560D01*
X053672Y035625D01*
X053672Y036227D01*
X053608Y036292D01*
X052926Y036292D01*
X052861Y036227D01*
X052861Y035625D01*
X052926Y035560D01*
X053107Y035560D01*
X053107Y035366D01*
X052890Y035150D01*
X052568Y035150D01*
X052568Y035331D01*
X052503Y035395D01*
X052235Y035395D01*
X052212Y035372D01*
X052188Y035395D01*
X051920Y035395D01*
X051897Y035372D01*
X051873Y035395D01*
X051605Y035395D01*
X051582Y035372D01*
X051558Y035395D01*
X051290Y035395D01*
X051267Y035372D01*
X051265Y035373D01*
X051240Y035388D01*
X051212Y035395D01*
X051109Y035395D01*
X051109Y034990D01*
X051109Y034990D01*
X051109Y034585D01*
X051212Y034585D01*
X051240Y034592D01*
X051265Y034607D01*
X051267Y034608D01*
X051290Y034585D01*
X051558Y034585D01*
X051582Y034608D01*
X051605Y034585D01*
X051873Y034585D01*
X051897Y034608D01*
X051920Y034585D01*
X052188Y034585D01*
X052212Y034608D01*
X052235Y034585D01*
X052503Y034585D01*
X052522Y034604D02*
X053844Y034604D01*
X053943Y034703D02*
X052568Y034703D01*
X052568Y034801D02*
X054041Y034801D01*
X054107Y034900D02*
X053092Y034900D01*
X053191Y034998D02*
X054107Y034998D01*
X054107Y035097D02*
X053289Y035097D01*
X053388Y035195D02*
X054107Y035195D01*
X054107Y035294D02*
X053427Y035294D01*
X053427Y035392D02*
X054107Y035392D01*
X054107Y035491D02*
X053427Y035491D01*
X053636Y035589D02*
X053897Y035589D01*
X053861Y035688D02*
X053672Y035688D01*
X053672Y035786D02*
X053861Y035786D01*
X053861Y035885D02*
X053672Y035885D01*
X053672Y035983D02*
X053861Y035983D01*
X053861Y036082D02*
X053672Y036082D01*
X053672Y036180D02*
X053861Y036180D01*
X053912Y036279D02*
X053621Y036279D01*
X053672Y036377D02*
X053861Y036377D01*
X053861Y036476D02*
X053672Y036476D01*
X053672Y036574D02*
X053861Y036574D01*
X053861Y036673D02*
X053672Y036673D01*
X053672Y036771D02*
X053861Y036771D01*
X053861Y036870D02*
X053672Y036870D01*
X053672Y036968D02*
X053861Y036968D01*
X054267Y036800D02*
X055267Y037800D01*
X055267Y038800D01*
X054767Y039300D01*
X055164Y039135D02*
X055607Y039135D01*
X055607Y039037D02*
X055256Y039037D01*
X055355Y038938D02*
X055607Y038938D01*
X055607Y038840D02*
X055427Y038840D01*
X055427Y038741D02*
X055607Y038741D01*
X055607Y038643D02*
X055427Y038643D01*
X055427Y038544D02*
X055607Y038544D01*
X055607Y038446D02*
X055427Y038446D01*
X055427Y038347D02*
X055607Y038347D01*
X055607Y038249D02*
X055427Y038249D01*
X055427Y038150D02*
X055607Y038150D01*
X055607Y038052D02*
X055427Y038052D01*
X055427Y037953D02*
X055607Y037953D01*
X055595Y037855D02*
X055427Y037855D01*
X055427Y037756D02*
X055496Y037756D01*
X055398Y037658D02*
X055350Y037658D01*
X055299Y037559D02*
X055252Y037559D01*
X055201Y037461D02*
X055153Y037461D01*
X055107Y037362D02*
X055055Y037362D01*
X055107Y037264D02*
X054956Y037264D01*
X054858Y037165D02*
X055107Y037165D01*
X055107Y037067D02*
X054759Y037067D01*
X054672Y036968D02*
X054861Y036968D01*
X054861Y036870D02*
X054672Y036870D01*
X054672Y036771D02*
X054861Y036771D01*
X054861Y036673D02*
X054672Y036673D01*
X054672Y036574D02*
X054861Y036574D01*
X054861Y036476D02*
X054672Y036476D01*
X054672Y036377D02*
X054861Y036377D01*
X054912Y036279D02*
X054621Y036279D01*
X054672Y036180D02*
X054861Y036180D01*
X054861Y036082D02*
X054672Y036082D01*
X054672Y035983D02*
X054861Y035983D01*
X054861Y035885D02*
X054672Y035885D01*
X054672Y035786D02*
X054861Y035786D01*
X054861Y035688D02*
X054672Y035688D01*
X054636Y035589D02*
X054897Y035589D01*
X055107Y035491D02*
X054427Y035491D01*
X054427Y035392D02*
X055107Y035392D01*
X055107Y035294D02*
X054427Y035294D01*
X054427Y035195D02*
X055107Y035195D01*
X055107Y035097D02*
X054427Y035097D01*
X054427Y034998D02*
X055107Y034998D01*
X055107Y034900D02*
X054427Y034900D01*
X054427Y034801D02*
X055107Y034801D01*
X055107Y034703D02*
X054395Y034703D01*
X054297Y034604D02*
X055107Y034604D01*
X055107Y034506D02*
X054198Y034506D01*
X054100Y034407D02*
X055107Y034407D01*
X055049Y034309D02*
X054001Y034309D01*
X053869Y034402D02*
X054267Y034800D01*
X054267Y035926D01*
X054267Y036674D02*
X054267Y036800D01*
X054307Y037067D02*
X053427Y037067D01*
X053427Y037165D02*
X054405Y037165D01*
X054504Y037264D02*
X053427Y037264D01*
X053427Y037362D02*
X054602Y037362D01*
X054701Y037461D02*
X053427Y037461D01*
X053427Y037559D02*
X054799Y037559D01*
X054898Y037658D02*
X053427Y037658D01*
X053427Y037756D02*
X054996Y037756D01*
X055095Y037855D02*
X053427Y037855D01*
X053427Y037953D02*
X053506Y037953D01*
X053107Y037953D02*
X053021Y037953D01*
X053107Y037855D02*
X051938Y037855D01*
X051927Y037866D02*
X051927Y038734D01*
X052333Y039140D01*
X052368Y039140D01*
X052402Y039056D01*
X052523Y038935D01*
X052681Y038870D01*
X052852Y038870D01*
X053010Y038935D01*
X053131Y039056D01*
X053197Y039214D01*
X053197Y039386D01*
X053131Y039544D01*
X053010Y039665D01*
X052852Y039730D01*
X052681Y039730D01*
X052523Y039665D01*
X052402Y039544D01*
X052368Y039460D01*
X052200Y039460D01*
X051700Y038960D01*
X051607Y038866D01*
X051607Y037734D01*
X051700Y037640D01*
X052107Y037234D01*
X052107Y037040D01*
X051926Y037040D01*
X051861Y036975D01*
X051861Y036373D01*
X051926Y036308D01*
X052608Y036308D01*
X052672Y036373D01*
X052672Y036975D01*
X052608Y037040D01*
X052427Y037040D01*
X052427Y037366D01*
X051927Y037866D01*
X051927Y037953D02*
X052513Y037953D01*
X052487Y037972D02*
X052541Y037932D01*
X052602Y037902D01*
X052666Y037881D01*
X052728Y037871D01*
X052728Y038261D01*
X052337Y038261D01*
X052347Y038199D01*
X052368Y038135D01*
X052399Y038075D01*
X052439Y038020D01*
X052487Y037972D01*
X052416Y038052D02*
X051927Y038052D01*
X051927Y038150D02*
X052363Y038150D01*
X052339Y038249D02*
X051927Y038249D01*
X051927Y038347D02*
X052339Y038347D01*
X052362Y038446D02*
X051927Y038446D01*
X051927Y038544D02*
X052412Y038544D01*
X052507Y038643D02*
X051927Y038643D01*
X051934Y038741D02*
X053107Y038741D01*
X053107Y038643D02*
X053027Y038643D01*
X053107Y038840D02*
X052032Y038840D01*
X052131Y038938D02*
X052521Y038938D01*
X052422Y039037D02*
X052229Y039037D01*
X052328Y039135D02*
X052370Y039135D01*
X052267Y039300D02*
X051767Y038800D01*
X051767Y037800D01*
X052267Y037300D01*
X052267Y036674D01*
X052672Y036673D02*
X052861Y036673D01*
X052861Y036771D02*
X052672Y036771D01*
X052672Y036870D02*
X052861Y036870D01*
X052861Y036968D02*
X052672Y036968D01*
X052427Y037067D02*
X053107Y037067D01*
X053107Y037165D02*
X052427Y037165D01*
X052427Y037264D02*
X053107Y037264D01*
X053107Y037362D02*
X052427Y037362D01*
X052332Y037461D02*
X053107Y037461D01*
X053107Y037559D02*
X052234Y037559D01*
X052135Y037658D02*
X053107Y037658D01*
X053107Y037756D02*
X052037Y037756D01*
X051781Y037559D02*
X047234Y037559D01*
X047332Y037461D02*
X051880Y037461D01*
X051978Y037362D02*
X047431Y037362D01*
X047529Y037264D02*
X052077Y037264D01*
X052107Y037165D02*
X047628Y037165D01*
X047726Y037067D02*
X052107Y037067D01*
X051861Y036968D02*
X047825Y036968D01*
X047923Y036870D02*
X051861Y036870D01*
X051861Y036771D02*
X048022Y036771D01*
X048120Y036673D02*
X051861Y036673D01*
X051861Y036574D02*
X048219Y036574D01*
X048317Y036476D02*
X051861Y036476D01*
X051861Y036377D02*
X049916Y036377D01*
X050014Y036279D02*
X051912Y036279D01*
X051926Y036292D02*
X051861Y036227D01*
X051861Y035960D01*
X051534Y035960D01*
X051528Y035975D01*
X051441Y036061D01*
X051328Y036108D01*
X051205Y036108D01*
X051092Y036061D01*
X051005Y035975D01*
X050959Y035861D01*
X050959Y035739D01*
X051005Y035625D01*
X051092Y035539D01*
X051205Y035492D01*
X051328Y035492D01*
X051441Y035539D01*
X051528Y035625D01*
X051534Y035640D01*
X051861Y035640D01*
X051861Y035625D01*
X051926Y035560D01*
X052608Y035560D01*
X052672Y035625D01*
X052672Y036227D01*
X052608Y036292D01*
X051926Y036292D01*
X051861Y036180D02*
X050113Y036180D01*
X050211Y036082D02*
X051141Y036082D01*
X051014Y035983D02*
X050310Y035983D01*
X050408Y035885D02*
X050968Y035885D01*
X050959Y035786D02*
X050507Y035786D01*
X050605Y035688D02*
X050980Y035688D01*
X051042Y035589D02*
X050639Y035589D01*
X050639Y035491D02*
X053107Y035491D01*
X053107Y035392D02*
X052506Y035392D01*
X052568Y035294D02*
X053034Y035294D01*
X052935Y035195D02*
X052568Y035195D01*
X052369Y034990D02*
X052957Y034990D01*
X053267Y035300D01*
X053267Y035926D01*
X052861Y035885D02*
X052672Y035885D01*
X052672Y035983D02*
X052861Y035983D01*
X052861Y036082D02*
X052672Y036082D01*
X052672Y036180D02*
X052861Y036180D01*
X052912Y036279D02*
X052621Y036279D01*
X052672Y036377D02*
X052861Y036377D01*
X052861Y036476D02*
X052672Y036476D01*
X052672Y036574D02*
X052861Y036574D01*
X053267Y036674D02*
X053267Y038800D01*
X053767Y039300D01*
X053370Y039135D02*
X053164Y039135D01*
X053197Y039234D02*
X053337Y039234D01*
X053337Y039332D02*
X053197Y039332D01*
X053178Y039431D02*
X053355Y039431D01*
X053396Y039529D02*
X053137Y039529D01*
X053047Y039628D02*
X053486Y039628D01*
X053672Y039726D02*
X052862Y039726D01*
X052672Y039726D02*
X025967Y039726D01*
X025967Y039628D02*
X052486Y039628D01*
X052396Y039529D02*
X025967Y039529D01*
X025967Y039431D02*
X052171Y039431D01*
X052072Y039332D02*
X025967Y039332D01*
X025967Y039234D02*
X036396Y039234D01*
X036238Y039135D02*
X025967Y039135D01*
X025967Y039037D02*
X036170Y039037D01*
X036135Y038938D02*
X025967Y038938D01*
X025967Y038840D02*
X036135Y038840D01*
X036163Y038741D02*
X025967Y038741D01*
X025967Y038643D02*
X036221Y038643D01*
X036354Y038544D02*
X025967Y038544D01*
X025967Y038446D02*
X045895Y038446D01*
X045796Y038544D02*
X036652Y038544D01*
X036785Y038643D02*
X045698Y038643D01*
X045687Y038880D02*
X048267Y036300D01*
X049767Y036300D01*
X050479Y035587D01*
X050479Y034990D01*
X050164Y034990D02*
X050164Y035402D01*
X049767Y035800D01*
X048267Y035800D01*
X046187Y037880D01*
X036503Y037880D01*
X036753Y038150D02*
X046190Y038150D01*
X046092Y038249D02*
X025967Y038249D01*
X025967Y038347D02*
X045993Y038347D01*
X046249Y038544D02*
X051607Y038544D01*
X051607Y038446D02*
X046347Y038446D01*
X046446Y038347D02*
X051607Y038347D01*
X051607Y038249D02*
X046544Y038249D01*
X046643Y038150D02*
X051607Y038150D01*
X051607Y038052D02*
X046741Y038052D01*
X046840Y037953D02*
X051607Y037953D01*
X051607Y037855D02*
X046938Y037855D01*
X047037Y037756D02*
X051607Y037756D01*
X051683Y037658D02*
X047135Y037658D01*
X046880Y037461D02*
X046832Y037461D01*
X046781Y037559D02*
X046734Y037559D01*
X046683Y037658D02*
X046635Y037658D01*
X046584Y037756D02*
X046537Y037756D01*
X046486Y037855D02*
X046438Y037855D01*
X046387Y037953D02*
X046340Y037953D01*
X046289Y038052D02*
X036830Y038052D01*
X036800Y037658D02*
X046183Y037658D01*
X046281Y037559D02*
X036688Y037559D01*
X036318Y037559D02*
X025967Y037559D01*
X025967Y037461D02*
X046380Y037461D01*
X046478Y037362D02*
X025967Y037362D01*
X025967Y037264D02*
X046577Y037264D01*
X046675Y037165D02*
X036738Y037165D01*
X036823Y037067D02*
X046774Y037067D01*
X046825Y036968D02*
X046872Y036968D01*
X046923Y036870D02*
X046971Y036870D01*
X047022Y036771D02*
X047069Y036771D01*
X047120Y036673D02*
X047168Y036673D01*
X047423Y036870D02*
X047471Y036870D01*
X047522Y036771D02*
X047569Y036771D01*
X047620Y036673D02*
X047668Y036673D01*
X047719Y036574D02*
X047766Y036574D01*
X047817Y036476D02*
X047865Y036476D01*
X047916Y036377D02*
X047963Y036377D01*
X048014Y036279D02*
X048062Y036279D01*
X048113Y036180D02*
X048160Y036180D01*
X048211Y036082D02*
X049759Y036082D01*
X049857Y035983D02*
X048310Y035983D01*
X047448Y035392D02*
X025967Y035392D01*
X025967Y035294D02*
X047547Y035294D01*
X047645Y035195D02*
X036703Y035195D01*
X036806Y035097D02*
X047744Y035097D01*
X047795Y034998D02*
X047842Y034998D01*
X047893Y034900D02*
X047941Y034900D01*
X047992Y034801D02*
X048039Y034801D01*
X048090Y034703D02*
X048138Y034703D01*
X048189Y034604D02*
X048236Y034604D01*
X048287Y034506D02*
X048335Y034506D01*
X048386Y034407D02*
X048433Y034407D01*
X048484Y034309D02*
X048532Y034309D01*
X048583Y034210D02*
X048630Y034210D01*
X048681Y034112D02*
X048729Y034112D01*
X048780Y034013D02*
X048827Y034013D01*
X047736Y034604D02*
X036747Y034604D01*
X036827Y034703D02*
X047638Y034703D01*
X047350Y035491D02*
X025967Y035491D01*
X025967Y035589D02*
X036274Y035589D01*
X036185Y035688D02*
X025967Y035688D01*
X025967Y035786D02*
X036144Y035786D01*
X036732Y035589D02*
X047251Y035589D01*
X047153Y035688D02*
X036821Y035688D01*
X036191Y036673D02*
X025967Y036673D01*
X025967Y036771D02*
X036150Y036771D01*
X036135Y036870D02*
X025967Y036870D01*
X025967Y036968D02*
X036142Y036968D01*
X036182Y037067D02*
X025967Y037067D01*
X025967Y037165D02*
X036268Y037165D01*
X036503Y036880D02*
X046687Y036880D01*
X047029Y037264D02*
X047077Y037264D01*
X047128Y037165D02*
X047175Y037165D01*
X047226Y037067D02*
X047274Y037067D01*
X047325Y036968D02*
X047372Y036968D01*
X046978Y037362D02*
X046931Y037362D01*
X046150Y038643D02*
X051607Y038643D01*
X051607Y038741D02*
X046052Y038741D01*
X045953Y038840D02*
X051607Y038840D01*
X051678Y038938D02*
X045855Y038938D01*
X045756Y039037D02*
X051777Y039037D01*
X051875Y039135D02*
X036768Y039135D01*
X036610Y039234D02*
X051974Y039234D01*
X052267Y039300D02*
X052767Y039300D01*
X053111Y039037D02*
X053277Y039037D01*
X053178Y038938D02*
X053013Y038938D01*
X052805Y038643D02*
X052728Y038643D01*
X052728Y038544D02*
X052805Y038544D01*
X052805Y038446D02*
X052728Y038446D01*
X052728Y038347D02*
X052805Y038347D01*
X052805Y038249D02*
X052728Y038249D01*
X052728Y038150D02*
X052805Y038150D01*
X052805Y038052D02*
X052728Y038052D01*
X052728Y037953D02*
X052805Y037953D01*
X053767Y038300D02*
X054267Y038800D01*
X054267Y039800D01*
X054767Y040300D01*
X055267Y040300D01*
X055767Y039800D01*
X055767Y037800D01*
X055267Y037300D01*
X055267Y036674D01*
X055267Y035926D02*
X055267Y034300D01*
X055054Y034087D01*
X052957Y034087D01*
X052957Y033772D02*
X063739Y033772D01*
X065847Y035880D01*
X066030Y035880D01*
X065802Y035589D02*
X065782Y035589D01*
X065526Y035786D02*
X063136Y035786D01*
X063239Y035688D02*
X065428Y035688D01*
X065329Y035589D02*
X063304Y035589D01*
X063346Y035491D02*
X065231Y035491D01*
X065132Y035392D02*
X063370Y035392D01*
X063368Y035195D02*
X064935Y035195D01*
X064837Y035097D02*
X063342Y035097D01*
X063297Y034998D02*
X064738Y034998D01*
X064640Y034900D02*
X063229Y034900D01*
X063118Y034801D02*
X064541Y034801D01*
X064443Y034703D02*
X062894Y034703D01*
X062797Y034703D02*
X062737Y034703D01*
X062640Y034703D02*
X055427Y034703D01*
X055427Y034801D02*
X062416Y034801D01*
X062304Y034900D02*
X055427Y034900D01*
X055427Y034998D02*
X062236Y034998D01*
X062191Y035097D02*
X055427Y035097D01*
X055427Y035195D02*
X062166Y035195D01*
X062737Y035195D02*
X062797Y035195D01*
X062797Y035097D02*
X062737Y035097D01*
X062737Y034998D02*
X062797Y034998D01*
X062797Y034900D02*
X062737Y034900D01*
X062737Y034801D02*
X062797Y034801D01*
X062797Y035294D02*
X065034Y035294D01*
X064994Y034801D02*
X065665Y034801D01*
X065627Y034703D02*
X064895Y034703D01*
X064797Y034604D02*
X065528Y034604D01*
X065430Y034506D02*
X064698Y034506D01*
X064600Y034407D02*
X065331Y034407D01*
X065233Y034309D02*
X064501Y034309D01*
X064403Y034210D02*
X065134Y034210D01*
X065036Y034112D02*
X064304Y034112D01*
X064206Y034013D02*
X064937Y034013D01*
X064839Y033915D02*
X064107Y033915D01*
X064009Y033816D02*
X064740Y033816D01*
X064642Y033718D02*
X063910Y033718D01*
X063812Y033619D02*
X064543Y033619D01*
X064799Y033422D02*
X065346Y033422D01*
X065248Y033324D02*
X064700Y033324D01*
X064897Y033521D02*
X065445Y033521D01*
X065543Y033619D02*
X064996Y033619D01*
X065094Y033718D02*
X065642Y033718D01*
X065663Y033816D02*
X065193Y033816D01*
X065291Y033915D02*
X065663Y033915D01*
X065688Y034013D02*
X065390Y034013D01*
X065488Y034112D02*
X065742Y034112D01*
X065867Y034210D02*
X065587Y034210D01*
X065685Y034309D02*
X069925Y034309D01*
X069926Y034292D02*
X069861Y034227D01*
X069861Y033625D01*
X069926Y033560D01*
X070037Y033560D01*
X070037Y032013D01*
X069997Y031973D01*
X069997Y031667D01*
X070213Y031450D01*
X070520Y031450D01*
X070737Y031667D01*
X070737Y031973D01*
X070520Y032190D01*
X070497Y032190D01*
X070497Y033560D01*
X070608Y033560D01*
X070672Y033625D01*
X070672Y034227D01*
X070608Y034292D01*
X069926Y034292D01*
X069861Y034210D02*
X066194Y034210D01*
X066319Y034112D02*
X069861Y034112D01*
X069861Y034013D02*
X066373Y034013D01*
X066398Y033915D02*
X069861Y033915D01*
X069861Y033816D02*
X066398Y033816D01*
X066361Y033718D02*
X069861Y033718D01*
X069867Y033619D02*
X066289Y033619D01*
X066123Y033521D02*
X070037Y033521D01*
X070037Y033422D02*
X065799Y033422D01*
X065897Y033521D02*
X065938Y033521D01*
X065903Y033225D02*
X065602Y033225D01*
X065700Y033324D02*
X070037Y033324D01*
X070037Y033225D02*
X066158Y033225D01*
X066304Y033127D02*
X070037Y033127D01*
X070037Y033028D02*
X066367Y033028D01*
X066398Y032930D02*
X070037Y032930D01*
X070037Y032831D02*
X066398Y032831D01*
X066367Y032733D02*
X070037Y032733D01*
X070037Y032634D02*
X066304Y032634D01*
X066159Y032536D02*
X070037Y032536D01*
X070037Y032437D02*
X065814Y032437D01*
X065798Y032339D02*
X070037Y032339D01*
X070037Y032240D02*
X066122Y032240D01*
X065939Y032240D02*
X065897Y032240D01*
X065713Y032198D02*
X066030Y031880D01*
X065688Y031748D02*
X065545Y031748D01*
X065447Y031846D02*
X065663Y031846D01*
X065663Y031945D02*
X065348Y031945D01*
X065644Y031649D02*
X065742Y031649D01*
X065742Y031551D02*
X065866Y031551D01*
X065841Y031452D02*
X067548Y031452D01*
X067519Y031481D02*
X067583Y031416D01*
X067950Y031416D01*
X068014Y031481D01*
X068014Y031660D01*
X069003Y031660D01*
X069213Y031450D01*
X069520Y031450D01*
X069737Y031667D01*
X069737Y031973D01*
X069520Y032190D01*
X069213Y032190D01*
X069003Y031980D01*
X067856Y031980D01*
X067788Y031912D01*
X067583Y031912D01*
X067519Y031848D01*
X067519Y031481D01*
X067519Y031551D02*
X066195Y031551D01*
X066319Y031649D02*
X067519Y031649D01*
X067519Y031748D02*
X066373Y031748D01*
X066398Y031846D02*
X067519Y031846D01*
X067767Y031664D02*
X067922Y031820D01*
X069367Y031820D01*
X069620Y031551D02*
X070113Y031551D01*
X070014Y031649D02*
X069719Y031649D01*
X069737Y031748D02*
X069997Y031748D01*
X069997Y031846D02*
X069737Y031846D01*
X069737Y031945D02*
X069997Y031945D01*
X070037Y032043D02*
X069667Y032043D01*
X069568Y032142D02*
X070037Y032142D01*
X070497Y032240D02*
X072459Y032240D01*
X072459Y032339D02*
X070497Y032339D01*
X070497Y032437D02*
X072490Y032437D01*
X072566Y032536D02*
X070497Y032536D01*
X070497Y032634D02*
X073537Y032634D01*
X073537Y032536D02*
X072967Y032536D01*
X073537Y032733D02*
X070497Y032733D01*
X070497Y032831D02*
X073537Y032831D01*
X073537Y032930D02*
X070497Y032930D01*
X070497Y033028D02*
X073537Y033028D01*
X073537Y033127D02*
X070497Y033127D01*
X070497Y033225D02*
X073516Y033225D01*
X073418Y033324D02*
X070497Y033324D01*
X070497Y033422D02*
X073319Y033422D01*
X073221Y033521D02*
X070497Y033521D01*
X070666Y033619D02*
X073122Y033619D01*
X073024Y033718D02*
X070672Y033718D01*
X070672Y033816D02*
X072925Y033816D01*
X072827Y033915D02*
X070672Y033915D01*
X070672Y034013D02*
X072728Y034013D01*
X072630Y034112D02*
X070672Y034112D01*
X070672Y034210D02*
X072531Y034210D01*
X072433Y034309D02*
X070608Y034309D01*
X070672Y034407D02*
X072334Y034407D01*
X070037Y035097D02*
X066334Y035097D01*
X066379Y034998D02*
X069884Y034998D01*
X069861Y034900D02*
X066398Y034900D01*
X066395Y034801D02*
X069861Y034801D01*
X069861Y034703D02*
X066355Y034703D01*
X066274Y034604D02*
X069861Y034604D01*
X069861Y034506D02*
X065882Y034506D01*
X065784Y034407D02*
X069861Y034407D01*
X070037Y035195D02*
X066230Y035195D01*
X065625Y035885D02*
X062942Y035885D01*
X062398Y035786D02*
X061115Y035786D01*
X061354Y036476D02*
X064216Y036476D01*
X064314Y036574D02*
X061313Y036574D01*
X061257Y036673D02*
X064413Y036673D01*
X064511Y036771D02*
X063084Y036771D01*
X063199Y036870D02*
X064610Y036870D01*
X064708Y036968D02*
X063289Y036968D01*
X063330Y037067D02*
X065710Y037067D01*
X065796Y037165D02*
X063371Y037165D01*
X063377Y037264D02*
X070017Y037264D01*
X070017Y037362D02*
X063377Y037362D01*
X063360Y037461D02*
X070017Y037461D01*
X070017Y037559D02*
X066216Y037559D01*
X066328Y037658D02*
X070017Y037658D01*
X070017Y037756D02*
X066377Y037756D01*
X066357Y038052D02*
X070017Y038052D01*
X070017Y038150D02*
X066280Y038150D01*
X066302Y038359D02*
X066330Y038366D01*
X066355Y038381D01*
X066376Y038401D01*
X066390Y038427D01*
X066398Y038454D01*
X066398Y038698D01*
X066059Y038698D01*
X066059Y038755D01*
X066002Y038755D01*
X066002Y039094D01*
X065758Y039094D01*
X065731Y039086D01*
X065705Y039072D01*
X065685Y039051D01*
X065670Y039026D01*
X065663Y038998D01*
X065663Y038755D01*
X066002Y038755D01*
X066002Y038698D01*
X065663Y038698D01*
X065663Y038454D01*
X065670Y038427D01*
X065685Y038401D01*
X065705Y038381D01*
X065731Y038366D01*
X065758Y038359D01*
X066002Y038359D01*
X066002Y038698D01*
X066059Y038698D01*
X066059Y038359D01*
X066302Y038359D01*
X066396Y038446D02*
X070017Y038446D01*
X070017Y038544D02*
X069414Y038544D01*
X069400Y038530D02*
X069617Y038747D01*
X069617Y038870D01*
X069277Y038870D01*
X069277Y038930D01*
X069617Y038930D01*
X069617Y039053D01*
X069400Y039270D01*
X069277Y039270D01*
X069277Y038930D01*
X069217Y038930D01*
X069217Y039270D01*
X069093Y039270D01*
X068877Y039053D01*
X068877Y038930D01*
X069217Y038930D01*
X069217Y038870D01*
X069277Y038870D01*
X069277Y038530D01*
X069400Y038530D01*
X069277Y038544D02*
X069217Y038544D01*
X069217Y038530D02*
X069217Y038870D01*
X068877Y038870D01*
X068877Y038747D01*
X069093Y038530D01*
X069217Y038530D01*
X069217Y038643D02*
X069277Y038643D01*
X069277Y038741D02*
X069217Y038741D01*
X069217Y038840D02*
X069277Y038840D01*
X069277Y038938D02*
X069217Y038938D01*
X069217Y039037D02*
X069277Y039037D01*
X069277Y039135D02*
X069217Y039135D01*
X069217Y039234D02*
X069277Y039234D01*
X069436Y039234D02*
X070057Y039234D01*
X069958Y039135D02*
X069535Y039135D01*
X069617Y039037D02*
X069877Y039037D01*
X069877Y038938D02*
X069617Y038938D01*
X069617Y038840D02*
X069877Y038840D01*
X069882Y038741D02*
X069611Y038741D01*
X069512Y038643D02*
X069981Y038643D01*
X070017Y038347D02*
X065045Y038347D01*
X065143Y038249D02*
X070017Y038249D01*
X069079Y038544D02*
X066398Y038544D01*
X066398Y038643D02*
X068981Y038643D01*
X068882Y038741D02*
X066059Y038741D01*
X066059Y038755D02*
X066398Y038755D01*
X066398Y038998D01*
X066390Y039026D01*
X066376Y039051D01*
X066355Y039072D01*
X066330Y039086D01*
X066302Y039094D01*
X066059Y039094D01*
X066059Y038755D01*
X066002Y038741D02*
X064651Y038741D01*
X064749Y038643D02*
X065663Y038643D01*
X065663Y038544D02*
X064848Y038544D01*
X064946Y038446D02*
X065665Y038446D01*
X065781Y038150D02*
X065242Y038150D01*
X064887Y037855D02*
X063022Y037855D01*
X062997Y037953D02*
X064788Y037953D01*
X064690Y038052D02*
X062997Y038052D01*
X062997Y038150D02*
X064591Y038150D01*
X064493Y038249D02*
X062997Y038249D01*
X062997Y038347D02*
X064394Y038347D01*
X064296Y038446D02*
X062946Y038446D01*
X062848Y038544D02*
X064197Y038544D01*
X064099Y038643D02*
X062749Y038643D01*
X062651Y038741D02*
X064000Y038741D01*
X063902Y038840D02*
X062623Y038840D01*
X062737Y038938D02*
X062796Y038938D01*
X062775Y039037D02*
X062759Y039037D01*
X062759Y039135D02*
X062775Y039135D01*
X062775Y039234D02*
X062759Y039234D01*
X062759Y039332D02*
X062775Y039332D01*
X062775Y039431D02*
X062759Y039431D01*
X062759Y039529D02*
X062775Y039529D01*
X062775Y039628D02*
X062759Y039628D01*
X063507Y039037D02*
X063705Y039037D01*
X063803Y038938D02*
X063485Y038938D01*
X064158Y039234D02*
X069057Y039234D01*
X068958Y039135D02*
X064257Y039135D01*
X064355Y039037D02*
X065676Y039037D01*
X065663Y038938D02*
X064454Y038938D01*
X064552Y038840D02*
X065663Y038840D01*
X066002Y038840D02*
X066059Y038840D01*
X066059Y038938D02*
X066002Y038938D01*
X066002Y039037D02*
X066059Y039037D01*
X066385Y039037D02*
X068877Y039037D01*
X068877Y038938D02*
X066398Y038938D01*
X066398Y038840D02*
X068877Y038840D01*
X066059Y038643D02*
X066002Y038643D01*
X066002Y038544D02*
X066059Y038544D01*
X066059Y038446D02*
X066002Y038446D01*
X065845Y037559D02*
X063320Y037559D01*
X063272Y037658D02*
X065084Y037658D01*
X064985Y037756D02*
X063173Y037756D01*
X064847Y036880D02*
X066030Y036880D01*
X066398Y036870D02*
X069861Y036870D01*
X069861Y036968D02*
X066392Y036968D01*
X066351Y037067D02*
X070017Y037067D01*
X070017Y037165D02*
X066265Y037165D01*
X066383Y036771D02*
X069861Y036771D01*
X069861Y036673D02*
X066342Y036673D01*
X065811Y036180D02*
X064373Y036180D01*
X064471Y036279D02*
X069912Y036279D01*
X069861Y036377D02*
X064570Y036377D01*
X064344Y034604D02*
X055427Y034604D01*
X055427Y034506D02*
X064246Y034506D01*
X064147Y034407D02*
X055427Y034407D01*
X055427Y034309D02*
X064049Y034309D01*
X063950Y034210D02*
X055403Y034210D01*
X055304Y034112D02*
X063852Y034112D01*
X063753Y034013D02*
X055206Y034013D01*
X053869Y034402D02*
X052957Y034402D01*
X052216Y034604D02*
X052208Y034604D01*
X051901Y034604D02*
X051893Y034604D01*
X051586Y034604D02*
X051578Y034604D01*
X051271Y034604D02*
X051261Y034604D01*
X051109Y034604D02*
X051109Y034604D01*
X051109Y034703D02*
X051109Y034703D01*
X051109Y034801D02*
X051109Y034801D01*
X051109Y034900D02*
X051109Y034900D01*
X051109Y034998D02*
X051109Y034998D01*
X051109Y035097D02*
X051109Y035097D01*
X051109Y035195D02*
X051109Y035195D01*
X051109Y035294D02*
X051109Y035294D01*
X051109Y035392D02*
X051109Y035392D01*
X050994Y035392D02*
X050932Y035392D01*
X050657Y035392D02*
X050639Y035392D01*
X050319Y035491D02*
X050302Y035491D01*
X050251Y035589D02*
X050204Y035589D01*
X050153Y035688D02*
X050105Y035688D01*
X050054Y035786D02*
X050007Y035786D01*
X049956Y035885D02*
X049908Y035885D01*
X051267Y035800D02*
X052141Y035800D01*
X052267Y035926D01*
X051861Y035983D02*
X051519Y035983D01*
X051392Y036082D02*
X051861Y036082D01*
X051897Y035589D02*
X051491Y035589D01*
X051562Y035392D02*
X051602Y035392D01*
X051877Y035392D02*
X051917Y035392D01*
X052191Y035392D02*
X052232Y035392D01*
X052636Y035589D02*
X052897Y035589D01*
X052861Y035688D02*
X052672Y035688D01*
X052672Y035786D02*
X052861Y035786D01*
X051287Y035392D02*
X051224Y035392D01*
X050958Y034604D02*
X050948Y034604D01*
X050641Y034604D02*
X050633Y034604D01*
X050326Y034604D02*
X050318Y034604D01*
X053362Y033225D02*
X065149Y033225D01*
X065051Y033127D02*
X053362Y033127D01*
X053362Y033028D02*
X064952Y033028D01*
X064978Y032828D02*
X066030Y033880D01*
X065757Y033127D02*
X065503Y033127D01*
X065405Y033028D02*
X065694Y033028D01*
X065663Y032930D02*
X065306Y032930D01*
X065208Y032831D02*
X065663Y032831D01*
X065657Y032733D02*
X065109Y032733D01*
X064978Y032828D02*
X052957Y032828D01*
X052957Y032513D02*
X065663Y032513D01*
X066030Y032880D01*
X065713Y032198D02*
X052957Y032198D01*
X051894Y030960D02*
X051672Y030960D01*
X051672Y030861D02*
X051979Y030861D01*
X052078Y030763D02*
X051672Y030763D01*
X051672Y030664D02*
X052176Y030664D01*
X051317Y030270D02*
X051217Y030270D01*
X051217Y030172D02*
X051317Y030172D01*
X051317Y030073D02*
X051217Y030073D01*
X050806Y030566D02*
X050672Y030566D01*
X050672Y030467D02*
X050707Y030467D01*
X050700Y030460D02*
X050700Y030460D01*
X050607Y030317D02*
X050607Y030292D01*
X050127Y030292D01*
X050111Y030308D01*
X050217Y030308D01*
X050217Y030624D01*
X050317Y030624D01*
X050317Y030308D01*
X050576Y030308D01*
X050604Y030316D01*
X050607Y030317D01*
X050317Y030369D02*
X050217Y030369D01*
X050217Y030467D02*
X050317Y030467D01*
X050317Y030566D02*
X050217Y030566D01*
X050317Y030664D02*
X050861Y030664D01*
X050861Y030763D02*
X050672Y030763D01*
X050317Y030763D02*
X050217Y030763D01*
X050217Y030861D02*
X050317Y030861D01*
X050317Y030960D02*
X050217Y030960D01*
X049980Y031255D02*
X049948Y031255D01*
X049059Y030861D02*
X048672Y030861D01*
X048672Y030876D02*
X048672Y030656D01*
X048664Y030628D01*
X048650Y030603D01*
X048629Y030582D01*
X048604Y030568D01*
X048576Y030560D01*
X048317Y030560D01*
X048317Y030876D01*
X048672Y030876D01*
X048672Y030763D02*
X049059Y030763D01*
X049059Y030664D02*
X048672Y030664D01*
X048597Y030566D02*
X049059Y030566D01*
X048317Y030566D02*
X048217Y030566D01*
X048217Y030664D02*
X048317Y030664D01*
X048317Y030763D02*
X048217Y030763D01*
X048217Y030861D02*
X048317Y030861D01*
X048317Y031157D02*
X048217Y031157D01*
X048217Y031255D02*
X048317Y031255D01*
X046162Y033422D02*
X025967Y033422D01*
X025967Y033324D02*
X046064Y033324D01*
X054028Y037953D02*
X054506Y037953D01*
X054407Y038052D02*
X054126Y038052D01*
X054170Y038150D02*
X054363Y038150D01*
X054337Y038249D02*
X054197Y038249D01*
X054197Y038347D02*
X054337Y038347D01*
X054362Y038446D02*
X054172Y038446D01*
X054237Y038544D02*
X054403Y038544D01*
X054335Y038643D02*
X054501Y038643D01*
X054427Y038741D02*
X055099Y038741D01*
X055107Y038643D02*
X055032Y038643D01*
X055001Y038840D02*
X054427Y038840D01*
X054427Y038938D02*
X054521Y038938D01*
X054486Y039628D02*
X054427Y039628D01*
X054427Y039726D02*
X054672Y039726D01*
X054517Y039825D02*
X055516Y039825D01*
X055607Y039726D02*
X054862Y039726D01*
X055047Y039628D02*
X055607Y039628D01*
X055607Y039529D02*
X055137Y039529D01*
X055178Y039431D02*
X055607Y039431D01*
X055607Y039332D02*
X055197Y039332D01*
X055197Y039234D02*
X055607Y039234D01*
X055927Y039825D02*
X078967Y039825D01*
X078967Y039923D02*
X055870Y039923D01*
X055771Y040022D02*
X078967Y040022D01*
X078967Y040120D02*
X055673Y040120D01*
X055574Y040219D02*
X078967Y040219D01*
X078942Y040317D02*
X055476Y040317D01*
X055377Y040416D02*
X078802Y040416D01*
X078662Y040514D02*
X026116Y040514D01*
X026184Y040613D02*
X078522Y040613D01*
X078381Y040711D02*
X026253Y040711D01*
X026322Y040810D02*
X078241Y040810D01*
X078101Y040908D02*
X026390Y040908D01*
X026459Y041007D02*
X077960Y041007D01*
X077820Y041105D02*
X026528Y041105D01*
X026596Y041204D02*
X077680Y041204D01*
X077540Y041302D02*
X026665Y041302D01*
X026734Y041401D02*
X027144Y041401D01*
X026985Y041499D02*
X026802Y041499D01*
X026871Y041598D02*
X026887Y041598D01*
X027789Y041401D02*
X074744Y041401D01*
X074641Y041443D02*
X074917Y041329D01*
X075216Y041329D01*
X075492Y041443D01*
X075703Y041654D01*
X075818Y041931D01*
X075818Y042229D01*
X075703Y042506D01*
X075492Y042717D01*
X075216Y042831D01*
X074917Y042831D01*
X074641Y042717D01*
X074430Y042506D01*
X074315Y042229D01*
X074315Y041931D01*
X074430Y041654D01*
X074641Y041443D01*
X074585Y041499D02*
X027948Y041499D01*
X028047Y041598D02*
X074487Y041598D01*
X074413Y041696D02*
X028121Y041696D01*
X028161Y041795D02*
X074372Y041795D01*
X074331Y041893D02*
X028202Y041893D01*
X028218Y041992D02*
X074315Y041992D01*
X074315Y042090D02*
X028218Y042090D01*
X028218Y042189D02*
X074315Y042189D01*
X074339Y042287D02*
X028194Y042287D01*
X028153Y042386D02*
X074380Y042386D01*
X074421Y042484D02*
X028112Y042484D01*
X028026Y042583D02*
X074507Y042583D01*
X074605Y042681D02*
X027928Y042681D01*
X027741Y042780D02*
X074793Y042780D01*
X075014Y043075D02*
X027901Y043075D01*
X027969Y043174D02*
X074874Y043174D01*
X074734Y043272D02*
X028038Y043272D01*
X028107Y043371D02*
X074593Y043371D01*
X074453Y043469D02*
X028175Y043469D01*
X028244Y043568D02*
X074313Y043568D01*
X075155Y042977D02*
X027832Y042977D01*
X027763Y042878D02*
X075295Y042878D01*
X075341Y042780D02*
X075435Y042780D01*
X075528Y042681D02*
X075575Y042681D01*
X075626Y042583D02*
X075716Y042583D01*
X075712Y042484D02*
X075856Y042484D01*
X075753Y042386D02*
X075996Y042386D01*
X076137Y042287D02*
X075794Y042287D01*
X075818Y042189D02*
X076277Y042189D01*
X076417Y042090D02*
X075818Y042090D01*
X075818Y041992D02*
X076558Y041992D01*
X076698Y041893D02*
X075802Y041893D01*
X075761Y041795D02*
X076838Y041795D01*
X076978Y041696D02*
X075721Y041696D01*
X075647Y041598D02*
X077119Y041598D01*
X077259Y041499D02*
X075548Y041499D01*
X075389Y041401D02*
X077399Y041401D01*
X070267Y036674D02*
X070247Y036694D01*
X077367Y032634D02*
X078967Y032634D01*
X078967Y032536D02*
X077460Y032536D01*
X077501Y032437D02*
X078967Y032437D01*
X078967Y032339D02*
X077522Y032339D01*
X077522Y032240D02*
X078967Y032240D01*
X078967Y032142D02*
X077492Y032142D01*
X077444Y032043D02*
X078967Y032043D01*
X078967Y031945D02*
X077345Y031945D01*
X077345Y031649D02*
X078967Y031649D01*
X078967Y031551D02*
X077442Y031551D01*
X077495Y031452D02*
X078967Y031452D01*
X078967Y031354D02*
X077519Y031354D01*
X076817Y031354D02*
X076717Y031354D01*
X076717Y031452D02*
X076817Y031452D01*
X076817Y031551D02*
X076717Y031551D01*
X076717Y031649D02*
X076817Y031649D01*
X076817Y031058D02*
X076717Y031058D01*
X076717Y030960D02*
X076817Y030960D01*
X076177Y030960D02*
X073997Y030960D01*
X073997Y031058D02*
X076085Y031058D01*
X076036Y031157D02*
X073997Y031157D01*
X073997Y030861D02*
X078967Y030861D01*
X078967Y030763D02*
X073997Y030763D01*
X073997Y030664D02*
X076197Y030664D01*
X076098Y030566D02*
X073997Y030566D01*
X073997Y030467D02*
X074608Y030467D01*
X074510Y030369D02*
X073997Y030369D01*
X073997Y030270D02*
X074411Y030270D01*
X074313Y030172D02*
X073997Y030172D01*
X073997Y030073D02*
X074214Y030073D01*
X074116Y029975D02*
X073997Y029975D01*
X073997Y029876D02*
X074017Y029876D01*
X071692Y031452D02*
X070522Y031452D01*
X070620Y031551D02*
X071791Y031551D01*
X071889Y031649D02*
X070719Y031649D01*
X070737Y031748D02*
X071988Y031748D01*
X072086Y031846D02*
X070737Y031846D01*
X070737Y031945D02*
X072185Y031945D01*
X072283Y032043D02*
X070667Y032043D01*
X070568Y032142D02*
X072382Y032142D01*
X071594Y031354D02*
X065939Y031354D01*
X066038Y031255D02*
X071495Y031255D01*
X071397Y031157D02*
X068233Y031157D01*
X068228Y031162D02*
X068203Y031176D01*
X068175Y031184D01*
X068041Y031184D01*
X068041Y030955D01*
X068004Y030955D01*
X068004Y031184D01*
X067870Y031184D01*
X067842Y031176D01*
X067817Y031162D01*
X067797Y031141D01*
X067782Y031116D01*
X067775Y031088D01*
X067775Y030955D01*
X068004Y030955D01*
X068004Y030917D01*
X068041Y030917D01*
X068041Y030688D01*
X068175Y030688D01*
X068203Y030696D01*
X068228Y030710D01*
X068248Y030730D01*
X068263Y030756D01*
X068270Y030784D01*
X068270Y030917D01*
X068041Y030917D01*
X068041Y030955D01*
X068270Y030955D01*
X068270Y031088D01*
X068263Y031116D01*
X068248Y031141D01*
X068228Y031162D01*
X068270Y031058D02*
X071298Y031058D01*
X071200Y030960D02*
X068270Y030960D01*
X068270Y030861D02*
X071101Y030861D01*
X071003Y030763D02*
X068265Y030763D01*
X068041Y030763D02*
X068004Y030763D01*
X068004Y030688D02*
X068004Y030917D01*
X067775Y030917D01*
X067775Y030784D01*
X067782Y030756D01*
X067797Y030730D01*
X067817Y030710D01*
X067842Y030696D01*
X067870Y030688D01*
X068004Y030688D01*
X068004Y030861D02*
X068041Y030861D01*
X068041Y030960D02*
X068004Y030960D01*
X068004Y031058D02*
X068041Y031058D01*
X068041Y031157D02*
X068004Y031157D01*
X067812Y031157D02*
X067721Y031157D01*
X067759Y031058D02*
X067775Y031058D01*
X067775Y030960D02*
X067759Y030960D01*
X067759Y030861D02*
X067775Y030861D01*
X067780Y030763D02*
X067759Y030763D01*
X067671Y030664D02*
X070904Y030664D01*
X070806Y030566D02*
X067671Y030566D01*
X067511Y030430D02*
X067511Y030936D01*
X067300Y031157D02*
X066136Y031157D01*
X066398Y031945D02*
X067821Y031945D01*
X068014Y031649D02*
X069014Y031649D01*
X069113Y031551D02*
X068014Y031551D01*
X067986Y031452D02*
X069211Y031452D01*
X069522Y031452D02*
X070211Y031452D01*
X070707Y030467D02*
X068172Y030467D01*
X068172Y030369D02*
X070609Y030369D01*
X070510Y030270D02*
X068172Y030270D01*
X068172Y030172D02*
X070412Y030172D01*
X070313Y030073D02*
X068172Y030073D01*
X068172Y029975D02*
X070215Y029975D01*
X070116Y029876D02*
X068172Y029876D01*
X068116Y029778D02*
X070018Y029778D01*
X069919Y029679D02*
X068172Y029679D01*
X068172Y029581D02*
X069821Y029581D01*
X067817Y029581D02*
X067717Y029581D01*
X067717Y029679D02*
X067817Y029679D01*
X067817Y029778D02*
X067717Y029778D01*
X067767Y030174D02*
X067511Y030430D01*
X067717Y029285D02*
X067817Y029285D01*
X067817Y029187D02*
X067717Y029187D01*
X067717Y029088D02*
X067817Y029088D01*
X069066Y032043D02*
X066361Y032043D01*
X066289Y032142D02*
X069165Y032142D01*
X075886Y025837D02*
X051554Y025837D01*
X051653Y025739D02*
X075816Y025739D01*
X075985Y025936D02*
X051456Y025936D01*
X051357Y026034D02*
X076090Y026034D01*
X076327Y026133D02*
X051259Y026133D01*
X036410Y033521D02*
X025967Y033521D01*
X025967Y033619D02*
X036244Y033619D01*
X036172Y033718D02*
X025967Y033718D01*
X025967Y033816D02*
X036135Y033816D01*
X036135Y033915D02*
X025967Y033915D01*
X025967Y034013D02*
X036160Y034013D01*
X036215Y034112D02*
X025967Y034112D01*
X025967Y034210D02*
X036339Y034210D01*
X036206Y037658D02*
X025967Y037658D01*
X025967Y037756D02*
X036156Y037756D01*
X036135Y037807D02*
X036135Y037953D01*
X036176Y038052D02*
X025967Y038052D01*
X025967Y038150D02*
X036253Y038150D01*
X036503Y038880D02*
X045687Y038880D01*
X053862Y039726D02*
X054107Y039726D01*
X054107Y039628D02*
X054047Y039628D01*
X054107Y039825D02*
X025967Y039825D01*
X025967Y039923D02*
X054163Y039923D01*
X054262Y040022D02*
X025967Y040022D01*
X025967Y040120D02*
X054360Y040120D01*
X054459Y040219D02*
X025967Y040219D01*
X025979Y040317D02*
X054557Y040317D01*
X054656Y040416D02*
X026047Y040416D01*
X054616Y039923D02*
X055417Y039923D01*
X055319Y040022D02*
X054714Y040022D01*
X054813Y040120D02*
X055220Y040120D01*
X055107Y037953D02*
X055028Y037953D01*
X076806Y026133D02*
X076908Y026133D01*
X077997Y024261D02*
X078967Y024261D01*
X078967Y024163D02*
X077997Y024163D01*
X077997Y024064D02*
X078967Y024064D01*
X078967Y023966D02*
X077997Y023966D01*
X077997Y023867D02*
X078967Y023867D01*
X078967Y023769D02*
X077997Y023769D01*
X077997Y023670D02*
X078967Y023670D01*
X078967Y023572D02*
X077997Y023572D01*
X077997Y023473D02*
X078967Y023473D01*
X078967Y023375D02*
X077997Y023375D01*
X077997Y023276D02*
X078967Y023276D01*
X078967Y023178D02*
X077997Y023178D01*
X077997Y023079D02*
X078967Y023079D01*
X078967Y022981D02*
X077997Y022981D01*
X077997Y022882D02*
X078967Y022882D01*
X078967Y022784D02*
X077997Y022784D01*
X077997Y022685D02*
X078967Y022685D01*
X078967Y022587D02*
X077997Y022587D01*
X077997Y022488D02*
X078967Y022488D01*
X078967Y022390D02*
X077997Y022390D01*
X077997Y022291D02*
X078967Y022291D01*
X078967Y022193D02*
X077997Y022193D01*
X077997Y022094D02*
X078967Y022094D01*
X078967Y021996D02*
X077997Y021996D01*
X077997Y021897D02*
X078967Y021897D01*
X078967Y021799D02*
X077997Y021799D01*
X077997Y021700D02*
X078967Y021700D01*
X078967Y021602D02*
X077997Y021602D01*
X077997Y021503D02*
X078967Y021503D01*
X078967Y021405D02*
X077997Y021405D01*
X077997Y021306D02*
X078967Y021306D01*
X078967Y021208D02*
X077997Y021208D01*
X077997Y021109D02*
X078967Y021109D01*
X078967Y021011D02*
X077997Y021011D01*
X077997Y020912D02*
X078967Y020912D01*
X078967Y020814D02*
X077997Y020814D01*
X077997Y020715D02*
X078967Y020715D01*
X078967Y020617D02*
X077997Y020617D01*
X078129Y020518D02*
X078967Y020518D01*
X078967Y020420D02*
X078172Y020420D01*
X078172Y020321D02*
X078967Y020321D01*
X078967Y020223D02*
X078172Y020223D01*
X078172Y020124D02*
X078967Y020124D01*
X078967Y020026D02*
X078172Y020026D01*
X078172Y019927D02*
X078967Y019927D01*
X078967Y019829D02*
X078128Y019829D01*
X078161Y019730D02*
X078967Y019730D01*
X078967Y019632D02*
X078172Y019632D01*
X076817Y019632D02*
X076717Y019632D01*
X076717Y019730D02*
X076817Y019730D01*
X076817Y019533D02*
X076717Y019533D01*
X074893Y020367D02*
X074893Y020674D01*
X072124Y020617D02*
X069739Y020617D01*
X069739Y020715D02*
X072026Y020715D01*
X071927Y020814D02*
X071834Y020814D01*
X070479Y020814D02*
X069739Y020814D01*
X069739Y020912D02*
X070456Y020912D01*
X070456Y021011D02*
X069739Y021011D01*
X069739Y021109D02*
X070456Y021109D01*
X070456Y021208D02*
X069739Y021208D01*
X069739Y021306D02*
X070456Y021306D01*
X070456Y021405D02*
X069739Y021405D01*
X069739Y021503D02*
X070456Y021503D01*
X070500Y021602D02*
X069703Y021602D01*
X069141Y021111D02*
X068330Y020300D01*
X069739Y019730D02*
X070456Y019730D01*
X070456Y019732D02*
X070456Y019452D01*
X071106Y019452D01*
X071106Y019827D01*
X070551Y019827D01*
X070523Y019820D01*
X070498Y019805D01*
X070478Y019785D01*
X070463Y019760D01*
X070456Y019732D01*
X070456Y019632D02*
X069739Y019632D01*
X069739Y019533D02*
X070456Y019533D01*
X070456Y019336D02*
X069739Y019336D01*
X069739Y019238D02*
X070456Y019238D01*
X070456Y019139D02*
X069739Y019139D01*
X069739Y019041D02*
X070466Y019041D01*
X071106Y019435D02*
X069739Y019435D01*
X071106Y019533D02*
X071206Y019533D01*
X071206Y019632D02*
X071106Y019632D01*
X071106Y019730D02*
X071206Y019730D01*
X068775Y022390D02*
X068759Y022390D01*
X068759Y022488D02*
X068775Y022488D01*
X068775Y022587D02*
X068759Y022587D01*
X068712Y022685D02*
X068819Y022685D01*
D30*
X064267Y025300D03*
X053767Y031800D03*
X050767Y032300D03*
X050767Y033300D03*
X054767Y034800D03*
X051267Y035800D03*
X050767Y026300D03*
X037767Y026300D03*
X072767Y032300D03*
D31*
X063767Y019800D03*
X062267Y019800D03*
X060767Y019800D03*
D32*
X060767Y015300D01*
X061267Y014800D01*
X069267Y014800D01*
X073767Y019300D01*
X075267Y019300D01*
X075641Y019674D01*
X075641Y020367D01*
X074893Y020674D02*
X074334Y021233D01*
X073641Y021233D01*
X073326Y020426D02*
X073326Y019741D01*
X073767Y019300D01*
X073267Y020367D02*
X072700Y020367D01*
X071869Y021198D01*
X071156Y021198D01*
X069141Y021111D02*
X069141Y022300D01*
X069141Y023426D01*
X068267Y024300D01*
X065267Y024300D01*
X064267Y025300D01*
X065267Y024300D02*
X062767Y024300D01*
X062267Y023800D01*
X062267Y019800D01*
X062767Y024300D02*
X052767Y024300D01*
X050767Y026300D01*
X050767Y028800D01*
X037767Y026300D02*
X036767Y026300D01*
X034767Y028300D01*
X034767Y031926D01*
X034767Y032674D02*
X034973Y032880D01*
X036503Y032880D01*
X062393Y038674D02*
X062767Y038300D01*
X062767Y037300D01*
X063767Y039300D02*
X065187Y037880D01*
X066030Y037880D01*
X063767Y039300D02*
X063141Y039300D01*
X062393Y039300D02*
X062393Y038674D01*
X070247Y038900D02*
X070247Y036694D01*
X070267Y035926D02*
X070267Y034674D01*
X072393Y034674D01*
X073767Y033300D01*
X073767Y029300D01*
X073767Y028400D01*
X074167Y028000D01*
X075367Y028000D01*
X077767Y025600D01*
X077767Y020174D01*
X075267Y021233D02*
X075267Y024000D01*
X076567Y025300D01*
X073767Y029300D02*
X074767Y030300D01*
X076767Y030300D01*
X070367Y031820D02*
X070267Y031920D01*
X070267Y033926D01*
M02*
