%
M48
M72
T01C0.0236
T02C0.0315
T03C0.0320
T04C0.0354
T05C0.0394
T06C0.0430
T07C0.0433
T08C0.0551
T09C0.1102
%
T01
X37767Y26300
X50767Y26300
X53767Y31800
X50767Y32300
X50767Y33300
X54767Y34800
X51267Y35800
X72767Y32300
X64267Y25300
T02
X66030Y31880
X66030Y32880
X66030Y33880
X66030Y34880
X66030Y35880
X66030Y36880
X66030Y37880
X66030Y38726
X36503Y38880
X36503Y37880
X36503Y36880
X36503Y35880
X36503Y34880
X36503Y33880
X36503Y32880
X36503Y31880
T03
X60767Y36300
X62767Y35300
X62767Y37300
X69247Y38900
X70247Y38900
X70367Y31820
X69367Y31820
T04
X54767Y38300
X53767Y38300
X52767Y38300
X52767Y39300
X53767Y39300
X54767Y39300
T05
X55381Y21080
X57152Y21080
X54656Y19800
X55381Y18520
X57152Y18520
T06
X76767Y30300
X76767Y31300
X76767Y32300
T07
X49219Y21769
X49219Y19800
X49219Y17831
X43511Y18816
X43511Y20784
T08
X60767Y19800
X62267Y19800
X63767Y19800
T09
X27467Y14520
X46267Y17969
X46267Y21631
X75067Y14520
X76567Y25300
X78967Y25300
X77767Y27200
X75067Y42080
X27467Y42080
M30
